<svg width="27" height="25" viewBox="0 0 27 25" fill="none" xmlns="http://www.w3.org/2000/svg">
<path d="M23.7239 14.5L21.4848 10.8333C21.2925 10.5773 21.023 10.3662 20.7021 10.2202C20.3812 10.0742 20.0198 9.99841 19.6528 10H7.03226C6.6652 9.99841 6.30382 10.0742 5.98295 10.2202C5.66207 10.3662 5.39252 10.5773 5.20025 10.8333L2.96112 14.5L0.437019 16.42C0.334444 16.4979 0.252582 16.5923 0.196544 16.6972C0.140507 16.8022 0.111498 16.9155 0.111328 17.03V24.1667C0.111328 24.3877 0.218559 24.5996 0.40943 24.7559C0.600302 24.9122 0.859179 25 1.12911 25H5.20025C5.60736 25 6.21803 24.6667 6.21803 24.3333V23.3333H20.467V24.1667C20.467 24.5 20.8741 25 21.2812 25H25.5559C25.8259 25 26.0847 24.9122 26.2756 24.7559C26.4665 24.5996 26.5737 24.3877 26.5737 24.1667V17.03C26.5736 16.9155 26.5445 16.8022 26.4885 16.6972C26.4325 16.5923 26.3506 16.4979 26.248 16.42L23.7239 14.5ZM7.23582 11.6667H19.4492L21.4848 15H5.20025L7.23582 11.6667ZM8.2536 19.3333C8.2536 19.6667 7.64293 20 7.23582 20H2.96112C2.55401 20 2.1469 19.5 2.1469 19.1667V17.3333C2.35045 16.8333 2.75757 16.5 3.36824 16.6667L7.43938 17.3333C7.84649 17.3333 8.2536 17.8333 8.2536 18.1667V19.3333ZM24.5382 19.1667C24.5382 19.5 24.131 20 23.7239 20H19.4492C19.0421 20 18.4314 19.6667 18.4314 19.3333V18.1667C18.4314 17.8333 18.8386 17.3333 19.2457 17.3333L23.3168 16.6667C23.9275 16.5 24.3346 16.8333 24.5382 17.3333V19.1667ZM14.3603 6.66667H12.3247L10.2892 0H16.3959L14.3603 6.66667ZM0.314885 3L5.60736 0.5L7.84649 7.16667L6.21803 7.83333L0.314885 3ZM21.0777 0.5L26.3702 3L20.467 8L18.635 7.16667L21.0777 0.5Z" fill="#3D6498"/>
</svg>
