<svg width="16" height="16" viewBox="0 0 16 16" fill="none" xmlns="http://www.w3.org/2000/svg">
<path fill-rule="evenodd" clip-rule="evenodd" d="M4.87516 3.41602C4.87516 3.25026 4.94101 3.09128 5.05822 2.97407C5.17543 2.85686 5.3344 2.79102 5.50016 2.79102H10.5002C10.6659 2.79102 10.8249 2.85686 10.9421 2.97407C11.0593 3.09128 11.1252 3.25026 11.1252 3.41602C11.1252 3.58178 11.0593 3.74075 10.9421 3.85796C10.8249 3.97517 10.6659 4.04102 10.5002 4.04102H5.50016C5.3344 4.04102 5.17543 3.97517 5.05822 3.85796C4.94101 3.74075 4.87516 3.58178 4.87516 3.41602ZM3.62516 8.83268C3.62516 8.55642 3.73491 8.29146 3.93026 8.09611C4.12561 7.90076 4.39056 7.79102 4.66683 7.79102C4.9431 7.79102 5.20805 7.90076 5.4034 8.09611C5.59875 8.29146 5.7085 8.55642 5.7085 8.83268C5.7085 9.10895 5.59875 9.3739 5.4034 9.56925C5.20805 9.7646 4.9431 9.87435 4.66683 9.87435C4.39056 9.87435 4.12561 9.7646 3.93026 9.56925C3.73491 9.3739 3.62516 9.10895 3.62516 8.83268ZM10.2918 8.83268C10.2918 8.55642 10.4016 8.29146 10.5969 8.09611C10.7923 7.90076 11.0572 7.79102 11.3335 7.79102C11.6098 7.79102 11.8747 7.90076 12.0701 8.09611C12.2654 8.29146 12.3752 8.55642 12.3752 8.83268C12.3752 9.10895 12.2654 9.3739 12.0701 9.56925C11.8747 9.7646 11.6098 9.87435 11.3335 9.87435C11.0572 9.87435 10.7923 9.7646 10.5969 9.56925C10.4016 9.3739 10.2918 9.10895 10.2918 8.83268ZM6.9585 8.83268C6.9585 8.55642 7.06824 8.29146 7.26359 8.09611C7.45894 7.90076 7.7239 7.79102 8.00016 7.79102C8.27643 7.79102 8.54138 7.90076 8.73673 8.09611C8.93208 8.29146 9.04183 8.55642 9.04183 8.83268C9.04183 9.10895 8.93208 9.3739 8.73673 9.56925C8.54138 9.7646 8.27643 9.87435 8.00016 9.87435C7.7239 9.87435 7.45894 9.7646 7.26359 9.56925C7.06824 9.3739 6.9585 9.10895 6.9585 8.83268ZM3.62516 12.166C3.62516 11.8897 3.73491 11.6248 3.93026 11.4294C4.12561 11.2341 4.39056 11.1243 4.66683 11.1243C4.9431 11.1243 5.20805 11.2341 5.4034 11.4294C5.59875 11.6248 5.7085 11.8897 5.7085 12.166C5.7085 12.4423 5.59875 12.7072 5.4034 12.9026C5.20805 13.0979 4.9431 13.2077 4.66683 13.2077C4.39056 13.2077 4.12561 13.0979 3.93026 12.9026C3.73491 12.7072 3.62516 12.4423 3.62516 12.166ZM6.9585 12.166C6.9585 11.8897 7.06824 11.6248 7.26359 11.4294C7.45894 11.2341 7.7239 11.1243 8.00016 11.1243C8.27643 11.1243 8.54138 11.2341 8.73673 11.4294C8.93208 11.6248 9.04183 11.8897 9.04183 12.166C9.04183 12.4423 8.93208 12.7072 8.73673 12.9026C8.54138 13.0979 8.27643 13.2077 8.00016 13.2077C7.7239 13.2077 7.45894 13.0979 7.26359 12.9026C7.06824 12.7072 6.9585 12.4423 6.9585 12.166ZM9.36183 0.291016C10.271 0.291016 10.9927 0.291016 11.5735 0.338516C12.1685 0.386849 12.671 0.488516 13.131 0.721849C13.8757 1.10172 14.481 1.70762 14.8602 2.45268C15.0943 2.91102 15.196 3.41435 15.2443 4.00935C15.2918 4.59018 15.2918 5.31185 15.2918 6.22102V9.77768C15.2918 10.6868 15.2918 11.4085 15.2443 11.9893C15.196 12.5843 15.0943 13.0868 14.861 13.5468C14.4813 14.2914 13.8758 14.8967 13.131 15.276C12.671 15.5102 12.1685 15.6119 11.5735 15.6602C10.9927 15.7077 10.271 15.7077 9.36183 15.7077H6.6385C5.72933 15.7077 5.00766 15.7077 4.42683 15.6602C3.83183 15.6119 3.32933 15.5102 2.87016 15.2768C2.12528 14.8973 1.51967 14.2917 1.14016 13.5468C0.905996 13.0868 0.804329 12.5843 0.755996 11.9893C0.708496 11.4085 0.708496 10.6868 0.708496 9.77768V6.22102C0.708496 5.31185 0.708496 4.59018 0.755996 4.00935C0.804329 3.41435 0.905996 2.91185 1.13933 2.45268C1.51906 1.70767 2.12497 1.10205 2.87016 0.722682C3.3285 0.488516 3.83183 0.386849 4.42683 0.338516C5.00766 0.291016 5.72933 0.291016 6.63933 0.291016H9.36183ZM4.5285 1.58435C4.01183 1.62602 3.691 1.70685 3.43683 1.83602C2.92736 2.09565 2.51313 2.50988 2.2535 3.01935C2.12433 3.27352 2.04433 3.59435 2.00183 4.11102C1.97516 4.43602 1.96516 4.81935 1.96016 5.29102H14.0393C14.0397 4.89732 14.026 4.50374 13.9985 4.11102C13.9568 3.59435 13.876 3.27352 13.7468 3.01935C13.4872 2.50988 13.073 2.09565 12.5635 1.83602C12.3093 1.70685 11.9885 1.62685 11.4718 1.58435C10.9468 1.54185 10.2768 1.54102 9.3335 1.54102H6.66683C5.72266 1.54102 5.05266 1.54102 4.5285 1.58435ZM14.2477 5.29102C14.2481 4.89176 14.2342 4.49261 14.206 4.09435C14.1627 3.56352 14.0793 3.21352 13.9327 2.92518C13.653 2.37618 13.2067 1.92985 12.6577 1.65018C12.3693 1.50352 12.0193 1.42018 11.4893 1.37685C10.9543 1.33268 10.2735 1.33268 9.3335 1.33268H6.66683C5.72683 1.33268 5.046 1.33268 4.51183 1.37685C3.981 1.42018 3.631 1.50352 3.34266 1.65018C2.79366 1.92985 2.34733 2.37618 2.06766 2.92518C1.921 3.21352 1.83766 3.56352 1.79433 4.09435C1.76683 4.42768 1.75683 4.81685 1.75266 5.29102L1.75016 5.49935H14.2502L14.2477 5.29102ZM14.0418 6.54102H1.9585V9.74935C1.9585 10.6935 1.9585 11.3635 2.00183 11.8877C2.0435 12.4044 2.12433 12.7252 2.2535 12.9793C2.51313 13.4888 2.92736 13.903 3.43683 14.1627C3.691 14.2918 4.01183 14.3719 4.5285 14.4143C5.0535 14.4569 5.72266 14.4577 6.66683 14.4577H9.3335C10.2777 14.4577 10.9477 14.4577 11.4718 14.4143C11.9885 14.3727 12.3093 14.2918 12.5635 14.1627C13.073 13.903 13.4872 13.4888 13.7468 12.9793C13.876 12.7252 13.956 12.4044 13.9985 11.8877C14.041 11.3627 14.0418 10.6927 14.0418 9.74935V6.54102ZM6.64766 0.499349H9.35266C10.2693 0.499349 10.9843 0.499349 11.5568 0.546016C12.1385 0.593516 12.611 0.691849 13.036 0.907682C13.7418 1.26724 14.3156 1.84105 14.6752 2.54685C14.8918 2.97185 14.9893 3.44435 15.0368 4.02602C15.0835 4.59852 15.0835 5.31268 15.0835 6.23018V9.76852C15.0835 10.6852 15.0835 11.4002 15.0368 11.9727C14.9893 12.5543 14.891 13.0268 14.6752 13.4518C14.3156 14.1576 13.7418 14.7315 13.036 15.091C12.611 15.3077 12.1385 15.4052 11.5568 15.4527C10.9843 15.4993 10.2702 15.4993 9.35266 15.4993H6.64766C5.731 15.4993 5.016 15.4993 4.4435 15.4527C3.86183 15.4052 3.38933 15.3068 2.96433 15.091C2.25853 14.7315 1.68472 14.1576 1.32516 13.4518C1.1085 13.0268 1.011 12.5543 0.963496 11.9727C0.916829 11.4002 0.916829 10.686 0.916829 9.76852V6.23018C0.916829 5.31352 0.916829 4.59852 0.963496 4.02602C1.011 3.44435 1.10933 2.97185 1.32516 2.54685C1.68472 1.84105 2.25853 1.26724 2.96433 0.907682C3.38933 0.691016 3.86183 0.593516 4.4435 0.546016C5.01683 0.499349 5.73016 0.499349 6.64766 0.499349ZM1.75016 6.33268V9.74935C1.75016 10.6894 1.75016 11.3702 1.79433 11.9044C1.83766 12.4352 1.921 12.7852 2.06766 13.0735C2.34733 13.6225 2.79366 14.0689 3.34266 14.3485C3.631 14.4952 3.981 14.5785 4.51183 14.6219C5.046 14.666 5.72683 14.666 6.66683 14.666H9.3335C10.2735 14.666 10.9543 14.666 11.4885 14.6219C12.0193 14.5785 12.3693 14.4952 12.6577 14.3485C13.2067 14.0689 13.653 13.6225 13.9327 13.0735C14.0793 12.7852 14.1627 12.4352 14.206 11.9052C14.2502 11.3702 14.2502 10.6894 14.2502 9.74935V6.33268H1.75016ZM5.0835 3.41602C5.0835 3.30551 5.12739 3.19953 5.20553 3.12139C5.28367 3.04325 5.38966 2.99935 5.50016 2.99935H10.5002C10.6107 2.99935 10.7167 3.04325 10.7948 3.12139C10.8729 3.19953 10.9168 3.30551 10.9168 3.41602C10.9168 3.52652 10.8729 3.6325 10.7948 3.71064C10.7167 3.78878 10.6107 3.83268 10.5002 3.83268H5.50016C5.38966 3.83268 5.28367 3.78878 5.20553 3.71064C5.12739 3.6325 5.0835 3.52652 5.0835 3.41602ZM4.66683 7.99935C4.44582 7.99935 4.23385 8.08715 4.07757 8.24343C3.92129 8.39971 3.8335 8.61167 3.8335 8.83268C3.8335 9.0537 3.92129 9.26566 4.07757 9.42194C4.23385 9.57822 4.44582 9.66602 4.66683 9.66602C4.88784 9.66602 5.0998 9.57822 5.25608 9.42194C5.41236 9.26566 5.50016 9.0537 5.50016 8.83268C5.50016 8.61167 5.41236 8.39971 5.25608 8.24343C5.0998 8.08715 4.88784 7.99935 4.66683 7.99935ZM10.5002 8.83268C10.5002 8.61167 10.588 8.39971 10.7442 8.24343C10.9005 8.08715 11.1125 7.99935 11.3335 7.99935C11.5545 7.99935 11.7665 8.08715 11.9228 8.24343C12.079 8.39971 12.1668 8.61167 12.1668 8.83268C12.1668 9.0537 12.079 9.26566 11.9228 9.42194C11.7665 9.57822 11.5545 9.66602 11.3335 9.66602C11.1125 9.66602 10.9005 9.57822 10.7442 9.42194C10.588 9.26566 10.5002 9.0537 10.5002 8.83268ZM7.16683 8.83268C7.16683 8.61167 7.25463 8.39971 7.41091 8.24343C7.56719 8.08715 7.77915 7.99935 8.00016 7.99935C8.22118 7.99935 8.43314 8.08715 8.58942 8.24343C8.7457 8.39971 8.8335 8.61167 8.8335 8.83268C8.8335 9.0537 8.7457 9.26566 8.58942 9.42194C8.43314 9.57822 8.22118 9.66602 8.00016 9.66602C7.77915 9.66602 7.56719 9.57822 7.41091 9.42194C7.25463 9.26566 7.16683 9.0537 7.16683 8.83268ZM3.8335 12.166C3.8335 11.945 3.92129 11.733 4.07757 11.5768C4.23385 11.4205 4.44582 11.3327 4.66683 11.3327C4.88784 11.3327 5.0998 11.4205 5.25608 11.5768C5.41236 11.733 5.50016 11.945 5.50016 12.166C5.50016 12.387 5.41236 12.599 5.25608 12.7553C5.0998 12.9116 4.88784 12.9993 4.66683 12.9993C4.44582 12.9993 4.23385 12.9116 4.07757 12.7553C3.92129 12.599 3.8335 12.387 3.8335 12.166ZM7.16683 12.166C7.16683 11.945 7.25463 11.733 7.41091 11.5768C7.56719 11.4205 7.77915 11.3327 8.00016 11.3327C8.22118 11.3327 8.43314 11.4205 8.58942 11.5768C8.7457 11.733 8.8335 11.945 8.8335 12.166C8.8335 12.387 8.7457 12.599 8.58942 12.7553C8.43314 12.9116 8.22118 12.9993 8.00016 12.9993C7.77915 12.9993 7.56719 12.9116 7.41091 12.7553C7.25463 12.599 7.16683 12.387 7.16683 12.166Z" fill="white"/>
</svg>
