<svg width="52" height="52" viewBox="0 0 52 52" fill="none" xmlns="http://www.w3.org/2000/svg">
<path d="M47.4168 1.95117H4.8959C3.43946 1.95117 2.25879 3.13185 2.25879 4.58828V47.1092C2.25879 48.5656 3.43946 49.7463 4.8959 49.7463H47.4168C48.8733 49.7463 50.0539 48.5656 50.0539 47.1092V4.58828C50.0539 3.13185 48.8733 1.95117 47.4168 1.95117Z" fill="#3D5A98"/>
<path d="M35.2328 49.7411V31.2328H41.444L42.3728 24.0201H35.2328V19.4163C35.2328 17.3284 35.8144 15.9028 38.8068 15.9028H42.6272V9.4413C40.7772 9.24885 38.9181 9.15718 37.0582 9.16669C31.5578 9.16669 27.7697 12.5186 27.7697 18.7015V24.0201H21.5586V31.2328H27.7697V49.7411H35.2328Z" fill="white"/>
</svg>
