<svg width="52" height="52" viewBox="0 0 52 52" fill="none" xmlns="http://www.w3.org/2000/svg">
<path d="M5.53809 25.8463C5.53809 16.2014 5.53809 11.3768 8.53408 8.38076C11.5301 5.38477 16.3525 5.38477 25.9996 5.38477C35.6445 5.38477 40.4691 5.38477 43.4651 8.38076C46.4611 11.3768 46.4611 16.1992 46.4611 25.8463C46.4611 35.4912 46.4611 40.3158 43.4651 43.3118C40.4691 46.3078 35.6467 46.3078 25.9996 46.3078C16.3547 46.3078 11.5301 46.3078 8.53408 43.3118C5.53809 40.3158 5.53809 35.4933 5.53809 25.8463Z" stroke="black" stroke-width="1.5" stroke-linecap="round" stroke-linejoin="round"/>
<path d="M22.8462 23.7102C21.0801 23.4603 17.0524 23.8717 15.0795 27.5225C13.1065 31.1733 15.0945 34.9726 16.3373 36.4157C17.5628 37.7662 21.4591 40.3228 25.5924 37.8265C26.6176 37.2083 27.8948 36.7453 29.3422 31.9099L29.1742 12.8828C28.8942 14.9785 31.2096 19.8936 37.7982 20.4751" stroke="black" stroke-width="1.5" stroke-linecap="round" stroke-linejoin="round"/>
</svg>
