<svg width="45" height="45" viewBox="0 0 45 45" fill="none" xmlns="http://www.w3.org/2000/svg">
<path d="M22.5 1.875C29.4019 1.875 35.625 6.68438 35.625 13.125V21.6356C35.625 22.8394 35.9794 24.015 36.6469 25.0163L40.7719 31.2C41.0583 31.6285 41.2229 32.1268 41.2481 32.6416C41.2733 33.1564 41.1581 33.6683 40.9149 34.1227C40.6717 34.5772 40.3097 34.957 39.8673 35.2216C39.425 35.4862 38.9192 35.6256 38.4037 35.625H29.0625C29.0625 36.4868 28.8928 37.3402 28.563 38.1364C28.2332 38.9326 27.7498 39.656 27.1404 40.2654C26.531 40.8748 25.8076 41.3582 25.0114 41.688C24.2152 42.0178 23.3618 42.1875 22.5 42.1875C21.6382 42.1875 20.7848 42.0178 19.9886 41.688C19.1924 41.3582 18.469 40.8748 17.8596 40.2654C17.2502 39.656 16.7668 38.9326 16.437 38.1364C16.1072 37.3402 15.9375 36.4868 15.9375 35.625H6.59812C6.08295 35.6254 5.57732 35.486 5.13515 35.2217C4.69299 34.9573 4.33087 34.5779 4.0874 34.1238C3.84394 33.6698 3.72827 33.1582 3.75272 32.6437C3.77717 32.1291 3.94083 31.6308 4.22625 31.2019L8.35125 25.0163C9.01877 24.0152 9.37499 22.8389 9.375 21.6356V13.125C9.375 6.68438 15.5962 1.875 22.5 1.875ZM12.1875 13.125V21.6356C12.188 23.3939 11.668 25.113 10.6931 26.5763L6.56812 32.76L6.5625 32.7788L6.56437 32.7919L6.57187 32.8031L6.58312 32.8106L6.59625 32.8125H38.4037L38.4169 32.8106L38.4281 32.8031L38.4356 32.7919L38.4375 32.7806L38.4319 32.7619L34.3087 26.5763C33.3332 25.1132 32.8126 23.3941 32.8125 21.6356V13.125C32.8125 8.6925 28.3444 4.6875 22.5 4.6875C16.6556 4.6875 12.1875 8.6925 12.1875 13.125ZM26.25 35.625H18.75C18.75 36.6196 19.1451 37.5734 19.8483 38.2766C20.5516 38.9799 21.5054 39.375 22.5 39.375C23.4946 39.375 24.4484 38.9799 25.1516 38.2766C25.8549 37.5734 26.25 36.6196 26.25 35.625Z" fill="black"/>
<ellipse cx="34.7188" cy="11" rx="5" ry="5" fill="#FFB441"/>
</svg>
