<svg width="41" height="36" viewBox="0 0 41 36" fill="none" xmlns="http://www.w3.org/2000/svg">
<path d="M38.774 0.732634C38.2757 0.631379 37.7774 0.671286 37.3285 0.746734C36.9082 0.816596 35.2917 1.1255 32.7455 1.6119C30.1971 2.09873 26.8224 2.74496 23.2218 3.43678C16.0207 4.82041 7.92361 6.38018 3.77661 7.17776C3.62068 7.20773 3.09146 7.25366 2.46391 7.56189C1.83636 7.87012 1.05669 8.64098 0.799312 9.65508C0.591774 10.4728 0.743079 11.3759 1.06994 11.9752C1.39681 12.5744 1.81212 12.9348 2.17392 13.2197C3.48663 14.2535 7.5564 17.4657 8.32495 18.0721C8.37144 19.1681 8.62668 25.1292 8.66734 26.5846C8.6939 27.545 8.79323 28.1675 8.99494 28.6926C9.0958 28.9552 9.2292 29.1968 9.41206 29.406C9.48515 29.4896 9.57036 29.5613 9.65754 29.6296L9.66264 29.6343C9.68275 29.65 9.69798 29.6717 9.7187 29.6863C9.7578 29.7138 9.78625 29.7231 9.84066 29.7516C10.0507 29.8913 10.2707 30.0014 10.4785 30.0542C11.3646 30.2791 12.0421 29.8847 12.0421 29.8847L12.0812 29.8672L17.7298 26.7259L21.811 33.8295C21.8583 33.9692 22.3086 35.2394 23.9095 35.6457C24.8601 35.8869 25.7461 35.5583 26.3707 35.1274C26.9954 34.6966 27.4446 34.1914 27.7584 33.4925L27.7593 33.4893C28.0546 32.8286 40.3852 5.61004 40.3852 5.61004L40.3665 5.64648C40.704 4.94225 40.9185 4.26108 40.927 3.53733C40.9355 2.81358 40.6677 2.05058 40.2192 1.56276C39.7708 1.07504 39.2722 0.83389 38.774 0.732634ZM37.6144 4.11059C37.5949 4.15693 37.6138 4.13593 37.588 4.1897L37.5802 4.20829L37.5723 4.22689C37.5723 4.22689 25.3973 31.0968 24.9393 32.1215C24.9735 32.044 24.8704 32.1892 24.7819 32.2703C24.7089 32.1797 24.5461 32.0457 24.5461 32.0457L24.5255 32.0028L18.9508 22.2996L12.3356 25.9746L15.6832 19.4454C15.6832 19.4454 28.455 10.7615 29.2186 10.2612C29.8326 9.86175 29.9799 9.70556 30.0255 9.52562C30.0867 9.28459 30.0159 9.08044 29.7584 9.0151C29.5267 8.9563 29.1528 9.12278 28.9569 9.19607C26.404 10.1534 15.3401 13.7888 10.382 15.4127C9.78011 14.9377 5.5989 11.6369 4.18128 10.5203C4.19485 10.5176 4.19034 10.5186 4.20444 10.5159C8.35252 9.71807 16.4465 8.15757 23.6467 6.77412C27.2467 6.0824 30.6241 5.43568 33.1704 4.94925C35.6775 4.4703 37.4178 4.14445 37.6144 4.11059Z" fill="white"/>
</svg>
