<svg width="27" height="24" viewBox="0 0 27 24" fill="none" xmlns="http://www.w3.org/2000/svg">
<path d="M23.7239 13.5506L21.4848 10.1437C21.2925 9.90587 21.023 9.70967 20.7021 9.57406C20.3812 9.43845 20.0198 9.36798 19.6528 9.36946H7.03226C6.6652 9.36798 6.30382 9.43845 5.98295 9.57406C5.66207 9.70967 5.39252 9.90587 5.20025 10.1437L2.96112 13.5506L0.437019 15.3345C0.334444 15.4069 0.252582 15.4946 0.196544 15.5921C0.140507 15.6896 0.111498 15.7948 0.111328 15.9013V22.5322C0.111328 22.7375 0.218559 22.9345 0.40943 23.0797C0.600302 23.2249 0.859179 23.3065 1.12911 23.3065H5.20025C5.60736 23.3065 6.21803 22.9968 6.21803 22.687V21.7579H20.467V22.5322C20.467 22.8419 20.8741 23.3065 21.2812 23.3065H25.5559C25.8259 23.3065 26.0847 23.2249 26.2756 23.0797C26.4665 22.9345 26.5737 22.7375 26.5737 22.5322V15.9013C26.5736 15.7948 26.5445 15.6896 26.4885 15.5921C26.4325 15.4946 26.3506 15.4069 26.248 15.3345L23.7239 13.5506ZM7.23582 10.918H19.4492L21.4848 14.0151H5.20025L7.23582 10.918ZM8.2536 18.0414C8.2536 18.3511 7.64293 18.6608 7.23582 18.6608H2.96112C2.55401 18.6608 2.1469 18.1962 2.1469 17.8865V16.1831C2.35045 15.7185 2.75757 15.4088 3.36824 15.5637L7.43938 16.1831C7.84649 16.1831 8.2536 16.6477 8.2536 16.9574V18.0414ZM24.5382 17.8865C24.5382 18.1962 24.131 18.6608 23.7239 18.6608H19.4492C19.0421 18.6608 18.4314 18.3511 18.4314 18.0414V16.9574C18.4314 16.6477 18.8386 16.1831 19.2457 16.1831L23.3168 15.5637C23.9275 15.4088 24.3346 15.7185 24.5382 16.1831V17.8865ZM14.3603 6.27235H12.3247L10.2892 0.078125H16.3959L14.3603 6.27235ZM0.314885 2.86553L5.60736 0.542692L7.84649 6.73692L6.21803 7.35634L0.314885 2.86553ZM21.0777 0.542692L26.3702 2.86553L20.467 7.5112L18.635 6.73692L21.0777 0.542692Z" fill="white"/>
</svg>
