<svg width="52" height="52" viewBox="0 0 52 52" fill="none" xmlns="http://www.w3.org/2000/svg">
<path d="M47.4158 1.9502H4.89492C3.43849 1.9502 2.25781 3.13087 2.25781 4.58731V47.1082C2.25781 48.5647 3.43849 49.7453 4.89492 49.7453H47.4158C48.8723 49.7453 50.053 48.5647 50.053 47.1082V4.58731C50.053 3.13087 48.8723 1.9502 47.4158 1.9502Z" fill="#3D5A98"/>
<path d="M35.2318 49.742V31.2338H41.443L42.3718 24.0211H35.2318V19.4173C35.2318 17.3294 35.8134 15.9038 38.8059 15.9038H42.6263V9.44228C40.7763 9.24983 38.9172 9.15815 37.0572 9.16766C31.5568 9.16766 27.7688 12.5196 27.7688 18.7025V24.0211H21.5576V31.2338H27.7688V49.742H35.2318Z" fill="white"/>
</svg>
