<svg width="240" height="214" viewBox="0 0 240 214" fill="none" xmlns="http://www.w3.org/2000/svg">
<path d="M227.606 107.624C227.606 107.624 227.606 104.625 223.398 100.468C219.189 96.3116 216.52 93.9004 216.52 93.9004C216.52 93.9004 214.428 100.762 218.324 104.943C221.183 107.879 224.284 110.572 227.594 112.992L227.606 107.624Z" fill="#6EB054"/>
<path d="M221.534 126.255C221.534 126.255 221.534 123.256 217.326 119.099C213.118 114.942 210.46 112.531 210.46 112.531C210.46 112.531 208.362 119.393 212.264 123.574C215.124 126.51 218.225 129.202 221.534 131.623V126.255Z" fill="#6EB054"/>
<path d="M227.341 112.703C227.341 112.703 227.66 109.739 232.265 106.027C236.87 102.314 239.798 100.227 239.798 100.227C239.798 100.227 241.151 107.268 236.846 111.023C233.692 113.642 230.323 115.993 226.776 118.053L227.341 112.703Z" fill="#6EB054"/>
<path d="M220.007 134.706C220.007 134.706 220.608 131.791 225.604 128.582C230.6 125.373 233.702 123.604 233.702 123.604C233.702 123.604 234.303 130.753 229.632 134.022C226.219 136.297 222.621 138.283 218.876 139.96L220.007 134.706Z" fill="#6EB054"/>
<path d="M221.384 158.698C221.384 158.698 221.384 155.699 225.592 151.536C229.8 147.374 232.464 144.975 232.464 144.975C232.464 144.975 234.562 151.836 230.66 156.011C227.801 158.95 224.7 161.645 221.39 164.066L221.384 158.698Z" fill="#6EB054"/>
<path d="M221.317 164.551C221.317 164.551 221.738 161.6 218.191 156.874C214.644 152.148 212.318 149.4 212.318 149.4C212.318 149.4 209.27 155.896 212.522 160.581C214.933 163.894 217.618 167 220.548 169.866L221.317 164.551Z" fill="#6EB054"/>
<path d="M217.188 181.903C217.188 181.903 217.188 178.904 221.396 174.748C225.604 170.591 228.273 168.18 228.273 168.18C228.273 168.18 230.366 175.041 226.47 179.222C223.609 182.159 220.508 184.854 217.2 187.277L217.188 181.903Z" fill="#6EB054"/>
<path d="M219.983 197.635C219.983 197.635 219.225 194.75 222.213 189.652C225.201 184.553 227.203 181.566 227.203 181.566C227.203 181.566 230.966 187.672 228.267 192.699C226.248 196.262 223.933 199.651 221.347 202.829L219.983 197.635Z" fill="#6EB054"/>
<path d="M227.985 106.863C227.774 109.969 227.393 113.06 226.843 116.124C225.183 124.653 221.047 130.16 219.394 137.861C217.741 145.563 222.49 155.489 221.197 165.386C219.905 175.283 216.069 180.783 217.169 187.387C218.27 193.991 224.065 211.877 224.065 211.877" stroke="#263238" stroke-linecap="round" stroke-linejoin="round"/>
<path d="M227.306 114.689L231.815 111.234" stroke="#263238" stroke-linecap="round" stroke-linejoin="round"/>
<path d="M227.516 110.712L225.622 107.359" stroke="#263238" stroke-linecap="round" stroke-linejoin="round"/>
<path d="M219.646 137.506C219.646 137.506 223.422 134.681 227.306 131.855" stroke="#263238" stroke-linecap="round" stroke-linejoin="round"/>
<path d="M221.534 131.621C221.534 131.621 218.384 125.467 214.819 121.389" stroke="#263238" stroke-linecap="round" stroke-linejoin="round"/>
<path d="M221.534 162.945C223.688 158.974 226.41 155.337 229.614 152.148" stroke="#263238" stroke-linecap="round" stroke-linejoin="round"/>
<path d="M220.801 167.131C219.655 164.439 218.285 161.846 216.706 159.382C214.506 156.137 214.188 155.717 214.188 155.717" stroke="#263238" stroke-linecap="round" stroke-linejoin="round"/>
<path d="M217.188 187.385C218.146 185.021 219.284 182.733 220.59 180.541C221.898 178.504 223.372 176.578 224.997 174.783" stroke="#263238" stroke-linecap="round" stroke-linejoin="round"/>
<path d="M221.348 202.829C221.129 200.569 221.519 198.291 222.478 196.232C224.053 193.197 225.833 189.22 226.566 187.648" stroke="#263238" stroke-linecap="round" stroke-linejoin="round"/>
<path d="M193.446 147.481C193.446 147.481 193.122 145.609 195.292 142.532C197.462 139.455 198.899 137.674 198.899 137.674C198.899 137.674 200.955 141.753 198.971 144.788C197.498 146.94 195.847 148.967 194.036 150.846L193.446 147.481Z" fill="#6EB054"/>
<path d="M199.284 158.504C199.284 158.504 198.959 156.633 201.129 153.556C203.3 150.479 204.737 148.697 204.737 148.697C204.737 148.697 206.793 152.776 204.809 155.817C203.334 157.967 201.683 159.991 199.873 161.869L199.284 158.504Z" fill="#6EB054"/>
<path d="M194.162 150.636C194.162 150.636 193.645 148.837 190.35 146.983C187.056 145.13 185 144.158 185 144.158C185 144.158 184.916 148.723 188.006 150.606C190.268 151.906 192.635 153.015 195.082 153.923L194.162 150.636Z" fill="#6EB054"/>
<path d="M201.16 163.638C201.16 163.638 200.45 161.875 196.987 160.4C193.525 158.924 191.36 158.156 191.36 158.156C191.36 158.156 191.757 162.703 195.052 164.25C197.439 165.306 199.91 166.16 202.44 166.805L201.16 163.638Z" fill="#6EB054"/>
<path d="M202.903 178.831C202.903 178.831 202.585 176.96 199.501 174.795C196.417 172.629 194.475 171.424 194.475 171.424C194.475 171.424 193.91 175.952 196.801 178.148C198.914 179.682 201.152 181.037 203.493 182.196L202.903 178.831Z" fill="#6EB054"/>
<path d="M203.589 182.498C203.589 182.498 202.988 180.699 204.713 177.34C206.438 173.981 207.581 172.02 207.581 172.02C207.581 172.02 210.196 175.762 208.669 179.055C207.518 181.393 206.173 183.63 204.647 185.743L203.589 182.498Z" fill="#6EB054"/>
<path d="M208.843 197.582C208.843 197.582 209.06 195.699 212.011 193.383C214.963 191.068 216.821 189.73 216.821 189.73C216.821 189.73 217.645 194.223 214.885 196.58C212.864 198.23 210.708 199.709 208.44 201.001L208.843 197.582Z" fill="#6EB054"/>
<path d="M208.056 192.929C208.056 192.929 207.731 191.058 204.653 188.892C201.575 186.727 199.639 185.521 199.639 185.521C199.639 185.521 199.074 190.05 201.965 192.251C204.08 193.784 206.318 195.138 208.657 196.3L208.056 192.929Z" fill="#6EB054"/>
<path d="M208.055 203.102C208.055 203.102 208.212 201.206 205.783 198.333C203.354 195.46 201.779 193.805 201.779 193.805C201.779 193.805 200.077 198.039 202.32 200.9C203.964 202.915 205.773 204.789 207.731 206.503L208.055 203.102Z" fill="#6EB054"/>
<path d="M193.127 147.037C193.598 148.963 194.174 150.861 194.853 152.723C196.819 157.894 200.011 160.899 201.887 165.547C203.762 170.196 201.887 176.943 203.738 183.007C205.59 189.071 208.656 192.106 208.656 196.365C208.656 200.624 206.997 212.47 206.997 212.47" stroke="#263238" stroke-linecap="round" stroke-linejoin="round"/>
<path d="M194.408 151.871L191.204 150.197" stroke="#263238" stroke-linecap="round" stroke-linejoin="round"/>
<path d="M193.843 149.399L194.661 147.096" stroke="#263238" stroke-linecap="round" stroke-linejoin="round"/>
<path d="M201.689 165.356C201.689 165.356 199.014 163.994 196.278 162.639" stroke="#263238" stroke-linecap="round" stroke-linejoin="round"/>
<path d="M199.867 161.87C200.656 159.398 201.693 157.013 202.963 154.75" stroke="#263238" stroke-linecap="round" stroke-linejoin="round"/>
<path d="M203.276 181.507C201.492 179.255 199.39 177.273 197.036 175.623" stroke="#263238" stroke-linecap="round" stroke-linejoin="round"/>
<path d="M204.19 184.051C204.618 182.241 205.195 180.47 205.915 178.755C206.943 176.482 207.118 176.182 207.118 176.182" stroke="#263238" stroke-linecap="round" stroke-linejoin="round"/>
<path d="M208.512 199.596C209.555 198.307 210.71 197.113 211.963 196.027C212.76 195.442 213.508 194.792 214.199 194.084" stroke="#263238" stroke-linecap="round" stroke-linejoin="round"/>
<path d="M208.657 196.365C207.798 194.982 206.835 193.667 205.777 192.43C204.735 191.295 203.601 190.248 202.386 189.299" stroke="#263238" stroke-linecap="round" stroke-linejoin="round"/>
<path d="M207.731 206.502C207.623 205.06 207.131 203.672 206.306 202.483C204.989 200.75 203.438 198.447 202.807 197.541" stroke="#263238" stroke-linecap="round" stroke-linejoin="round"/>
<path d="M22.6903 121.354L20.0571 113.851L22.6903 117.036L20.6222 105.778L23.8206 113.851L24.9508 98.082L26.8325 113.095L28.9006 110.096V113.851L31.3475 108.783L30.0309 117.6L32.2853 116.1L28.7143 120.977L22.6903 121.354Z" fill="#3D6498"/>
<path d="M30.9689 119.479H21.1875L22.949 139.182H29.2074L30.9689 119.479Z" fill="#263238" stroke="#263238" stroke-linecap="round" stroke-linejoin="round"/>
<path d="M49.3172 138.961H15.9932V209.378H49.3172V138.961Z" fill="white" stroke="#263238" stroke-linecap="round" stroke-linejoin="round"/>
<path d="M51.1385 138.961H32.6519V209.378H51.1385V138.961Z" fill="white" stroke="#263238" stroke-linecap="round" stroke-linejoin="round"/>
<path d="M49.0583 138.961H32.6519V209.378H49.0583V138.961Z" fill="#263238" stroke="#263238" stroke-linecap="round" stroke-linejoin="round"/>
<path d="M47.2127 193.002H32.6519V207.421H47.2127V193.002Z" fill="#3D6498" stroke="#263238" stroke-linecap="round" stroke-linejoin="round"/>
<path d="M47.2127 193.781H32.6519V195.629H47.2127V193.781Z" fill="white" stroke="#263238" stroke-linecap="round" stroke-linejoin="round"/>
<path d="M47.2127 204.396H32.6519V206.244H47.2127V204.396Z" fill="white" stroke="#263238" stroke-linecap="round" stroke-linejoin="round"/>
<path d="M35.4116 193.301V211.535" stroke="#263238" stroke-linecap="round" stroke-linejoin="round"/>
<path d="M40.4917 193.301V211.535" stroke="#263238" stroke-linecap="round" stroke-linejoin="round"/>
<path d="M44.9521 193.301V211.535" stroke="#263238" stroke-linecap="round" stroke-linejoin="round"/>
<path d="M47.2127 141.574H32.6519V162.777H47.2127V141.574Z" fill="#3D6498" stroke="#263238" stroke-linecap="round" stroke-linejoin="round"/>
<path d="M47.2127 142.463H32.6519V144.562H47.2127V142.463Z" fill="white" stroke="#263238" stroke-linecap="round" stroke-linejoin="round"/>
<path d="M47.2127 156.053H32.6519V158.152H47.2127V156.053Z" fill="white" stroke="#263238" stroke-linecap="round" stroke-linejoin="round"/>
<path d="M35.4116 141.91V162.633" stroke="#263238" stroke-linecap="round" stroke-linejoin="round"/>
<path d="M40.4917 141.91V162.633" stroke="#263238" stroke-linecap="round" stroke-linejoin="round"/>
<path d="M44.9521 141.91V162.633" stroke="#263238" stroke-linecap="round" stroke-linejoin="round"/>
<path d="M47.2127 167.125H32.6519V188.328H47.2127V167.125Z" fill="#3D6498" stroke="#263238" stroke-linecap="round" stroke-linejoin="round"/>
<path d="M47.2127 168.012H32.6519V170.111H47.2127V168.012Z" fill="white" stroke="#263238" stroke-linecap="round" stroke-linejoin="round"/>
<path d="M47.2127 181.605H32.6519V183.705H47.2127V181.605Z" fill="white" stroke="#263238" stroke-linecap="round" stroke-linejoin="round"/>
<path d="M35.4116 167.467V188.184" stroke="#263238" stroke-linecap="round" stroke-linejoin="round"/>
<path d="M40.4917 167.467V188.184" stroke="#263238" stroke-linecap="round" stroke-linejoin="round"/>
<path d="M44.9521 167.467V188.184" stroke="#263238" stroke-linecap="round" stroke-linejoin="round"/>
<path d="M49.3108 162.482H32.6519V164.894H49.3108V162.482Z" fill="white" stroke="#263238" stroke-linecap="round" stroke-linejoin="round"/>
<path d="M49.3108 188.195H32.6519V190.607H49.3108V188.195Z" fill="white" stroke="#263238" stroke-linecap="round" stroke-linejoin="round"/>
<path d="M49.311 138.961V209.372" stroke="#263238" stroke-linecap="round" stroke-linejoin="round"/>
<path d="M30.3018 138.96V209.371H32.6524V141.575H49.0228V138.93L30.3018 138.96Z" fill="white" stroke="#263238" stroke-linecap="round" stroke-linejoin="round"/>
<path d="M32.6519 141.576V138.961" stroke="#263238" stroke-linecap="round" stroke-linejoin="round"/>
<path d="M49.1851 106.609C47.4356 103.244 46.7021 100.833 46.7021 100.275C46.7021 99.1714 49.1069 98.5116 49.1069 98.5116C52.8583 96.5323 70.5033 99.3933 78.445 100.713C82.8907 101.486 87.3881 101.927 91.8996 102.032C91.8996 102.032 92.9998 101.157 94.3044 100.053C95.609 98.9495 101.801 91.6918 104.23 91.056C106.659 90.4202 108.859 91.9377 108.859 91.9377C108.859 91.9377 112.833 94.337 112.166 94.7988C111.498 95.2607 101.801 103.598 99.3724 105.139C96.9436 106.681 91.8756 106.021 87.4629 106.903C83.6633 107.659 68.2729 108.594 64.7439 108.882C62.0936 109.509 59.312 109.278 56.8022 108.222" fill="white"/>
<mask id="mask0_1003_992" style="mask-type:luminance" maskUnits="userSpaceOnUse" x="46" y="90" width="67" height="20">
<path d="M49.1851 106.611C47.4356 103.246 46.7021 100.835 46.7021 100.277C46.7021 99.1733 49.1069 98.5136 49.1069 98.5136C52.8583 96.5342 70.5033 99.3953 78.445 100.715C82.8907 101.488 87.3881 101.929 91.8996 102.034C91.8996 102.034 92.9998 101.159 94.3044 100.055C95.609 98.9514 101.801 91.6938 104.23 91.058C106.659 90.4222 108.859 91.9397 108.859 91.9397C108.859 91.9397 112.833 94.3389 112.166 94.8008C111.498 95.2626 101.801 103.6 99.3724 105.141C96.9436 106.683 91.8756 106.023 87.4629 106.905C83.6633 107.661 68.2729 108.596 64.7439 108.884C62.0936 109.511 59.312 109.28 56.8022 108.224" fill="white"/>
</mask>
<g mask="url(#mask0_1003_992)">
<path d="M108.901 91.9131C108.901 91.9131 106.695 90.3716 104.272 91.0314C101.849 91.6912 95.669 98.9548 94.3464 100.028C93.0238 101.102 91.9416 102.008 91.9416 102.008C87.4301 101.903 82.9327 101.462 78.487 100.688C70.5453 99.3687 52.9003 96.4896 49.1489 98.487C49.1489 98.487 46.7441 99.1468 46.7441 100.25C46.8277 100.867 46.9872 101.472 47.2191 102.05L47.5497 102.17C47.5497 102.17 51.9565 101.708 61.4673 101.936C70.9781 102.164 92.9757 103.465 94.3885 103.975C94.9897 104.203 99.2521 103.243 103.977 101.576C107.585 98.6429 111.823 94.9781 112.25 94.7202C112.875 94.3303 108.901 91.9131 108.901 91.9131Z" fill="#3D6498"/>
<path opacity="0.5" d="M108.901 91.9131C108.901 91.9131 106.695 90.3716 104.272 91.0314C101.849 91.6912 95.669 98.9548 94.3464 100.028C93.0238 101.102 91.9416 102.008 91.9416 102.008C87.4301 101.903 82.9327 101.462 78.487 100.688C70.5453 99.3687 52.9003 96.4896 49.1489 98.487C49.1489 98.487 46.7441 99.1468 46.7441 100.25C46.8277 100.867 46.9872 101.472 47.2191 102.05L47.5497 102.17C47.5497 102.17 51.9565 101.708 61.4673 101.936C70.9781 102.164 92.9757 103.465 94.3885 103.975C94.9897 104.203 99.2521 103.243 103.977 101.576C107.585 98.6429 111.823 94.9781 112.25 94.7202C112.875 94.3303 108.901 91.9131 108.901 91.9131Z" fill="white"/>
</g>
<path d="M49.1851 106.609C47.4356 103.244 46.7021 100.833 46.7021 100.275C46.7021 99.1714 49.1069 98.5116 49.1069 98.5116C52.8583 96.5323 70.5033 99.3933 78.445 100.713C82.8907 101.486 87.3881 101.927 91.8996 102.032C91.8996 102.032 92.9998 101.157 94.3044 100.053C95.609 98.9495 101.801 91.6918 104.23 91.056C106.659 90.4202 108.859 91.9377 108.859 91.9377C108.859 91.9377 112.833 94.337 112.166 94.7988C111.498 95.2607 101.801 103.598 99.3724 105.139C96.9436 106.681 91.8756 106.021 87.4629 106.903C83.6633 107.659 68.2729 108.594 64.7439 108.882C62.0936 109.509 59.312 109.278 56.8022 108.222" stroke="#263238" stroke-linecap="round" stroke-linejoin="round"/>
<path d="M136.304 126.177C136.703 125.421 137.301 124.789 138.034 124.348C138.768 123.907 139.608 123.675 140.464 123.676H180.563C180.563 123.676 183.461 123.676 182.595 129.17C181.73 134.664 169.838 168.211 166.964 178.354C164.091 188.497 163.483 209.874 163.483 209.874H115.388C115.388 209.874 119.2 158.752 136.304 126.177Z" fill="white"/>
<mask id="mask1_1003_992" style="mask-type:luminance" maskUnits="userSpaceOnUse" x="115" y="123" width="68" height="87">
<path d="M136.303 126.175C136.702 125.419 137.301 124.787 138.034 124.346C138.767 123.905 139.607 123.673 140.463 123.674H180.563C180.563 123.674 183.46 123.674 182.595 129.168C181.729 134.662 169.838 168.209 166.964 178.352C164.09 188.495 163.483 209.872 163.483 209.872H115.388C115.388 209.872 119.199 158.75 136.303 126.175Z" fill="white"/>
</mask>
<g mask="url(#mask1_1003_992)">
<path opacity="0.16" d="M154.363 123.674H140.463C139.607 123.673 138.767 123.905 138.034 124.346C137.301 124.787 136.702 125.419 136.303 126.175C119.199 158.75 115.346 209.854 115.346 209.854H136.916L142.237 189.694L164.421 194.259C164.577 192.567 164.758 190.846 164.968 189.149L164.481 183.75C164.481 183.75 159.936 178.982 158.505 177.788C157.074 176.595 158.024 174.441 157.784 165.138C157.543 155.835 149.175 149.148 146.061 143.419C142.946 137.691 147.738 134.11 152.042 128.382C153.575 126.313 154.201 124.789 154.363 123.674Z" fill="black"/>
</g>
<path d="M136.304 126.177C136.703 125.421 137.301 124.789 138.034 124.348C138.768 123.907 139.608 123.675 140.464 123.676H180.563C180.563 123.676 183.461 123.676 182.595 129.17C181.73 134.664 169.838 168.211 166.964 178.354C164.091 188.497 163.483 209.874 163.483 209.874H115.388C115.388 209.874 119.2 158.752 136.304 126.177Z" stroke="#263238" stroke-linecap="round" stroke-linejoin="round"/>
<path d="M173.607 133.217C169.555 142.652 160.982 180.002 159.587 209.854H163.459C163.459 209.854 164.06 188.453 166.94 178.334C169.82 168.216 181.723 134.663 182.571 129.15C183.419 123.638 180.539 123.656 180.539 123.656C180.539 123.656 176.86 125.654 173.607 133.217Z" fill="#263238" stroke="#263238" stroke-linecap="round" stroke-linejoin="round"/>
<path d="M103.166 114.358C103.166 114.358 96.7694 110.616 94.3466 104.018C91.9238 97.4199 113.314 86.8513 122.603 86.1915C131.891 85.5317 134.512 87.9489 140.037 97.4139C145.562 106.879 149.301 119.859 146.434 126.24C143.566 132.622 138.714 134.164 142.225 139.436C145.736 144.708 155.68 159.68 155.019 166.721C154.357 173.763 147.522 179.917 137.584 180.589C127.647 181.261 114.42 175.305 103.395 165.594C92.3687 155.883 95.2304 141.601 99.1862 136.983C103.142 132.364 109.112 130.601 109.551 125.983C109.99 121.364 103.166 114.358 103.166 114.358Z" fill="#5C5858" stroke="#263238" stroke-linecap="round" stroke-linejoin="round"/>
<path d="M130.43 103.916C133.827 110.226 138.077 118.677 139.406 123.782C141.727 132.719 129.787 138.345 133.099 142.645" stroke="white" stroke-linecap="round" stroke-linejoin="round"/>
<path d="M125.801 95.6523C125.801 95.6523 127.123 97.9016 128.951 101.213" stroke="white" stroke-linecap="round" stroke-linejoin="round"/>
<path d="M143.62 111.527C144.012 112.71 144.266 113.934 144.378 115.174" stroke="white" stroke-linecap="round" stroke-linejoin="round"/>
<path d="M128.097 92.3711C128.097 92.3711 138.546 100.073 142.718 109.292" stroke="white" stroke-linecap="round" stroke-linejoin="round"/>
<path d="M113.597 98.1465C106.136 100.234 95.4048 103.623 96.2765 105.578" stroke="white" stroke-linecap="round" stroke-linejoin="round"/>
<path d="M120.492 96.3105C120.492 96.3105 118.899 96.7064 116.524 97.3422" stroke="white" stroke-linecap="round" stroke-linejoin="round"/>
<path d="M111.264 92.4256C115.537 91.0819 120.013 90.4932 124.49 90.6862" stroke="white" stroke-linecap="round" stroke-linejoin="round"/>
<path d="M108.222 93.6656C108.897 93.3144 109.596 93.0097 110.314 92.7539" stroke="white" stroke-linecap="round" stroke-linejoin="round"/>
<path d="M49.1852 106.609C48.1726 104.759 47.3662 102.804 46.7804 100.779C47.3634 102.805 48.1699 104.761 49.1852 106.609ZM46.7143 100.437C46.7143 100.473 46.7143 100.515 46.7143 100.569C46.7263 100.515 46.7203 100.473 46.7143 100.437ZM49.1852 106.603C51.4336 110.852 54.2309 114.789 57.5056 118.312C65.4474 126.895 88.3888 149.345 90.5711 150.887C92.7534 152.428 92.1162 156.825 90.5711 161.228C89.0261 165.63 83.2907 172.024 83.5131 179.054C83.7356 186.083 85.9179 196.88 85.7195 199.081C85.5211 201.283 80.0022 208.768 80.0022 208.768H136.911C136.911 208.768 129.817 199.771 129.817 196.694C129.817 193.617 139.556 154.192 139.995 151.331C140.434 148.47 138.672 146.49 135.143 146.268C131.614 146.046 118.16 143.185 117.498 140.984C116.837 138.783 121.027 130.422 121.027 130.422L107.801 131.081C107.801 131.081 107.14 136.804 106.256 137.907C105.372 139.011 104.05 136.804 100.96 135.268C97.8696 133.733 91.9418 132.407 89.7114 130.644C87.481 128.88 66.3311 109.051 66.3311 109.051" fill="white"/>
<mask id="mask2_1003_992" style="mask-type:luminance" maskUnits="userSpaceOnUse" x="46" y="100" width="95" height="109">
<path d="M49.1847 106.609C48.1721 104.759 47.3657 102.804 46.7799 100.779C47.3629 102.805 48.1694 104.761 49.1847 106.609ZM46.7138 100.437C46.7138 100.473 46.7138 100.515 46.7138 100.569C46.7258 100.515 46.7198 100.473 46.7138 100.437ZM49.1847 106.603C51.4331 110.852 54.2305 114.789 57.5051 118.312C65.4469 126.895 88.3883 149.345 90.5706 150.887C92.7529 152.428 92.1157 156.825 90.5706 161.228C89.0256 165.63 83.2902 172.024 83.5126 179.054C83.7351 186.083 85.9174 196.88 85.719 199.081C85.5206 201.283 80.0017 208.768 80.0017 208.768H136.91C136.91 208.768 129.816 199.771 129.816 196.694C129.816 193.617 139.556 154.192 139.994 151.331C140.433 148.47 138.672 146.49 135.143 146.268C131.614 146.046 118.159 143.185 117.498 140.984C116.837 138.783 121.027 130.422 121.027 130.422L107.801 131.081C107.801 131.081 107.139 136.804 106.256 137.907C105.372 139.011 104.049 136.804 100.959 135.268C97.8691 133.733 91.9413 132.407 89.7109 130.644C87.4805 128.88 66.3306 109.051 66.3306 109.051" fill="white"/>
</mask>
<g mask="url(#mask2_1003_992)">
<path d="M93.0898 132.342C94.19 134.261 95.2902 135.995 95.2902 135.995C95.2902 135.995 98.9995 138.076 99.9254 138.076C100.851 138.076 106.418 141.075 106.418 141.075C106.418 141.075 111.059 139.917 109.424 135.983C108.908 134.975 108.257 134.043 107.488 133.212C107.212 134.957 106.767 137.242 106.244 137.896C105.36 138.994 104.038 136.792 100.947 135.257C98.9454 134.261 95.705 133.349 93.0898 132.342Z" fill="#3D6498"/>
<path d="M81.7635 123.435C74.952 117.143 66.3309 109.075 66.3309 109.075L61.317 108.355L60.7158 108.691C60.7158 108.691 74.8678 121.185 77.8798 122.577C79.0983 123.136 80.4225 123.428 81.7635 123.435Z" fill="#3D6498"/>
<path d="M88.9 129.949L88.3589 129.469C88.6354 129.925 88.7917 130.213 88.7917 130.213L88.9 129.949Z" fill="#3D6498"/>
<g opacity="0.5">
<path d="M93.0898 132.342C94.19 134.261 95.2902 135.995 95.2902 135.995C95.2902 135.995 98.9995 138.076 99.9254 138.076C100.851 138.076 106.418 141.075 106.418 141.075C106.418 141.075 111.059 139.917 109.424 135.983C108.908 134.975 108.257 134.043 107.488 133.212C107.212 134.957 106.767 137.242 106.244 137.896C105.36 138.994 104.038 136.792 100.947 135.257C98.9454 134.261 95.705 133.349 93.0898 132.342Z" fill="white"/>
<path d="M81.7635 123.435C74.952 117.143 66.3309 109.075 66.3309 109.075L61.317 108.355L60.7158 108.691C60.7158 108.691 74.8678 121.185 77.8798 122.577C79.0983 123.136 80.4225 123.428 81.7635 123.435Z" fill="white"/>
<path d="M88.9 129.949L88.3589 129.469C88.6354 129.925 88.7917 130.213 88.7917 130.213L88.9 129.949Z" fill="white"/>
</g>
</g>
<path d="M46.7022 100.275C46.6995 100.317 46.6995 100.359 46.7022 100.401M46.7804 100.779C47.3662 102.804 48.1726 104.759 49.1852 106.609C48.1699 104.761 47.3634 102.805 46.7804 100.779ZM46.7804 100.779C46.7638 100.722 46.7517 100.664 46.7443 100.605M49.1852 106.603C51.4336 110.852 54.2309 114.789 57.5056 118.312C65.4474 126.895 88.3888 149.345 90.5711 150.887C92.7534 152.428 92.1162 156.825 90.5711 161.228C89.0261 165.63 83.2907 172.024 83.5131 179.054C83.7356 186.083 85.9179 196.88 85.7195 199.081C85.5211 201.283 80.0022 208.768 80.0022 208.768H136.911C136.911 208.768 129.817 199.771 129.817 196.694C129.817 193.617 139.556 154.192 139.995 151.331C140.434 148.47 138.672 146.49 135.143 146.268C131.614 146.046 118.16 143.185 117.498 140.984C116.837 138.783 121.027 130.422 121.027 130.422L107.801 131.081C107.801 131.081 107.14 136.804 106.256 137.907C105.372 139.011 104.05 136.804 100.96 135.268C97.8696 133.733 91.9418 132.407 89.7114 130.644C87.481 128.88 66.3311 109.051 66.3311 109.051M46.7143 100.437C46.7143 100.473 46.7143 100.515 46.7143 100.569C46.7263 100.515 46.7203 100.473 46.7143 100.437Z" stroke="#263238" stroke-linecap="round" stroke-linejoin="round"/>
<path d="M66.3312 109.074C66.3312 109.074 59.2853 109.206 55.3535 105.973" stroke="#263238" stroke-linecap="round" stroke-linejoin="round"/>
<path d="M117.505 140.984C116.843 138.789 121.034 130.422 121.034 130.422L107.807 131.082C107.807 131.082 107.146 136.804 106.262 137.907C105.379 139.011 104.056 136.804 100.966 135.268C100.731 135.148 100.473 135.034 100.208 134.92L99.4087 147.462C99.4087 147.462 100.569 159.608 114.481 157.299C120.114 156.363 126.126 151.349 131.314 145.711C125.975 144.733 118.01 142.67 117.505 140.984Z" fill="white"/>
<mask id="mask3_1003_992" style="mask-type:luminance" maskUnits="userSpaceOnUse" x="99" y="130" width="33" height="28">
<path d="M117.504 140.982C116.843 138.787 121.033 130.42 121.033 130.42L107.807 131.08C107.807 131.08 107.146 136.802 106.262 137.905C105.378 139.009 104.055 136.802 100.965 135.266C100.731 135.146 100.472 135.032 100.208 134.918L99.4082 147.46C99.4082 147.46 100.569 159.606 114.48 157.297C120.113 156.361 126.125 151.347 131.313 145.709C125.975 144.731 118.009 142.668 117.504 140.982Z" fill="white"/>
</mask>
<g mask="url(#mask3_1003_992)">
<path d="M117.131 132.083C117.131 132.083 116.332 136.557 115.689 141.506C115.045 146.454 114.57 150.137 114.57 150.137L117.504 140.984L120.811 131.285C120.811 131.285 117.612 131.285 117.131 132.083Z" fill="#3D6498"/>
<path opacity="0.5" d="M117.131 132.083C117.131 132.083 116.332 136.557 115.689 141.506C115.045 146.454 114.57 150.137 114.57 150.137L117.504 140.984L120.811 131.285C120.811 131.285 117.612 131.285 117.131 132.083Z" fill="white"/>
</g>
<path d="M117.505 140.984C116.843 138.789 121.034 130.422 121.034 130.422L107.807 131.082C107.807 131.082 107.146 136.804 106.262 137.907C105.379 139.011 104.056 136.804 100.966 135.268C100.731 135.148 100.473 135.034 100.208 134.92L99.4087 147.462C99.4087 147.462 100.569 159.608 114.481 157.299C120.114 156.363 126.126 151.349 131.314 145.711C125.975 144.733 118.01 142.67 117.505 140.984Z" stroke="#263238" stroke-linecap="round" stroke-linejoin="round"/>
<path d="M106.256 137.906C105.372 139.004 104.05 136.802 100.96 135.267C99.0118 134.289 95.9096 133.401 93.3425 132.442C92.6151 130.72 91.6532 128.477 91.034 127.121C89.9338 124.722 88.1663 126.24 88.1663 126.24C87.2442 125.193 86.499 124.004 85.9599 122.719C84.8597 120.32 83.0922 120.518 80.6695 120.08C78.2467 119.642 73.1666 115.017 73.1666 115.017C73.1666 115.017 70.7919 113.218 69.812 112.324C68.6697 114.567 65.9343 118.514 60.0186 120.979C69.4512 130.81 88.5871 149.488 90.5951 150.892C92.8015 152.427 92.1402 156.83 90.5951 161.232C89.05 165.635 83.3147 172.029 83.5371 179.059C83.7596 186.088 85.9419 196.885 85.7435 199.086C85.5451 201.047 81.1444 207.195 80.1885 208.515L82.4309 208.767H94.1061C94.0399 202.865 94.0459 178.777 98.0919 169.18C102.727 158.149 106.256 137.906 106.256 137.906Z" fill="#3D6498"/>
<mask id="mask4_1003_992" style="mask-type:luminance" maskUnits="userSpaceOnUse" x="60" y="112" width="47" height="97">
<path d="M106.256 137.908C105.372 139.006 104.05 136.804 100.96 135.269C99.0118 134.291 95.9096 133.403 93.3425 132.444C92.6151 130.722 91.6532 128.479 91.034 127.123C89.9338 124.724 88.1663 126.242 88.1663 126.242C87.2442 125.195 86.499 124.006 85.9599 122.721C84.8597 120.322 83.0922 120.52 80.6695 120.082C78.2467 119.644 73.1666 115.019 73.1666 115.019C73.1666 115.019 70.7919 113.22 69.812 112.326C68.6697 114.569 65.9343 118.516 60.0186 120.981C69.4512 130.812 88.5871 149.49 90.5951 150.894C92.8015 152.429 92.1402 156.832 90.5951 161.234C89.05 165.637 83.3147 172.031 83.5371 179.06C83.7596 186.09 85.9419 196.887 85.7435 199.088C85.5451 201.049 81.1444 207.197 80.1885 208.517L82.4309 208.769H94.1061C94.0399 202.867 94.0459 178.779 98.0919 169.182C102.727 158.151 106.256 137.908 106.256 137.908Z" fill="white"/>
</mask>
<g mask="url(#mask4_1003_992)">
<path opacity="0.16" d="M100.96 135.269C99.012 134.291 95.9098 133.403 93.3427 132.444C92.6153 130.722 91.6534 128.479 91.0342 127.123C89.934 124.724 88.1665 126.242 88.1665 126.242C87.2444 125.195 86.4992 124.006 85.9601 122.721C84.8599 120.322 83.0924 120.52 80.6696 120.082C78.2468 119.644 73.1668 115.019 73.1668 115.019C73.1668 115.019 70.7921 113.22 69.8121 112.326C69.3232 113.279 68.7412 114.181 68.0747 115.019C72.0185 118.348 76.3711 121.875 77.8921 122.577C80.8981 123.962 81.6015 122.805 83.9041 124.196C86.2066 125.588 88.7737 130.194 88.7737 130.194C88.7737 130.194 90.1685 126.488 91.3288 129.037C92.489 131.586 95.2726 135.976 95.2726 135.976C95.2726 135.976 98.9819 138.058 99.9077 138.058C100.635 138.058 104.2 139.905 105.715 140.703C106.052 138.946 106.238 137.89 106.238 137.89C105.373 139.006 104.05 136.804 100.96 135.269Z" fill="black"/>
</g>
<path d="M106.256 137.906C105.372 139.004 104.05 136.802 100.96 135.267C99.0118 134.289 95.9096 133.401 93.3425 132.442C92.6151 130.72 91.6532 128.477 91.034 127.121C89.9338 124.722 88.1663 126.24 88.1663 126.24C87.2442 125.193 86.499 124.004 85.9599 122.719C84.8597 120.32 83.0922 120.518 80.6695 120.08C78.2467 119.642 73.1666 115.017 73.1666 115.017C73.1666 115.017 70.7919 113.218 69.812 112.324C68.6697 114.567 65.9343 118.514 60.0186 120.979C69.4512 130.81 88.5871 149.488 90.5951 150.892C92.8015 152.427 92.1402 156.83 90.5951 161.232C89.05 165.635 83.3147 172.029 83.5371 179.059C83.7596 186.088 85.9419 196.885 85.7435 199.086C85.5451 201.047 81.1444 207.195 80.1885 208.515L82.4309 208.767H94.1061C94.0399 202.865 94.0459 178.777 98.0919 169.18C102.727 158.149 106.256 137.906 106.256 137.906Z" stroke="#263238" stroke-linecap="round" stroke-linejoin="round"/>
<path d="M106.412 137.14C106.412 137.14 103.671 136.301 101.982 137.776C100.292 139.252 97.7734 146.821 96.2884 155.032C95.3732 159.813 96.0048 164.759 98.092 169.158C98.092 169.158 101.561 160.083 102.613 155.662C103.665 151.242 106.412 137.14 106.412 137.14Z" fill="#3D6498"/>
<mask id="mask5_1003_992" style="mask-type:luminance" maskUnits="userSpaceOnUse" x="95" y="136" width="12" height="34">
<path d="M106.412 137.138C106.412 137.138 103.671 136.299 101.981 137.774C100.292 139.25 97.7729 146.819 96.2879 155.031C95.3727 159.811 96.0043 164.757 98.0915 169.156C98.0915 169.156 101.56 160.081 102.612 155.66C103.665 151.24 106.412 137.138 106.412 137.138Z" fill="white"/>
</mask>
<g mask="url(#mask5_1003_992)">
<path opacity="0.16" d="M101.152 138.479C101.152 138.479 103.136 137.999 103.953 138.275C104.642 138.569 105.285 138.959 105.865 139.432L106.412 137.141C105.592 136.723 104.661 136.57 103.749 136.703C102.384 136.979 101.152 138.479 101.152 138.479Z" fill="black"/>
</g>
<path d="M106.412 137.14C106.412 137.14 103.671 136.301 101.982 137.776C100.292 139.252 97.7734 146.821 96.2884 155.032C95.3732 159.813 96.0048 164.759 98.092 169.158C98.092 169.158 101.561 160.083 102.613 155.662C103.665 151.242 106.412 137.14 106.412 137.14Z" stroke="#263238" stroke-linecap="round" stroke-linejoin="round"/>
<path d="M87.9498 137.858L91.4788 152.163L83.5371 134.115" stroke="#263238" stroke-linecap="round" stroke-linejoin="round"/>
<path d="M111.198 208.766H136.917C136.917 208.766 129.823 199.769 129.823 196.692C129.823 193.615 139.562 154.19 140.001 151.329C140.44 148.468 138.678 146.489 135.149 146.267C131.62 146.045 118.166 143.184 117.504 140.982C117.504 140.982 112.43 158.809 110.669 170.913C109.154 181.295 110.723 202.84 111.198 208.766Z" fill="#3D6498"/>
<mask id="mask6_1003_992" style="mask-type:luminance" maskUnits="userSpaceOnUse" x="110" y="140" width="31" height="69">
<path d="M111.198 208.77H136.917C136.917 208.77 129.823 199.773 129.823 196.696C129.823 193.619 139.562 154.194 140.001 151.333C140.44 148.472 138.679 146.493 135.15 146.271C131.621 146.049 118.166 143.188 117.505 140.986C117.505 140.986 112.431 158.813 110.669 170.917C109.154 181.299 110.723 202.844 111.198 208.77Z" fill="white"/>
</mask>
<g mask="url(#mask6_1003_992)">
<path opacity="0.16" d="M135.149 146.269C132.258 146.089 122.705 144.134 118.983 142.227L120.336 145.346C122.787 146.643 125.423 147.557 128.152 148.057C132.63 148.854 136.797 148.698 139.52 152.693L139.652 152.891C139.821 152.123 139.935 151.584 139.971 151.332C140.446 148.471 138.678 146.491 135.149 146.269Z" fill="black"/>
</g>
<path d="M111.198 208.766H136.917C136.917 208.766 129.823 199.769 129.823 196.692C129.823 193.615 139.562 154.19 140.001 151.329C140.44 148.468 138.678 146.489 135.149 146.267C131.62 146.045 118.166 143.184 117.504 140.982C117.504 140.982 112.43 158.809 110.669 170.913C109.154 181.295 110.723 202.84 111.198 208.766Z" stroke="#263238" stroke-linecap="round" stroke-linejoin="round"/>
<path d="M117.504 140.982C117.504 140.982 110.699 162.575 110.668 170.913C110.668 170.913 120.336 159.234 121.598 151.029C122.861 142.824 117.504 140.982 117.504 140.982Z" fill="#3D6498"/>
<mask id="mask7_1003_992" style="mask-type:luminance" maskUnits="userSpaceOnUse" x="110" y="140" width="12" height="31">
<path d="M117.504 140.986C117.504 140.986 110.699 162.579 110.669 170.917C110.669 170.917 120.336 159.238 121.599 151.033C122.861 142.828 117.504 140.986 117.504 140.986Z" fill="white"/>
</mask>
<g mask="url(#mask7_1003_992)">
<path opacity="0.16" d="M116.332 143.745C117.355 143.711 118.37 143.926 119.291 144.371C120.212 144.816 121.01 145.479 121.617 146.301C121.617 146.301 120.282 142.384 117.504 140.986L116.332 143.745Z" fill="black"/>
</g>
<path d="M190.158 204.709C190.158 204.709 195.142 204.913 198.406 205.38C200.583 205.675 202.775 205.849 204.971 205.902C204.971 205.902 203.168 202.267 201.244 201.242C199.32 200.216 195.833 198.381 192.912 198.789C189.99 199.196 185.811 202.136 186.16 203.071C186.509 204.007 188.066 204.427 190.158 204.709Z" fill="white"/>
<mask id="mask8_1003_992" style="mask-type:luminance" maskUnits="userSpaceOnUse" x="186" y="198" width="19" height="8">
<path d="M190.158 204.707C190.158 204.707 195.142 204.911 198.406 205.379C200.583 205.673 202.775 205.847 204.971 205.9C204.971 205.9 203.168 202.266 201.244 201.24C199.32 200.214 195.833 198.379 192.912 198.787C189.99 199.195 185.811 202.134 186.16 203.069C186.509 204.005 188.066 204.425 190.158 204.707Z" fill="white"/>
</mask>
<g mask="url(#mask8_1003_992)">
<path d="M190.158 204.707C190.158 204.707 195.142 204.911 198.406 205.379C200.583 205.673 202.775 205.847 204.971 205.9C204.971 205.9 203.168 202.266 201.244 201.24C199.32 200.214 195.833 198.379 192.912 198.787C189.99 199.195 185.811 202.134 186.16 203.069C186.509 204.005 188.066 204.425 190.158 204.707Z" fill="#3D6498"/>
<path opacity="0.5" d="M190.158 204.707C190.158 204.707 195.142 204.911 198.406 205.379C200.583 205.673 202.775 205.847 204.971 205.9C204.971 205.9 203.168 202.266 201.244 201.24C199.32 200.214 195.833 198.379 192.912 198.787C189.99 199.195 185.811 202.134 186.16 203.069C186.509 204.005 188.066 204.425 190.158 204.707Z" fill="white"/>
</g>
<path d="M190.158 204.709C190.158 204.709 195.142 204.913 198.406 205.38C200.583 205.675 202.775 205.849 204.971 205.902C204.971 205.902 203.168 202.267 201.244 201.242C199.32 200.216 195.833 198.381 192.912 198.789C189.99 199.196 185.811 202.136 186.16 203.071C186.509 204.007 188.066 204.427 190.158 204.709Z" stroke="#263238" stroke-linecap="round" stroke-linejoin="round"/>
<path d="M198.437 203.221C198.437 203.221 202.386 201.175 203.372 201.205C204.358 201.235 210.911 205.656 210.587 206.364C210.366 206.692 210.048 206.943 209.677 207.08C209.306 207.218 208.9 207.236 208.518 207.131C207.791 206.79 203.378 204.918 203.378 204.918L200.493 205.596L198.437 203.221Z" fill="white"/>
<mask id="mask9_1003_992" style="mask-type:luminance" maskUnits="userSpaceOnUse" x="198" y="201" width="13" height="7">
<path d="M198.437 203.219C198.437 203.219 202.386 201.173 203.372 201.203C204.358 201.233 210.911 205.654 210.587 206.362C210.366 206.69 210.048 206.941 209.677 207.079C209.306 207.216 208.9 207.234 208.518 207.13C207.791 206.788 203.378 204.916 203.378 204.916L200.493 205.594L198.437 203.219Z" fill="white"/>
</mask>
<g mask="url(#mask9_1003_992)">
<path d="M198.437 203.219C198.437 203.219 202.386 201.173 203.372 201.203C204.358 201.233 210.911 205.654 210.587 206.362C210.262 207.07 208.711 207.645 208.518 207.13C208.326 206.614 203.378 204.916 203.378 204.916L200.493 205.594L198.437 203.219Z" fill="#3D6498"/>
<path opacity="0.5" d="M198.437 203.219C198.437 203.219 202.386 201.173 203.372 201.203C204.358 201.233 210.911 205.654 210.587 206.362C210.262 207.07 208.711 207.645 208.518 207.13C208.326 206.614 203.378 204.916 203.378 204.916L200.493 205.594L198.437 203.219Z" fill="white"/>
</g>
<path d="M198.437 203.221C198.437 203.221 202.386 201.175 203.372 201.205C204.358 201.235 210.911 205.656 210.587 206.364C210.366 206.692 210.048 206.943 209.677 207.08C209.306 207.218 208.9 207.236 208.518 207.131C207.791 206.79 203.378 204.918 203.378 204.918L200.493 205.596L198.437 203.221Z" stroke="#263238" stroke-linecap="round" stroke-linejoin="round"/>
<path d="M195.617 199.854C195.617 199.854 200.884 199.686 201.93 200.213C202.976 200.741 207.701 208.827 206.992 209.414C206.282 210.002 204.322 209.828 204.383 209.174C204.443 208.521 200.03 204.19 200.03 204.19L196.597 203.44L195.617 199.854Z" fill="white"/>
<mask id="mask10_1003_992" style="mask-type:luminance" maskUnits="userSpaceOnUse" x="195" y="199" width="13" height="11">
<path d="M195.617 199.852C195.617 199.852 200.883 199.684 201.929 200.211C202.975 200.739 207.701 208.825 206.991 209.412C206.282 210 204.322 209.826 204.382 209.173C204.442 208.519 200.029 204.188 200.029 204.188L196.597 203.438L195.617 199.852Z" fill="white"/>
</mask>
<g mask="url(#mask10_1003_992)">
<path d="M195.617 199.852C195.617 199.852 200.883 199.684 201.929 200.211C202.975 200.739 207.701 208.825 206.991 209.412C206.282 210 204.322 209.826 204.382 209.173C204.442 208.519 200.029 204.188 200.029 204.188L196.597 203.438L195.617 199.852Z" fill="#3D6498"/>
<path opacity="0.5" d="M195.617 199.852C195.617 199.852 200.883 199.684 201.929 200.211C202.975 200.739 207.701 208.825 206.991 209.412C206.282 210 204.322 209.826 204.382 209.173C204.442 208.519 200.029 204.188 200.029 204.188L196.597 203.438L195.617 199.852Z" fill="white"/>
</g>
<path d="M195.617 199.854C195.617 199.854 200.884 199.686 201.93 200.213C202.976 200.741 207.701 208.827 206.992 209.414C206.282 210.002 204.322 209.828 204.383 209.174C204.443 208.521 200.03 204.19 200.03 204.19L196.597 203.44L195.617 199.854Z" stroke="#263238" stroke-linecap="round" stroke-linejoin="round"/>
<path d="M192.497 198.771C192.497 198.771 197.829 198.597 198.887 199.137C199.945 199.677 204.731 207.852 204.009 208.452C203.288 209.052 201.316 208.866 201.376 208.206C201.436 207.546 196.969 203.161 196.969 203.161L193.495 202.4L192.497 198.771Z" fill="white"/>
<mask id="mask11_1003_992" style="mask-type:luminance" maskUnits="userSpaceOnUse" x="192" y="198" width="13" height="11">
<path d="M192.497 198.771C192.497 198.771 197.829 198.597 198.887 199.137C199.945 199.677 204.731 207.852 204.009 208.452C203.288 209.052 201.316 208.866 201.376 208.206C201.436 207.546 196.969 203.161 196.969 203.161L193.495 202.4L192.497 198.771Z" fill="white"/>
</mask>
<g mask="url(#mask11_1003_992)">
<path d="M192.497 198.771C192.497 198.771 197.829 198.597 198.887 199.137C199.945 199.677 204.731 207.852 204.009 208.452C203.288 209.052 201.316 208.866 201.376 208.206C201.436 207.546 196.969 203.161 196.969 203.161L193.495 202.4L192.497 198.771Z" fill="#3D6498"/>
<path opacity="0.5" d="M192.497 198.771C192.497 198.771 197.829 198.597 198.887 199.137C199.945 199.677 204.731 207.852 204.009 208.452C203.288 209.052 201.316 208.866 201.376 208.206C201.436 207.546 196.969 203.161 196.969 203.161L193.495 202.4L192.497 198.771Z" fill="white"/>
</g>
<path d="M192.497 198.771C192.497 198.771 197.829 198.597 198.887 199.137C199.945 199.677 204.731 207.852 204.009 208.452C203.288 209.052 201.316 208.866 201.376 208.206C201.436 207.546 196.969 203.161 196.969 203.161L193.495 202.4L192.497 198.771Z" stroke="#263238" stroke-linecap="round" stroke-linejoin="round"/>
<path d="M131.867 168.286C135.727 174.218 143.476 189.249 145.736 190.941C149.265 193.58 172.856 199.986 175.129 201.737C177.401 203.489 177.245 205.246 179.397 205.888C181.549 206.53 189.617 208.371 192.695 208.659C195.774 208.947 194.397 207.046 194.397 207.046L189.148 203.447L193.723 202.319C193.723 202.319 198.311 207.825 199.17 208.125C200.03 208.425 201.545 208.125 201.449 207.447C201.28 206.362 196.387 197.479 194.649 197.101C192.912 196.723 182.367 198.18 182.367 198.18C182.367 198.18 160.249 183.299 159.852 182.771C159.852 182.771 158.53 179.029 157.448 177.487C156.365 175.946 155.68 176.39 155.68 176.39C155.68 176.39 156.125 174.404 155.464 173.744L151.935 170.224L151.808 170.391C151.207 169.192 150.606 167.824 149.945 166.265C148.099 161.928 141.564 149.758 140.464 148.001C139.64 146.687 132.739 145.745 129.24 145.35" fill="#3D6498"/>
<mask id="mask12_1003_992" style="mask-type:luminance" maskUnits="userSpaceOnUse" x="129" y="145" width="73" height="64">
<path d="M131.866 168.288C135.726 174.22 143.475 189.251 145.736 190.943C149.265 193.582 172.856 199.988 175.128 201.739C177.401 203.491 177.244 205.248 179.397 205.89C181.549 206.532 189.617 208.373 192.695 208.661C195.773 208.949 194.396 207.048 194.396 207.048L189.148 203.449L193.723 202.321C193.723 202.321 198.31 207.827 199.17 208.127C200.029 208.427 201.544 208.127 201.448 207.449C201.28 206.364 196.386 197.481 194.649 197.103C192.911 196.725 182.366 198.182 182.366 198.182C182.366 198.182 160.249 183.301 159.852 182.773C159.852 182.773 158.529 179.031 157.447 177.489C156.365 175.948 155.68 176.391 155.68 176.391C155.68 176.391 156.124 174.406 155.463 173.746L151.934 170.225L151.808 170.393C151.207 169.194 150.606 167.826 149.944 166.267C148.099 161.93 141.564 149.76 140.463 148.003C139.64 146.689 132.738 145.747 129.239 145.352" fill="white"/>
</mask>
<g mask="url(#mask12_1003_992)">
<path opacity="0.16" d="M147.233 168.665C150.119 171.22 149.157 171.22 148.514 173.464C147.871 175.707 148.995 172.666 151.718 172.828C154.442 172.99 153.642 176.499 153.317 177.14C152.993 177.782 156.684 178.58 156.041 180.013C155.398 181.447 151.718 183.528 149.638 185.61C147.558 187.691 155.079 182.251 157.64 182.095C158.422 182.041 159.065 182.143 159.606 182.131C159.038 180.526 158.309 178.982 157.43 177.524C156.323 175.983 155.662 176.427 155.662 176.427C155.662 176.427 156.107 174.441 155.446 173.781L151.917 170.261L151.79 170.429C151.189 169.229 150.588 167.861 149.927 166.302C148.081 161.965 141.546 149.795 140.446 148.038C139.622 146.724 132.721 145.783 129.222 145.387L129.54 148.164L129.618 148.224C129.618 148.224 133.941 149.022 135.384 149.183C136.827 149.345 138.588 150.617 138.426 151.583C138.264 152.548 134.103 156.855 135.384 157.179C136.664 157.503 138.107 153.982 139.55 154.462C140.993 154.942 144.33 166.11 147.233 168.665Z" fill="black"/>
</g>
<path d="M131.867 168.286C135.727 174.218 143.476 189.249 145.736 190.941C149.265 193.58 172.856 199.986 175.129 201.737C177.401 203.489 177.245 205.246 179.397 205.888C181.549 206.53 189.617 208.371 192.695 208.659C195.774 208.947 194.397 207.046 194.397 207.046L189.148 203.447L193.723 202.319C193.723 202.319 198.311 207.825 199.17 208.125C200.03 208.425 201.545 208.125 201.449 207.447C201.28 206.362 196.387 197.479 194.649 197.101C192.912 196.723 182.367 198.18 182.367 198.18C182.367 198.18 160.249 183.299 159.852 182.771C159.852 182.771 158.53 179.029 157.448 177.487C156.365 175.946 155.68 176.39 155.68 176.39C155.68 176.39 156.125 174.404 155.464 173.744L151.935 170.224L151.808 170.391C151.207 169.192 150.606 167.824 149.945 166.265C148.099 161.928 141.564 149.758 140.464 148.001C139.64 146.687 132.739 145.745 129.24 145.35" stroke="#263238" stroke-linecap="round" stroke-linejoin="round"/>
<path d="M131.927 160.146C131.765 160.686 131.626 161.226 131.518 161.778" stroke="#263238" stroke-linecap="round" stroke-linejoin="round"/>
<path d="M137.771 150.221C135.881 152.369 134.288 154.759 133.033 157.328" stroke="#263238" stroke-linecap="round" stroke-linejoin="round"/>
<path d="M146.602 184.277C148.225 181.878 150.81 178.837 153.66 177.967" stroke="#263238" stroke-linecap="round" stroke-linejoin="round"/>
<path d="M144.805 187.228C144.805 187.228 145.093 186.664 145.61 185.812" stroke="#263238" stroke-linecap="round" stroke-linejoin="round"/>
<path d="M144.805 183.438C144.805 183.438 147.757 176.073 150.708 174.177C153.66 172.282 151.971 176.073 151.971 176.073" stroke="#263238" stroke-linecap="round" stroke-linejoin="round"/>
<path d="M175.129 201.744C177.407 203.502 177.245 205.253 179.397 205.895C181.549 206.537 189.617 208.378 192.695 208.666C195.773 208.954 194.397 207.053 194.397 207.053L189.148 203.454L193.723 202.326C193.723 202.326 198.311 207.832 199.17 208.132C200.03 208.432 201.665 208.54 201.449 207.454C201.028 205.355 196.387 197.486 194.649 197.108C192.912 196.73 182.367 198.187 182.367 198.187C182.367 198.187 162.221 184.392 160.015 182.898C151.46 183.72 147.39 188.189 145.676 190.87L145.736 190.918C149.265 193.581 172.856 199.987 175.129 201.744Z" fill="white"/>
<mask id="mask13_1003_992" style="mask-type:luminance" maskUnits="userSpaceOnUse" x="145" y="182" width="57" height="27">
<path d="M175.129 201.742C177.407 203.5 177.245 205.251 179.397 205.893C181.549 206.535 189.617 208.376 192.695 208.664C195.773 208.952 194.397 207.051 194.397 207.051L189.148 203.452L193.723 202.324C193.723 202.324 198.311 207.83 199.17 208.13C200.03 208.43 201.665 208.538 201.449 207.452C201.028 205.353 196.387 197.484 194.649 197.106C192.912 196.728 182.367 198.186 182.367 198.186C182.367 198.186 162.221 184.39 160.015 182.896C151.46 183.718 147.39 188.187 145.676 190.868L145.736 190.916C149.265 193.579 172.856 199.985 175.129 201.742Z" fill="white"/>
</mask>
<g mask="url(#mask13_1003_992)">
<path d="M201.443 207.476C200.349 204.807 196.381 197.507 194.644 197.129C192.906 196.751 182.361 198.209 182.361 198.209C182.361 198.209 162.215 184.413 160.009 182.92C157.764 183.115 155.56 183.647 153.474 184.497C156.654 186.297 177.852 198.293 180.528 198.827C183.365 199.427 192.834 197.873 194.499 198.989C195.557 199.696 198.708 204.681 200.836 208.22C201.443 208.13 201.666 208.016 201.443 207.476Z" fill="#3D6498"/>
<path opacity="0.5" d="M201.443 207.476C199.736 203.655 196.381 197.507 194.644 197.129C192.906 196.751 182.361 198.209 182.361 198.209C182.361 198.209 162.215 184.413 160.009 182.92C157.764 183.115 155.56 183.647 153.474 184.497C156.654 186.297 177.852 198.293 180.528 198.827C183.365 199.427 192.834 197.873 194.499 198.989C195.557 199.696 198.708 204.681 200.836 208.22C201.443 208.13 201.684 208.01 201.443 207.476Z" fill="white"/>
</g>
<path d="M175.129 201.744C177.407 203.502 177.245 205.253 179.397 205.895C181.549 206.537 189.617 208.378 192.695 208.666C195.773 208.954 194.397 207.053 194.397 207.053L189.148 203.454L193.723 202.326C193.723 202.326 198.311 207.832 199.17 208.132C200.03 208.432 201.665 208.54 201.449 207.454C201.028 205.355 196.387 197.486 194.649 197.108C192.912 196.73 182.367 198.187 182.367 198.187C182.367 198.187 162.221 184.392 160.015 182.898C151.46 183.72 147.39 188.189 145.676 190.87L145.736 190.918C149.265 193.581 172.856 199.987 175.129 201.744Z" stroke="#263238" stroke-linecap="round" stroke-linejoin="round"/>
<path d="M121.995 97.0059L103.887 104.545C103.668 107.721 102.88 110.831 101.561 113.728C99.4206 118.245 100.671 126.792 102.727 131.405C104.783 136.017 113.843 134.212 117.156 133.636C119.402 133.21 121.603 132.569 123.727 131.723C124.694 132.094 125.74 132.215 126.766 132.072C127.793 131.929 128.766 131.528 129.594 130.907C129.594 130.907 119.903 103.766 121.995 97.0059Z" fill="white"/>
<mask id="mask14_1003_992" style="mask-type:luminance" maskUnits="userSpaceOnUse" x="100" y="97" width="30" height="38">
<path d="M121.995 97.0078L103.887 104.547C103.668 107.722 102.88 110.833 101.561 113.73C99.4206 118.247 100.671 126.794 102.727 131.407C104.783 136.019 113.843 134.214 117.156 133.638C119.402 133.211 121.603 132.571 123.727 131.725C124.694 132.096 125.74 132.217 126.766 132.074C127.793 131.931 128.766 131.53 129.594 130.909C129.594 130.909 119.903 103.768 121.995 97.0078Z" fill="white"/>
</mask>
<g mask="url(#mask14_1003_992)">
<path d="M121.995 97.0078L103.887 104.547C103.668 107.722 102.88 110.833 101.561 113.73C99.4206 118.247 100.671 126.794 102.727 131.407C103.071 132.148 103.625 132.774 104.32 133.206V132.858C104.32 132.858 100.96 124.551 101.597 119.758C102.234 114.966 104.964 112.561 105.282 109.532C105.601 106.503 105.439 105.063 111.529 102.826C117.619 100.589 120.174 98.5133 120.811 100.745C121.448 102.976 124.015 117.683 125.777 121.198C127.538 124.713 127.376 128.396 124.659 129.985C121.912 131.63 118.969 132.924 115.899 133.836L117.18 133.614C119.427 133.188 121.627 132.547 123.751 131.701C124.718 132.072 125.764 132.193 126.79 132.05C127.817 131.907 128.79 131.506 129.618 130.885C129.618 130.885 119.903 103.768 121.995 97.0078Z" fill="#3D6498"/>
<path opacity="0.5" d="M121.995 97.0078L103.887 104.547C103.668 107.722 102.88 110.833 101.561 113.73C99.4206 118.247 100.671 126.794 102.727 131.407C103.071 132.148 103.625 132.774 104.32 133.206V132.858C104.32 132.858 100.96 124.551 101.597 119.758C102.234 114.966 104.964 112.561 105.282 109.532C105.601 106.503 105.439 105.063 111.529 102.826C117.619 100.589 120.174 98.5133 120.811 100.745C121.448 102.976 124.015 117.683 125.777 121.198C127.538 124.713 127.376 128.396 124.659 129.985C121.912 131.63 118.969 132.924 115.899 133.836L117.18 133.614C119.427 133.188 121.627 132.547 123.751 131.701C124.718 132.072 125.764 132.193 126.79 132.05C127.817 131.907 128.79 131.506 129.618 130.885C129.618 130.885 119.903 103.768 121.995 97.0078Z" fill="white"/>
</g>
<path d="M121.995 97.0059L103.887 104.545C103.668 107.721 102.88 110.831 101.561 113.728C99.4206 118.245 100.671 126.792 102.727 131.405C104.783 136.017 113.843 134.212 117.156 133.636C119.402 133.21 121.603 132.569 123.727 131.723C124.694 132.094 125.74 132.215 126.766 132.072C127.793 131.929 128.766 131.528 129.594 130.907C129.594 130.907 119.903 103.766 121.995 97.0059Z" stroke="#263238" stroke-linecap="round" stroke-linejoin="round"/>
<path d="M112.845 108.828C112.894 109.89 112.762 110.953 112.454 111.971C111.973 113.171 107.434 117.885 107.572 118.395C107.711 118.905 108.12 120.542 108.925 120.698" stroke="#263238" stroke-linecap="round" stroke-linejoin="round"/>
<path d="M117.877 113.044C118.508 111.785 120.582 113.014 120.552 115.851" stroke="#263238" stroke-linecap="round" stroke-linejoin="round"/>
<path d="M107.597 109.34C107.597 109.34 109.364 108.566 110.945 111.421" stroke="#263238" stroke-linecap="round" stroke-linejoin="round"/>
<path d="M115.364 117.201C117.407 117.304 119.349 118.117 120.853 119.498" stroke="#263238" stroke-width="0.5" stroke-linecap="round" stroke-linejoin="round"/>
<path d="M105.462 113.453C106.518 113.594 107.55 113.878 108.528 114.299" stroke="#263238" stroke-width="0.5" stroke-linecap="round" stroke-linejoin="round"/>
<path d="M112.647 106.165C112.18 105.918 111.662 105.784 111.134 105.771C110.606 105.759 110.083 105.869 109.605 106.093C107.987 106.867 106.996 107.718 107.104 106.729C107.212 105.739 109.112 104.647 109.683 104.503C110.254 104.359 112.809 103.963 112.647 106.165Z" fill="#263238"/>
<path d="M117.18 103.927C118.865 105.288 120.204 107.026 121.087 109.001C122.29 112 123.24 108.726 122.29 106.764C121.34 104.803 118.592 102.715 117.18 103.927Z" fill="#263238"/>
<path d="M129.859 136.036C129.859 137.434 129.065 138.568 128.091 138.568C127.117 138.568 126.33 137.434 126.33 136.036C126.33 134.639 127.117 131.082 128.091 131.082C129.065 131.082 129.859 134.639 129.859 136.036Z" fill="#3D6498" stroke="#263238" stroke-linecap="round" stroke-linejoin="round"/>
<path d="M118.034 112.5C117.964 112.683 117.91 112.872 117.871 113.064C117.697 113.952 117.523 115.805 117.871 115.883C118.22 115.961 119.074 114.227 119.224 113.34C119.258 113.166 119.278 112.989 119.284 112.812C118.874 112.684 118.456 112.579 118.034 112.5Z" fill="#263238"/>
<path d="M107.777 109.164C107.724 109.321 107.681 109.482 107.651 109.644C107.47 110.532 107.476 112.481 107.855 112.553C108.234 112.625 108.853 110.802 109.027 109.914C109.071 109.699 109.095 109.48 109.1 109.26C108.669 109.142 108.22 109.11 107.777 109.164Z" fill="#263238"/>
<path d="M117.877 113.075L118.478 111.959C119.431 112.144 120.295 112.643 120.931 113.375" stroke="#263238" stroke-width="0.75" stroke-linecap="round" stroke-linejoin="round"/>
<path d="M107.777 109.165L108.379 108.463C108.379 108.463 108.637 108.337 110.056 108.979" stroke="#263238" stroke-width="0.75" stroke-linecap="round" stroke-linejoin="round"/>
<path d="M105.499 125.432C105.499 125.432 106.509 123.578 107.861 123.578C109.214 123.578 110.224 126.607 110.224 126.607" stroke="#263238" stroke-linecap="round" stroke-linejoin="round"/>
<path d="M61.9664 205.362C60.6591 205.298 59.3751 204.993 58.1788 204.463C58.012 204.401 57.8595 204.306 57.7306 204.184C57.6017 204.062 57.4991 203.915 57.429 203.752C57.3588 203.589 57.3227 203.413 57.3228 203.236C57.3229 203.058 57.3591 202.883 57.4294 202.72C57.4996 202.557 57.6024 202.41 57.7314 202.288C57.8604 202.165 58.013 202.071 58.1799 202.009C58.3467 201.948 58.5244 201.921 58.702 201.93C58.8795 201.94 59.0534 201.985 59.2129 202.063C60.4153 202.573 61.9724 202.891 62.3872 202.711C63.1507 201.859 64.323 196.713 62.808 194.23C62.4653 193.678 62.1467 193.576 61.9363 193.552C61.0766 193.432 59.8021 194.314 59.3512 194.752C59.2256 194.87 59.078 194.962 58.9167 195.024C58.7554 195.085 58.5836 195.114 58.4111 195.109C58.2386 195.104 58.0688 195.065 57.9114 194.994C57.7539 194.924 57.6119 194.823 57.4935 194.698C57.3751 194.573 57.2825 194.425 57.2212 194.264C57.1598 194.103 57.1308 193.932 57.1358 193.76C57.1408 193.588 57.1798 193.418 57.2504 193.261C57.3211 193.104 57.4221 192.963 57.5476 192.844C57.7821 192.616 59.9524 190.667 62.2669 190.979C62.841 191.063 63.388 191.277 63.8656 191.606C64.3431 191.935 64.7383 192.369 65.0204 192.874C67.2508 196.503 65.7238 203.407 64.0104 204.775C63.415 205.195 62.6946 205.402 61.9664 205.362Z" fill="#DE771C"/>
<mask id="mask15_1003_992" style="mask-type:luminance" maskUnits="userSpaceOnUse" x="57" y="190" width="10" height="16">
<path d="M61.9664 205.36C60.6591 205.296 59.3751 204.991 58.1788 204.461C58.012 204.399 57.8595 204.304 57.7306 204.182C57.6017 204.06 57.4991 203.913 57.429 203.75C57.3588 203.587 57.3227 203.411 57.3228 203.234C57.3229 203.056 57.3591 202.881 57.4294 202.718C57.4996 202.555 57.6024 202.408 57.7314 202.286C57.8604 202.164 58.013 202.069 58.1799 202.007C58.3467 201.946 58.5244 201.919 58.702 201.928C58.8795 201.938 59.0534 201.983 59.2129 202.061C60.4153 202.571 61.9724 202.889 62.3872 202.709C63.1507 201.858 64.323 196.711 62.808 194.228C62.4653 193.676 62.1467 193.574 61.9363 193.55C61.0766 193.43 59.8021 194.312 59.3512 194.75C59.2256 194.868 59.078 194.96 58.9167 195.022C58.7554 195.083 58.5836 195.112 58.4111 195.107C58.2386 195.102 58.0688 195.063 57.9114 194.992C57.7539 194.922 57.6119 194.821 57.4935 194.696C57.3751 194.571 57.2825 194.423 57.2212 194.262C57.1598 194.101 57.1308 193.93 57.1358 193.758C57.1408 193.586 57.1798 193.416 57.2504 193.259C57.3211 193.102 57.4221 192.961 57.5476 192.842C57.7821 192.615 59.9524 190.665 62.2669 190.977C62.841 191.061 63.388 191.275 63.8656 191.604C64.3431 191.933 64.7383 192.367 65.0204 192.872C67.2508 196.501 65.7238 203.405 64.0104 204.773C63.415 205.193 62.6946 205.4 61.9664 205.36Z" fill="white"/>
</mask>
<g mask="url(#mask15_1003_992)">
<path d="M63.7281 193.833C63.5704 193.461 63.3236 193.132 63.0091 192.877C62.6946 192.622 62.3222 192.448 61.9245 192.37C60.4215 192.13 59.0087 193.635 58.8524 193.803C58.7087 193.976 58.62 194.187 58.5975 194.411C58.575 194.634 58.6198 194.859 58.7262 195.057C58.9627 195.009 59.1813 194.897 59.3574 194.733C59.8083 194.313 61.0829 193.431 61.9426 193.533C62.153 193.533 62.4716 193.659 62.8143 194.211C64.3293 196.67 63.157 201.841 62.3934 202.692C61.9786 202.872 60.4275 202.554 59.2192 202.044C59.0704 201.982 58.9115 201.948 58.7502 201.942C58.7612 202.107 58.8131 202.266 58.9013 202.405C58.9895 202.545 59.1112 202.66 59.2552 202.74C60.0154 203.145 60.854 203.383 61.7141 203.436C62.2049 203.459 62.6856 203.292 63.0548 202.968C64.185 201.93 65.183 196.622 63.7281 193.833Z" fill="#3D6498"/>
<path opacity="0.5" d="M63.7281 193.833C63.5704 193.461 63.3236 193.132 63.0091 192.877C62.6946 192.622 62.3222 192.448 61.9245 192.37C60.4215 192.13 59.0087 193.635 58.8524 193.803C58.7087 193.976 58.62 194.187 58.5975 194.411C58.575 194.634 58.6198 194.859 58.7262 195.057C58.9627 195.009 59.1813 194.897 59.3574 194.733C59.8083 194.313 61.0829 193.431 61.9426 193.533C62.153 193.533 62.4716 193.659 62.8143 194.211C64.3293 196.67 63.157 201.841 62.3934 202.692C61.9786 202.872 60.4275 202.554 59.2192 202.044C59.0704 201.982 58.9115 201.948 58.7502 201.942C58.7612 202.107 58.8131 202.266 58.9013 202.405C58.9895 202.545 59.1112 202.66 59.2552 202.74C60.0154 203.145 60.854 203.383 61.7141 203.436C62.2049 203.459 62.6856 203.292 63.0548 202.968C64.185 201.93 65.183 196.622 63.7281 193.833Z" fill="#DE771C"/>
</g>
<path d="M61.9664 205.362C60.6591 205.298 59.3751 204.993 58.1788 204.463C58.012 204.401 57.8595 204.306 57.7306 204.184C57.6017 204.062 57.4991 203.915 57.429 203.752C57.3588 203.589 57.3227 203.413 57.3228 203.236C57.3229 203.058 57.3591 202.883 57.4294 202.72C57.4996 202.557 57.6024 202.41 57.7314 202.288C57.8604 202.165 58.013 202.071 58.1799 202.009C58.3467 201.948 58.5244 201.921 58.702 201.93C58.8795 201.94 59.0534 201.985 59.2129 202.063C60.4153 202.573 61.9724 202.891 62.3872 202.711C63.1507 201.859 64.323 196.713 62.808 194.23C62.4653 193.678 62.1467 193.576 61.9363 193.552C61.0766 193.432 59.8021 194.314 59.3512 194.752C59.2256 194.87 59.078 194.962 58.9167 195.024C58.7554 195.085 58.5836 195.114 58.4111 195.109C58.2386 195.104 58.0688 195.065 57.9114 194.994C57.7539 194.924 57.6119 194.823 57.4935 194.698C57.3751 194.573 57.2825 194.425 57.2212 194.264C57.1598 194.103 57.1308 193.932 57.1358 193.76C57.1408 193.588 57.1798 193.418 57.2504 193.261C57.3211 193.104 57.4221 192.963 57.5476 192.844C57.7821 192.616 59.9524 190.667 62.2669 190.979C62.841 191.063 63.388 191.277 63.8656 191.606C64.3431 191.935 64.7383 192.369 65.0204 192.874C67.2508 196.503 65.7238 203.407 64.0104 204.775C63.415 205.195 62.6946 205.402 61.9664 205.362Z" stroke="#263238" stroke-linecap="round" stroke-linejoin="round"/>
<path d="M59.6696 189.887H45.2109V209.032H59.6696V189.887Z" fill="#DE771C"/>
<mask id="mask16_1003_992" style="mask-type:luminance" maskUnits="userSpaceOnUse" x="45" y="189" width="15" height="21">
<path d="M59.6696 189.889H45.2109V209.034H59.6696V189.889Z" fill="white"/>
</mask>
<g mask="url(#mask16_1003_992)">
<path d="M51.1327 189.889H45.2109V209.034H51.1327V189.889Z" fill="#3D6498"/>
<path opacity="0.5" d="M51.1327 189.889H45.2109V209.034H51.1327V189.889Z" fill="#DE771C"/>
</g>
<path d="M59.6696 189.887H45.2109V209.032H59.6696V189.887Z" stroke="#263238" stroke-linecap="round" stroke-linejoin="round"/>
<path d="M139.124 208.771H77.3573L75.3433 174.894C75.2877 174.566 75.3041 174.229 75.3914 173.908C75.4788 173.586 75.635 173.287 75.8494 173.032C76.0637 172.776 76.331 172.57 76.6328 172.428C76.9347 172.286 77.2639 172.21 77.5978 172.207H138.859C139.195 172.207 139.527 172.28 139.832 172.42C140.137 172.561 140.407 172.767 140.624 173.023C140.841 173.279 140.999 173.579 141.088 173.902C141.177 174.225 141.194 174.564 141.138 174.894L139.124 208.771Z" fill="#E6E6E6" stroke="#E6E6E6" stroke-linecap="round" stroke-linejoin="round"/>
<path d="M80.3994 173.016H138.414C138.742 173.012 139.067 173.081 139.365 173.215C139.664 173.35 139.929 173.549 140.143 173.797C140.356 174.045 140.513 174.336 140.602 174.651C140.691 174.966 140.709 175.296 140.657 175.619" stroke="white" stroke-linecap="round" stroke-linejoin="round"/>
<path d="M75.7939 175.085C75.8423 174.518 76.1031 173.99 76.5244 173.607C76.9456 173.223 77.4962 173.012 78.0664 173.016" stroke="white" stroke-linecap="round" stroke-linejoin="round"/>
<path d="M139.382 205.473H77.0991V208.772H139.382V205.473Z" fill="white" stroke="#E6E6E6" stroke-linecap="round" stroke-linejoin="round"/>
<path d="M108.018 193.261C110.455 193.261 112.431 192.079 112.431 190.622C112.431 189.164 110.455 187.982 108.018 187.982C105.581 187.982 103.605 189.164 103.605 190.622C103.605 192.079 105.581 193.261 108.018 193.261Z" fill="white" stroke="#E6E6E6" stroke-linecap="round" stroke-linejoin="round"/>
<path d="M233.324 208.379H1.34814V213.999H233.324V208.379Z" fill="#263238"/>
<path d="M173.175 0H61.5756C57.8138 0 54.7642 3.04258 54.7642 6.79579V70.681C54.7642 74.4342 57.8138 77.4768 61.5756 77.4768H173.175C176.937 77.4768 179.986 74.4342 179.986 70.681V6.79579C179.986 3.04258 176.937 0 173.175 0Z" fill="#3D6498"/>
<path d="M120.32 44.5224C130.443 42.8992 137.331 33.3959 135.704 23.2961C134.077 13.1963 124.552 6.32459 114.429 7.94774C104.306 9.57089 97.418 19.0742 99.0449 29.174C100.672 39.2738 110.197 46.1455 120.32 44.5224Z" fill="white"/>
<path d="M117.234 29.6616L111.048 37.585C110.837 37.9149 110.548 38.1873 110.206 38.3779C109.864 38.5684 109.48 38.6711 109.088 38.6767C108.55 38.684 108.032 38.4792 107.645 38.1068C107.448 37.9269 107.293 37.7068 107.189 37.4615C107.085 37.2162 107.036 36.9514 107.044 36.6853C107.063 36.0893 107.274 35.5153 107.645 35.0478L114.697 26.3447L108.084 17.6355C107.777 17.2268 107.608 16.7309 107.603 16.22C107.601 15.9153 107.663 15.6135 107.784 15.3338C107.905 15.054 108.083 14.8023 108.306 14.5945C108.516 14.376 108.768 14.2022 109.047 14.0836C109.326 13.9651 109.626 13.9042 109.93 13.9047C110.318 13.911 110.698 14.0142 111.037 14.2049C111.375 14.3955 111.66 14.6677 111.865 14.9964L117.841 22.8478L123.853 15.1283C124.068 14.7682 124.369 14.4665 124.728 14.2499C125.088 14.0333 125.496 13.9086 125.915 13.8867C126.176 13.8861 126.433 13.939 126.672 14.0422C126.911 14.1454 127.126 14.2967 127.304 14.4865C127.493 14.6645 127.644 14.8792 127.748 15.1174C127.851 15.3557 127.905 15.6125 127.905 15.8721C127.899 16.3366 127.738 16.786 127.448 17.1497L120.372 26.1827L127.208 35.1798C127.531 35.582 127.711 36.08 127.719 36.5953C127.721 36.8933 127.658 37.1882 127.534 37.4596C127.411 37.7309 127.23 37.9722 127.003 38.1668C126.562 38.59 125.974 38.8265 125.362 38.8266C124.972 38.8218 124.589 38.7193 124.249 38.5286C123.908 38.3379 123.621 38.065 123.414 37.735L117.234 29.6616Z" fill="#CF1313"/>
<path d="M152.746 64.0602H81.9801C80.545 64.0602 79.1688 63.4914 78.1541 62.479C77.1394 61.4667 76.5693 60.0936 76.5693 58.6619C76.5693 57.2302 77.1394 55.8571 78.1541 54.8448C79.1688 53.8324 80.545 53.2637 81.9801 53.2637H152.746C154.181 53.2637 155.557 53.8324 156.572 54.8448C157.587 55.8571 158.157 57.2302 158.157 58.6619C158.157 60.0936 157.587 61.4667 156.572 62.479C155.557 63.4914 154.181 64.0602 152.746 64.0602Z" fill="white"/>
<path d="M91.6773 60.4012C91.6301 60.4012 91.5834 60.3916 91.54 60.3731C91.4966 60.3545 91.4574 60.3273 91.4248 60.2932C91.3893 60.258 91.3613 60.2159 91.3427 60.1695C91.3241 60.123 91.3152 60.0733 91.3166 60.0233C91.3166 59.9389 91.3394 59.8559 91.3827 59.7834L91.9238 58.9437H90.8176C90.7665 58.9463 90.7154 58.938 90.6677 58.9194C90.62 58.9008 90.5769 58.8722 90.5411 58.8357C90.4793 58.7639 90.4453 58.6724 90.4453 58.5778C90.4453 58.4832 90.4793 58.3917 90.5411 58.3199C90.5769 58.2833 90.62 58.2548 90.6677 58.2362C90.7154 58.2176 90.7665 58.2093 90.8176 58.2119L91.9058 58.2419L91.4248 57.4621C91.3766 57.3823 91.3497 57.2914 91.3467 57.1982C91.3453 57.1483 91.3542 57.0985 91.3728 57.0521C91.3914 57.0057 91.4193 56.9635 91.4549 56.9283C91.4886 56.894 91.5288 56.8668 91.5732 56.8483C91.6176 56.8297 91.6653 56.8202 91.7134 56.8203C91.7807 56.8194 91.8468 56.8382 91.9035 56.8744C91.9602 56.9107 92.0049 56.9628 92.032 57.0243L92.5611 57.966L93.0661 57.0663C93.0979 56.9963 93.1483 56.9363 93.2119 56.893C93.2756 56.8496 93.3499 56.8245 93.4268 56.8203C93.474 56.8203 93.5207 56.8299 93.5642 56.8485C93.6076 56.867 93.6467 56.8942 93.6793 56.9283C93.7145 56.9613 93.7424 57.0013 93.761 57.0457C93.7797 57.0902 93.7887 57.1381 93.7875 57.1862C93.7867 57.2714 93.7617 57.3546 93.7154 57.4262L93.1863 58.2719L94.2865 58.2419C94.3377 58.2389 94.3889 58.247 94.4366 58.2656C94.4844 58.2842 94.5275 58.313 94.563 58.3499C94.6248 58.4216 94.6588 58.5131 94.6588 58.6078C94.6588 58.7024 94.6248 58.7939 94.563 58.8657C94.5275 58.9026 94.4844 58.9313 94.4366 58.9499C94.3889 58.9686 94.3377 58.9767 94.2865 58.9737H93.1743L93.6673 59.7414C93.7229 59.8341 93.7539 59.9393 93.7575 60.0473C93.7592 60.0959 93.751 60.1443 93.7334 60.1897C93.7159 60.2351 93.6893 60.2764 93.6553 60.3112C93.6236 60.3449 93.5854 60.3718 93.5431 60.3904C93.5007 60.4089 93.455 60.4187 93.4088 60.4192C93.3343 60.4174 93.262 60.3944 93.2002 60.353C93.1385 60.3115 93.0898 60.2533 93.0601 60.1853L92.5611 59.3035L92.0621 60.1853C92.026 60.2547 91.9704 60.3121 91.902 60.3505C91.8337 60.3888 91.7556 60.4065 91.6773 60.4012Z" fill="black"/>
<path d="M97.1959 60.4019C97.1487 60.4019 97.1019 60.3923 97.0585 60.3738C97.0151 60.3552 96.9759 60.328 96.9434 60.2939C96.9078 60.2587 96.8799 60.2166 96.8613 60.1701C96.8426 60.1237 96.8338 60.074 96.8352 60.024C96.8351 59.9395 96.858 59.8566 96.9013 59.7841L97.4424 58.9444H96.3362C96.285 58.947 96.2339 58.9387 96.1863 58.9201C96.1386 58.9015 96.0954 58.8729 96.0596 58.8364C95.9978 58.7646 95.9639 58.6731 95.9639 58.5785C95.9639 58.4838 95.9978 58.3923 96.0596 58.3206C96.0954 58.284 96.1386 58.2555 96.1863 58.2369C96.2339 58.2183 96.285 58.21 96.3362 58.2126L97.4243 58.2426L96.9133 57.4328C96.8651 57.353 96.8382 57.2621 96.8352 57.1689C96.8338 57.119 96.8426 57.0692 96.8613 57.0228C96.8799 56.9764 96.9078 56.9342 96.9434 56.899C96.9771 56.8647 97.0173 56.8375 97.0617 56.819C97.1061 56.8004 97.1538 56.7909 97.2019 56.7911C97.2692 56.7901 97.3353 56.8089 97.392 56.8451C97.4487 56.8814 97.4934 56.9335 97.5205 56.995L98.0496 57.9367L98.5546 57.037C98.5864 56.967 98.6368 56.907 98.7004 56.8637C98.764 56.8203 98.8384 56.7952 98.9153 56.7911C98.9625 56.7911 99.0092 56.8006 99.0526 56.8192C99.0961 56.8377 99.1352 56.8649 99.1678 56.899C99.203 56.932 99.2309 56.972 99.2495 57.0164C99.2682 57.0609 99.2772 57.1088 99.276 57.1569C99.2752 57.2421 99.2502 57.3253 99.2039 57.3969L98.6748 58.2426L99.775 58.2126C99.8262 58.2096 99.8774 58.2177 99.9251 58.2363C99.9729 58.2549 100.016 58.2837 100.052 58.3206C100.113 58.3923 100.147 58.4838 100.147 58.5785C100.147 58.6731 100.113 58.7646 100.052 58.8364C100.016 58.8733 99.9729 58.902 99.9251 58.9206C99.8774 58.9393 99.8262 58.9474 99.775 58.9444H98.6628L99.1558 59.7121C99.2114 59.8048 99.2424 59.9101 99.2459 60.018C99.2477 60.0666 99.2395 60.115 99.2219 60.1604C99.2044 60.2058 99.1778 60.2471 99.1437 60.2819C99.1121 60.3156 99.0739 60.3425 99.0316 60.3611C98.9892 60.3796 98.9435 60.3894 98.8972 60.3899C98.8227 60.3888 98.75 60.3661 98.6881 60.3246C98.6262 60.2831 98.5777 60.2245 98.5486 60.156L98.0496 59.2743L97.5506 60.156C97.521 60.2263 97.4719 60.2868 97.4091 60.3304C97.3463 60.3739 97.2723 60.3987 97.1959 60.4019Z" fill="black"/>
<path d="M102.715 60.4019C102.668 60.4019 102.621 60.3923 102.578 60.3738C102.535 60.3552 102.495 60.328 102.463 60.2939C102.427 60.2587 102.399 60.2166 102.381 60.1701C102.362 60.1237 102.353 60.074 102.355 60.024C102.355 59.9395 102.377 59.8566 102.421 59.7841L102.962 58.9444H101.856C101.805 58.947 101.753 58.9387 101.706 58.9201C101.658 58.9015 101.615 58.8729 101.579 58.8364C101.517 58.7646 101.483 58.6731 101.483 58.5785C101.483 58.4838 101.517 58.3923 101.579 58.3206C101.615 58.284 101.658 58.2555 101.706 58.2369C101.753 58.2183 101.805 58.21 101.856 58.2126L102.944 58.2426L102.433 57.4328C102.385 57.353 102.358 57.2621 102.355 57.1689C102.353 57.119 102.362 57.0692 102.381 57.0228C102.399 56.9764 102.427 56.9342 102.463 56.899C102.497 56.8647 102.537 56.8375 102.581 56.819C102.626 56.8004 102.673 56.7909 102.721 56.7911C102.789 56.7901 102.855 56.8089 102.912 56.8451C102.968 56.8814 103.013 56.9335 103.04 56.995L103.569 57.9367L104.074 57.037C104.106 56.967 104.156 56.907 104.22 56.8637C104.284 56.8203 104.358 56.7952 104.435 56.7911C104.482 56.7911 104.529 56.8006 104.572 56.8192C104.616 56.8377 104.655 56.8649 104.687 56.899C104.723 56.932 104.75 56.972 104.769 57.0164C104.788 57.0609 104.797 57.1088 104.796 57.1569C104.795 57.2421 104.77 57.3253 104.723 57.3969L104.194 58.2426L105.295 58.2126C105.346 58.2096 105.397 58.2177 105.445 58.2363C105.492 58.2549 105.536 58.2837 105.571 58.3206C105.633 58.3923 105.667 58.4838 105.667 58.5785C105.667 58.6731 105.633 58.7646 105.571 58.8364C105.536 58.8733 105.492 58.902 105.445 58.9206C105.397 58.9393 105.346 58.9474 105.295 58.9444H104.182L104.675 59.7121C104.731 59.8048 104.762 59.9101 104.765 60.018C104.767 60.0666 104.759 60.115 104.741 60.1604C104.724 60.2058 104.697 60.2471 104.663 60.2819C104.632 60.3156 104.593 60.3425 104.551 60.3611C104.509 60.3796 104.463 60.3894 104.417 60.3899C104.342 60.3888 104.27 60.3661 104.208 60.3246C104.146 60.2831 104.097 60.2245 104.068 60.156L103.569 59.2743L103.07 60.156C103.041 60.2263 102.991 60.2868 102.929 60.3304C102.866 60.3739 102.792 60.3987 102.715 60.4019Z" fill="black"/>
<path d="M108.258 60.4019C108.211 60.4019 108.164 60.3923 108.121 60.3738C108.078 60.3552 108.038 60.328 108.006 60.2939C107.97 60.2587 107.942 60.2166 107.924 60.1701C107.905 60.1237 107.896 60.074 107.898 60.024C107.898 59.9395 107.92 59.8566 107.964 59.7841L108.505 58.9444H107.399C107.348 58.947 107.296 58.9387 107.249 58.9201C107.201 58.9015 107.158 58.8729 107.122 58.8364C107.06 58.7646 107.026 58.6731 107.026 58.5785C107.026 58.4838 107.06 58.3923 107.122 58.3206C107.158 58.284 107.201 58.2555 107.249 58.2369C107.296 58.2183 107.348 58.21 107.399 58.2126L108.487 58.2426L107.976 57.4328C107.928 57.353 107.901 57.2621 107.898 57.1689C107.896 57.119 107.905 57.0692 107.924 57.0228C107.942 56.9764 107.97 56.9342 108.006 56.899C108.04 56.8647 108.08 56.8375 108.124 56.819C108.169 56.8004 108.216 56.7909 108.264 56.7911C108.332 56.7901 108.398 56.8089 108.455 56.8451C108.511 56.8814 108.556 56.9335 108.583 56.995L109.112 57.9367L109.617 57.037C109.649 56.967 109.699 56.907 109.763 56.8637C109.827 56.8203 109.901 56.7952 109.978 56.7911C110.025 56.7911 110.072 56.8006 110.115 56.8192C110.159 56.8377 110.198 56.8649 110.23 56.899C110.266 56.932 110.293 56.972 110.312 57.0164C110.331 57.0609 110.34 57.1088 110.339 57.1569C110.338 57.2421 110.313 57.3253 110.266 57.3969L109.737 58.2426L110.837 58.2126C110.889 58.2096 110.94 58.2177 110.988 58.2363C111.035 58.2549 111.079 58.2837 111.114 58.3206C111.176 58.3923 111.21 58.4838 111.21 58.5785C111.21 58.6731 111.176 58.7646 111.114 58.8364C111.079 58.8733 111.035 58.902 110.988 58.9206C110.94 58.9393 110.889 58.9474 110.837 58.9444H109.725L110.218 59.7121C110.274 59.8048 110.305 59.9101 110.308 60.018C110.31 60.0666 110.302 60.115 110.284 60.1604C110.267 60.2058 110.24 60.2471 110.206 60.2819C110.175 60.3156 110.136 60.3425 110.094 60.3611C110.052 60.3796 110.006 60.3894 109.96 60.3899C109.885 60.3881 109.813 60.3651 109.751 60.3237C109.689 60.2822 109.641 60.224 109.611 60.156L109.112 59.2743L108.613 60.156C108.583 60.2263 108.534 60.2868 108.472 60.3304C108.409 60.3739 108.335 60.3987 108.258 60.4019Z" fill="black"/>
<path d="M113.753 60.4019C113.706 60.4019 113.659 60.3923 113.616 60.3738C113.572 60.3552 113.533 60.328 113.501 60.2939C113.465 60.2587 113.437 60.2166 113.418 60.1701C113.4 60.1237 113.391 60.074 113.392 60.024C113.395 59.94 113.418 59.8577 113.458 59.7841L114 58.9444H112.893C112.842 58.947 112.791 58.9387 112.743 58.9201C112.696 58.9015 112.653 58.8729 112.617 58.8364C112.555 58.7646 112.521 58.6731 112.521 58.5785C112.521 58.4839 112.555 58.3923 112.617 58.3206C112.653 58.284 112.696 58.2555 112.743 58.2369C112.791 58.2183 112.842 58.21 112.893 58.2126L113.981 58.2426L113.47 57.4329C113.422 57.353 113.395 57.2621 113.392 57.1689C113.391 57.119 113.4 57.0692 113.418 57.0228C113.437 56.9764 113.465 56.9343 113.501 56.899C113.534 56.8647 113.574 56.8375 113.619 56.819C113.663 56.8004 113.711 56.7909 113.759 56.7911C113.826 56.7901 113.892 56.8089 113.949 56.8451C114.006 56.8814 114.05 56.9335 114.078 56.995L114.607 57.9367L115.112 57.037C115.144 56.967 115.194 56.907 115.258 56.8637C115.321 56.8203 115.395 56.7952 115.472 56.7911C115.52 56.7903 115.567 56.7996 115.61 56.8182C115.654 56.8368 115.693 56.8643 115.725 56.899C115.76 56.932 115.788 56.972 115.807 57.0164C115.825 57.0609 115.834 57.1088 115.833 57.1569C115.832 57.2421 115.807 57.3253 115.761 57.3969L115.232 58.2426L116.332 58.2126C116.383 58.2096 116.435 58.2177 116.482 58.2363C116.53 58.255 116.573 58.2837 116.609 58.3206C116.67 58.3923 116.704 58.4839 116.704 58.5785C116.704 58.6731 116.67 58.7646 116.609 58.8364C116.573 58.8733 116.53 58.902 116.482 58.9206C116.435 58.9393 116.383 58.9474 116.332 58.9444H115.22L115.713 59.7121C115.769 59.8048 115.8 59.9101 115.803 60.018C115.805 60.0666 115.797 60.115 115.779 60.1604C115.761 60.2058 115.735 60.2471 115.701 60.2819C115.669 60.3156 115.631 60.3425 115.589 60.3611C115.546 60.3796 115.501 60.3894 115.454 60.3899C115.38 60.3881 115.308 60.3651 115.246 60.3237C115.184 60.2822 115.135 60.224 115.106 60.156L114.607 59.2743L114.108 60.156C114.078 60.2263 114.029 60.2868 113.966 60.3304C113.903 60.3739 113.829 60.3987 113.753 60.4019Z" fill="black"/>
<path d="M119.272 60.4019C119.225 60.4019 119.178 60.3923 119.135 60.3738C119.091 60.3552 119.052 60.328 119.02 60.2939C118.984 60.2587 118.956 60.2166 118.937 60.1701C118.919 60.1237 118.91 60.074 118.911 60.024C118.914 59.94 118.937 59.8577 118.977 59.7841L119.519 58.9444H118.418C118.366 58.9475 118.314 58.9394 118.265 58.9208C118.217 58.9022 118.172 58.8734 118.136 58.8364C118.074 58.7646 118.04 58.6731 118.04 58.5785C118.04 58.4839 118.074 58.3923 118.136 58.3206C118.172 58.2835 118.217 58.2548 118.265 58.2361C118.314 58.2175 118.366 58.2095 118.418 58.2126L119.501 58.2426L118.989 57.4329C118.941 57.353 118.914 57.2621 118.911 57.1689C118.91 57.119 118.919 57.0692 118.937 57.0228C118.956 56.9764 118.984 56.9343 119.02 56.899C119.053 56.8647 119.093 56.8375 119.138 56.819C119.182 56.8004 119.23 56.7909 119.278 56.7911C119.345 56.7901 119.412 56.8089 119.468 56.8451C119.525 56.8814 119.57 56.9335 119.597 56.995L120.126 57.9367L120.631 57.037C120.663 56.967 120.713 56.907 120.777 56.8637C120.84 56.8203 120.915 56.7952 120.991 56.7911C121.039 56.7903 121.086 56.7996 121.129 56.8182C121.173 56.8368 121.212 56.8643 121.244 56.899C121.279 56.932 121.307 56.972 121.326 57.0164C121.344 57.0609 121.353 57.1088 121.352 57.1569C121.351 57.2421 121.326 57.3253 121.28 57.3969L120.751 58.2426L121.851 58.2126C121.902 58.2096 121.954 58.2177 122.001 58.2363C122.049 58.255 122.092 58.2837 122.128 58.3206C122.19 58.3923 122.223 58.4839 122.223 58.5785C122.223 58.6731 122.19 58.7646 122.128 58.8364C122.092 58.8733 122.049 58.902 122.001 58.9206C121.954 58.9393 121.902 58.9474 121.851 58.9444H120.739L121.232 59.7121C121.288 59.8048 121.319 59.9101 121.322 60.018C121.324 60.0666 121.316 60.115 121.298 60.1604C121.281 60.2058 121.254 60.2471 121.22 60.2819C121.188 60.3156 121.15 60.3425 121.108 60.3611C121.065 60.3796 121.02 60.3894 120.973 60.3899C120.899 60.3881 120.827 60.3651 120.765 60.3237C120.703 60.2822 120.654 60.224 120.625 60.156L120.126 59.2743L119.627 60.156C119.597 60.2263 119.548 60.2868 119.485 60.3304C119.422 60.3739 119.348 60.3987 119.272 60.4019Z" fill="black"/>
<path d="M124.791 60.4012C124.743 60.4012 124.697 60.3916 124.653 60.3731C124.61 60.3545 124.571 60.3273 124.538 60.2932C124.503 60.258 124.475 60.2159 124.456 60.1695C124.437 60.123 124.428 60.0733 124.43 60.0233C124.43 59.9389 124.453 59.8559 124.496 59.7834L125.037 58.9437H123.931C123.88 58.9463 123.829 58.938 123.781 58.9194C123.733 58.9008 123.69 58.8722 123.654 58.8357C123.593 58.7639 123.559 58.6724 123.559 58.5778C123.559 58.4832 123.593 58.3917 123.654 58.3199C123.69 58.2833 123.733 58.2548 123.781 58.2362C123.829 58.2176 123.88 58.2093 123.931 58.2119L125.019 58.2419L124.49 57.4621C124.442 57.3823 124.415 57.2914 124.412 57.1982C124.41 57.1483 124.419 57.0985 124.438 57.0521C124.457 57.0057 124.484 56.9635 124.52 56.9283C124.554 56.894 124.594 56.8668 124.638 56.8483C124.683 56.8297 124.73 56.8202 124.779 56.8204C124.846 56.8194 124.912 56.8382 124.969 56.8744C125.025 56.9107 125.07 56.9628 125.097 57.0243L125.626 57.966L126.131 57.0663C126.163 56.9963 126.214 56.9363 126.277 56.893C126.341 56.8496 126.415 56.8245 126.492 56.8204C126.539 56.8196 126.586 56.8289 126.63 56.8475C126.673 56.8661 126.712 56.8936 126.744 56.9283C126.78 56.9613 126.808 57.0013 126.826 57.0457C126.845 57.0902 126.854 57.1381 126.853 57.1862C126.852 57.2714 126.827 57.3546 126.781 57.4262L126.251 58.2719L127.352 58.2419C127.403 58.2389 127.454 58.247 127.502 58.2656C127.55 58.2842 127.593 58.313 127.628 58.3499C127.69 58.4216 127.724 58.5131 127.724 58.6078C127.724 58.7024 127.69 58.7939 127.628 58.8657C127.593 58.9026 127.55 58.9313 127.502 58.9499C127.454 58.9686 127.403 58.9767 127.352 58.9737H126.239L126.732 59.7414C126.788 59.8341 126.819 59.9394 126.823 60.0473C126.824 60.0959 126.816 60.1443 126.799 60.1897C126.781 60.2351 126.754 60.2764 126.72 60.3112C126.689 60.3449 126.651 60.3718 126.608 60.3904C126.566 60.4089 126.52 60.4187 126.474 60.4192C126.4 60.4174 126.327 60.3944 126.265 60.353C126.204 60.3115 126.155 60.2533 126.125 60.1853L125.626 59.3035L125.127 60.1853C125.095 60.2474 125.047 60.3 124.988 60.3379C124.929 60.3758 124.861 60.3976 124.791 60.4012Z" fill="black"/>
<path d="M130.31 60.402C130.263 60.402 130.216 60.3924 130.172 60.3739C130.129 60.3553 130.09 60.3282 130.057 60.294C130.022 60.2588 129.994 60.2167 129.975 60.1703C129.957 60.1239 129.948 60.0741 129.949 60.0241C129.952 59.9401 129.975 59.8579 130.015 59.7842L130.556 58.9445H129.456C129.405 58.9483 129.353 58.9406 129.306 58.9219C129.258 58.9033 129.215 58.8741 129.18 58.8365C129.114 58.7665 129.078 58.6744 129.078 58.5786C129.078 58.4829 129.114 58.3907 129.18 58.3207C129.215 58.2831 129.258 58.254 129.306 58.2353C129.353 58.2166 129.405 58.2089 129.456 58.2127L130.538 58.2427L130.027 57.433C129.979 57.3531 129.952 57.2622 129.949 57.1691C129.947 57.12 129.956 57.0711 129.973 57.0254C129.991 56.9796 130.018 56.9378 130.052 56.9026C130.086 56.8673 130.127 56.8393 130.173 56.8201C130.218 56.801 130.267 56.7912 130.316 56.7912C130.383 56.7902 130.449 56.809 130.506 56.8453C130.563 56.8815 130.607 56.9337 130.634 56.9951L131.164 57.9368L131.669 57.0371C131.7 56.9671 131.751 56.9072 131.814 56.8638C131.878 56.8204 131.952 56.7953 132.029 56.7912C132.077 56.7897 132.124 56.7986 132.167 56.8172C132.211 56.8359 132.25 56.8638 132.282 56.8992C132.317 56.9321 132.345 56.9721 132.363 57.0166C132.382 57.061 132.391 57.1089 132.39 57.1571C132.389 57.2422 132.364 57.3254 132.318 57.397L131.789 58.2427L132.889 58.2127C132.94 58.2097 132.991 58.2178 133.039 58.2364C133.087 58.2551 133.13 58.2838 133.165 58.3207C133.227 58.3925 133.261 58.484 133.261 58.5786C133.261 58.6732 133.227 58.7647 133.165 58.8365C133.13 58.8734 133.087 58.9021 133.039 58.9208C132.991 58.9394 132.94 58.9475 132.889 58.9445H131.777L132.27 59.7122C132.325 59.8049 132.356 59.9102 132.36 60.0181C132.361 60.0654 132.354 60.1125 132.337 60.1568C132.32 60.2011 132.295 60.2416 132.263 60.2762C132.23 60.3107 132.192 60.3385 132.148 60.3581C132.105 60.3776 132.059 60.3885 132.011 60.39C131.937 60.3882 131.864 60.3652 131.803 60.3238C131.741 60.2824 131.692 60.2242 131.662 60.1561L131.164 59.2744L130.665 60.1561C130.635 60.2264 130.586 60.2869 130.523 60.3305C130.46 60.374 130.386 60.3989 130.31 60.402Z" fill="black"/>
<path d="M135.829 60.402C135.782 60.402 135.735 60.3924 135.692 60.3739C135.648 60.3553 135.609 60.3282 135.576 60.294C135.541 60.2588 135.513 60.2167 135.494 60.1703C135.476 60.1239 135.467 60.0741 135.468 60.0241C135.471 59.9401 135.494 59.8579 135.534 59.7842L136.075 58.9445H134.969C134.919 58.9474 134.869 58.9393 134.822 58.9206C134.775 58.902 134.733 58.8732 134.699 58.8365C134.633 58.7665 134.597 58.6744 134.597 58.5786C134.597 58.4829 134.633 58.3907 134.699 58.3207C134.733 58.284 134.775 58.2552 134.822 58.2366C134.869 58.2179 134.919 58.2098 134.969 58.2127L136.057 58.2427L135.546 57.433C135.498 57.3531 135.471 57.2622 135.468 57.1691C135.467 57.12 135.475 57.0711 135.493 57.0254C135.51 56.9796 135.537 56.9378 135.571 56.9026C135.605 56.8673 135.646 56.8393 135.692 56.8201C135.737 56.801 135.786 56.7912 135.835 56.7912C135.902 56.7902 135.968 56.809 136.025 56.8453C136.082 56.8815 136.126 56.9337 136.154 56.9951L136.683 57.9368L137.188 57.0371C137.219 56.9671 137.27 56.9072 137.333 56.8638C137.397 56.8204 137.471 56.7953 137.548 56.7912C137.596 56.7897 137.643 56.7986 137.687 56.8172C137.73 56.8359 137.769 56.8638 137.801 56.8992C137.836 56.9321 137.864 56.9721 137.883 57.0166C137.901 57.061 137.91 57.1089 137.909 57.1571C137.908 57.2422 137.883 57.3254 137.837 57.397L137.308 58.2427L138.408 58.2127C138.459 58.2097 138.51 58.2178 138.558 58.2364C138.606 58.2551 138.649 58.2838 138.685 58.3207C138.746 58.3925 138.78 58.484 138.78 58.5786C138.78 58.6732 138.746 58.7647 138.685 58.8365C138.649 58.8734 138.606 58.9021 138.558 58.9208C138.51 58.9394 138.459 58.9475 138.408 58.9445H137.296L137.789 59.7122C137.844 59.8049 137.875 59.9102 137.879 60.0181C137.881 60.0654 137.873 60.1125 137.856 60.1568C137.839 60.2011 137.814 60.2416 137.782 60.2762C137.749 60.3107 137.711 60.3385 137.667 60.3581C137.624 60.3776 137.578 60.3885 137.53 60.39C137.456 60.3882 137.383 60.3652 137.322 60.3238C137.26 60.2824 137.211 60.2242 137.182 60.1561L136.683 59.2744L136.184 60.1561C136.154 60.2264 136.105 60.2869 136.042 60.3305C135.979 60.374 135.905 60.3989 135.829 60.402Z" fill="black"/>
<path d="M141.324 60.402C141.277 60.402 141.23 60.3924 141.187 60.3739C141.143 60.3553 141.104 60.3282 141.071 60.294C141.036 60.2588 141.008 60.2167 140.989 60.1703C140.971 60.1239 140.962 60.0741 140.963 60.0241C140.966 59.9401 140.989 59.8579 141.029 59.7842L141.57 58.9445H140.464C140.414 58.9474 140.364 58.9393 140.317 58.9206C140.27 58.902 140.228 58.8732 140.194 58.8365C140.128 58.7665 140.092 58.6744 140.092 58.5786C140.092 58.4829 140.128 58.3907 140.194 58.3207C140.228 58.284 140.27 58.2552 140.317 58.2366C140.364 58.2179 140.414 58.2098 140.464 58.2127L141.552 58.2427L141.041 57.433C140.993 57.3531 140.966 57.2622 140.963 57.1691C140.962 57.1191 140.971 57.0693 140.989 57.0229C141.008 56.9765 141.036 56.9344 141.071 56.8992C141.105 56.8649 141.145 56.8376 141.19 56.8191C141.234 56.8006 141.282 56.7911 141.33 56.7912C141.397 56.7902 141.463 56.809 141.52 56.8453C141.577 56.8815 141.621 56.9337 141.649 56.9951L142.178 57.9368L142.683 57.0371C142.714 56.9671 142.765 56.9072 142.829 56.8638C142.892 56.8204 142.966 56.7953 143.043 56.7912C143.091 56.7897 143.138 56.7986 143.182 56.8172C143.225 56.8359 143.264 56.8638 143.296 56.8992C143.331 56.9321 143.359 56.9721 143.378 57.0166C143.396 57.061 143.405 57.1089 143.404 57.1571C143.403 57.2422 143.378 57.3254 143.332 57.397L142.803 58.2427L143.903 58.2127C143.954 58.2097 144.005 58.2178 144.053 58.2364C144.101 58.2551 144.144 58.2838 144.18 58.3207C144.241 58.3925 144.275 58.484 144.275 58.5786C144.275 58.6732 144.241 58.7647 144.18 58.8365C144.144 58.8734 144.101 58.9021 144.053 58.9208C144.005 58.9394 143.954 58.9475 143.903 58.9445H142.791L143.284 59.7122C143.339 59.8049 143.371 59.9102 143.374 60.0181C143.376 60.0667 143.368 60.1152 143.35 60.1605C143.332 60.2059 143.306 60.2472 143.272 60.2821C143.24 60.3157 143.202 60.3426 143.16 60.3612C143.117 60.3797 143.072 60.3895 143.025 60.39C142.951 60.3882 142.879 60.3652 142.817 60.3238C142.755 60.2824 142.706 60.2242 142.677 60.1561L142.178 59.2744L141.679 60.1561C141.649 60.2264 141.6 60.2869 141.537 60.3305C141.474 60.374 141.4 60.3989 141.324 60.402Z" fill="black"/>
<path d="M160.237 73.668H167.59" stroke="white" stroke-width="3" stroke-linecap="round" stroke-linejoin="round"/>
<path d="M58.2573 19.6562V68.3784C58.2573 69.7894 58.8191 71.1427 59.8192 72.1404C60.8192 73.1382 62.1756 73.6987 63.5899 73.6987H153.257" stroke="white" stroke-width="3" stroke-linecap="round" stroke-linejoin="round"/>
<path d="M58.2573 6.73633V14.042" stroke="white" stroke-width="3" stroke-linecap="round" stroke-linejoin="round"/>
</svg>
