<svg width="25" height="25" viewBox="0 0 25 25" fill="none" xmlns="http://www.w3.org/2000/svg">
<path d="M12.4998 22.9421C12.2221 22.9421 11.9571 22.89 11.705 22.7858C11.453 22.6816 11.2231 22.5341 11.0155 22.3431L2.65609 13.9837C2.46511 13.7754 2.31755 13.5452 2.21338 13.2931C2.10921 13.041 2.05713 12.7764 2.05713 12.4994C2.05713 12.2223 2.10921 11.9532 2.21338 11.6921C2.31755 11.431 2.46511 11.2053 2.65609 11.015L11.0155 2.65561C11.2238 2.44727 11.454 2.29519 11.7061 2.19936C11.9582 2.10352 12.2228 2.05595 12.4998 2.05665C12.7769 2.05734 13.046 2.10526 13.3071 2.2004C13.5682 2.29554 13.7939 2.44727 13.9842 2.65561L22.3436 11.015C22.5519 11.206 22.704 11.4316 22.7998 11.6921C22.8957 11.9525 22.9432 12.2216 22.9425 12.4994C22.9418 12.7771 22.8943 13.0421 22.7998 13.2941C22.7054 13.5462 22.5533 13.7761 22.3436 13.9837L13.9842 22.3431C13.7932 22.5341 13.5675 22.6816 13.3071 22.7858C13.0467 22.89 12.7776 22.9421 12.4998 22.9421ZM12.4998 20.8587L20.8592 12.4994L12.4998 4.13998L4.14046 12.4994L12.4998 20.8587ZM11.4582 13.541H13.5415V7.29102H11.4582V13.541ZM12.4998 16.666C12.795 16.666 13.0425 16.566 13.2425 16.366C13.4425 16.166 13.5422 15.9188 13.5415 15.6244C13.5408 15.3299 13.4408 15.0827 13.2415 14.8827C13.0422 14.6827 12.795 14.5827 12.4998 14.5827C12.2047 14.5827 11.9575 14.6827 11.7582 14.8827C11.5589 15.0827 11.4589 15.3299 11.4582 15.6244C11.4575 15.9188 11.5575 16.1664 11.7582 16.3671C11.9589 16.5678 12.2061 16.6674 12.4998 16.666Z" fill="black"/>
</svg>
