<svg width="224" height="224" viewBox="0 0 224 224" fill="none" xmlns="http://www.w3.org/2000/svg">
<path d="M112 224C173.856 224 224 192.992 224 154.741C224 116.491 173.856 85.4824 112 85.4824C50.1441 85.4824 0 116.491 0 154.741C0 192.992 50.1441 224 112 224Z" fill="#F8E4D2"/>
<path d="M88.8243 207.222C110.154 207.222 127.446 196.53 127.446 183.341C127.446 170.153 110.154 159.461 88.8243 159.461C67.4941 159.461 50.2026 170.153 50.2026 183.341C50.2026 196.53 67.4941 207.222 88.8243 207.222Z" fill="#E0E0E0"/>
<path d="M198.656 153.463L194.126 150.663C194.126 150.663 193.018 140.276 193.755 132.231C194.791 120.927 201.609 107.322 209.738 110.519C217.867 113.717 206.011 125.224 203.372 134.812C200.734 144.4 198.656 153.463 198.656 153.463Z" fill="#3D6498"/>
<path opacity="0.15" d="M198.656 153.463L194.126 150.663C194.126 150.663 193.018 140.276 193.755 132.231C194.791 120.927 201.609 107.322 209.738 110.519C217.867 113.717 206.011 125.224 203.372 134.812C200.734 144.4 198.656 153.463 198.656 153.463Z" fill="black"/>
<path d="M196.274 152.287C196.347 152.283 196.415 152.248 196.464 152.191C196.512 152.134 196.538 152.059 196.536 151.981C195.742 126.863 207.418 114.225 207.532 114.103C207.584 114.048 207.613 113.973 207.613 113.894C207.613 113.816 207.584 113.741 207.532 113.686C207.507 113.658 207.477 113.637 207.444 113.622C207.411 113.607 207.375 113.6 207.339 113.6C207.304 113.6 207.268 113.607 207.235 113.622C207.202 113.637 207.172 113.658 207.147 113.686C207.023 113.808 195.181 126.629 195.984 152.001C195.986 152.041 195.994 152.079 196.009 152.115C196.025 152.151 196.047 152.183 196.074 152.209C196.101 152.236 196.132 152.256 196.167 152.27C196.201 152.283 196.238 152.289 196.274 152.287Z" fill="#F8E4D2"/>
<path d="M201.504 155.21L198.281 153.219C198.281 153.219 197.729 146.091 200.995 137.435C203.848 129.899 210.884 123.641 214.43 124.955C217.977 126.268 217.886 128.962 216.156 131.788C214.425 134.614 203.914 141.34 201.504 155.21Z" fill="#3D6498"/>
<path d="M199.802 154.457C199.875 154.456 199.944 154.424 199.995 154.369C200.047 154.314 200.076 154.24 200.078 154.162C200.011 138.275 213.936 127.542 214.078 127.435C214.108 127.413 214.133 127.385 214.152 127.352C214.172 127.32 214.185 127.283 214.19 127.245C214.196 127.207 214.195 127.168 214.186 127.131C214.177 127.093 214.162 127.058 214.14 127.028C214.098 126.965 214.035 126.922 213.963 126.909C213.892 126.895 213.819 126.912 213.76 126.956C213.617 127.063 199.464 137.98 199.526 154.162C199.526 154.24 199.555 154.315 199.607 154.371C199.659 154.426 199.729 154.457 199.802 154.457Z" fill="#F8E4D2"/>
<path d="M31.0199 147.225L35.2034 144.201C35.2034 144.201 37.0432 132.49 35.3318 122.158C32.9262 107.667 23.5751 102.85 20.2473 104.378C16.9194 105.905 16.2063 110.218 22.4198 118.487C26.1042 123.35 30.8915 133.732 31.0199 147.225Z" fill="#3D6498"/>
<g opacity="0.15">
<path d="M31.0199 147.225L35.2034 144.201C35.2034 144.201 37.0432 132.49 35.3318 122.158C32.9262 107.667 23.5751 102.85 20.2473 104.378C16.9194 105.905 16.2063 110.218 22.4198 118.487C26.1042 123.35 30.8915 133.732 31.0199 147.225Z" fill="black"/>
</g>
<path d="M32.4556 141.42H32.4128C32.37 141.417 32.3283 141.405 32.2904 141.383C32.2525 141.362 32.2192 141.332 32.1928 141.296C32.1663 141.26 32.1472 141.219 32.1368 141.174C32.1264 141.13 32.1248 141.083 32.1323 141.038C33.6441 127.397 28.2673 112.59 22.4151 106.699C22.3587 106.638 22.3271 106.556 22.3271 106.47C22.3271 106.384 22.3587 106.302 22.4151 106.241C22.4429 106.21 22.4762 106.186 22.513 106.17C22.5497 106.153 22.5891 106.145 22.629 106.145C22.6688 106.145 22.7083 106.153 22.745 106.17C22.7817 106.186 22.815 106.21 22.8429 106.241C28.8045 112.239 34.2811 127.29 32.7503 141.13C32.7413 141.208 32.7067 141.28 32.6528 141.333C32.5988 141.386 32.5289 141.417 32.4556 141.42Z" fill="#F8E4D2"/>
<path d="M20.0667 155.139C19.4011 155.566 17.4615 154.024 16.9243 153.652C16.0036 153.008 15.2537 152.121 14.747 151.075C14.1785 149.89 13.9676 148.545 14.1432 147.226C14.2406 146.538 14.3819 145.857 14.5663 145.189C14.7327 144.522 14.8991 143.855 15.0417 143.183C15.2525 142.529 15.3335 141.836 15.2794 141.146C15.094 139.787 13.9483 138.855 12.9024 138.056C11.7519 137.165 10.5254 135.988 10.5254 134.349C10.584 133.061 11.0444 131.831 11.8327 130.856C12.5459 129.838 13.4016 128.952 14.0434 127.887C14.5452 127.15 14.8014 126.253 14.7707 125.341C14.6881 124.779 14.5005 124.241 14.2193 123.758C13.6583 122.699 12.9309 121.721 12.5363 120.596C12.1418 119.471 12.1703 118.025 13.0117 117.184C13.6821 116.497 14.7042 116.385 15.6312 116.431C16.5048 116.524 17.3486 116.821 18.1033 117.302C20.5611 118.702 22.0064 121.757 24.6068 122.821C25.6099 123.228 26.7033 123.3 27.7445 123.575C28.7856 123.85 29.86 124.394 30.3592 125.408C31.3433 127.419 29.6271 129.955 30.3306 132.088C30.9582 133.982 32.7077 134.675 33.6965 136.37C34.0978 137.123 34.2644 137.994 34.1719 138.855C34.1161 140.309 33.8116 141.74 33.2734 143.076C32.6544 144.462 31.9558 145.805 31.1816 147.099C31.1816 147.099 20.1665 155.072 20.0667 155.139Z" fill="#3D6498"/>
<path d="M26.4939 150.916C26.454 150.916 26.4145 150.906 26.3779 150.889C26.3412 150.872 26.308 150.848 26.2802 150.817C26.2524 150.786 26.2305 150.75 26.2158 150.71C26.2011 150.671 26.1938 150.628 26.1944 150.585C26.4607 137.693 20.5372 123.599 16.3441 119.525C16.2845 119.468 16.2486 119.387 16.2441 119.301C16.2397 119.216 16.2671 119.131 16.3203 119.067C16.3482 119.036 16.3815 119.012 16.4182 118.996C16.455 118.979 16.4944 118.971 16.5343 118.971C16.5741 118.971 16.6136 118.979 16.6503 118.996C16.687 119.012 16.7203 119.036 16.7482 119.067C21.0268 123.191 27.0692 137.53 26.7982 150.6C26.7976 150.643 26.7892 150.684 26.7736 150.723C26.758 150.762 26.7354 150.797 26.7071 150.826C26.6789 150.855 26.6455 150.878 26.6089 150.894C26.5723 150.909 26.5333 150.917 26.4939 150.916Z" fill="#F8E4D2"/>
<path d="M24.2741 135.209C24.246 135.216 24.2166 135.216 24.1885 135.209C20.2997 134.007 15.4792 133.885 15.4316 133.88C15.3919 133.879 15.3527 133.87 15.3162 133.853C15.2798 133.836 15.2469 133.811 15.2195 133.78C15.1921 133.75 15.1706 133.713 15.1564 133.673C15.1423 133.634 15.1356 133.591 15.1369 133.549C15.1361 133.506 15.1437 133.463 15.1592 133.423C15.1746 133.384 15.1976 133.348 15.2267 133.318C15.2557 133.289 15.2902 133.266 15.3279 133.251C15.3657 133.236 15.4058 133.23 15.4459 133.233C15.4934 133.233 20.3901 133.36 24.3549 134.582C24.4315 134.607 24.496 134.663 24.5342 134.739C24.5725 134.814 24.5815 134.902 24.5593 134.985C24.5408 135.05 24.503 135.107 24.4516 135.148C24.4002 135.188 24.3379 135.209 24.2741 135.209Z" fill="#F8E4D2"/>
<path d="M136.322 138.362L134.52 137.247C134.22 137.038 133.97 136.756 133.79 136.424C133.611 136.093 133.508 135.72 133.488 135.337V55.1313C133.508 54.7491 133.611 54.3773 133.789 54.0456C133.968 53.714 134.216 53.4318 134.515 53.2219L184.599 22.2536C184.918 22.0804 185.27 21.9902 185.628 21.9902C185.986 21.9902 186.338 22.0804 186.657 22.2536L188.459 23.3687C188.759 23.5774 189.009 23.8592 189.188 24.191C189.368 24.5228 189.471 24.8953 189.491 25.2781V105.484C189.471 105.866 189.368 106.238 189.19 106.57C189.011 106.901 188.763 107.184 188.464 107.394L138.38 138.367C138.061 138.54 137.708 138.63 137.35 138.63C136.993 138.629 136.64 138.537 136.322 138.362Z" fill="#455A64"/>
<path d="M189.49 25.0999C189.419 24.5296 188.987 24.3208 188.468 24.6416L138.38 55.615C138.077 55.8186 137.827 56.1005 137.653 56.4348L133.788 54.0468C133.96 53.7099 134.211 53.426 134.515 53.2219L184.599 22.2536C184.918 22.0804 185.27 21.9902 185.628 21.9902C185.985 21.9902 186.338 22.0804 186.657 22.2536L188.459 23.3687C188.737 23.5606 188.973 23.8146 189.151 24.1134C189.33 24.4122 189.445 24.7487 189.49 25.0999Z" fill="#455A64"/>
<path d="M138.204 138.454C137.9 138.586 137.573 138.646 137.245 138.631C136.917 138.616 136.595 138.526 136.303 138.367L134.496 137.247C134.197 137.037 133.949 136.755 133.77 136.423C133.592 136.091 133.489 135.72 133.469 135.337V55.1314C133.481 54.7485 133.585 54.3753 133.769 54.0469L137.634 56.4349C137.446 56.7638 137.341 57.1393 137.33 57.5246V137.731C137.349 138.362 137.719 138.652 138.204 138.454Z" fill="#263238"/>
<path d="M137.349 57.5356V137.731C137.349 138.434 137.824 138.719 138.38 138.368L188.464 107.394C188.763 107.185 189.011 106.902 189.19 106.571C189.368 106.239 189.471 105.867 189.491 105.485V25.2791C189.491 24.5764 189.015 24.2913 188.464 24.6426L138.38 55.616C138.079 55.8258 137.828 56.1091 137.649 56.4428C137.469 56.7765 137.367 57.1511 137.349 57.5356Z" fill="#37474F"/>
<path d="M125.654 88.0861C125.007 87.6737 122.007 85.8457 121.85 85.749C121.728 85.6708 121.624 85.5643 121.545 85.4372C121.466 85.3102 121.415 85.1658 121.396 85.0148C121.376 84.8638 121.388 84.71 121.432 84.5647C121.475 84.4195 121.548 84.2865 121.646 84.1756L133.488 70.5703L137.348 72.9431L125.511 86.5586C125.418 86.6646 125.347 86.7907 125.304 86.9284C125.26 87.0662 125.244 87.2123 125.258 87.3571C125.271 87.5018 125.314 87.6417 125.382 87.7675C125.45 87.8932 125.543 88.0019 125.654 88.0861Z" fill="#455A64"/>
<path d="M137.348 72.957L125.511 86.5572C125.379 86.7076 125.293 86.8971 125.265 87.1007C125.236 87.3043 125.265 87.5126 125.349 87.6979C125.433 87.8832 125.568 88.0369 125.735 88.1387C125.902 88.2405 126.094 88.2856 126.286 88.2681L137.348 87.2904V72.957Z" fill="#37474F"/>
<path d="M163.42 48.4718C169.258 44.8617 173.988 47.7895 173.988 55.0097C173.988 62.2299 169.258 71.003 163.42 74.6131C157.582 78.2232 152.852 75.2954 152.852 68.0803C152.852 60.8653 157.582 52.0819 163.42 48.4718Z" fill="white"/>
<path d="M163.344 54.1544C165.245 52.9833 166.771 53.9304 166.771 56.2726C166.706 57.5458 166.362 58.7848 165.767 59.8888C165.171 60.9929 164.341 61.9311 163.344 62.6272C161.442 63.7983 159.911 62.8512 159.911 60.509C159.976 59.2353 160.321 57.9961 160.918 56.892C161.514 55.7879 162.345 54.85 163.344 54.1544Z" fill="#F8E4D2"/>
<path d="M170.104 66.6388C170.104 62.7944 167.579 61.2313 164.47 63.156L162.526 64.3576C159.416 66.2823 156.892 70.977 156.892 74.8111V75.8651C157.479 76.066 158.092 76.1674 158.708 76.1655C160.376 76.1048 162 75.5782 163.419 74.638C166.122 72.8551 168.408 70.4343 170.104 67.5604V66.6388Z" fill="#F8E4D2"/>
<path d="M156.726 110.352L170.113 102.072C170.684 101.721 171.145 102.006 171.145 102.709V107.327C171.126 107.71 171.022 108.082 170.843 108.414C170.663 108.746 170.413 109.028 170.113 109.236L156.726 117.516C156.155 117.867 155.694 117.582 155.694 116.879V112.261C155.714 111.878 155.817 111.506 155.997 111.174C156.176 110.842 156.426 110.56 156.726 110.352Z" fill="#3D6498"/>
<path d="M150.17 100.035L176.655 83.6501C177.334 83.2274 177.891 83.5686 177.891 84.4138V86.1298C177.867 86.5889 177.743 87.0357 177.529 87.4338C177.314 87.832 177.014 88.1702 176.655 88.4211L150.156 104.806C149.476 105.229 148.924 104.888 148.924 104.043V102.342C148.946 101.879 149.07 101.429 149.287 101.028C149.503 100.626 149.806 100.286 150.17 100.035Z" fill="#FAFAFA"/>
<path d="M153.27 88.1773C153.631 87.9532 153.912 87.9176 154.111 88.0754C154.311 88.2333 154.411 88.5846 154.411 89.1244C154.421 89.617 154.318 90.1048 154.111 90.545C153.925 90.9429 153.632 91.2725 153.27 91.492L152.557 91.935V93.5797C152.555 93.6363 152.542 93.6919 152.519 93.7426C152.502 93.7887 152.472 93.8279 152.433 93.8546L152.072 94.0787C152.06 94.0886 152.045 94.0939 152.029 94.0939C152.014 94.0939 151.999 94.0886 151.986 94.0787C151.961 94.0442 151.949 94.0003 151.953 93.9565V89.1956C151.953 89.1393 151.964 89.0837 151.986 89.0327C152.004 88.9874 152.034 88.9486 152.072 88.9207L153.27 88.1773ZM152.557 91.0134L153.246 90.5857C153.413 90.4851 153.553 90.3416 153.655 90.1682C153.763 89.9637 153.816 89.7309 153.807 89.4961C153.807 89.2211 153.755 89.0633 153.655 89.0174C153.584 88.9991 153.511 88.9982 153.44 89.015C153.369 89.0318 153.303 89.0657 153.246 89.1142L152.557 89.5419V91.0134Z" fill="#FAFAFA"/>
<path d="M156.403 86.2378C156.45 86.2072 156.488 86.2072 156.512 86.2378C156.542 86.2834 156.563 86.3355 156.574 86.3905L157.672 90.3723C157.672 90.3723 157.672 90.4029 157.672 90.4181C157.671 90.4749 157.658 90.5306 157.634 90.5811C157.617 90.6271 157.587 90.6664 157.548 90.6931L157.225 90.8917C157.168 90.9273 157.125 90.9324 157.101 90.8917C157.078 90.8661 157.062 90.8345 157.054 90.8L156.859 90.1024L155.433 90.9782L155.243 91.9151C155.229 91.9658 155.212 92.0152 155.19 92.0628C155.167 92.1248 155.123 92.1755 155.067 92.2053L154.743 92.4039C154.731 92.4147 154.716 92.4206 154.701 92.4206C154.685 92.4206 154.67 92.4147 154.658 92.4039C154.633 92.371 154.621 92.329 154.625 92.2868C154.622 92.2682 154.622 92.2494 154.625 92.2308L155.718 86.8946C155.731 86.8161 155.752 86.7394 155.78 86.6655C155.803 86.6119 155.841 86.5675 155.889 86.5382L156.403 86.2378ZM156.65 89.3234L156.174 87.526L155.699 89.9293L156.65 89.3234Z" fill="#FAFAFA"/>
<path d="M159.336 84.3474C159.495 84.2399 159.676 84.1752 159.863 84.159C159.996 84.1462 160.129 84.1783 160.244 84.2506C160.348 84.3232 160.429 84.4279 160.477 84.5511C160.529 84.6764 160.558 84.8112 160.562 84.9482C160.566 85.0048 160.554 85.0612 160.529 85.1112C160.512 85.1572 160.482 85.1965 160.443 85.2232L160.13 85.4167C160.077 85.4472 160.039 85.4523 160.016 85.4167C159.986 85.3959 159.962 85.368 159.944 85.3352C159.925 85.2894 159.898 85.2482 159.863 85.214C159.829 85.1799 159.789 85.1536 159.745 85.1366C159.6 85.1144 159.453 85.1547 159.336 85.2486C159.259 85.3019 159.186 85.3615 159.117 85.4269C159.046 85.4964 158.984 85.5751 158.932 85.6611C158.881 85.744 158.84 85.8328 158.808 85.9258C158.78 86.0144 158.766 86.1073 158.765 86.2008C158.76 86.2865 158.774 86.3723 158.808 86.4503C158.823 86.4776 158.843 86.5008 158.868 86.5176C158.893 86.5345 158.921 86.5446 158.951 86.547C159.039 86.5634 159.129 86.5634 159.217 86.547L159.631 86.4503C159.785 86.4014 159.945 86.3807 160.106 86.3892C160.221 86.3888 160.332 86.4281 160.424 86.5012C160.511 86.5796 160.574 86.6843 160.605 86.8016C160.652 86.9666 160.673 87.1386 160.667 87.3108C160.667 87.5383 160.636 87.7646 160.577 87.9829C160.519 88.2074 160.434 88.4231 160.325 88.6245C160.209 88.831 160.072 89.0223 159.916 89.1948C159.756 89.3724 159.573 89.525 159.374 89.648C159.227 89.7434 159.066 89.8107 158.898 89.8465C158.762 89.8747 158.62 89.8624 158.49 89.8109C158.371 89.7518 158.272 89.6537 158.209 89.5308C158.131 89.3737 158.089 89.1994 158.085 89.0217C158.085 88.9637 158.096 88.9064 158.119 88.8536C158.14 88.8103 158.171 88.7735 158.209 88.7467L158.523 88.5532C158.57 88.5227 158.608 88.5125 158.637 88.5278C158.665 88.543 158.684 88.5685 158.703 88.6143C158.723 88.6667 158.749 88.7163 158.78 88.762C158.809 88.8063 158.851 88.8401 158.898 88.8587C158.961 88.8742 159.026 88.8742 159.089 88.8587C159.189 88.8332 159.286 88.7902 159.374 88.7314C159.466 88.6751 159.553 88.6104 159.635 88.5379C159.795 88.4024 159.922 88.2278 160.006 88.0288C160.044 87.9267 160.064 87.8178 160.063 87.708C160.068 87.6681 160.064 87.6277 160.054 87.5891C160.043 87.5506 160.025 87.5148 160.001 87.4839C159.976 87.4597 159.945 87.4416 159.913 87.4311C159.88 87.4206 159.845 87.4177 159.811 87.4228C159.703 87.4276 159.596 87.4464 159.493 87.4788C159.369 87.5094 159.226 87.545 159.06 87.5756C158.933 87.6097 158.801 87.62 158.67 87.6061C158.567 87.599 158.47 87.5541 158.394 87.4788C158.312 87.3926 158.255 87.2831 158.228 87.1632C158.19 86.9863 158.172 86.805 158.176 86.6234C158.176 86.3992 158.206 86.1762 158.266 85.9615C158.323 85.7405 158.406 85.5283 158.513 85.3301C158.616 85.1333 158.741 84.9504 158.884 84.7853C159.015 84.6171 159.167 84.4697 159.336 84.3474Z" fill="#FAFAFA"/>
<path d="M162.459 82.4225C162.617 82.3117 162.799 82.2452 162.987 82.2291C163.12 82.217 163.252 82.249 163.367 82.3207C163.469 82.3951 163.548 82.4995 163.596 82.6211C163.647 82.7465 163.677 82.8813 163.681 83.0183C163.687 83.075 163.675 83.1322 163.648 83.1812C163.631 83.2273 163.601 83.2665 163.562 83.2932L163.248 83.4867C163.201 83.5173 163.163 83.5275 163.134 83.4867C163.104 83.4663 163.081 83.4359 163.068 83.4002C163.024 83.3108 162.952 83.2419 162.863 83.2067C162.792 83.1955 162.72 83.1997 162.651 83.2189C162.581 83.2382 162.516 83.2721 162.459 83.3187C162.38 83.3706 162.305 83.4303 162.236 83.4969C162.167 83.5666 162.106 83.6453 162.055 83.7311C162.003 83.8129 161.961 83.902 161.932 83.9959C161.902 84.0842 161.886 84.1771 161.884 84.2709C161.878 84.3566 161.893 84.4424 161.927 84.5204C161.941 84.5477 161.962 84.5708 161.987 84.5877C162.012 84.6045 162.04 84.6146 162.069 84.6171C162.158 84.6336 162.248 84.6336 162.336 84.6171L162.749 84.5204C162.904 84.4742 163.064 84.4536 163.225 84.4593C163.339 84.4582 163.451 84.4975 163.543 84.5713C163.63 84.6508 163.694 84.7549 163.729 84.8717C163.771 85.0376 163.79 85.2091 163.786 85.3809C163.785 85.6084 163.755 85.8346 163.695 86.053C163.637 86.2775 163.553 86.4931 163.443 86.6946C163.329 86.903 163.192 87.0962 163.035 87.2699C162.874 87.4432 162.694 87.5938 162.497 87.718C162.351 87.8131 162.19 87.8803 162.022 87.9166C161.887 87.9443 161.747 87.932 161.618 87.881C161.497 87.8237 161.396 87.7252 161.333 87.6009C161.254 87.4442 161.214 87.2693 161.214 87.0917C161.208 87.035 161.22 86.9778 161.247 86.9288C161.264 86.8827 161.294 86.8435 161.333 86.8168L161.646 86.6233C161.694 86.5927 161.737 86.5825 161.76 86.5978C161.777 86.6058 161.792 86.6178 161.803 86.6328C161.815 86.6478 161.823 86.6655 161.827 86.6844C161.849 86.7358 161.874 86.7852 161.903 86.832C161.934 86.8768 161.977 86.9105 162.027 86.9288C162.089 86.9442 162.154 86.9442 162.217 86.9288C162.318 86.9033 162.414 86.8603 162.502 86.8015C162.592 86.7439 162.678 86.6792 162.759 86.608C162.842 86.5382 162.916 86.4559 162.978 86.3636C163.039 86.2757 163.09 86.1799 163.13 86.0785C163.168 85.9764 163.187 85.8675 163.187 85.7577C163.191 85.7178 163.188 85.6774 163.177 85.6388C163.167 85.6003 163.149 85.5645 163.125 85.5336C163.099 85.5094 163.069 85.4914 163.036 85.4808C163.003 85.4703 162.969 85.4674 162.935 85.4725C162.829 85.4795 162.723 85.4983 162.621 85.5285C162.497 85.5591 162.35 85.5947 162.188 85.6253C162.059 85.6594 161.926 85.6697 161.794 85.6558C161.691 85.65 161.593 85.6049 161.518 85.5285C161.437 85.4418 161.381 85.3323 161.356 85.2129C161.314 85.0384 161.295 84.8584 161.299 84.6782C161.301 84.4525 161.331 84.2281 161.39 84.0112C161.448 83.791 161.531 83.5791 161.637 83.3798C161.74 83.1817 161.866 82.9986 162.012 82.835C162.14 82.6734 162.291 82.5343 162.459 82.4225Z" fill="#FAFAFA"/>
<path d="M165.925 83.0594L165.54 85.4984C165.529 85.5718 165.509 85.6435 165.483 85.7123C165.464 85.7671 165.429 85.8138 165.383 85.8447L165.022 86.0687C164.974 86.0992 164.941 86.0992 164.917 86.0687C164.885 86.0268 164.867 85.975 164.865 85.921L164.294 81.6185C164.294 81.6185 164.294 81.5777 164.294 81.5625C164.296 81.5058 164.309 81.4502 164.332 81.3995C164.35 81.3542 164.38 81.3154 164.418 81.2875L164.746 81.0838C164.774 81.0719 164.804 81.0719 164.832 81.0838C164.86 81.0838 164.879 81.1246 164.889 81.206L165.264 84.1033L165.592 81.9291C165.601 81.8749 165.615 81.8219 165.635 81.7712C165.654 81.7068 165.695 81.6523 165.749 81.6185L166.115 81.3893C166.168 81.3588 166.206 81.3639 166.229 81.3893C166.25 81.4217 166.264 81.458 166.272 81.4963L166.605 83.2631L166.98 79.9025C166.985 79.8364 167.003 79.7721 167.033 79.7141C167.055 79.6761 167.084 79.6432 167.118 79.6174L167.446 79.4137C167.459 79.4038 167.474 79.3984 167.489 79.3984C167.505 79.3984 167.52 79.4038 167.532 79.4137C167.545 79.4304 167.556 79.4498 167.562 79.4708C167.569 79.4917 167.571 79.5139 167.57 79.5359C167.572 79.5562 167.572 79.5767 167.57 79.597L166.999 84.6023C166.99 84.6755 166.972 84.7473 166.947 84.8161C166.925 84.8705 166.889 84.9166 166.843 84.9485L166.477 85.1725C166.434 85.198 166.4 85.198 166.377 85.1725C166.353 85.1257 166.333 85.0762 166.32 85.0249L165.925 83.0594Z" fill="#FAFAFA"/>
<path d="M168.15 80.9018C168.16 80.6195 168.192 80.3385 168.245 80.0617C168.299 79.7911 168.382 79.528 168.492 79.2775C168.597 79.034 168.731 78.8063 168.891 78.6003C169.054 78.396 169.248 78.2237 169.466 78.0912C169.634 77.9695 169.83 77.9006 170.032 77.8926C170.183 77.8943 170.328 77.9581 170.436 78.0708C170.551 78.2094 170.634 78.3751 170.679 78.5545C170.74 78.7884 170.774 79.0296 170.779 79.2725C170.779 79.3641 170.779 79.4659 170.779 79.578C170.779 79.69 170.779 79.8071 170.779 79.9293C170.779 80.0515 170.779 80.1686 170.779 80.2806C170.779 80.3927 170.779 80.4996 170.779 80.5963C170.768 80.877 170.736 81.1563 170.683 81.4314C170.629 81.7011 170.547 81.964 170.441 82.2155C170.333 82.4583 170.197 82.6857 170.037 82.8927C169.874 83.0951 169.682 83.2672 169.466 83.4019C169.295 83.5227 169.096 83.5914 168.891 83.6005C168.817 83.6021 168.744 83.5876 168.675 83.5578C168.606 83.5281 168.544 83.4837 168.492 83.4274C168.368 83.2848 168.282 83.1088 168.245 82.9182C168.188 82.6834 168.156 82.4426 168.15 82.2002C168.15 82.1086 168.15 82.0068 168.15 81.8947C168.15 81.7827 168.15 81.6656 168.15 81.5434C168.15 81.4212 168.15 81.3092 168.15 81.1921C168.15 81.075 168.145 80.9935 168.15 80.9018ZM170.175 79.6849C170.185 79.5603 170.172 79.4347 170.136 79.3157C170.1 79.1967 170.042 79.0867 169.966 78.9924C169.842 78.8753 169.671 78.8804 169.466 78.9924C169.245 79.1321 169.068 79.342 168.963 79.5932C168.828 79.8901 168.756 80.2153 168.753 80.5454C168.753 80.7338 168.753 80.9426 168.753 81.1717C168.753 81.4008 168.753 81.6045 168.753 81.7878C168.743 81.9124 168.756 82.038 168.792 82.157C168.828 82.276 168.886 82.386 168.963 82.4803C169.086 82.5923 169.257 82.5821 169.466 82.4548C169.685 82.3142 169.859 82.1067 169.966 81.8591C170.1 81.5641 170.172 81.2405 170.175 80.912C170.175 80.7185 170.175 80.5098 170.175 80.2806C170.175 80.0515 170.18 79.8682 170.175 79.6849Z" fill="#FAFAFA"/>
<path d="M172.851 76.0589C173.227 75.8297 173.508 75.7941 173.702 75.9621C173.818 76.0984 173.904 76.2604 173.954 76.4365C174.004 76.6126 174.017 76.7983 173.992 76.9805C173.996 77.3263 173.947 77.6705 173.845 77.9988C173.748 78.3047 173.598 78.5881 173.403 78.8339L174.021 80.2749C174.023 80.2986 174.023 80.3224 174.021 80.3462C174.021 80.3921 174.011 80.4374 173.992 80.4785C173.979 80.5155 173.956 80.5474 173.926 80.5702L173.546 80.8044C173.484 80.8401 173.441 80.8451 173.412 80.8044C173.387 80.7777 173.366 80.7467 173.351 80.7128L172.766 79.3533L172.172 79.7199V81.4409C172.172 81.4972 172.161 81.5529 172.138 81.6038C172.119 81.6481 172.089 81.6865 172.053 81.7158L171.691 81.9399C171.679 81.9507 171.664 81.9566 171.649 81.9566C171.633 81.9566 171.618 81.9507 171.606 81.9399C171.592 81.9243 171.582 81.9058 171.575 81.8856C171.569 81.8655 171.566 81.8441 171.568 81.8228V77.0619C171.569 77.0053 171.582 76.9497 171.606 76.899C171.623 76.8529 171.653 76.8137 171.691 76.787L172.851 76.0589ZM172.181 78.7982L172.851 78.4113C173.015 78.3133 173.155 78.1755 173.26 78.009C173.37 77.8128 173.423 77.5859 173.412 77.3573C173.412 77.0823 173.36 76.9296 173.26 76.899C173.116 76.8779 172.969 76.9181 172.851 77.011L172.205 77.4082L172.181 78.7982Z" fill="#FAFAFA"/>
<path d="M176.037 74.099C176.209 73.9784 176.407 73.905 176.612 73.8852C176.761 73.8793 176.906 73.936 177.016 74.043C177.142 74.1849 177.229 74.361 177.268 74.5522C177.332 74.8047 177.367 75.0646 177.373 75.3262C177.373 75.6826 177.373 76.0492 177.373 76.4209C177.363 76.724 177.328 77.0257 177.268 77.3221C177.214 77.5976 177.131 77.8658 177.021 78.1216C176.915 78.3565 176.78 78.5756 176.622 78.7733C176.463 78.9757 176.273 79.1479 176.061 79.2825L174.934 79.9393C174.922 79.9501 174.907 79.956 174.891 79.956C174.875 79.956 174.86 79.9501 174.848 79.9393C174.834 79.9239 174.824 79.9055 174.817 79.8853C174.811 79.865 174.808 79.8435 174.81 79.8222V75.0614C174.812 75.0047 174.825 74.9491 174.848 74.8985C174.865 74.8524 174.895 74.8132 174.934 74.7864L176.037 74.099ZM176.769 75.6826C176.767 75.5447 176.748 75.4077 176.712 75.2752C176.69 75.175 176.642 75.0833 176.574 75.0105C176.544 74.9785 176.508 74.9534 176.469 74.9368C176.43 74.9202 176.388 74.9123 176.346 74.9137C176.227 74.9222 176.112 74.9644 176.013 75.0359L175.414 75.4025V78.7224L176.037 78.3405C176.157 78.2654 176.265 78.169 176.355 78.0554C176.444 77.9437 176.519 77.8205 176.579 77.6888C176.638 77.5485 176.683 77.4016 176.712 77.2509C176.745 77.0936 176.764 76.9333 176.769 76.7722C176.783 76.4005 176.783 76.039 176.769 75.6826Z" fill="#FAFAFA"/>
<path d="M110.754 0.19516C111.575 0.390726 112.366 0.709573 113.103 1.14223C113.809 1.5487 114.442 2.08666 114.971 2.73088C115.478 3.35058 115.854 4.07999 116.074 4.86943C116.299 5.71448 116.315 6.60732 116.122 7.46115C115.994 8.13811 115.744 8.78167 115.385 9.3553C115.057 9.84584 114.667 10.2846 114.225 10.6588C113.791 11.0196 113.328 11.3382 112.841 11.611L111.472 12.39C111.06 12.6204 110.668 12.8914 110.303 13.1996C109.972 13.4713 109.719 13.8363 109.571 14.2536C109.498 14.4443 109.378 14.6099 109.224 14.7322C109.151 14.7931 109.065 14.8353 108.975 14.8556C108.884 14.8758 108.79 14.8737 108.701 14.8494L106.685 14.3707C106.588 14.3489 106.496 14.3066 106.414 14.2463C106.333 14.186 106.263 14.1088 106.21 14.0194C106.153 13.9362 106.115 13.8399 106.099 13.7382C106.083 13.6364 106.09 13.5322 106.119 13.4338C106.282 12.7652 106.568 12.1384 106.961 11.5906C107.319 11.1061 107.735 10.6731 108.197 10.3024C108.647 9.94947 109.124 9.63777 109.623 9.37058C110.098 9.1109 110.574 8.8614 110.987 8.6119C111.372 8.39041 111.734 8.12586 112.067 7.82267C112.358 7.56094 112.561 7.2027 112.642 6.80431C112.717 6.45837 112.714 6.09796 112.631 5.7539C112.548 5.40985 112.389 5.09239 112.166 4.8287C111.611 4.17863 110.867 3.74662 110.056 3.60157C108.553 3.24515 107.286 3.78658 106.252 5.22586C106.153 5.38296 106.027 5.51927 105.882 5.62811C105.717 5.71523 105.528 5.72986 105.354 5.66884L103.21 5.15966C103.057 5.12801 102.922 5.03282 102.834 4.89489C102.787 4.82119 102.756 4.73758 102.742 4.64972C102.728 4.56186 102.732 4.47182 102.753 4.38571C102.936 3.67818 103.275 3.02833 103.742 2.49156C104.269 1.86907 104.896 1.35185 105.592 0.964023C106.353 0.537532 107.173 0.245247 108.021 0.0984168C108.929 -0.0598414 109.858 -0.0269816 110.754 0.19516ZM108.477 16.5806C108.666 16.628 108.83 16.7526 108.934 16.9276C109.038 17.1027 109.073 17.3144 109.033 17.5175L108.52 20.0124C108.503 20.1169 108.465 20.2163 108.409 20.304C108.353 20.3917 108.281 20.4659 108.197 20.5216C108.117 20.5804 108.027 20.6207 107.932 20.64C107.837 20.6593 107.739 20.6571 107.645 20.6336L105.344 20.0684C105.247 20.0508 105.153 20.0107 105.071 19.9509C104.989 19.8912 104.92 19.8132 104.869 19.7222C104.816 19.6362 104.779 19.5395 104.762 19.4379C104.745 19.3363 104.747 19.2321 104.769 19.1316L105.287 16.6366C105.332 16.4343 105.448 16.2585 105.611 16.1463C105.774 16.0342 105.972 15.9945 106.162 16.0357L108.477 16.5806Z" fill="#3D6498"/>
<path d="M113.293 24.08C113.866 23.9817 114.448 23.9697 115.024 24.0444C115.574 24.1144 116.108 24.2867 116.602 24.5536C117.073 24.8152 117.488 25.1794 117.819 25.6229C118.117 26.0568 118.327 26.5529 118.435 27.0791C118.543 27.6054 118.547 28.15 118.447 28.6779C118.356 29.0838 118.21 29.4733 118.014 29.8338C117.825 30.1844 117.605 30.5152 117.358 30.8216C117.116 31.1271 116.883 31.4173 116.669 31.6974C116.459 31.9583 116.273 32.2395 116.112 32.5375C115.962 32.7987 115.886 33.1013 115.894 33.4082C115.89 33.5516 115.852 33.6917 115.784 33.8156C115.75 33.8727 115.705 33.9213 115.651 33.9581C115.598 33.995 115.538 34.0193 115.475 34.0294L114.049 34.2738C113.983 34.2868 113.914 34.2853 113.848 34.2696C113.782 34.2539 113.719 34.2241 113.664 34.1822C113.608 34.1444 113.561 34.0928 113.527 34.0317C113.493 33.9706 113.473 33.9018 113.469 33.8308C113.409 33.357 113.442 32.8751 113.564 32.4153C113.676 32.0083 113.836 31.6182 114.04 31.2544C114.24 30.9053 114.469 30.5763 114.724 30.2717C114.976 29.9662 115.2 29.681 115.418 29.4061C115.614 29.1605 115.783 28.8924 115.922 28.6067C116.046 28.3607 116.091 28.0781 116.051 27.8021C116.015 27.5592 115.925 27.3292 115.788 27.1315C115.652 26.9338 115.473 26.7743 115.266 26.6667C114.755 26.4022 114.177 26.327 113.621 26.4528C113.119 26.5316 112.651 26.775 112.282 27.1496C111.914 27.5243 111.662 28.0119 111.563 28.5455C111.535 28.6739 111.487 28.7962 111.42 28.9071C111.335 29.0037 111.22 29.0635 111.097 29.0751L109.595 29.3348C109.489 29.3564 109.38 29.3326 109.29 29.2686C109.245 29.2349 109.206 29.1911 109.177 29.1402C109.149 29.0893 109.131 29.0323 109.124 28.9733C109.079 28.468 109.153 27.9588 109.338 27.4915C109.526 26.9479 109.803 26.4444 110.156 26.0047C110.542 25.5233 110.998 25.1108 111.506 24.7827C112.054 24.4269 112.661 24.1883 113.293 24.08ZM115.746 35.2056C115.812 35.1945 115.879 35.1973 115.943 35.2139C116.008 35.2305 116.068 35.2606 116.122 35.3024C116.178 35.3418 116.226 35.3935 116.262 35.4541C116.298 35.5146 116.321 35.5826 116.331 35.6537L116.597 37.4002C116.618 37.5419 116.586 37.6865 116.507 37.8028C116.429 37.9191 116.311 37.9976 116.179 38.0214L114.586 38.3014C114.454 38.3233 114.319 38.2886 114.211 38.2047C114.156 38.1647 114.109 38.1128 114.074 38.0523C114.039 37.9917 114.016 37.924 114.006 37.8534L113.74 36.1069C113.728 36.0368 113.73 35.9648 113.746 35.8955C113.761 35.8262 113.79 35.7612 113.831 35.7046C113.868 35.6455 113.916 35.5955 113.973 35.5578C114.029 35.5201 114.093 35.4955 114.159 35.4857L115.746 35.2056Z" fill="#3D6498"/>
<g opacity="0.2">
<path d="M113.293 24.08C113.866 23.9817 114.448 23.9697 115.024 24.0444C115.574 24.1144 116.108 24.2867 116.602 24.5536C117.073 24.8152 117.488 25.1794 117.819 25.6229C118.117 26.0568 118.327 26.5529 118.435 27.0791C118.543 27.6054 118.547 28.15 118.447 28.6779C118.356 29.0838 118.21 29.4733 118.014 29.8338C117.825 30.1844 117.605 30.5152 117.358 30.8216C117.116 31.1271 116.883 31.4173 116.669 31.6974C116.459 31.9583 116.273 32.2395 116.112 32.5375C115.962 32.7987 115.886 33.1013 115.894 33.4082C115.89 33.5516 115.852 33.6917 115.784 33.8156C115.75 33.8727 115.705 33.9213 115.651 33.9581C115.598 33.995 115.538 34.0193 115.475 34.0294L114.049 34.2738C113.983 34.2868 113.914 34.2853 113.848 34.2696C113.782 34.2539 113.719 34.2241 113.664 34.1822C113.608 34.1444 113.561 34.0928 113.527 34.0317C113.493 33.9706 113.473 33.9018 113.469 33.8308C113.409 33.357 113.442 32.8751 113.564 32.4153C113.676 32.0083 113.836 31.6182 114.04 31.2544C114.24 30.9053 114.469 30.5763 114.724 30.2717C114.976 29.9662 115.2 29.681 115.418 29.4061C115.614 29.1605 115.783 28.8924 115.922 28.6067C116.046 28.3607 116.091 28.0781 116.051 27.8021C116.015 27.5592 115.925 27.3292 115.788 27.1315C115.652 26.9338 115.473 26.7743 115.266 26.6667C114.755 26.4022 114.177 26.327 113.621 26.4528C113.119 26.5316 112.651 26.775 112.282 27.1496C111.914 27.5243 111.662 28.0119 111.563 28.5455C111.535 28.6739 111.487 28.7962 111.42 28.9071C111.335 29.0037 111.22 29.0635 111.097 29.0751L109.595 29.3348C109.489 29.3564 109.38 29.3326 109.29 29.2686C109.245 29.2349 109.206 29.1911 109.177 29.1402C109.149 29.0893 109.131 29.0323 109.124 28.9733C109.079 28.468 109.153 27.9588 109.338 27.4915C109.526 26.9479 109.803 26.4444 110.156 26.0047C110.542 25.5233 110.998 25.1108 111.506 24.7827C112.054 24.4269 112.661 24.1883 113.293 24.08ZM115.746 35.2056C115.812 35.1945 115.879 35.1973 115.943 35.2139C116.008 35.2305 116.068 35.2606 116.122 35.3024C116.178 35.3418 116.226 35.3935 116.262 35.4541C116.298 35.5146 116.321 35.5826 116.331 35.6537L116.597 37.4002C116.618 37.5419 116.586 37.6865 116.507 37.8028C116.429 37.9191 116.311 37.9976 116.179 38.0214L114.586 38.3014C114.454 38.3233 114.319 38.2886 114.211 38.2047C114.156 38.1647 114.109 38.1128 114.074 38.0523C114.039 37.9917 114.016 37.924 114.006 37.8534L113.74 36.1069C113.728 36.0368 113.73 35.9648 113.746 35.8955C113.761 35.8262 113.79 35.7612 113.831 35.7046C113.868 35.6455 113.916 35.5955 113.973 35.5578C114.029 35.5201 114.093 35.4955 114.159 35.4857L115.746 35.2056Z" fill="black"/>
</g>
<path d="M126.738 26.8247C126.802 26.873 126.857 26.9349 126.899 27.0067C126.941 27.0785 126.968 27.1587 126.98 27.2423C126.995 27.3251 126.994 27.4104 126.977 27.4928C126.96 27.5751 126.927 27.6528 126.88 27.7209L125.749 29.4266C125.704 29.4961 125.646 29.5549 125.579 29.5995C125.512 29.6442 125.437 29.6737 125.359 29.6863C125.282 29.7025 125.202 29.7014 125.125 29.683C125.048 29.6646 124.976 29.6293 124.912 29.5794L123.353 28.393C123.288 28.3454 123.233 28.2835 123.192 28.2116C123.151 28.1396 123.125 28.0591 123.115 27.9755C123.1 27.8926 123.101 27.8073 123.118 27.725C123.135 27.6426 123.168 27.5649 123.215 27.4968L124.361 25.7911C124.453 25.6528 124.593 25.5593 124.75 25.5307C124.906 25.5021 125.067 25.5408 125.197 25.6383L126.738 26.8247ZM133.317 15.2714C133.886 15.6982 134.392 16.213 134.819 16.799C135.236 17.3441 135.558 17.9649 135.77 18.632C135.968 19.2713 136.034 19.9486 135.965 20.6178C135.885 21.3315 135.632 22.0105 135.233 22.5884C134.936 23.0556 134.555 23.4539 134.111 23.7595C133.721 24.0217 133.296 24.2207 132.851 24.3501C132.418 24.4714 131.976 24.5532 131.53 24.5945L130.265 24.7167C129.886 24.7492 129.51 24.8191 129.143 24.9255C128.804 25.0079 128.495 25.1915 128.249 25.455C128.139 25.5755 127.999 25.6602 127.845 25.6994C127.772 25.7219 127.695 25.7252 127.621 25.7093C127.547 25.6934 127.477 25.6585 127.417 25.6078L126.039 24.5589C125.907 24.4581 125.817 24.3067 125.787 24.1363C125.769 24.0537 125.77 23.9678 125.789 23.8855C125.808 23.8032 125.845 23.7269 125.896 23.6627C126.218 23.2151 126.621 22.8412 127.08 22.5629C127.493 22.3211 127.934 22.1379 128.392 22.0181C128.834 21.9033 129.284 21.83 129.737 21.7991C130.184 21.7686 130.603 21.7329 130.993 21.6922C131.349 21.6585 131.702 21.5833 132.043 21.4682C132.342 21.3616 132.599 21.1521 132.775 20.8724C132.934 20.6362 133.037 20.3625 133.076 20.0743C133.115 19.7862 133.089 19.4923 132.999 19.2176C132.774 18.5389 132.344 17.9601 131.777 17.5729C130.75 16.7888 129.63 16.7633 128.416 17.4966C128.294 17.5798 128.158 17.6385 128.016 17.6697C127.943 17.6752 127.868 17.665 127.798 17.6396C127.728 17.6143 127.663 17.5743 127.608 17.522L126.143 16.4069C126.09 16.3692 126.045 16.3205 126.01 16.2636C125.975 16.2068 125.951 16.143 125.939 16.0759C125.928 16.0067 125.93 15.9356 125.945 15.8672C125.961 15.7989 125.989 15.7347 126.029 15.6788C126.375 15.2047 126.824 14.8288 127.337 14.5841C127.919 14.3013 128.544 14.129 129.181 14.0749C129.883 14.0121 130.589 14.0723 131.273 14.2531C132.011 14.4435 132.706 14.7897 133.317 15.2714Z" fill="#3D6498"/>
<g opacity="0.6">
<path d="M126.738 26.8247C126.802 26.873 126.857 26.9349 126.899 27.0067C126.941 27.0785 126.968 27.1587 126.98 27.2423C126.995 27.3251 126.994 27.4104 126.977 27.4928C126.96 27.5751 126.927 27.6528 126.88 27.7209L125.749 29.4266C125.704 29.4961 125.646 29.5549 125.579 29.5995C125.512 29.6442 125.437 29.6737 125.359 29.6863C125.282 29.7025 125.202 29.7014 125.125 29.683C125.048 29.6646 124.976 29.6293 124.912 29.5794L123.353 28.393C123.288 28.3454 123.233 28.2835 123.192 28.2116C123.151 28.1396 123.125 28.0591 123.115 27.9755C123.1 27.8926 123.101 27.8073 123.118 27.725C123.135 27.6426 123.168 27.5649 123.215 27.4968L124.361 25.7911C124.453 25.6528 124.593 25.5593 124.75 25.5307C124.906 25.5021 125.067 25.5408 125.197 25.6383L126.738 26.8247ZM133.317 15.2714C133.886 15.6982 134.392 16.213 134.819 16.799C135.236 17.3441 135.558 17.9649 135.77 18.632C135.968 19.2713 136.034 19.9486 135.965 20.6178C135.885 21.3315 135.632 22.0105 135.233 22.5884C134.936 23.0556 134.555 23.4539 134.111 23.7595C133.721 24.0217 133.296 24.2207 132.851 24.3501C132.418 24.4714 131.976 24.5532 131.53 24.5945L130.265 24.7167C129.886 24.7492 129.51 24.8191 129.143 24.9255C128.804 25.0079 128.495 25.1915 128.249 25.455C128.139 25.5755 127.999 25.6602 127.845 25.6994C127.772 25.7219 127.695 25.7252 127.621 25.7093C127.547 25.6934 127.477 25.6585 127.417 25.6078L126.039 24.5589C125.907 24.4581 125.817 24.3067 125.787 24.1363C125.769 24.0537 125.77 23.9678 125.789 23.8855C125.808 23.8032 125.845 23.7269 125.896 23.6627C126.218 23.2151 126.621 22.8412 127.08 22.5629C127.493 22.3211 127.934 22.1379 128.392 22.0181C128.834 21.9033 129.284 21.83 129.737 21.7991C130.184 21.7686 130.603 21.7329 130.993 21.6922C131.349 21.6585 131.702 21.5833 132.043 21.4682C132.342 21.3616 132.599 21.1521 132.775 20.8724C132.934 20.6362 133.037 20.3625 133.076 20.0743C133.115 19.7862 133.089 19.4923 132.999 19.2176C132.774 18.5389 132.344 17.9601 131.777 17.5729C130.75 16.7888 129.63 16.7633 128.416 17.4966C128.294 17.5798 128.158 17.6385 128.016 17.6697C127.943 17.6752 127.868 17.665 127.798 17.6396C127.728 17.6143 127.663 17.5743 127.608 17.522L126.143 16.4069C126.09 16.3692 126.045 16.3205 126.01 16.2636C125.975 16.2068 125.951 16.143 125.939 16.0759C125.928 16.0067 125.93 15.9356 125.945 15.8672C125.961 15.7989 125.989 15.7347 126.029 15.6788C126.375 15.2047 126.824 14.8288 127.337 14.5841C127.919 14.3013 128.544 14.129 129.181 14.0749C129.883 14.0121 130.589 14.0723 131.273 14.2531C132.011 14.4435 132.706 14.7897 133.317 15.2714Z" fill="#F8E4D2"/>
</g>
<path d="M91.3344 71.8969H74.4434V28.0667C74.4434 24.2598 75.8553 20.6089 78.3686 17.917C80.8819 15.2252 84.2906 13.7129 87.8449 13.7129H89.4043C92.9586 13.7129 96.3673 15.2252 98.8806 17.917C101.394 20.6089 102.806 24.2598 102.806 28.0667V59.6358C102.8 62.89 101.588 66.0086 99.4375 68.3072C97.2869 70.6059 94.3727 71.8969 91.3344 71.8969Z" fill="#263238"/>
<path d="M72.7984 177.414C72.4997 179.23 72.3407 181.069 72.323 182.913C72.2612 186.253 71.6907 187.44 71.6147 190.179C71.5243 193.311 72.033 194.482 73.2168 196.244C74.4005 198.005 77.4954 199.599 78.836 196.625C80.1767 193.652 79.9817 191.702 79.5586 188.631C79.126 185.454 79.0832 183.697 78.817 181.279C78.5983 179.145 78.3416 177.521 78.3416 177.521L72.7984 177.414Z" fill="#263238"/>
<path d="M81.65 155.23L71.3813 155.031C71.5335 162.374 72.6221 170.526 72.8076 177.435C72.8456 178.734 72.779 187.512 73.2354 190.165C73.9248 194.177 78.365 193.632 78.6027 191.234C78.8404 188.836 78.3175 178.586 78.3317 177.527C78.2889 173.107 80.2333 165.648 81.2364 157.715C81.2792 157.333 81.6025 155.612 81.65 155.23Z" fill="#FFA8A7"/>
<path d="M94.8425 171.702C94.8425 171.702 94.4384 171.468 94.3671 171.931C94.2672 172.481 94.1151 173.616 93.8917 174.523C93.5969 175.78 93.3497 177.853 93.5256 178.881C93.7015 179.91 95.9359 181.223 97.3859 181.702C99.1729 182.293 100.803 183.331 102.14 184.732C103.566 186.178 106.67 187.542 108.796 187.527C111.291 187.527 113.031 186.636 113.854 185.205C114.676 183.774 113.103 183.601 110.25 181.641L108.04 180.113C103.519 176.951 101.859 175.261 100.59 172.099L94.8425 171.702Z" fill="#263238"/>
<path d="M100.628 169.742C100.552 167.471 102.017 148.168 102.017 148.168L92.2661 152.929C94.3531 166.279 94.8 169.431 94.8333 171.616C94.7905 171.799 94.7729 171.987 94.781 172.176C94.781 174.768 97.5241 176.168 99.6539 177.899C101.464 179.418 103.394 180.767 105.42 181.932C106.97 182.762 110.117 182.838 110.507 181.774C107.912 179.651 104.137 176.473 102.074 174.05C101.066 172.909 100.705 172.018 100.628 169.742Z" fill="#FFA8A7"/>
<path d="M75.5887 83.584C71.8425 92.3877 71.8425 99.2005 72.4653 110.438C73.0167 120.749 73.9343 129.838 73.9343 129.838C73.7917 131.666 71.4194 135.235 71.1104 143.321C70.8251 150.877 71.5858 160.485 71.5858 160.485C71.5858 160.485 76.915 163.647 80.8561 160.455C80.8561 160.455 84.6593 141.009 85.7718 131.549C86.7226 123.295 88.434 112.75 88.434 112.75L92.0328 131.493C91.2561 134.152 90.6931 136.878 90.3499 139.64C89.846 145.205 92.7554 156.132 92.7554 156.132C92.7554 156.132 98.2606 157.889 101.622 154.696C101.622 154.696 102.877 136.931 103.347 130.23C103.975 121.253 102.653 96.955 101.622 84.0881L75.5887 83.584Z" fill="#455A64"/>
<path d="M88.4438 112.733L89.9223 98.6083C89.9223 98.6083 96.5495 97.6612 99.554 94.6367C98.6941 96.0777 97.5485 97.2983 96.1985 98.2117C94.8486 99.1252 93.3275 99.7091 91.7431 99.922L89.6038 113.064L92.0331 131.491L88.4438 112.733Z" fill="#263238"/>
<path d="M115.28 80.1106C115.554 77.5331 115.675 74.9396 115.642 72.3456C115.494 70.1053 115.119 69.7386 112.195 65.7721C108.249 60.4105 104.878 55.5885 101.313 50.7972C98.7647 47.3755 96.0835 46.851 93.4783 47.0038C91.6527 47.1107 95.2182 56.5152 97.0105 62.0806L107.246 73.8834C107.563 74.3492 107.709 74.9239 107.655 75.4975L107.037 85.5385L110.103 89.9378C110.103 89.9378 114.748 85.6505 115.28 80.1106Z" fill="#FFA8A7"/>
<path d="M83.6088 47.3101C81.6264 47.4577 78.0228 47.8192 78.0228 47.8192C75.9453 49.0616 75.4176 50.0851 75.0325 53.0383C74.8661 54.3011 75.8265 57.6566 76.6489 62.4276L78.2082 71.272L78.0371 75.6612C77.2289 78.3395 75.3986 81.6644 73.7822 86.5678C81.7214 91.3134 88.3771 91.4916 94.4147 90.6412C99.0166 90.0048 101.455 88.8133 102.268 87.632C102.097 82.7897 101.793 79.7957 101.698 74.7345C101.665 72.6112 101.783 70.4625 101.864 68.0184C104.95 65.2994 104.988 60.7779 103.29 57.8348C99.3779 51.0474 95.5699 46.7754 93.0503 46.9944L83.6088 47.3101Z" fill="#3D6498"/>
<path opacity="0.6" d="M83.6088 47.3101C81.6264 47.4577 78.0228 47.8192 78.0228 47.8192C75.9453 49.0616 75.4176 50.0851 75.0325 53.0383C74.8661 54.3011 75.8265 57.6566 76.6489 62.4276L78.2082 71.272L78.0371 75.6612C77.2289 78.3395 75.3986 81.6644 73.7822 86.5678C81.7214 91.3134 88.3771 91.4916 94.4147 90.6412C99.0166 90.0048 101.455 88.8133 102.268 87.632C102.097 82.7897 101.793 79.7957 101.698 74.7345C101.665 72.6112 101.783 70.4625 101.864 68.0184C104.95 65.2994 104.988 60.7779 103.29 57.8348C99.3779 51.0474 95.5699 46.7754 93.0503 46.9944L83.6088 47.3101Z" fill="#F8E4D2"/>
<path opacity="0.1" d="M95.7173 68.0842C95.7173 68.0842 92.0947 71.0985 87.954 69.5252C86.7912 69.1327 85.7427 68.4255 84.9098 67.472C84.077 66.5184 83.488 65.3508 83.1999 64.082C83.1999 64.082 82.7626 69.1484 87.9777 70.8745C93.0313 72.5395 95.7173 68.0842 95.7173 68.0842Z" fill="black"/>
<path d="M100.633 33.4045C100.476 40.757 98.2561 42.5697 97.1342 43.0789C96.0122 43.588 93.8634 43.2825 91.7717 42.9108V47.3509C91.7717 47.3509 94.1867 50.0597 94.006 52.0812C93.8254 54.1026 90.2028 54.3317 87.5025 52.351C86.0126 51.2549 84.6649 49.9519 83.4949 48.4762C83.2702 48.1915 83.1472 47.8306 83.1479 47.4578V37.0705C83.1479 37.0705 82.0021 38.369 79.9769 36.8822C79.5399 36.5835 79.1658 36.1907 78.8782 35.7287C78.5906 35.2668 78.3959 34.7458 78.3065 34.1989C78.2171 33.652 78.2349 33.0912 78.3588 32.552C78.4827 32.0129 78.7099 31.5073 79.0261 31.0673C79.9104 29.9522 82.1543 29.8758 83.2287 31.5765C83.8372 32.8444 83.918 34.1224 84.5978 33.6132C86.4044 32.2181 85.4345 29.0306 87.6166 27.5031C88.3327 27.1028 89.0765 26.7623 89.8415 26.4847C93.7351 25.0437 97.1104 23.8319 97.9234 20.9805C99.4542 21.9174 100.823 24.7331 100.633 33.4045Z" fill="#FFA8A7"/>
<path d="M92.9555 39.972C93.4544 39.972 93.8588 39.5389 93.8588 39.0046C93.8588 38.4702 93.4544 38.0371 92.9555 38.0371C92.4567 38.0371 92.0522 38.4702 92.0522 39.0046C92.0522 39.5389 92.4567 39.972 92.9555 39.972Z" fill="#B16668"/>
<path d="M92.3562 32.2892C92.356 32.4884 92.3012 32.6831 92.1987 32.8493C92.0962 33.0155 91.9504 33.1458 91.7794 33.2242C91.6084 33.3025 91.4197 33.3254 91.2367 33.2901C91.0537 33.2548 90.8843 33.1627 90.7497 33.0253C90.615 32.888 90.5209 32.7113 90.479 32.5172C90.4371 32.3231 90.4493 32.1202 90.514 31.9334C90.5788 31.7467 90.6932 31.5844 90.8432 31.4666C90.9932 31.3489 91.1721 31.2808 91.3579 31.2708C91.4867 31.2639 91.6154 31.2851 91.7363 31.3332C91.8572 31.3813 91.9677 31.4552 92.0611 31.5505C92.1545 31.6457 92.2288 31.7603 92.2796 31.8873C92.3303 32.0143 92.3564 32.151 92.3562 32.2892Z" fill="#263238"/>
<path d="M99.5585 32.3901C99.5683 32.5147 99.5547 32.6401 99.5188 32.759C99.4828 32.878 99.425 32.988 99.3489 33.0828C99.2728 33.1776 99.1799 33.2552 99.0755 33.3111C98.9711 33.367 98.8573 33.4001 98.7408 33.4085C98.6233 33.4201 98.5049 33.4048 98.3933 33.3637C98.2817 33.3225 98.1796 33.2564 98.0937 33.1697C98.0079 33.083 97.9402 32.9777 97.8952 32.8609C97.8502 32.744 97.829 32.6183 97.8328 32.492C97.8206 32.3665 97.8324 32.2396 97.8675 32.1192C97.9026 31.9987 97.9603 31.8872 98.0371 31.7915C98.1139 31.6958 98.2081 31.6179 98.314 31.5626C98.4199 31.5073 98.5352 31.4757 98.6529 31.4698C98.7706 31.4639 98.8881 31.4838 98.9984 31.5282C99.1086 31.5727 99.2092 31.6409 99.294 31.7285C99.3788 31.8161 99.446 31.9213 99.4915 32.0377C99.537 32.1541 99.5598 32.2792 99.5585 32.4054V32.3901Z" fill="#263238"/>
<path d="M91.1344 34.9059C90.3144 34.9059 89.528 34.5574 88.9477 33.9369C88.3674 33.3163 88.0408 32.4745 88.0396 31.5963C88.0396 29.3457 90.2074 29.3457 91.1344 29.3457C92.0615 29.3457 94.2245 29.3457 94.2245 31.5963C94.2233 32.4736 93.8973 33.3147 93.3181 33.9351C92.7388 34.5555 91.9536 34.9046 91.1344 34.9059ZM91.1344 29.8651C89.2328 29.8651 88.5292 30.3742 88.5292 31.5963C88.5292 32.339 88.8047 33.0513 89.295 33.5765C89.7854 34.1017 90.4505 34.3968 91.1439 34.3968C91.8374 34.3968 92.5025 34.1017 92.9928 33.5765C93.4832 33.0513 93.7586 32.339 93.7586 31.5963C93.7396 30.3488 93.0075 29.8651 91.1344 29.8651Z" fill="#455A64"/>
<path d="M98.9835 34.9059C98.1636 34.9059 97.3771 34.5574 96.7968 33.9369C96.2166 33.3163 95.8899 32.4745 95.8887 31.5963C95.8887 29.3457 98.0565 29.3457 98.9835 29.3457C99.9106 29.3457 102.074 29.3457 102.074 31.5963C102.072 32.4736 101.746 33.3147 101.167 33.9351C100.588 34.5555 99.8027 34.9046 98.9835 34.9059ZM98.9835 29.8651C97.1105 29.8651 96.3783 30.3742 96.3783 31.5963C96.3783 32.339 96.6538 33.0513 97.1442 33.5765C97.6345 34.1017 98.2996 34.3968 98.993 34.3968C99.6865 34.3968 100.352 34.1017 100.842 33.5765C101.332 33.0513 101.608 32.339 101.608 31.5963C101.589 30.3488 100.857 29.8651 98.9835 29.8651Z" fill="#455A64"/>
<path d="M94.7046 30.5273L94.8567 36.7139L97.8945 35.7057L94.7046 30.5273Z" fill="#F28F8F"/>
<path d="M91.7668 42.9254C89.5609 42.6148 85.0208 41.2196 84.3125 39.2949C84.5976 40.2676 85.1533 41.1239 85.9051 41.7492C87.26 42.9967 91.7668 44.3969 91.7668 44.3969V42.9254Z" fill="#F28F8F"/>
<path d="M91.8762 27.523L89.8605 28.8418C89.7017 28.5454 89.6555 28.1949 89.7316 27.863C89.8078 27.5311 90.0004 27.2434 90.2694 27.0597C90.4023 26.9732 90.5503 26.9166 90.7043 26.8931C90.8583 26.8697 91.0151 26.8799 91.1653 26.9232C91.3155 26.9665 91.456 27.042 91.5782 27.1451C91.7003 27.2482 91.8018 27.3768 91.8762 27.523Z" fill="#263238"/>
<path d="M100.077 28.9894L97.833 28.1492C97.8764 27.9899 97.9498 27.8418 98.0487 27.7141C98.1475 27.5863 98.2697 27.4815 98.4077 27.4061C98.5457 27.3308 98.6967 27.2865 98.8513 27.2759C99.0059 27.2653 99.1609 27.2888 99.3068 27.3447C99.6077 27.4605 99.8555 27.6959 99.9989 28.0021C100.142 28.3082 100.17 28.6617 100.077 28.9894Z" fill="#263238"/>
<path d="M93.9823 31.8608C93.95 31.8608 93.9181 31.8539 93.8884 31.8405C93.8586 31.8272 93.8317 31.8076 93.8091 31.7829C93.7865 31.7583 93.7688 31.729 93.7569 31.697C93.745 31.6649 93.7392 31.6305 93.7398 31.596C93.7398 31.1734 94.5195 30.8984 95.2231 30.8984C95.9266 30.8984 96.3783 31.1734 96.3783 31.596C96.3635 31.6513 96.3323 31.7 96.2895 31.7347C96.2466 31.7693 96.1943 31.7881 96.1406 31.7881C96.0869 31.7881 96.0346 31.7693 95.9917 31.7347C95.9488 31.7 95.9176 31.6513 95.9029 31.596C95.9029 31.5451 95.6604 31.4178 95.2373 31.4178C94.8967 31.41 94.5578 31.4723 94.239 31.6011C94.239 31.6365 94.2323 31.6716 94.2192 31.7041C94.2062 31.7367 94.187 31.766 94.163 31.7903C94.1389 31.8147 94.1105 31.8335 94.0794 31.8456C94.0483 31.8577 94.0153 31.8629 93.9823 31.8608Z" fill="#455A64"/>
<path d="M88.2918 31.6362H88.2633L82.8294 31.1271C82.5755 30.8575 82.2731 30.6462 81.9404 30.5059L88.3203 31.1372C88.3843 31.1462 88.4425 31.1815 88.4824 31.2357C88.5224 31.29 88.541 31.3588 88.5343 31.4275C88.5231 31.4872 88.4927 31.5408 88.4484 31.579C88.4041 31.6172 88.3487 31.6374 88.2918 31.6362Z" fill="#455A64"/>
<path d="M65.981 37.7063C67.759 35.1604 68.9713 33.2408 70.5924 31.087C71.5147 29.8497 72.1042 28.9637 72.9694 27.6958C73.5779 26.82 73.9202 26.0817 74.6143 25.8119C75.3642 25.4828 76.04 24.9863 76.5967 24.3556C76.939 23.9501 77.2565 23.5215 77.5476 23.0725C78.5665 21.6035 79.7768 20.2986 81.1416 19.1976C82.5678 18.0469 84.1604 17.1609 85.6294 16.0662C86.5041 15.4093 87.4407 14.3197 86.3758 13.3013C86.0492 13.0067 85.6583 12.8053 85.2396 12.7158C82.6486 12.1149 80.3952 13.0671 77.8613 13.7596C76.7607 14.0538 75.6843 14.4438 74.6428 14.9256C74.1306 15.1426 73.6503 15.4375 73.2166 15.8014C72.6104 16.4561 72.1135 17.2173 71.7476 18.052C70.64 20.1702 68.2629 22.0643 66.599 23.7395C64.6546 25.6998 62.9147 27.4972 60.6945 29.6562C58.6979 31.6063 56.7439 33.3986 54.9137 35.527C53.3971 37.2837 53.9628 38.6585 54.1625 39.1371C55.3986 41.8561 56.782 42.8337 58.4411 44.5191C61.2935 47.4367 71.1581 55.8331 74.4242 58.6081C75.1259 59.1984 75.677 59.9691 76.0263 60.8485L76.6538 62.4015C80.3809 63.1347 82.8673 57.1417 79.7819 49.9266C79.271 48.7599 78.4905 47.7522 77.5143 46.9988C73.616 43.959 65.981 37.7063 65.981 37.7063Z" fill="#FFA8A7"/>
<path d="M65.9811 37.707C64.7948 39.2701 63.2139 40.4349 61.4268 41.0625C61.4268 41.0625 63.8038 41.7143 67.0603 38.5828L65.9811 37.707Z" fill="#F28F8F"/>
<path d="M114.31 74.7999L113.702 74.2398C113.611 74.1756 113.507 74.1353 113.399 74.122C113.291 74.1087 113.181 74.1229 113.079 74.1634L106.476 76.0881C106.143 76.2069 105.838 76.4012 105.582 76.6579C105.326 76.9145 105.125 77.2273 104.993 77.5749L100.239 92.2546C100.181 92.3742 100.159 92.5095 100.174 92.6429C100.189 92.7763 100.242 92.9018 100.324 93.0031L100.952 93.5835C101.043 93.651 101.148 93.6936 101.258 93.7078C101.369 93.722 101.48 93.7073 101.584 93.665L108.197 91.7403C108.529 91.6215 108.834 91.4272 109.09 91.1706C109.346 90.9139 109.547 90.6011 109.68 90.2535C110.631 87.3664 113.483 78.4609 114.434 75.5738C114.548 75.2123 114.491 74.9374 114.31 74.7999Z" fill="#455A64"/>
<path d="M100.861 92.8197L105.615 78.1401C105.747 77.7927 105.948 77.4802 106.204 77.2244C106.461 76.9685 106.766 76.7754 107.098 76.6584L113.697 74.7337C114.31 74.5554 114.648 74.9322 114.429 75.5738C113.478 78.4608 110.626 87.3664 109.675 90.2534C109.542 90.6011 109.341 90.9139 109.085 91.1705C108.829 91.4271 108.524 91.6215 108.192 91.7403L101.593 93.6853C100.985 93.8381 100.657 93.4613 100.861 92.8197Z" fill="#3D6498"/>
<path d="M106.381 77.0654C106.037 77.3439 105.771 77.717 105.61 78.1449L100.856 92.8194C100.802 92.936 100.779 93.0666 100.791 93.1963C100.803 93.326 100.849 93.4495 100.923 93.5526L100.333 93.0129C100.249 92.9129 100.195 92.7876 100.179 92.6538C100.163 92.52 100.185 92.3842 100.243 92.2644L104.997 77.5848C105.147 77.1857 105.391 76.8349 105.705 76.5664L106.381 77.0654Z" fill="#37474F"/>
<path d="M112.499 81.4912C112.024 82.9831 110.374 83.9811 107.645 84.6736C104.916 85.3661 103.409 88.467 103.842 89.409C104.275 90.351 108.686 91.2318 110.45 90.962C112.214 90.6921 113.982 87.9629 114.519 87.1177C115.057 86.2724 115.675 80.3761 115.109 79.5665C114.543 78.7569 113.35 78.8842 113.35 78.8842L112.499 81.4912Z" fill="#F28F8F"/>
</svg>
