<svg width="22" height="23" viewBox="0 0 22 23" fill="none" xmlns="http://www.w3.org/2000/svg">
<path d="M11.7467 21.2997C11.5291 21.4299 11.2679 21.5 11 21.5C10.7321 21.5 10.4709 21.4299 10.2533 21.2997C3.81446 17.4753 -3.01908 9.60877 3.88913 3.92441C5.78564 2.36982 8.3397 1.49903 11 1.5C13.6667 1.5 16.2255 2.37221 18.1109 3.9233C25.0191 9.60766 18.1855 17.4731 11.7467 21.2997Z" stroke="#D9D9D9" stroke-width="1.5" stroke-linecap="round" stroke-linejoin="round"/>
<path d="M11.0002 11.4991C11.7075 11.4991 12.3858 11.2649 12.8859 10.8482C13.386 10.4315 13.667 9.86624 13.667 9.27688C13.667 8.68752 13.386 8.12229 12.8859 7.70555C12.3858 7.28881 11.7075 7.05469 11.0002 7.05469C10.293 7.05469 9.61468 7.28881 9.11457 7.70555C8.61446 8.12229 8.3335 8.68752 8.3335 9.27688C8.3335 9.86624 8.61446 10.4315 9.11457 10.8482C9.61468 11.2649 10.293 11.4991 11.0002 11.4991Z" stroke="#D9D9D9" stroke-width="1.5" stroke-linecap="round" stroke-linejoin="round"/>
</svg>
