<svg width="22" height="22" viewBox="0 0 22 22" fill="none" xmlns="http://www.w3.org/2000/svg">
<path d="M11.7467 20.7997C11.5291 20.9299 11.2679 21 11 21C10.7321 21 10.4709 20.9299 10.2533 20.7997C3.81446 16.9753 -3.01908 9.10877 3.88913 3.42441C5.78564 1.86982 8.3397 0.999027 11 1C13.6667 1 16.2255 1.87221 18.1109 3.4233C25.0191 9.10766 18.1855 16.9731 11.7467 20.7997Z" stroke="white" stroke-width="1.5" stroke-linecap="round" stroke-linejoin="round"/>
<path d="M11.0002 11C11.7075 11 12.3858 10.7659 12.8859 10.3492C13.386 9.93244 13.667 9.36722 13.667 8.77785C13.667 8.18849 13.386 7.62327 12.8859 7.20653C12.3858 6.78979 11.7075 6.55566 11.0002 6.55566C10.293 6.55566 9.61468 6.78979 9.11457 7.20653C8.61446 7.62327 8.3335 8.18849 8.3335 8.77785C8.3335 9.36722 8.61446 9.93244 9.11457 10.3492C9.61468 10.7659 10.293 11 11.0002 11Z" stroke="white" stroke-width="1.5" stroke-linecap="round" stroke-linejoin="round"/>
</svg>
