<svg width="22" height="22" viewBox="0 0 22 22" fill="none" xmlns="http://www.w3.org/2000/svg">
<path d="M11.7467 20.7997C11.5291 20.9299 11.2679 21 11 21C10.7321 21 10.4709 20.9299 10.2533 20.7997C3.81446 16.9753 -3.01908 9.10877 3.88913 3.42441C5.78564 1.86982 8.3397 0.999027 11 1C13.6667 1 16.2255 1.87221 18.1109 3.4233C25.0191 9.10766 18.1855 16.9731 11.7467 20.7997Z" stroke="black" stroke-width="1.5" stroke-linecap="round" stroke-linejoin="round"/>
<path d="M11.0002 10.9998C11.7075 10.9998 12.3858 10.7657 12.8859 10.3489C13.386 9.93219 13.667 9.36697 13.667 8.77761C13.667 8.18825 13.386 7.62303 12.8859 7.20628C12.3858 6.78954 11.7075 6.55542 11.0002 6.55542C10.293 6.55542 9.61468 6.78954 9.11457 7.20628C8.61446 7.62303 8.3335 8.18825 8.3335 8.77761C8.3335 9.36697 8.61446 9.93219 9.11457 10.3489C9.61468 10.7657 10.293 10.9998 11.0002 10.9998Z" stroke="black" stroke-width="1.5" stroke-linecap="round" stroke-linejoin="round"/>
</svg>
