<svg width="224" height="224" viewBox="0 0 224 224" fill="none" xmlns="http://www.w3.org/2000/svg">
<path d="M201.118 33.6593C187.387 1.3956 154.426 -10.7523 128.42 10.9104C118.265 19.3616 111.929 32.8119 99.494 38.2091C87.8264 43.2708 73.0461 41.7807 60.4293 44.522C33.562 50.3229 -2.61066 72.3326 0.148924 106.246C1.35762 121.101 11.0824 137.599 15.8896 151.499C21.4088 167.492 24.7203 187.499 39.3295 197.059C64.3755 213.473 94.5874 200.057 117.15 186.822C129.292 179.708 135.976 175.334 149.051 177.774C161.154 180.049 172.054 188.011 183.882 178.565C192.762 171.473 193.496 157.101 200.953 148.661C209.353 139.152 217.869 138.464 222.235 124.172C227.528 106.831 219.729 95.9972 214.458 80.5051C209.187 65.0131 207.587 48.8386 201.118 33.6593Z" fill="#3D6498" fill-opacity="0.7"/>
<path d="M96.6297 224C143.748 224 181.945 221.548 181.945 218.524C181.945 215.499 143.748 213.047 96.6297 213.047C49.5114 213.047 11.3145 215.499 11.3145 218.524C11.3145 221.548 49.5114 224 96.6297 224Z" fill="#3D6498"/>
<path opacity="0.8" d="M96.6297 224C143.748 224 181.945 221.548 181.945 218.524C181.945 215.499 143.748 213.047 96.6297 213.047C49.5114 213.047 11.3145 215.499 11.3145 218.524C11.3145 221.548 49.5114 224 96.6297 224Z" fill="#F8E4D2"/>
<path d="M160.74 10.2617H74.9557C69.0331 10.2617 64.2319 15.2091 64.2319 21.312V207.933C64.2319 214.036 69.0331 218.984 74.9557 218.984H160.74C166.663 218.984 171.464 214.036 171.464 207.933V21.312C171.464 15.2091 166.663 10.2617 160.74 10.2617Z" fill="#263238"/>
<path d="M166.695 33.1816H68.9946V196.064H166.695V33.1816Z" fill="#F8E4D2" stroke="#263238" stroke-width="1.33739" stroke-miterlimit="10"/>
<path d="M132.822 99.1375C141.092 90.6155 141.092 76.7986 132.822 68.2766C124.552 59.7546 111.144 59.7546 102.873 68.2766C94.6032 76.7986 94.6032 90.6155 102.873 99.1375C111.144 107.659 124.552 107.659 132.822 99.1375Z" fill="white"/>
<path d="M145.651 185.821H90.0505C89.9254 185.822 89.8014 185.797 89.6856 185.749C89.5697 185.7 89.4644 185.628 89.3757 185.537C89.287 185.446 89.2165 185.338 89.1685 185.219C89.1204 185.1 89.0957 184.972 89.0957 184.843C89.095 184.714 89.1192 184.586 89.1669 184.466C89.2146 184.346 89.2849 184.237 89.3737 184.146C89.4626 184.054 89.5681 183.982 89.6843 183.933C89.8005 183.884 89.9249 183.859 90.0505 183.859H145.651C145.776 183.859 145.9 183.885 146.015 183.934C146.131 183.984 146.236 184.056 146.324 184.148C146.412 184.239 146.482 184.348 146.529 184.467C146.577 184.587 146.601 184.714 146.6 184.843C146.6 185.103 146.5 185.352 146.322 185.535C146.144 185.718 145.902 185.821 145.651 185.821Z" fill="#3D6498"/>
<path d="M147.461 117.797H88.2347C87.0124 117.797 86.0215 118.818 86.0215 120.077V127.272C86.0215 128.531 87.0124 129.552 88.2347 129.552H147.461C148.683 129.552 149.674 128.531 149.674 127.272V120.077C149.674 118.818 148.683 117.797 147.461 117.797Z" fill="white"/>
<path d="M147.461 139.783H88.2347C87.0124 139.783 86.0215 140.804 86.0215 142.064V149.258C86.0215 150.518 87.0124 151.539 88.2347 151.539H147.461C148.683 151.539 149.674 150.518 149.674 149.258V142.064C149.674 140.804 148.683 139.783 147.461 139.783Z" fill="white"/>
<path d="M128.392 94.5913L122.161 90.8946V87.8405C123.063 86.7157 123.717 85.4018 124.076 83.9903C124.291 84.0688 124.517 84.1091 124.744 84.1097C125.517 84.1097 126.008 81.6414 126.091 79.8784C126.99 77.9163 125.765 76.7675 125.765 76.7675C125.765 76.7675 126.273 76.2442 126.61 74.1456C126.946 72.047 125.423 72.9229 124.236 71.0006C123.05 69.0783 122.2 66.9854 118.303 66.9854C117.23 66.949 116.17 67.2463 115.263 67.8386C114.355 68.431 113.641 69.2909 113.215 70.3068C112.245 70.3104 111.278 70.4267 110.334 70.6537C109.141 71.0006 108.805 75.0215 109.82 76.5968C110.275 77.4578 110.517 78.4206 110.527 79.4006C110.256 79.0594 109.975 78.9684 109.82 79.7419C109.484 81.4879 110.841 83.9334 110.841 83.9334L111.542 83.7286C111.895 85.2372 112.577 86.6432 113.535 87.8405V90.8946L107.304 94.5913C106.576 95.0242 105.971 95.6467 105.551 96.3964C105.131 97.1461 104.909 97.9965 104.908 98.8624V100.978C108.614 103.928 113.165 105.528 117.848 105.528C122.531 105.528 127.082 103.928 130.788 100.978V98.8624C130.788 97.9963 130.567 97.1454 130.146 96.3955C129.726 95.6457 129.121 95.0233 128.392 94.5913Z" fill="#263238"/>
<path d="M94.0853 148.616C93.9424 148.613 93.8059 148.554 93.7044 148.451C93.6501 148.401 93.6068 148.339 93.5773 148.271C93.5478 148.202 93.5328 148.128 93.5333 148.053C93.535 147.95 93.5637 147.85 93.6161 147.762L94.6096 146.125L92.6724 146.187C92.5994 146.192 92.5262 146.181 92.4577 146.154C92.3892 146.128 92.327 146.087 92.275 146.034C92.185 145.929 92.1353 145.795 92.1353 145.655C92.1353 145.516 92.185 145.381 92.275 145.277C92.3258 145.222 92.3878 145.179 92.4565 145.152C92.5251 145.124 92.5988 145.113 92.6724 145.118L94.582 145.192L93.5996 143.56C93.5461 143.471 93.5175 143.368 93.5168 143.264C93.5163 143.189 93.5312 143.114 93.5607 143.046C93.5902 142.977 93.6336 142.916 93.6879 142.866C93.7893 142.762 93.9258 142.703 94.0687 142.701C94.1627 142.701 94.2547 142.73 94.3338 142.782C94.413 142.834 94.4761 142.909 94.5158 142.997L95.4595 144.754L96.3923 143.008C96.4365 142.915 96.5047 142.836 96.5893 142.78C96.6739 142.724 96.7718 142.692 96.8724 142.689C96.9422 142.69 97.0111 142.705 97.0748 142.735C97.1384 142.764 97.1955 142.807 97.2422 142.86C97.3435 142.968 97.3991 143.114 97.3968 143.264C97.3965 143.362 97.3718 143.458 97.325 143.543L96.326 145.192L98.2633 145.118C98.3368 145.113 98.4105 145.124 98.4792 145.152C98.5479 145.179 98.6098 145.222 98.6607 145.277C98.7547 145.378 98.8063 145.513 98.8042 145.653C98.8038 145.793 98.7527 145.929 98.6607 146.034C98.6087 146.087 98.5464 146.128 98.4779 146.154C98.4094 146.181 98.3363 146.192 98.2633 146.187L96.315 146.125L97.2864 147.745C97.3408 147.836 97.3695 147.94 97.3692 148.047C97.3692 148.198 97.311 148.342 97.2075 148.449C97.104 148.556 96.9636 148.616 96.8173 148.616C96.7226 148.614 96.6304 148.585 96.552 148.53C96.4735 148.475 96.4123 148.398 96.3757 148.308L95.454 146.602L94.5378 148.308C94.4972 148.398 94.4334 148.474 94.3536 148.528C94.2737 148.582 94.1808 148.612 94.0853 148.616Z" fill="#263238"/>
<path d="M103.037 148.616C102.894 148.613 102.758 148.554 102.656 148.451C102.602 148.401 102.559 148.339 102.529 148.271C102.5 148.202 102.485 148.128 102.485 148.053C102.487 147.95 102.516 147.85 102.568 147.762L103.562 146.125L101.63 146.187C101.556 146.191 101.482 146.179 101.413 146.152C101.344 146.126 101.281 146.086 101.227 146.034C101.154 145.956 101.105 145.857 101.087 145.75C101.069 145.643 101.082 145.533 101.126 145.434C101.169 145.336 101.241 145.253 101.331 145.196C101.42 145.14 101.525 145.112 101.63 145.118L103.534 145.192L102.552 143.56C102.498 143.471 102.469 143.368 102.469 143.264C102.468 143.189 102.483 143.114 102.513 143.046C102.542 142.977 102.586 142.916 102.64 142.866C102.741 142.762 102.878 142.703 103.021 142.701C103.115 142.701 103.207 142.73 103.286 142.782C103.365 142.834 103.428 142.909 103.468 142.997L104.412 144.754L105.344 143.008C105.388 142.915 105.457 142.836 105.541 142.78C105.626 142.724 105.724 142.692 105.824 142.689C105.894 142.689 105.963 142.704 106.027 142.734C106.091 142.763 106.148 142.806 106.194 142.86C106.245 142.913 106.286 142.976 106.313 143.046C106.341 143.115 106.355 143.189 106.354 143.264C106.352 143.362 106.326 143.458 106.277 143.543L105.278 145.192L107.221 145.129C107.293 145.124 107.366 145.136 107.434 145.163C107.502 145.191 107.563 145.234 107.613 145.289C107.707 145.389 107.758 145.524 107.756 145.664C107.756 145.805 107.705 145.941 107.613 146.045C107.562 146.098 107.5 146.139 107.433 146.165C107.365 146.192 107.293 146.203 107.221 146.198L105.267 146.136L106.238 147.757C106.293 147.847 106.321 147.952 106.321 148.058C106.321 148.209 106.263 148.354 106.159 148.46C106.056 148.567 105.916 148.627 105.769 148.627C105.675 148.626 105.582 148.596 105.504 148.541C105.426 148.487 105.364 148.41 105.328 148.32L104.406 146.614L103.49 148.32C103.448 148.407 103.383 148.48 103.303 148.533C103.224 148.585 103.132 148.613 103.037 148.616Z" fill="#263238"/>
<path d="M111.995 148.616C111.85 148.615 111.711 148.556 111.608 148.451C111.554 148.401 111.511 148.339 111.481 148.271C111.452 148.202 111.437 148.128 111.437 148.053C111.439 147.95 111.468 147.85 111.52 147.762L112.514 146.125L110.582 146.187C110.478 146.191 110.375 146.164 110.286 146.107C110.198 146.051 110.127 145.969 110.084 145.872C110.041 145.774 110.027 145.665 110.044 145.559C110.061 145.454 110.108 145.355 110.179 145.277C110.231 145.222 110.294 145.18 110.364 145.152C110.433 145.125 110.508 145.113 110.582 145.118L112.486 145.192L111.504 143.56C111.45 143.471 111.421 143.368 111.421 143.264C111.423 143.189 111.439 143.116 111.468 143.047C111.497 142.979 111.539 142.917 111.592 142.866C111.695 142.761 111.833 142.701 111.978 142.701C112.071 142.703 112.162 142.731 112.24 142.783C112.318 142.836 112.38 142.91 112.42 142.997L113.364 144.754L114.296 143.008C114.341 142.915 114.409 142.836 114.493 142.78C114.578 142.724 114.676 142.692 114.776 142.689C114.846 142.689 114.915 142.704 114.979 142.734C115.043 142.763 115.1 142.806 115.146 142.86C115.197 142.913 115.238 142.976 115.265 143.046C115.293 143.115 115.307 143.189 115.306 143.264C115.304 143.362 115.278 143.458 115.229 143.543L114.23 145.192L116.173 145.118C116.244 145.111 116.316 145.119 116.384 145.143C116.452 145.167 116.514 145.205 116.567 145.256C116.619 145.306 116.66 145.368 116.687 145.437C116.715 145.505 116.727 145.579 116.725 145.653C116.726 145.793 116.677 145.928 116.587 146.034C116.535 146.087 116.472 146.128 116.404 146.154C116.335 146.181 116.262 146.192 116.189 146.187L114.241 146.125L115.207 147.745C115.261 147.836 115.29 147.94 115.29 148.047C115.288 148.122 115.272 148.195 115.243 148.263C115.213 148.332 115.171 148.393 115.119 148.445C115.071 148.498 115.013 148.541 114.948 148.57C114.883 148.599 114.814 148.615 114.743 148.616C114.649 148.614 114.558 148.584 114.481 148.529C114.403 148.475 114.343 148.398 114.307 148.308L113.38 146.602L112.464 148.308C112.423 148.401 112.356 148.479 112.273 148.533C112.19 148.588 112.093 148.616 111.995 148.616Z" fill="#263238"/>
<path d="M120.947 148.616C120.802 148.615 120.663 148.556 120.56 148.451C120.456 148.346 120.397 148.203 120.395 148.053C120.393 147.95 120.42 147.85 120.472 147.762L121.466 146.125L119.534 146.187C119.46 146.191 119.386 146.179 119.317 146.152C119.248 146.126 119.185 146.086 119.131 146.034C119.041 145.929 118.991 145.795 118.991 145.655C118.991 145.516 119.041 145.381 119.131 145.277C119.184 145.224 119.247 145.183 119.317 145.155C119.386 145.128 119.46 145.115 119.534 145.118L121.443 145.192L120.467 143.56C120.413 143.471 120.384 143.368 120.384 143.264C120.386 143.189 120.402 143.116 120.431 143.047C120.46 142.979 120.502 142.917 120.555 142.866C120.658 142.761 120.796 142.701 120.941 142.701C121.035 142.701 121.127 142.73 121.206 142.782C121.285 142.834 121.349 142.909 121.388 142.997L122.327 144.754L123.259 143.008C123.304 142.915 123.372 142.836 123.456 142.78C123.541 142.724 123.639 142.692 123.739 142.689C123.809 142.689 123.878 142.704 123.942 142.734C124.006 142.763 124.063 142.806 124.109 142.86C124.16 142.913 124.201 142.976 124.228 143.046C124.256 143.115 124.27 143.189 124.269 143.264C124.267 143.362 124.241 143.458 124.192 143.543L123.193 145.192L125.136 145.118C125.207 145.111 125.279 145.119 125.347 145.143C125.415 145.167 125.478 145.205 125.53 145.256C125.582 145.306 125.623 145.368 125.651 145.437C125.678 145.505 125.69 145.579 125.688 145.653C125.689 145.793 125.64 145.928 125.55 146.034C125.498 146.087 125.435 146.128 125.367 146.154C125.298 146.181 125.225 146.192 125.152 146.187L123.204 146.125L124.17 147.745C124.224 147.836 124.253 147.94 124.253 148.047C124.253 148.122 124.238 148.196 124.209 148.265C124.179 148.334 124.136 148.395 124.082 148.445C124.034 148.498 123.976 148.541 123.911 148.57C123.847 148.599 123.777 148.615 123.706 148.616C123.612 148.614 123.521 148.584 123.444 148.529C123.366 148.475 123.306 148.398 123.27 148.308L122.343 146.602L121.427 148.308C121.385 148.402 121.317 148.482 121.232 148.536C121.146 148.591 121.047 148.618 120.947 148.616Z" fill="#263238"/>
<path d="M129.899 148.616C129.754 148.615 129.615 148.556 129.513 148.451C129.427 148.361 129.373 148.246 129.358 148.121C129.343 147.997 129.368 147.871 129.43 147.762L130.418 146.125L128.486 146.187C128.412 146.191 128.339 146.179 128.269 146.152C128.2 146.126 128.137 146.086 128.083 146.034C127.993 145.929 127.943 145.795 127.943 145.655C127.943 145.516 127.993 145.381 128.083 145.277C128.136 145.224 128.2 145.183 128.269 145.155C128.338 145.128 128.412 145.115 128.486 145.118L130.396 145.192L129.413 143.56C129.36 143.471 129.331 143.368 129.33 143.264C129.332 143.114 129.392 142.971 129.496 142.866C129.599 142.761 129.738 142.701 129.882 142.701C129.976 142.701 130.068 142.73 130.147 142.782C130.227 142.834 130.29 142.909 130.329 142.997L131.268 144.754L132.2 143.008C132.245 142.915 132.313 142.836 132.397 142.78C132.482 142.724 132.58 142.692 132.681 142.689C132.751 142.689 132.821 142.704 132.886 142.733C132.951 142.763 133.008 142.806 133.056 142.86C133.157 142.968 133.213 143.114 133.21 143.264C133.208 143.362 133.182 143.458 133.133 143.543L132.134 145.192L134.077 145.118C134.148 145.111 134.22 145.119 134.288 145.143C134.356 145.167 134.419 145.205 134.471 145.256C134.523 145.306 134.564 145.368 134.592 145.437C134.619 145.505 134.632 145.579 134.629 145.653C134.63 145.793 134.581 145.928 134.491 146.034C134.439 146.087 134.377 146.128 134.308 146.154C134.24 146.181 134.166 146.192 134.093 146.187L132.145 146.125L133.111 147.745C133.165 147.836 133.194 147.94 133.194 148.047C133.194 148.122 133.179 148.196 133.15 148.265C133.12 148.334 133.077 148.395 133.023 148.445C132.975 148.498 132.917 148.541 132.852 148.57C132.788 148.599 132.718 148.615 132.647 148.616C132.554 148.614 132.462 148.584 132.385 148.529C132.307 148.475 132.247 148.398 132.211 148.308L131.284 146.602L130.368 148.308C130.327 148.401 130.26 148.479 130.177 148.533C130.094 148.588 129.997 148.616 129.899 148.616Z" fill="#263238"/>
<path d="M138.851 148.616C138.708 148.613 138.572 148.554 138.47 148.451C138.416 148.401 138.373 148.339 138.343 148.271C138.314 148.202 138.299 148.128 138.299 148.053C138.301 147.95 138.329 147.85 138.382 147.762L139.37 146.125L137.438 146.187C137.367 146.193 137.296 146.183 137.229 146.158C137.161 146.134 137.1 146.095 137.048 146.045C136.996 145.995 136.955 145.934 136.927 145.866C136.899 145.799 136.885 145.726 136.886 145.653C136.886 145.583 136.899 145.514 136.924 145.45C136.95 145.385 136.988 145.327 137.035 145.277C137.086 145.222 137.148 145.179 137.217 145.152C137.285 145.124 137.359 145.113 137.433 145.118L139.342 145.192L138.36 143.56C138.306 143.471 138.278 143.368 138.277 143.264C138.279 143.114 138.339 142.971 138.443 142.866C138.545 142.761 138.684 142.701 138.829 142.701C138.923 142.701 139.015 142.73 139.094 142.782C139.173 142.834 139.236 142.909 139.276 142.997L140.214 144.754L141.153 143.008C141.196 142.916 141.264 142.837 141.347 142.781C141.431 142.725 141.528 142.693 141.627 142.689C141.698 142.689 141.768 142.704 141.833 142.733C141.897 142.763 141.955 142.806 142.003 142.86C142.104 142.968 142.159 143.114 142.157 143.264C142.157 143.362 142.132 143.458 142.085 143.543L141.086 145.192L143.024 145.118C143.097 145.113 143.171 145.124 143.24 145.152C143.308 145.179 143.37 145.222 143.421 145.277C143.515 145.378 143.567 145.513 143.564 145.653C143.564 145.793 143.513 145.929 143.421 146.034C143.369 146.087 143.307 146.128 143.238 146.154C143.17 146.181 143.097 146.192 143.024 146.187L141.075 146.125L142.041 147.745C142.096 147.836 142.124 147.94 142.124 148.047C142.122 148.197 142.062 148.34 141.958 148.445C141.858 148.551 141.721 148.612 141.578 148.616C141.484 148.614 141.392 148.584 141.315 148.529C141.237 148.475 141.177 148.398 141.142 148.308L140.214 146.602L139.298 148.308C139.258 148.397 139.196 148.473 139.117 148.527C139.038 148.581 138.946 148.612 138.851 148.616Z" fill="#263238"/>
<g style="mix-blend-mode:multiply">
<path d="M166.695 33.3965H68.9946V39.7036H166.695V33.3965Z" fill="#3D6498"/>
</g>
<path d="M128.469 21.7789H107.22C106.837 21.7789 106.469 21.622 106.198 21.3425C105.927 21.0631 105.774 20.6841 105.774 20.2889C105.774 19.8937 105.927 19.5147 106.198 19.2353C106.469 18.9558 106.837 18.7988 107.22 18.7988H128.469C128.853 18.7988 129.221 18.9558 129.492 19.2353C129.763 19.5147 129.915 19.8937 129.915 20.2889C129.915 20.6841 129.763 21.0631 129.492 21.3425C129.221 21.622 128.853 21.7789 128.469 21.7789Z" fill="#3D6498" stroke="#263238" stroke-width="1.33739" stroke-linecap="round" stroke-linejoin="round"/>
<path d="M123.64 205.266C123.641 204.085 123.302 202.929 122.666 201.947C122.029 200.964 121.124 200.197 120.065 199.745C119.006 199.292 117.84 199.173 116.716 199.404C115.591 199.634 114.558 200.203 113.747 201.038C112.936 201.874 112.384 202.938 112.161 204.097C111.937 205.256 112.053 206.457 112.492 207.549C112.931 208.64 113.675 209.573 114.629 210.228C115.583 210.884 116.704 211.233 117.85 211.232C119.386 211.231 120.857 210.602 121.943 209.483C123.028 208.365 123.639 206.848 123.64 205.266Z" fill="#3D6498"/>
<path d="M120.787 202.24H114.915V208.291H120.787V202.24Z" fill="#3D6498" stroke="#263238" stroke-width="1.33739" stroke-linecap="round" stroke-linejoin="round"/>
<path d="M43.0217 96.6913L24.8471 90.5775L23.23 86.1755L19.5377 86.0561L12.8374 84.748L13.6432 86.1755L22.0765 92.4827L24.1572 93.5519L43.1652 103.783L43.0217 96.6913Z" fill="#F8E4D2" stroke="#263238" stroke-width="1.00396" stroke-miterlimit="10"/>
<path d="M23.2302 86.1747L21.4971 85.1055L18.0366 86.4135L18.6106 87.1244L23.2302 86.1747Z" fill="#F8E4D2" stroke="#263238" stroke-width="1.00396" stroke-linejoin="round"/>
<path d="M43.0217 96.6913L24.8471 90.5775L23.23 86.1755L19.5377 86.0561L12.8374 84.748L13.6432 86.1755L22.0765 92.4827L24.1572 93.5519L43.1652 103.783L43.0217 96.6913Z" fill="#F8E4D2"/>
<mask id="mask0_682_1000" style="mask-type:luminance" maskUnits="userSpaceOnUse" x="12" y="84" width="32" height="20">
<path d="M43.0217 96.6913L24.8471 90.5775L23.23 86.1755L19.5377 86.0561L12.8374 84.748L13.6432 86.1755L22.0765 92.4827L24.1572 93.5519L43.1652 103.783L43.0217 96.6913Z" fill="white"/>
</mask>
<g mask="url(#mask0_682_1000)">
<path opacity="0.5" d="M43.0217 96.6913L24.8471 90.5775L23.23 86.1755L19.5377 86.0561L12.8374 84.748L13.6432 86.1755L22.0765 92.4827L24.1572 93.5519L43.1652 103.783L43.0217 96.6913Z" fill="#3D6498" stroke="#263238" stroke-width="1.00396" stroke-miterlimit="10"/>
</g>
<path d="M43.0217 96.6913L24.8471 90.5775L23.23 86.1755L19.5377 86.0561L12.8374 84.748L13.6432 86.1755L22.0765 92.4827L24.1572 93.5519L43.1652 103.783L43.0217 96.6913Z" stroke="#263238" stroke-width="1.00396" stroke-miterlimit="10"/>
<path d="M23.2302 86.1747L21.4971 85.1055L18.0366 86.4135L18.6106 87.1244L23.2302 86.1747Z" fill="#F8E4D2"/>
<mask id="mask1_682_1000" style="mask-type:luminance" maskUnits="userSpaceOnUse" x="18" y="85" width="6" height="3">
<path d="M23.2302 86.1747L21.4971 85.1055L18.0366 86.4135L18.6106 87.1244L23.2302 86.1747Z" fill="white"/>
</mask>
<g mask="url(#mask1_682_1000)">
<path opacity="0.5" d="M23.2302 86.1747L21.4971 85.1055L18.0366 86.4135L18.6106 87.1244L23.2302 86.1747Z" fill="#3D6498" stroke="#263238" stroke-width="1.00396" stroke-linejoin="round"/>
</g>
<path d="M23.2302 86.1747L21.4971 85.1055L18.0366 86.4135L18.6106 87.1244L23.2302 86.1747Z" stroke="#263238" stroke-width="1.00396" stroke-linejoin="round"/>
<path d="M46.8801 57.0109C46.8801 57.0109 46.5986 59.5701 47.2996 61.2137C48.0005 62.8574 51.8915 68.4252 51.8915 68.4252L44.6283 74.4252C44.6283 74.4252 41.6148 68.1692 41.0408 67.1569C40.4668 66.1446 39.7769 61.7882 41.6479 58.6659C43.5189 55.5436 46.2123 54.7019 46.8801 57.0109Z" fill="#F8E4D2"/>
<mask id="mask2_682_1000" style="mask-type:luminance" maskUnits="userSpaceOnUse" x="40" y="55" width="12" height="20">
<path d="M46.8801 57.0109C46.8801 57.0109 46.5986 59.5701 47.2996 61.2137C48.0005 62.8574 51.8915 68.4252 51.8915 68.4252L44.6283 74.4252C44.6283 74.4252 41.6148 68.1692 41.0408 67.1569C40.4668 66.1446 39.7769 61.7882 41.6479 58.6659C43.5189 55.5436 46.2123 54.7019 46.8801 57.0109Z" fill="white"/>
</mask>
<g mask="url(#mask2_682_1000)">
<g style="mix-blend-mode:multiply" opacity="0.5">
<path d="M43.149 65.2344L46.3004 71.9681L44.6226 74.4306L41.4546 68.6012L43.149 65.2344Z" fill="#3D6498"/>
</g>
</g>
<path d="M46.8801 57.0109C46.8801 57.0109 46.5986 59.5701 47.2996 61.2137C48.0005 62.8574 51.8915 68.4252 51.8915 68.4252L44.6283 74.4252C44.6283 74.4252 41.6148 68.1692 41.0408 67.1569C40.4668 66.1446 39.7769 61.7882 41.6479 58.6659C43.5189 55.5436 46.2123 54.7019 46.8801 57.0109Z" stroke="#263238" stroke-width="1.00396" stroke-miterlimit="10"/>
<path d="M49.1315 52.3241C48.6844 49.4804 45.5219 43.6965 40.505 43.9183C37.2487 44.0662 35.7254 44.743 34.3125 45.5676C33.1608 46.2668 32.0873 47.0946 31.1114 48.0359C28.6609 51.0672 27.7999 51.8975 28.2745 54.2179C28.2356 55.1434 28.3763 56.0676 28.6885 56.9364C29.4391 59.0009 29.9524 60.3488 30.6036 61.3326C30.4049 62.2938 29.8861 64.8303 29.8585 65.4104C29.8309 65.9905 31.5143 65.5867 32.3642 65.3649C33.9427 69.0047 36.8348 71.5299 37.7344 71.8199C39.3018 72.3261 41.7799 69.6701 43.0935 67.6114C44.4071 65.5526 43.4136 63.2379 43.4191 62.3165C43.4247 61.3952 46.3719 59.3706 47.4647 58.7279C48.5575 58.0852 49.573 55.162 49.1315 52.3241Z" fill="#F8E4D2"/>
<mask id="mask3_682_1000" style="mask-type:luminance" maskUnits="userSpaceOnUse" x="28" y="43" width="22" height="29">
<path d="M49.1315 52.3241C48.6844 49.4804 45.5219 43.6965 40.505 43.9183C37.2487 44.0662 35.7254 44.743 34.3125 45.5676C33.1608 46.2668 32.0873 47.0946 31.1114 48.0359C28.6609 51.0672 27.7999 51.8975 28.2745 54.2179C28.2356 55.1434 28.3763 56.0676 28.6885 56.9364C29.4391 59.0009 29.9524 60.3488 30.6036 61.3326C30.4049 62.2938 29.8861 64.8303 29.8585 65.4104C29.8309 65.9905 31.5143 65.5867 32.3642 65.3649C33.9427 69.0047 36.8348 71.5299 37.7344 71.8199C39.3018 72.3261 41.7799 69.6701 43.0935 67.6114C44.4071 65.5526 43.4136 63.2379 43.4191 62.3165C43.4247 61.3952 46.3719 59.3706 47.4647 58.7279C48.5575 58.0852 49.573 55.162 49.1315 52.3241Z" fill="white"/>
</mask>
<g mask="url(#mask3_682_1000)">
<g style="mix-blend-mode:multiply" opacity="0.5">
<path d="M28.2968 54.2184C28.2578 55.1439 28.3986 56.0681 28.7107 56.9369C29.4613 59.0014 29.9746 60.3492 30.6259 61.3331C30.4272 62.2943 29.9084 64.8308 29.8808 65.4109C29.8532 65.991 31.5365 65.5872 32.3865 65.3654C33.9649 69.0052 36.857 71.5304 37.7566 71.8204C39.3241 72.3266 41.8022 69.6706 43.1157 67.6118C43.4439 67.0979 43.6569 66.515 43.7394 65.9057C43.6676 65.6384 43.618 65.4734 43.618 65.4734C43.618 65.4734 42.8784 68.4024 41.4103 68.0213C39.9422 67.6403 37.6959 64.609 36.4431 63.5625C35.1902 62.5161 35.7035 61.1398 35.4551 59.5815C35.2068 58.0232 31.4979 56.6525 31.2495 55.7596C31.0012 54.8667 31.8677 51.17 31.8677 51.17C31.8677 51.17 33.2751 49.2364 32.9715 50.0326C32.7569 50.723 32.6791 51.4507 32.7426 52.1727C32.8062 52.8946 33.0097 53.5961 33.3413 54.2354C33.5739 54.7399 33.943 55.1645 34.4041 55.4581C34.8653 55.7517 35.3989 55.9018 35.9408 55.8904L37.2875 49.0146L34.4451 46.5918L31.1336 48.0136C28.661 51.0677 27.8166 51.898 28.2968 54.2184Z" fill="#3D6498"/>
</g>
</g>
<path d="M49.1315 52.3241C48.6844 49.4804 45.5219 43.6965 40.505 43.9183C37.2487 44.0662 35.7254 44.743 34.3125 45.5676C33.1608 46.2668 32.0873 47.0946 31.1114 48.0359C28.6609 51.0672 27.7999 51.8975 28.2745 54.2179C28.2356 55.1434 28.3763 56.0676 28.6885 56.9364C29.4391 59.0009 29.9524 60.3488 30.6036 61.3326C30.4049 62.2938 29.8861 64.8303 29.8585 65.4104C29.8309 65.9905 31.5143 65.5867 32.3642 65.3649C33.9427 69.0047 36.8348 71.5299 37.7344 71.8199C39.3018 72.3261 41.7799 69.6701 43.0935 67.6114C44.4071 65.5526 43.4136 63.2379 43.4191 62.3165C43.4247 61.3952 46.3719 59.3705 47.4647 58.7279C48.5575 58.0852 49.573 55.162 49.1315 52.3241Z" stroke="#263238" stroke-miterlimit="10"/>
<path d="M31.2881 59.6152L31.84 61.2418C31.84 61.2418 33.0266 61.6456 34.4726 60.019" stroke="#263238" stroke-miterlimit="10" stroke-linecap="round"/>
<path d="M35.3667 67.2138C35.3667 67.2138 36.6803 67.0773 37.2101 65.1777" stroke="#263238" stroke-miterlimit="10" stroke-linecap="round"/>
<path d="M30.3667 58.256C30.3667 58.256 30.7586 57.0332 33.1263 57.0332" stroke="#263238" stroke-miterlimit="10" stroke-linecap="round"/>
<path d="M42.503 41.6549C40.7825 41.4 39.0475 41.2632 37.3094 41.2455C37.3094 41.2455 32.1104 38.1573 27.1155 41.4502C22.1207 44.7431 24.5215 50.51 24.5215 51.9488C24.5215 53.3877 22.921 53.3934 23.9199 55.2474C24.9189 57.1015 28.2966 56.0778 28.2966 56.0778C28.3323 55.3785 28.5117 54.695 28.8228 54.0724C29.1339 53.4499 29.5697 52.9025 30.1014 52.4664C31.9007 51.0275 33.3356 50.7147 33.9317 51.1299C33.9317 51.1299 33.5343 54.2181 34.1304 55.4522C34.1304 55.4522 36.1283 56.4816 36.7299 56.4816C37.3315 56.4816 36.3381 57.3517 38.3305 58.1252C38.6935 58.2595 39.0818 58.3053 39.4648 58.2589C39.8479 58.2125 40.2153 58.0753 40.5382 57.8579C40.8307 56.6067 41.4709 54.7242 42.663 55.1621C44.4126 55.8048 46.0077 60.2408 43.6399 61.7536C46.4878 62.2882 49.9373 57.0958 50.1415 52.364C50.3457 47.6322 45.4613 42.1895 42.503 41.6549Z" fill="#263238"/>
<path d="M34.02 49.1C34.02 49.1 35.4881 48.2867 37.2874 50.027C39.0866 51.7673 42.5858 54.0934 47.2219 52.8137" stroke="#F8E4D2" stroke-width="0.5" stroke-linecap="round" stroke-linejoin="round"/>
<path d="M33.8159 47.7066C33.8159 47.7066 34.8259 46.0801 36.5148 46.0801C38.2037 46.0801 42.1499 48.5199 45.3013 48.5199" stroke="#F8E4D2" stroke-width="0.5" stroke-linecap="round" stroke-linejoin="round"/>
<path d="M32.6682 50.8399C32.6682 50.8399 30.7531 48.4057 28.9538 50.3792C27.1546 52.3527 28.297 54.2181 28.297 54.2181" stroke="#F8E4D2" stroke-width="0.5" stroke-linecap="round" stroke-linejoin="round"/>
<path d="M25.0127 52.4654C26.1102 51.4455 26.7924 50.0354 26.9223 48.5185C27.1486 45.9649 30.5319 43.7582 32.6678 45.8511" stroke="#F8E4D2" stroke-width="0.5" stroke-linecap="round" stroke-linejoin="round"/>
<path d="M28.501 43.1792C28.501 43.1792 31.8842 39.8124 34.699 44.1062" stroke="#F8E4D2" stroke-width="0.5" stroke-linecap="round" stroke-linejoin="round"/>
<path d="M56.036 208.717C56.036 208.717 58.1168 212.05 57.885 214.194L57.6587 216.338C57.6587 216.338 50.0257 218.493 48.4086 218.493C46.7914 218.493 38.2312 217.657 38.2312 217.657L37.8614 216.144C37.8355 216.033 37.8477 215.915 37.896 215.812C37.9442 215.708 38.0255 215.625 38.1263 215.576L45.7593 211.907L48.1657 209.195L56.036 208.717Z" fill="#F8E4D2" stroke="#263238" stroke-width="1.00396" stroke-miterlimit="10"/>
<path d="M49.5676 216.815C51.6373 216.98 55.5669 215.678 57.8463 214.848L57.6863 216.338C57.6863 216.338 50.0257 218.493 48.4086 218.493C46.7915 218.493 38.2312 217.657 38.2312 217.657L37.9663 216.577C39.3351 216.582 46.8301 216.599 49.5676 216.815Z" fill="#3D6498" stroke="#263238" stroke-width="1.00396" stroke-miterlimit="10"/>
<path d="M45.7703 211.907L34.6602 216.889C34.6602 216.889 33.7109 219.34 34.6602 219.83C35.6095 220.319 56.3064 219.83 56.3064 219.83C56.3064 219.83 57.7358 215.957 55.4785 213.357C53.2212 210.758 45.7703 211.907 45.7703 211.907Z" fill="#F8E4D2" stroke="#263238" stroke-width="1.00396" stroke-miterlimit="10"/>
<path d="M56.3067 219.831C56.3067 219.831 35.6099 220.32 34.6606 219.831C34.2025 219.592 34.1859 218.904 34.2908 218.25H56.671C56.5979 218.788 56.4759 219.317 56.3067 219.831Z" fill="#3D6498" stroke="#263238" stroke-width="1.00396" stroke-miterlimit="10"/>
<path d="M40.5162 125.342C40.5162 125.342 37.6131 138.599 36.5148 146.891C35.4165 155.183 34.7707 171.796 35.0025 173.701C35.2343 175.606 46.7915 207.528 46.7915 207.528L47.945 210.372L56.0361 208.706C56.0361 208.706 52.3382 196.558 50.9529 189.887C49.5676 183.216 46.5376 172.256 46.5376 170.351C46.5376 168.446 53.7125 132.059 54.2258 129.67C54.7391 127.282 57.0682 123.613 57.0682 123.613L41.5758 123.289L40.5162 125.342Z" fill="#3D6498" stroke="#263238" stroke-width="1.00396" stroke-miterlimit="10"/>
<path d="M40.5161 125.342C40.5161 125.342 38.8162 137.45 39.5171 145.867C40.2181 154.284 41.7248 172.205 41.7248 174.872C41.7248 177.539 45.9028 193.469 46.1401 198.474C46.5099 205.702 45.9911 209.28 45.9911 209.28L45.7428 211.902C45.7428 211.902 50.6162 212.618 51.6814 212.931C52.9117 213.258 54.1813 213.399 55.451 213.352C55.451 213.352 57.2226 205.316 57.2226 198.468C57.2226 191.621 55.749 177.528 55.015 171.818C54.2809 166.108 56.5934 144.081 57.907 139.969C59.2206 135.857 62.0905 127.15 60.1588 122.703C58.2271 118.255 40.5161 125.342 40.5161 125.342Z" fill="#3D6498" stroke="#263238" stroke-width="1.00396" stroke-miterlimit="10"/>
<path d="M62.3061 120.475L62.1295 125.889C62.1295 125.889 58.9836 126.532 54.7448 127.288C51.2457 127.914 42.4592 127.123 39.5009 126.827C39.2313 126.803 38.9821 126.669 38.8074 126.456C38.6327 126.243 38.5467 125.968 38.5682 125.69L38.8552 120.799L62.3061 120.475Z" fill="#263238"/>
<path d="M50.0091 66.502C50.0091 66.502 45.0419 72.0356 43.1709 75.4764C41.2999 78.9172 40.5603 84.1893 39.8594 88.341C39.1585 92.4926 41.057 102.241 40.5217 106.716L38.8273 120.815C38.8273 120.815 38.463 121.771 39.6828 122.817C40.9025 123.863 46.8577 124.245 52.2389 124.523C54.2037 124.626 60.0706 123.323 61.0309 123.261C62.1899 123.187 62.2286 121.668 62.2783 120.474C62.5101 114.861 63.4925 99.8974 64.1382 93.3799C65.4683 80.0888 58.1885 67.2584 50.0091 66.502Z" fill="#F8E4D2" stroke="#263238" stroke-width="1.00396" stroke-miterlimit="10"/>
<g style="mix-blend-mode:multiply">
<path d="M63.5311 100.939C63.7519 97.9878 63.9727 95.3091 64.1658 93.3811C64.221 92.8124 64.2541 92.2436 64.2817 91.6749L51.0854 93.9498L39.749 89.9688C39.7503 92.3859 39.8829 94.8011 40.1464 97.2029L51.2675 100.411L63.5311 100.939Z" fill="#3D6498"/>
</g>
<g style="mix-blend-mode:multiply">
<path d="M49.5181 67.0605C48.7675 67.9193 47.2773 69.6653 45.8589 71.5194L54.237 80.2948L56.9966 79.1573L49.5181 67.0605Z" fill="#3D6498"/>
</g>
<path d="M50.009 66.502C50.009 66.502 45.0417 72.0356 43.1707 75.4764C42.616 76.5221 42.1666 77.6236 41.8296 78.7636L51.8193 66.8716C51.2291 66.6874 50.6228 66.5636 50.009 66.502Z" fill="#263238"/>
<g style="mix-blend-mode:multiply">
<path d="M40.2461 86.1006L51.0857 89.7746L64.249 88.2163C64.0426 84.8373 63.3141 81.514 62.091 78.3717L51.4776 82.7565L41.9901 78.3262C41.2144 80.8672 40.6313 83.4665 40.2461 86.1006Z" fill="#3D6498"/>
</g>
<g style="mix-blend-mode:multiply">
<path d="M58.9059 114.862C53.4081 115.813 47.767 115.338 42.4919 113.48L39.8482 112.547L39.0259 119.372L42.0393 120.242C47.7681 121.892 53.7556 122.368 59.662 121.641L62.096 121.339C62.2227 121.063 62.294 120.763 62.3057 120.458C62.372 118.939 62.4879 116.733 62.6369 114.202L58.9059 114.862Z" fill="#3D6498"/>
</g>
<g style="mix-blend-mode:multiply">
<path d="M60.38 105.569C54.8819 106.523 49.2394 106.046 43.9659 104.181L40.5993 102.992C40.6828 104.231 40.6661 105.475 40.5496 106.712L40.1577 109.993L43.5134 110.96C49.2399 112.612 55.2255 113.09 61.1306 112.365L62.7863 112.16C62.9243 109.885 63.0843 107.462 63.2554 105.068L60.38 105.569Z" fill="#3D6498"/>
</g>
<path d="M8.59948 81.518L19.271 90.3594L19.731 89.7699L9.05944 80.9285L8.59948 81.518Z" fill="#263238"/>
<path d="M55.1476 72.6387C55.1476 72.6387 59.0607 75.3856 59.149 81.8748C59.1877 84.7184 58.9007 87.3743 58.266 92.0322C57.6313 96.69 53.6906 111.858 50.6219 113.701C47.5533 115.543 42.7902 112.063 42.7902 112.063L19.7532 96.3033L14.1844 91.6682L11.4248 86.2994L12.2913 84.5933L19.0854 89.962L15.4262 86.4757L16.1437 85.5373L17.4683 86.4871L21.3317 87.9772L22.1761 93.6644L23.3683 94.5061L45.4063 102.804C45.4063 102.804 45.1304 90.5819 45.3346 88.2445C45.5388 85.907 45.8203 80.0321 48.2487 75.7723" fill="#F8E4D2"/>
<mask id="mask4_682_1000" style="mask-type:luminance" maskUnits="userSpaceOnUse" x="11" y="72" width="49" height="43">
<path d="M55.1476 72.6387C55.1476 72.6387 59.0607 75.3856 59.149 81.8748C59.1877 84.7184 58.9007 87.3743 58.266 92.0322C57.6313 96.69 53.6906 111.858 50.6219 113.701C47.5533 115.543 42.7902 112.063 42.7902 112.063L19.7532 96.3033L14.1844 91.6682L11.4248 86.2994L12.2913 84.5933L19.0854 89.962L15.4262 86.4757L16.1437 85.5373L17.4683 86.4871L21.3317 87.9772L22.1761 93.6644L23.3683 94.5061L45.4063 102.804C45.4063 102.804 45.1304 90.5819 45.3346 88.2445C45.5388 85.907 45.8203 80.0321 48.2487 75.7723" fill="white"/>
</mask>
<g mask="url(#mask4_682_1000)">
<g style="mix-blend-mode:multiply" opacity="0.5">
<path d="M45.2516 93.5682C45.2516 97.7882 45.3896 102.804 45.3896 102.804L23.3736 94.5407L22.1815 93.699L21.337 88.0118L17.4736 86.5217L16.1545 85.5549L15.437 86.4933L19.0852 89.9625L12.2911 84.5938L11.4688 86.2715L14.2283 91.6402L19.7972 96.3038L21.199 97.2649L51.6373 107.371L45.2516 93.5682Z" fill="#3D6498"/>
</g>
</g>
<path d="M55.1476 72.6387C55.1476 72.6387 59.0607 75.3856 59.149 81.8748C59.1877 84.7184 58.9007 87.3743 58.266 92.0322C57.6313 96.69 53.6906 111.858 50.6219 113.701C47.5533 115.543 42.7902 112.063 42.7902 112.063L19.7532 96.3033L14.1844 91.6682L11.4248 86.2994L12.2913 84.5933L19.0854 89.962L15.4262 86.4757L16.1437 85.5373L17.4683 86.4871L21.3317 87.9772L22.1761 93.6644L23.3683 94.5061L45.4063 102.804C45.4063 102.804 45.1304 90.5819 45.3346 88.2445C45.5388 85.907 45.8203 80.0321 48.2487 75.7723" stroke="#263238" stroke-width="1.00396" stroke-miterlimit="10"/>
<path d="M45.4062 102.804L53.8175 109.06L55.9975 105.079C55.9975 105.079 57.5043 103.856 57.725 102.935C57.9458 102.014 57.6643 100.518 57.8906 99.5964C58.1169 98.6751 59.2428 97.8106 59.3477 95.5812C59.4525 93.3518 59.3477 91.4921 59.3477 91.4921C59.3477 91.4921 61.169 83.7745 60.9703 80.4191C60.7716 77.0636 57.6312 71.1318 55.1145 71.001C52.5977 70.8702 49.3248 71.2626 46.786 75.2209C44.2472 79.1792 44.766 90.7357 44.3686 91.458C43.9713 92.1803 44.5232 95.7462 44.5232 95.7462C44.3026 95.9157 44.1196 96.1317 43.9864 96.3798C43.8531 96.6279 43.7727 96.9024 43.7505 97.185C43.7063 98.1121 44.6777 100.393 44.6777 100.393L45.4062 102.804Z" fill="#F8E4D2" stroke="#263238" stroke-width="1.00396" stroke-miterlimit="10"/>
<g style="mix-blend-mode:multiply">
<path d="M44.5894 88.4902C44.6067 89.4827 44.5346 90.4746 44.3741 91.4533C44.0209 92.1016 44.4238 95.0306 44.5121 95.6277C49.243 97.1419 54.2456 97.5308 59.1434 96.7652C59.2487 96.3696 59.3116 95.9634 59.3311 95.5538C59.4415 93.3301 59.3311 91.4647 59.3311 91.4647C59.3311 91.4647 59.4911 90.7765 59.7119 89.73C54.6395 90.0623 49.547 89.6448 44.5894 88.4902Z" fill="#3D6498"/>
</g>
<g style="mix-blend-mode:multiply">
<path d="M46.4441 75.8516C45.6549 77.4838 45.2134 79.935 44.9595 82.4203C49.9698 84.3907 55.3719 85.0682 60.6946 84.3938C60.907 83.0785 61.0012 81.7459 60.9761 80.4127C60.8805 79.359 60.6389 78.3248 60.2586 77.3416C55.611 77.4534 50.9685 76.9527 46.4441 75.8516Z" fill="#3D6498"/>
</g>
<path d="M44.6777 100.455L45.3897 102.804L53.8009 109.06L55.981 105.079C55.981 105.079 57.4877 103.856 57.7085 102.935C57.7479 102.774 57.7719 102.611 57.7802 102.446C53.3477 102.367 48.9437 101.698 44.6777 100.455Z" fill="#263238"/>
<path d="M50.7654 212.858C50.7654 212.858 50.9531 207.933 51.8693 200.732C52.7854 193.532 50.5833 183.307 50.2135 181.601C49.8437 179.894 50.4012 176.107 50.0314 174.776C49.6616 173.445 47.8734 167.769 48.9275 161.183C49.9817 154.598 50.8372 137.189 50.8372 137.189C50.8372 137.189 48.1824 134.965 47.4042 132.07C46.626 129.176 47.2221 128.266 47.2221 128.266" stroke="#263238" stroke-width="1.00396" stroke-miterlimit="10"/>
<path d="M51.9961 128.533L50.9751 134.357" stroke="#263238" stroke-width="1.00396" stroke-miterlimit="10"/>
</svg>
