<svg width="24" height="23" viewBox="0 0 24 23" fill="none" xmlns="http://www.w3.org/2000/svg">
<path d="M2 19C2 17.6739 2.52678 16.4021 3.46447 15.4645C4.40215 14.5268 5.67392 14 7 14H17C18.3261 14 19.5979 14.5268 20.5355 15.4645C21.4732 16.4021 22 17.6739 22 19C22 19.663 21.7366 20.2989 21.2678 20.7678C20.7989 21.2366 20.163 21.5 19.5 21.5H4.5C3.83696 21.5 3.20107 21.2366 2.73223 20.7678C2.26339 20.2989 2 19.663 2 19Z" stroke="#D9D9D9" stroke-width="2.5" stroke-linejoin="round"/>
<path d="M12 9C14.0711 9 15.75 7.32107 15.75 5.25C15.75 3.17893 14.0711 1.5 12 1.5C9.92893 1.5 8.25 3.17893 8.25 5.25C8.25 7.32107 9.92893 9 12 9Z" stroke="#D9D9D9" stroke-width="2.5"/>
</svg>
