<svg width="40" height="40" viewBox="0 0 40 40" fill="none" xmlns="http://www.w3.org/2000/svg">
<circle cx="20" cy="20" r="20" fill="#3D6498"/>
<path d="M26.5312 19.7188H10.9062C10.699 19.7188 10.5003 19.8011 10.3538 19.9476C10.2073 20.0941 10.125 20.2928 10.125 20.5C10.125 20.7072 10.2073 20.9059 10.3538 21.0524C10.5003 21.1989 10.699 21.2812 10.9062 21.2812H26.5312C26.7385 21.2812 26.9372 21.1989 27.0837 21.0524C27.2302 20.9059 27.3125 20.7072 27.3125 20.5C27.3125 20.2928 27.2302 20.0941 27.0837 19.9476C26.9372 19.8011 26.7385 19.7188 26.5312 19.7188Z" fill="white"/>
<path d="M26.2079 20.499L19.7282 26.9772C19.5815 27.1239 19.4991 27.3228 19.4991 27.5303C19.4991 27.7377 19.5815 27.9367 19.7282 28.0834C19.8749 28.2301 20.0739 28.3125 20.2813 28.3125C20.4888 28.3125 20.6877 28.2301 20.8344 28.0834L27.8657 21.0522C27.9384 20.9796 27.9962 20.8934 28.0356 20.7985C28.0749 20.7035 28.0952 20.6018 28.0952 20.499C28.0952 20.3963 28.0749 20.2945 28.0356 20.1996C27.9962 20.1047 27.9384 20.0185 27.8657 19.9459L20.8344 12.9147C20.6877 12.768 20.4888 12.6855 20.2813 12.6855C20.0739 12.6855 19.8749 12.768 19.7282 12.9147C19.5815 13.0614 19.4991 13.2603 19.4991 13.4678C19.4991 13.6752 19.5815 13.8742 19.7282 14.0209L26.2079 20.499Z" fill="white"/>
</svg>
