<svg width="27" height="32" viewBox="0 0 27 32" fill="none" xmlns="http://www.w3.org/2000/svg">
<path d="M3.99723 15.2363C3.89584 17.3303 4.0125 19.5593 2.28056 20.9618C1.88237 21.2836 1.55925 21.7013 1.33694 22.1818C1.11462 22.6622 0.999247 23.1921 1 23.7293C1 25.2248 2.08611 26.4998 3.5 26.4998H23.5C24.9139 26.4998 26 25.2248 26 23.7293C26 22.6403 25.525 21.6143 24.7194 20.9618C22.9875 19.5593 23.1042 17.3303 23.0028 15.2363C22.8778 12.6054 21.8221 10.1268 20.0537 8.3124C18.2853 6.49799 15.9392 5.48633 13.5 5.48633C11.0608 5.48633 8.71475 6.49799 6.94633 8.3124C5.17792 10.1268 4.12221 12.6054 3.99723 15.2363Z" stroke="black" stroke-width="1.5" stroke-linecap="round" stroke-linejoin="round"/>
<path d="M17.6666 26.5C17.6666 27.6935 17.2276 28.8381 16.4462 29.682C15.6648 30.5259 14.605 31 13.4999 31C12.3948 31 11.335 30.5259 10.5536 29.682C9.77224 28.8381 9.33325 27.6935 9.33325 26.5M11.4166 2.6875C11.4166 3.9295 12.3499 5.5 13.4999 5.5C14.6499 5.5 15.5833 3.9295 15.5833 2.6875C15.5833 1.4455 14.6499 1 13.4999 1C12.3499 1 11.4166 1.4455 11.4166 2.6875Z" stroke="black" stroke-width="1.5" stroke-linecap="round" stroke-linejoin="round"/>
</svg>
