<svg width="219" height="192" viewBox="0 0 219 192" fill="none" xmlns="http://www.w3.org/2000/svg">
<path d="M177.295 26.6667L176.405 25.1942C168.879 12.7759 155.287 5.32026 140.925 6.22425C139.078 6.33841 137.241 6.59074 135.431 6.97914C122.384 9.77501 111.037 19.6351 106.336 32.2678C103.568 39.6955 102.794 48.2509 97.5426 54.1688C90.7113 61.8435 79.1085 62.0904 68.9129 61.7689C58.7173 61.4474 47.1004 61.7223 40.3018 69.4249C36.0427 74.2525 34.71 81.1163 35.0362 87.5981C35.9682 104.704 47.8646 120.007 63.0276 127.607C78.1905 135.207 96.0421 135.85 112.636 132.532C135.883 127.845 157.989 114.974 171.279 95.1004C184.569 75.2264 187.928 48.1204 177.295 26.6667Z" fill="#F5F5F5"/>
<path d="M69.9354 25.8643C71.4512 19.5163 67.534 13.1415 61.186 11.6256C54.838 10.1098 48.4631 14.0271 46.9473 20.3751C45.4315 26.7231 49.3487 33.098 55.6967 34.6138C62.0447 36.1296 68.4196 32.2123 69.9354 25.8643Z" fill="#F5F5F5"/>
<path d="M27.9951 71.2154C26.1848 71.2591 24.4206 71.7958 22.8927 72.7678C21.3647 73.7398 20.1309 75.1102 19.3241 76.7314C18.5173 78.3527 18.1681 80.1633 18.3141 81.9683C18.4602 83.7733 19.0958 85.5043 20.1527 86.9748L20.2459 87.1099L27.2962 96.6951C27.4401 96.8904 27.6288 97.0482 27.8464 97.1553C28.064 97.2624 28.3041 97.3157 28.5466 97.3107C28.7891 97.3057 29.0269 97.2425 29.2398 97.1264C29.4528 97.0104 29.6348 96.8449 29.7705 96.6439L36.1404 87.1705C37.3427 85.3346 38.1721 83.4101 38.1721 81.1454C38.1693 79.8212 37.9024 78.511 37.3869 77.2913C36.8714 76.0716 36.1177 74.967 35.1699 74.0422C34.2222 73.1175 33.0994 72.3911 31.8674 71.9057C30.6354 71.4203 29.319 71.1856 27.9951 71.2154ZM28.2328 88.4054C26.7527 88.4054 25.3058 87.9664 24.0751 87.1441C22.8444 86.3218 21.8852 85.153 21.3188 83.7856C20.7524 82.4181 20.6042 80.9134 20.893 79.4618C21.1817 78.0101 21.8945 76.6766 22.9411 75.63C23.9877 74.5834 25.3211 73.8707 26.7728 73.5819C28.2245 73.2932 29.7292 73.4414 31.0966 74.0078C32.4641 74.5742 33.6329 75.5334 34.4552 76.7641C35.2775 77.9947 35.7164 79.4416 35.7164 80.9217C35.7164 82.9065 34.928 84.81 33.5245 86.2135C32.1211 87.6169 30.2176 88.4054 28.2328 88.4054Z" fill="#3D6498"/>
<g opacity="0.3">
<path d="M27.9951 71.2154C26.1848 71.2591 24.4206 71.7958 22.8927 72.7678C21.3647 73.7398 20.1309 75.1102 19.3241 76.7314C18.5173 78.3527 18.1681 80.1633 18.3141 81.9683C18.4602 83.7733 19.0958 85.5043 20.1527 86.9748L20.2459 87.1099L27.2962 96.6951C27.4401 96.8904 27.6288 97.0482 27.8464 97.1553C28.064 97.2624 28.3041 97.3157 28.5466 97.3107C28.7891 97.3057 29.0269 97.2425 29.2398 97.1264C29.4528 97.0104 29.6348 96.8449 29.7705 96.6439L36.1404 87.1705C37.3427 85.3346 38.1721 83.4101 38.1721 81.1454C38.1693 79.8212 37.9024 78.511 37.3869 77.2913C36.8714 76.0716 36.1177 74.967 35.1699 74.0422C34.2222 73.1175 33.0994 72.3911 31.8674 71.9057C30.6354 71.4203 29.319 71.1856 27.9951 71.2154ZM28.2328 88.4054C26.7527 88.4054 25.3058 87.9664 24.0751 87.1441C22.8444 86.3218 21.8852 85.153 21.3188 83.7856C20.7524 82.4181 20.6042 80.9134 20.893 79.4618C21.1817 78.0101 21.8945 76.6766 22.9411 75.63C23.9877 74.5834 25.3211 73.8707 26.7728 73.5819C28.2245 73.2932 29.7292 73.4414 31.0966 74.0078C32.4641 74.5742 33.6329 75.5334 34.4552 76.7641C35.2775 77.9947 35.7164 79.4416 35.7164 80.9217C35.7164 82.9065 34.928 84.81 33.5245 86.2135C32.1211 87.6169 30.2176 88.4054 28.2328 88.4054Z" fill="black"/>
</g>
<path d="M27.4081 71.2156C24.8545 71.2838 22.424 72.328 20.6168 74.1335C18.8096 75.939 17.7631 78.3684 17.6925 80.922C17.6309 83.0912 18.286 85.2203 19.5564 86.9797L19.6542 87.1148L26.6998 96.7C26.8428 96.8993 27.0321 97.0608 27.2514 97.1708C27.4706 97.2808 27.7133 97.3358 27.9585 97.3312C28.2038 97.3266 28.4443 97.2626 28.6593 97.1445C28.8742 97.0264 29.0573 96.8579 29.1928 96.6534L35.5627 87.18C36.7696 85.3441 37.5944 83.4196 37.5944 81.1549C37.5929 79.8292 37.3266 78.5171 36.811 77.2957C36.2955 76.0743 35.5411 74.9682 34.5923 74.0423C33.6434 73.1164 32.5191 72.3895 31.2854 71.904C30.0517 71.4186 28.7335 71.1846 27.4081 71.2156ZM27.6411 87.0589C26.5206 87.058 25.4255 86.7249 24.4943 86.1017C23.5631 85.4785 22.8376 84.5932 22.4094 83.5578C21.9813 82.5223 21.8697 81.3831 22.0889 80.2843C22.3081 79.1855 22.8481 78.1762 23.6407 77.3843C24.4334 76.5923 25.443 76.0531 26.542 75.8348C27.6411 75.6166 28.7801 75.7291 29.8152 76.1581C30.8503 76.5871 31.735 77.3133 32.3574 78.245C32.9798 79.1768 33.3121 80.2721 33.3121 81.3926C33.3114 82.1367 33.1643 82.8734 32.879 83.5606C32.5936 84.2479 32.1757 84.8722 31.6491 85.3979C31.1225 85.9236 30.4976 86.3405 29.8098 86.6247C29.1221 86.9089 28.3852 87.0548 27.6411 87.0542V87.0589Z" fill="#3D6498"/>
<path d="M184.112 61.7766C182.73 61.807 181.384 62.214 180.217 62.9539C179.05 63.6937 178.107 64.7382 177.49 65.9746C176.873 67.211 176.606 68.5924 176.717 69.9696C176.828 71.3469 177.313 72.6677 178.119 73.7895L178.194 73.892L183.567 81.1939C183.676 81.3391 183.819 81.4562 183.982 81.5357C184.146 81.6151 184.326 81.6546 184.508 81.651C184.69 81.6474 184.868 81.6007 185.029 81.5147C185.189 81.4288 185.327 81.3061 185.43 81.1566L190.286 73.9386C191.252 72.5991 191.793 70.9998 191.838 69.3487C191.835 68.342 191.633 67.3458 191.242 66.4181C190.851 65.4904 190.279 64.6497 189.56 63.945C188.841 63.2403 187.989 62.6857 187.054 62.3134C186.118 61.9412 185.118 61.7587 184.112 61.7766ZM184.293 74.8799C183.166 74.8799 182.064 74.5459 181.127 73.92C180.189 73.2941 179.458 72.4044 179.026 71.3633C178.594 70.3222 178.48 69.1763 178.698 68.0705C178.917 66.9646 179.458 65.9483 180.254 65.1499C181.05 64.3515 182.064 63.8068 183.169 63.5846C184.275 63.3625 185.421 63.4727 186.463 63.9016C187.506 64.3304 188.398 65.0586 189.027 65.9941C189.656 66.9295 189.993 68.0304 189.997 69.1577C189.999 69.9083 189.854 70.6519 189.568 71.3461C189.283 72.0402 188.863 72.6712 188.333 73.2028C187.803 73.7344 187.174 74.1562 186.48 74.444C185.787 74.7318 185.044 74.8799 184.293 74.8799Z" fill="#3D6498"/>
<g opacity="0.3">
<path d="M184.112 61.7766C182.73 61.807 181.384 62.214 180.217 62.9539C179.05 63.6937 178.107 64.7382 177.49 65.9746C176.873 67.211 176.606 68.5924 176.717 69.9696C176.828 71.3469 177.313 72.6677 178.119 73.7895L178.194 73.892L183.567 81.1939C183.676 81.3391 183.819 81.4562 183.982 81.5357C184.146 81.6151 184.326 81.6546 184.508 81.651C184.69 81.6474 184.868 81.6007 185.029 81.5147C185.189 81.4288 185.327 81.3061 185.43 81.1566L190.286 73.9386C191.252 72.5991 191.793 70.9998 191.838 69.3487C191.835 68.342 191.633 67.3458 191.242 66.4181C190.851 65.4904 190.279 64.6497 189.56 63.945C188.841 63.2403 187.989 62.6857 187.054 62.3134C186.118 61.9412 185.118 61.7587 184.112 61.7766ZM184.293 74.8799C183.166 74.8799 182.064 74.5459 181.127 73.92C180.189 73.2941 179.458 72.4044 179.026 71.3633C178.594 70.3222 178.48 69.1763 178.698 68.0705C178.917 66.9646 179.458 65.9483 180.254 65.1499C181.05 64.3515 182.064 63.8068 183.169 63.5846C184.275 63.3625 185.421 63.4727 186.463 63.9016C187.506 64.3304 188.398 65.0586 189.027 65.9941C189.656 66.9295 189.993 68.0304 189.997 69.1577C189.999 69.9083 189.854 70.6519 189.568 71.3461C189.283 72.0402 188.863 72.6712 188.333 73.2028C187.803 73.7344 187.174 74.1562 186.48 74.444C185.787 74.7318 185.044 74.8799 184.293 74.8799Z" fill="black"/>
</g>
<path d="M183.664 61.7771C182.284 61.81 180.939 62.2189 179.774 62.9597C178.609 63.7005 177.668 64.7452 177.053 65.9812C176.438 67.2171 176.172 68.5975 176.284 69.9736C176.395 71.3497 176.88 72.6692 177.686 73.7901L177.756 73.8926L183.124 81.1945C183.234 81.3434 183.377 81.4638 183.543 81.5456C183.709 81.6274 183.892 81.6681 184.077 81.6645C184.262 81.6608 184.443 81.6128 184.606 81.5246C184.768 81.4363 184.907 81.3103 185.011 81.1572L189.867 73.9392C190.831 72.5992 191.37 70.9999 191.414 69.3493C191.412 68.3404 191.209 67.3419 190.817 66.4124C190.425 65.4828 189.851 64.6408 189.129 63.9357C188.408 63.2306 187.553 62.6765 186.614 62.3058C185.676 61.9352 184.673 61.7555 183.664 61.7771ZM183.841 73.8507C182.987 73.8507 182.152 73.5973 181.442 73.1227C180.731 72.648 180.178 71.9734 179.851 71.1841C179.524 70.3948 179.438 69.5262 179.605 68.6883C179.772 67.8504 180.183 67.0807 180.787 66.4766C181.391 65.8725 182.161 65.4611 182.999 65.2944C183.837 65.1277 184.705 65.2133 185.495 65.5402C186.284 65.8672 186.958 66.4208 187.433 67.1312C187.908 67.8415 188.161 68.6767 188.161 69.531C188.162 70.0985 188.05 70.6604 187.834 71.1848C187.617 71.7092 187.298 72.1856 186.897 72.5868C186.496 72.9881 186.02 73.3062 185.495 73.5231C184.971 73.74 184.409 73.8513 183.841 73.8507Z" fill="#3D6498"/>
<path d="M33.4384 106.992L0.158203 189.638L62.5574 179.377L108.321 189.638L155.189 179.377L217.868 191.334L184.313 106.992L146.872 97.5605L109.015 104.774L70.3253 97.5605L33.4384 106.992Z" fill="white"/>
<path d="M33.4386 106.992L34.0491 106.829L35.871 106.363L43.0098 104.522L70.3115 97.5326H70.3348L109.011 104.723H108.978L146.835 97.5H146.9L184.336 106.903H184.392V106.955L217.943 191.297L218.027 191.502L217.808 191.46L185.567 185.309L155.129 179.503H155.18L108.307 189.754H108.279L62.5203 179.503H62.5576L0.153773 189.754L0 189.778L0.0605768 189.633C10.354 164.116 18.6997 143.455 24.4499 129.173L31.0948 112.737L32.8235 108.469C33.215 107.509 33.42 107.02 33.42 107.02C33.42 107.02 33.2289 107.519 32.8422 108.488L31.1274 112.775L24.5431 129.21L0.242309 189.671L0.144453 189.549L62.5576 179.27H62.5996L108.359 189.521H108.312L155.18 179.27H155.203L185.641 185.076L217.882 191.227L217.747 191.39L184.197 107.048L184.271 107.113L146.835 97.6724H146.9L109.03 104.853H108.997L70.3208 97.6211L43.0471 104.574L35.8943 106.386L34.063 106.852L33.4386 106.992Z" fill="#263238"/>
<path d="M35.3815 109.211L5.98291 185.477L62.2825 176.325L109.015 187.141L155.189 176.051L212.598 187.141L182.37 109.211L147.426 100.613L109.015 107.827L69.7707 100.613L35.3815 109.211Z" fill="white"/>
<path d="M9.25 177.006L53.9979 166.638L52.3484 157.001L56.0669 154.658L50.2794 132.146L32.3858 116.979L9.25 177.006Z" fill="#455A64"/>
<path d="M5.98291 185.476L8.16369 179.819L83.1956 162.387L87.2682 173.603L85.9495 175.867L71.8583 178.542L62.2825 176.324L5.98291 185.476Z" fill="#EBEBEB"/>
<path d="M87.2686 161.302L90.2462 172.397L98.8901 176.152L111.183 170.691L136.974 163.179L128.927 151.055L87.2686 161.302Z" fill="#EBEBEB"/>
<path d="M57.3014 165.411L71.2435 162.387L68.4616 153.328L58.3033 155.779L55.6006 157.69L57.3014 165.411Z" fill="#E0E0E0"/>
<path d="M54.4541 135.391L59.5146 152.003L67.4269 150.26L66.0011 143.881L83.4054 139.981L54.4541 135.391Z" fill="#455A64"/>
<path d="M33.7046 113.567L55.6009 131.144L84.6687 136.657L115.675 128.949L101.523 106.447L69.7713 100.613L35.3821 109.211L33.7046 113.567Z" fill="#EBEBEB"/>
<path d="M105.759 107.223L151.215 177.003L155.19 176.048L111.192 107.414L109.016 107.824L105.759 107.223Z" fill="#EBEBEB"/>
<path d="M68.9272 145.636L74.6867 162.388L125.823 149.322L116.359 133.213L68.9272 145.636Z" fill="#E0E0E0"/>
<path d="M97.3755 184.447L97.8741 183.706L101.234 178.716L109.291 176.153L114.836 171.978L138.866 165.412L146.331 178.175L109.016 187.141" fill="#E0E0E0"/>
<path d="M139.947 102.016L151.988 115.413L182.37 109.211L147.426 100.613L139.947 102.016Z" fill="#E0E0E0"/>
<path d="M188.763 125.693L166.452 131.895L155.189 116.979L183.129 111.178L188.763 125.693Z" fill="#E0E0E0"/>
<path d="M113.578 106.964L136.974 140.57L163.973 132.821L136.974 102.574L113.578 106.964Z" fill="#EBEBEB"/>
<path d="M178.982 180.647L205.977 170.074L212.598 187.143L178.982 180.647Z" fill="#E0E0E0"/>
<path d="M150.748 138.562L165.417 134.736L180.911 153.329L165.832 158.333L150.748 138.562Z" fill="#455A64"/>
<path d="M168.722 133.212L185.045 151.926L197.337 147.798L189.253 126.959L168.722 133.212Z" fill="#E0E0E0"/>
<path d="M180.912 176.278L168.722 159.368L198.186 149.979L204.169 165.412L200.329 169.275L180.912 176.278Z" fill="#455A64"/>
<path d="M138.405 143.04L160.8 177.006L174.593 179.797L177.193 178.608L148.815 139.904L138.405 143.04Z" fill="#E0E0E0"/>
<path d="M46.6261 168.348L41.0484 142.113L21.3748 145.552L9.25 177.006L46.6261 168.348Z" fill="#E0E0E0"/>
<path d="M64.7155 101.875V113.888L68.9279 114.419L80.6892 128.119L90.8009 126.959L95.6145 133.934L84.6687 136.656L55.6009 131.143L33.7046 113.566L35.3821 109.21L64.7155 101.875Z" fill="#455A64"/>
<path d="M126.206 104.699L142.725 128.804L156.956 124.96L136.975 102.574L126.206 104.699Z" fill="#E0E0E0"/>
<path d="M174.7 129.599L168.722 120.256L184.882 115.689L188.763 125.689L174.7 129.599Z" fill="#EBEBEB"/>
<path d="M150.748 161.764L158.572 159.057L173.744 179.625L160.799 177.006L150.748 161.764Z" fill="#EBEBEB"/>
<path d="M78.5918 180.099L85.8657 179.214L88.2888 175.668L97.3754 178.524L94.9989 183.897L78.5918 180.099Z" fill="#455A64"/>
<path d="M35.3819 109.232L37.6465 108.65L44.3007 106.972L69.7571 100.574H69.7804L109.03 107.764H108.997L147.408 100.537H147.45L182.398 109.125H182.449V109.181C191.727 132.997 201.946 159.353 212.71 187.097L212.789 187.302L212.575 187.26L183.773 181.697L155.166 176.165H155.218L109.044 187.256H108.988L62.2595 176.431H62.3014L5.99726 185.564L5.84814 185.588L5.8994 185.443C15 161.888 22.3671 142.82 27.4556 129.642C30.0045 123.063 31.9802 117.951 33.3222 114.484L34.8553 110.546C35.2001 109.656 35.3819 109.209 35.3819 109.209C35.3819 109.209 35.2095 109.675 34.8693 110.565L33.3595 114.516L27.5301 129.707L6.06716 185.508L5.9693 185.392L62.2642 176.221H62.3061L109.039 187.051H108.988L155.162 175.956H155.19L183.819 181.459L212.603 187.023L212.468 187.186C201.708 159.437 191.499 133.1 182.249 109.251L182.324 109.316L147.375 100.71H147.417L109.002 107.904H108.969L69.7338 100.672L44.338 107L37.6698 108.654L35.3819 109.232Z" fill="#263238"/>
<g opacity="0.2">
<path d="M108.321 189.64L109.016 104.776L70.3255 97.5625L62.5576 179.379L108.321 189.64Z" fill="black"/>
</g>
<g opacity="0.2">
<path d="M146.872 97.5625L155.189 179.379L217.868 191.336L184.313 106.994L146.872 97.5625Z" fill="black"/>
</g>
<path d="M109.314 24.4702C82.2872 25.0992 60.2418 47.1307 59.5987 74.1575C59.3142 85.2519 62.6782 96.1331 69.1746 105.131L69.6732 105.807L69.7431 105.905L105.81 154.963C106.546 155.964 107.511 156.772 108.626 157.322C109.74 157.871 110.97 158.144 112.211 158.118C113.453 158.092 114.671 157.767 115.761 157.172C116.851 156.577 117.782 155.728 118.475 154.697L151.094 106.235C157.263 96.8227 161.494 86.9905 161.494 75.397C161.494 68.6029 160.135 61.8775 157.497 55.6165C154.859 49.3555 150.996 43.6854 146.134 38.9401C141.271 34.1947 135.509 30.4699 129.186 27.9849C122.863 25.4999 116.106 24.3048 109.314 24.4702ZM110.526 112.442C102.951 112.443 95.5454 110.198 89.2466 105.99C82.9478 101.782 78.0382 95.8011 75.1387 88.803C72.2393 81.8049 71.4802 74.1042 72.9574 66.6746C74.4346 59.2451 78.0819 52.4205 83.4379 47.0638C88.7939 41.7072 95.618 38.0591 103.047 36.5809C110.477 35.1028 118.178 35.861 125.176 38.7596C132.175 41.6582 138.156 46.567 142.365 52.8653C146.573 59.1636 148.82 66.5685 148.82 74.1435C148.82 84.3002 144.785 94.0409 137.604 101.223C130.422 108.405 120.682 112.441 110.526 112.442Z" fill="#3D6498"/>
<g opacity="0.3">
<path d="M109.314 24.4702C82.2872 25.0992 60.2418 47.1307 59.5987 74.1575C59.3142 85.2519 62.6782 96.1331 69.1746 105.131L69.6732 105.807L69.7431 105.905L105.81 154.963C106.546 155.964 107.511 156.772 108.626 157.322C109.74 157.871 110.97 158.144 112.211 158.118C113.453 158.092 114.671 157.767 115.761 157.172C116.851 156.577 117.782 155.728 118.475 154.697L151.094 106.235C157.263 96.8227 161.494 86.9905 161.494 75.397C161.494 68.6029 160.135 61.8775 157.497 55.6165C154.859 49.3555 150.996 43.6854 146.134 38.9401C141.271 34.1947 135.509 30.4699 129.186 27.9849C122.863 25.4999 116.106 24.3048 109.314 24.4702ZM110.526 112.442C102.951 112.443 95.5454 110.198 89.2466 105.99C82.9478 101.782 78.0382 95.8011 75.1387 88.803C72.2393 81.8049 71.4802 74.1042 72.9574 66.6746C74.4346 59.2451 78.0819 52.4205 83.4379 47.0638C88.7939 41.7072 95.618 38.0591 103.047 36.5809C110.477 35.1028 118.178 35.861 125.176 38.7596C132.175 41.6582 138.156 46.567 142.365 52.8653C146.573 59.1636 148.82 66.5685 148.82 74.1435C148.82 84.3002 144.785 94.0409 137.604 101.223C130.422 108.405 120.682 112.441 110.526 112.442Z" fill="black"/>
</g>
<path d="M106.294 24.4702C79.2677 25.0992 57.2222 47.1307 56.5792 74.1575C56.2947 85.2519 59.6587 96.1331 66.155 105.131L66.6536 105.807L66.7235 105.905L102.79 154.963C103.526 155.964 104.492 156.772 105.606 157.322C106.72 157.871 107.95 158.144 109.192 158.118C110.434 158.092 111.651 157.767 112.741 157.172C113.831 156.577 114.762 155.728 115.456 154.697L148.074 106.235C154.244 96.8227 158.475 86.9905 158.475 75.397C158.475 68.6029 157.116 61.8775 154.478 55.6165C151.84 49.3555 147.976 43.6854 143.114 38.9401C138.252 34.1947 132.49 30.4699 126.166 27.9849C119.843 25.4999 113.086 24.3048 106.294 24.4702ZM107.506 112.442C99.931 112.443 92.5259 110.198 86.227 105.99C79.9282 101.782 75.0187 95.8011 72.1192 88.803C69.2197 81.8049 68.4606 74.1042 69.9379 66.6746C71.4151 59.2451 75.0623 52.4205 80.4183 47.0638C85.7743 41.7072 92.5985 38.0591 100.028 36.5809C107.457 35.1028 115.158 35.861 122.157 38.7596C129.155 41.6582 135.137 46.567 139.345 52.8653C143.554 59.1636 145.8 66.5685 145.8 74.1435C145.8 84.3002 141.766 94.0409 134.584 101.223C127.403 108.405 117.663 112.441 107.506 112.442Z" fill="#3D6498"/>
<g opacity="0.3">
<path d="M129.538 103.029C128.923 103.724 88.4244 114.418 87.814 115.112C95.5772 117.479 105.055 119.539 113.173 119.068C117.744 118.807 122.492 117.992 126.127 115.177C129.761 112.363 131.737 107.046 129.538 103.029Z" fill="black"/>
</g>
<path d="M90.8621 25.7422C89.6935 26.9846 88.8425 28.491 88.3817 30.1332C87.9208 31.7754 87.8638 33.5046 88.2153 35.1736C88.5694 36.7859 89.2777 38.5846 88.3924 39.9778C87.507 41.3711 85.4474 41.6088 84.6226 43.0207C83.6441 44.6749 84.9488 46.7485 84.7857 48.6777C84.6803 49.5771 84.258 50.4097 83.5946 51.0262C82.9311 51.6427 82.0698 52.0028 81.165 52.042C83.5001 53.4555 86.18 54.1973 88.9096 54.1855C89.4688 53.2163 90.0264 52.247 90.5825 51.2778C89.9394 52.3076 90.3495 53.7382 91.2302 54.5723C92.1109 55.4064 93.3411 55.7559 94.5386 55.9702C97.4115 56.4318 100.352 56.2223 103.131 55.3581C105.909 54.4939 108.45 52.9985 110.554 50.9889" fill="#263238"/>
<path d="M123.536 35.8539C122.953 34.661 122.105 33.5986 121.672 32.3498C120.693 29.6704 121.602 26.3666 119.911 24.0693C118.708 22.4291 116.556 21.8466 114.547 21.5251C112.539 21.2035 110.409 20.9892 108.778 19.7823C107.581 18.8923 106.784 17.5503 105.591 16.6603C103.89 15.3881 101.612 15.1971 99.4961 15.3602C97.3806 15.5233 95.1066 16.0405 93.3126 17.2753C91.5186 18.5102 90.1486 20.5092 90.102 22.69C90.0787 23.7524 90.3583 24.8242 90.1719 25.868C89.9668 27.019 89.2399 27.9975 88.8345 29.0972C88.453 30.2777 88.4748 31.5515 88.8966 32.7182C89.3184 33.8849 90.1162 34.8782 91.1644 35.5417L108.639 52.5825C111.9 53.3188 119.244 50.8444 121.323 48.2117C123.401 45.5789 124.999 38.8735 123.536 35.8539Z" fill="#263238"/>
<path d="M91.1831 33.06C91.1831 28.6379 93.7693 23.0461 98.1728 23.2372L112.106 25.842C112.753 25.8706 113.367 26.1411 113.825 26.6001C114.283 27.059 114.553 27.6731 114.58 28.321L115.186 61.4801H115.279C115.279 61.4801 112.763 71.0047 103.518 68.7447C101.682 68.2787 100.722 66.3868 100.256 64.3878H100.167C100.144 64.1455 100.13 63.9218 100.111 63.6935C99.8353 62.1987 99.7182 60.6789 99.7618 59.1595C99.5614 56.4894 99.4962 55.3944 99.4962 55.4317C99.4962 55.4689 93.8066 54.8538 92.1803 47.5799C91.3742 44.0012 91.1831 37.9761 91.1831 33.06Z" fill="#FFBE9D"/>
<path d="M103.946 37.593C103.951 37.7154 103.98 37.8357 104.031 37.947C104.082 38.0582 104.155 38.1582 104.245 38.2413C104.335 38.3244 104.44 38.389 104.555 38.4312C104.67 38.4735 104.793 38.4927 104.915 38.4877C105.036 38.4915 105.157 38.4707 105.271 38.4267C105.384 38.3826 105.487 38.3162 105.574 38.2314C105.661 38.1466 105.73 38.0451 105.777 37.933C105.824 37.8209 105.848 37.7005 105.847 37.579C105.842 37.4566 105.813 37.3364 105.762 37.2251C105.711 37.1139 105.638 37.0138 105.548 36.9307C105.458 36.8476 105.352 36.7831 105.237 36.7408C105.122 36.6986 105 36.6794 104.878 36.6844C104.756 36.6806 104.635 36.7014 104.522 36.7454C104.409 36.7894 104.306 36.8559 104.219 36.9407C104.132 37.0255 104.063 37.127 104.016 37.2391C103.969 37.3511 103.945 37.4715 103.946 37.593Z" fill="#263238"/>
<path d="M94.3232 38.3285C94.328 38.4509 94.3569 38.5712 94.4082 38.6824C94.4595 38.7936 94.5323 38.8937 94.6223 38.9768C94.7123 39.0599 94.8179 39.1244 94.9329 39.1667C95.0478 39.209 95.17 39.2281 95.2924 39.2232C95.4159 39.227 95.5388 39.2056 95.6536 39.1601C95.7685 39.1147 95.8727 39.0461 95.9601 38.9588C96.0474 38.8715 96.1159 38.7672 96.1614 38.6524C96.2068 38.5376 96.2283 38.4146 96.2244 38.2912C96.2135 38.0448 96.1054 37.8127 95.9237 37.6459C95.742 37.4791 95.5016 37.3911 95.2552 37.4012C95.132 37.3966 95.0091 37.4175 94.8943 37.4624C94.7795 37.5074 94.6752 37.5754 94.5878 37.6624C94.5004 37.7493 94.4318 37.8534 94.3863 37.9679C94.3408 38.0825 94.3193 38.2052 94.3232 38.3285Z" fill="#263238"/>
<path d="M92.3009 36.2445C92.4267 36.3982 93.2328 35.7319 94.3279 35.7366C95.4229 35.7412 96.2337 36.3889 96.3596 36.2305C96.4201 36.1606 96.2943 35.881 95.9448 35.5781C95.488 35.1979 94.913 34.9887 94.3186 34.9863C93.7242 34.9971 93.1529 35.2184 92.7063 35.6107C92.3801 35.8903 92.2403 36.1746 92.3009 36.2445Z" fill="#263238"/>
<path d="M102.543 35.9913C102.692 36.1311 103.475 35.3902 104.635 35.2784C105.796 35.1665 106.728 35.7071 106.839 35.544C106.895 35.4694 106.737 35.2038 106.332 34.9475C105.796 34.6239 105.169 34.4848 104.547 34.5515C103.928 34.614 103.347 34.8813 102.897 35.311C102.566 35.6418 102.469 35.9308 102.543 35.9913Z" fill="#263238"/>
<path d="M99.4491 43.4063C98.9029 43.2751 98.3427 43.2109 97.7809 43.2152C97.5246 43.2152 97.273 43.1686 97.2218 42.9916C97.1807 42.7259 97.223 42.454 97.3429 42.2134C97.5479 41.575 97.7623 40.8993 97.986 40.1957C98.876 37.3206 99.5004 34.9674 99.3839 34.9301C99.2674 34.8929 98.4519 37.1994 97.5666 40.0559C97.3522 40.7642 97.1519 41.4538 96.9562 42.0876C96.8121 42.4102 96.7874 42.7735 96.8863 43.1127C96.9315 43.2031 96.9972 43.2817 97.0781 43.3424C97.1589 43.403 97.2528 43.444 97.3522 43.4622C97.5054 43.4941 97.6621 43.5051 97.8182 43.4948C98.3634 43.5345 98.9114 43.5047 99.4491 43.4063Z" fill="#263238"/>
<path d="M99.5 55.4475C102.956 55.2806 106.298 54.1596 109.155 52.209C109.155 52.209 107.086 57.4046 99.6864 57.1763L99.5 55.4475Z" fill="#EB996E"/>
<path d="M100.031 45.8261C100.209 45.5712 100.448 45.3656 100.727 45.2286C101.006 45.0917 101.315 45.0279 101.625 45.0433C101.85 45.0509 102.071 45.103 102.276 45.1966C102.481 45.2902 102.665 45.4233 102.818 45.5885C102.964 45.7497 103.057 45.9519 103.085 46.1677C103.112 46.3835 103.073 46.6026 102.972 46.7953C102.82 46.9872 102.614 47.1294 102.381 47.2041C102.148 47.2788 101.898 47.2825 101.662 47.2147C101.173 47.0743 100.717 46.8383 100.32 46.5204C100.2 46.4488 100.095 46.3537 100.013 46.2408C99.9742 46.1854 99.9536 46.1196 99.9536 46.0521C99.9536 45.9846 99.9742 45.9188 100.013 45.8634" fill="#3D6498"/>
<path d="M102.478 43.9224C102.31 43.9224 102.376 45.0221 101.486 45.8609C100.596 46.6996 99.4121 46.653 99.4121 46.7928C99.4121 46.8627 99.687 46.9885 100.186 46.9699C100.831 46.9372 101.444 46.6801 101.919 46.243C102.371 45.8201 102.643 45.2394 102.679 44.6214C102.693 44.174 102.553 43.9084 102.478 43.9224Z" fill="#263238"/>
<path d="M102.166 32.5638C102.287 32.8341 103.289 32.6384 104.496 32.7083C105.703 32.7782 106.676 33.0391 106.826 32.7829C106.886 32.6617 106.704 32.4101 106.299 32.1678C105.76 31.8747 105.162 31.7074 104.55 31.6784C103.937 31.6493 103.326 31.7593 102.762 32C102.315 32.205 102.11 32.4334 102.166 32.5638Z" fill="#263238"/>
<path d="M92.8748 33.1356C93.0892 33.3546 93.872 33.0657 94.8319 32.9912C95.7918 32.9166 96.6166 33.0378 96.789 32.7815C96.8636 32.6603 96.7191 32.4367 96.351 32.241C95.8475 32.0026 95.2881 31.9075 94.7341 31.966C94.1795 32.0059 93.647 32.1995 93.1963 32.5252C92.8701 32.7862 92.7769 33.0285 92.8748 33.1356Z" fill="#263238"/>
<path d="M115.213 26.4719C114.398 25.5399 113.117 25.1718 111.905 24.8876C106.674 23.6695 101.316 23.0767 95.9453 23.1215C95.442 24.2958 96.2528 25.6844 97.3432 26.3321C98.4336 26.9798 99.7616 27.1149 101.006 27.3899C102.25 27.6648 103.564 28.1774 104.216 29.2538C104.911 30.4234 104.682 31.9518 105.311 33.154C106.402 35.223 109.538 35.4839 110.614 37.5715C111.43 39.1418 110.721 41.0291 110.726 42.7998C110.727 43.6982 110.92 44.5861 111.291 45.4042C111.662 46.2223 112.204 46.9518 112.88 47.5441C113.555 48.1363 114.349 48.5777 115.209 48.8387C116.069 49.0998 116.974 49.1745 117.865 49.0579C117.346 42.7578 116.83 36.4594 116.318 30.1624C116.215 28.8763 116.071 27.4644 115.213 26.4719Z" fill="#263238"/>
<path d="M130.007 40.4947C128.894 39.7491 127.552 39.1573 126.978 37.9458C126.149 36.1844 127.323 33.8079 126.135 32.2655C125.054 30.8676 122.5 31.2916 121.475 29.8424C120.674 28.7101 121.247 27.5125 120.856 26.4874C120.464 25.4622 118.81 24.7213 117.738 25.0009L110.939 38.5655C110.73 42.8246 110.241 45.1452 111.471 47.4471C112.146 48.7099 112.967 49.9168 113.335 51.2961C113.703 52.6754 113.586 54.3156 112.556 55.3082C117.71 54.9913 122.118 51.6502 126.177 48.4489L130.469 45.0613C130.945 44.7461 131.334 44.3168 131.601 43.8125C132.146 42.6009 131.116 41.2403 130.007 40.4947Z" fill="#263238"/>
<path d="M126.145 47.1828C125.977 47.2629 125.8 47.3239 125.618 47.3645C125.093 47.4949 124.549 47.5327 124.011 47.4763C123.153 47.3939 122.333 47.0886 121.63 46.591C120.696 45.91 120.035 44.9189 119.766 43.7951C119.598 43.1487 119.562 42.4754 119.659 41.8147C119.797 41.1184 120.025 40.4431 120.339 39.8063C120.675 39.1423 120.912 38.4327 121.043 37.7001C121.11 37.3252 121.094 36.9399 120.994 36.5723C120.894 36.2047 120.713 35.864 120.465 35.5752C119.915 35.0207 119.029 34.9881 118.186 34.7784C117.729 34.6861 117.31 34.4589 116.984 34.126C116.677 33.7608 116.49 33.3102 116.448 32.8353C116.327 31.9033 116.606 30.9714 116.653 30.1C116.695 29.6576 116.637 29.2114 116.481 28.7952C116.306 28.3902 115.994 28.06 115.6 27.8633C114.789 27.4392 113.838 27.4858 112.92 27.5371C111.989 27.6331 111.049 27.4937 110.185 27.1317C109.352 26.7646 108.635 26.1764 108.112 25.4309C107.655 24.7042 107.315 23.91 107.105 23.0777C106.907 22.3104 106.631 21.5656 106.28 20.855C105.918 20.2111 105.422 19.652 104.826 19.2147C103.838 18.4904 102.644 18.1 101.418 18.1C100.192 18.1 98.9981 18.4904 98.0092 19.2147C97.323 19.6959 96.7281 20.2955 96.2524 20.9854C95.8555 21.582 95.5301 22.2233 95.2832 22.896C95.2864 22.8483 95.2958 22.8014 95.3112 22.7562C95.3391 22.6676 95.3717 22.5278 95.437 22.3601C95.6188 21.8536 95.8597 21.3703 96.1546 20.9202C96.6226 20.1978 97.2178 19.5662 97.9113 19.0563C98.8281 18.3863 99.9148 17.9875 101.047 17.9053C102.441 17.8228 103.821 18.2154 104.962 19.019C105.591 19.4737 106.116 20.0585 106.499 20.7338C106.862 21.4584 107.148 22.219 107.352 23.0031C107.56 23.8052 107.89 24.5705 108.331 25.2724C108.827 25.971 109.503 26.5218 110.288 26.8661C111.109 27.2005 112.002 27.3239 112.883 27.2249C113.815 27.1783 114.808 27.1131 115.712 27.5837C116.17 27.8101 116.533 28.1938 116.732 28.6648C116.907 29.1218 116.974 29.6129 116.928 30.1C116.872 31.0319 116.602 31.9266 116.714 32.7887C116.749 33.2036 116.912 33.5974 117.18 33.9164C117.47 34.2053 117.837 34.4043 118.237 34.4895C118.643 34.5967 119.067 34.6479 119.486 34.7598C119.919 34.8547 120.318 35.0639 120.642 35.3655C120.917 35.6851 121.118 36.0623 121.23 36.4694C121.341 36.8765 121.36 37.3034 121.285 37.7187C121.148 38.4764 120.9 39.2096 120.549 39.8949C120.235 40.5153 120.006 41.1751 119.868 41.8566C119.771 42.4866 119.8 43.1296 119.952 43.7485C120.209 44.8258 120.836 45.7788 121.723 46.4419C122.399 46.9333 123.19 47.2444 124.02 47.3458C124.732 47.43 125.454 47.3746 126.145 47.1828Z" fill="#455A64"/>
<path d="M131.718 37.4397C131.82 37.5528 131.898 37.6862 131.946 37.8311C132.088 38.2541 132.073 38.7137 131.904 39.1266C131.787 39.428 131.596 39.6954 131.35 39.9047C131.048 40.1498 130.683 40.3034 130.297 40.3474C129.829 40.4043 129.355 40.3313 128.926 40.1365C128.496 39.9417 128.129 39.6326 127.864 39.243C127.555 38.794 127.355 38.2784 127.282 37.7379C127.22 37.1573 127.262 36.5701 127.408 36.0045C127.655 34.8442 128.242 33.6746 128.074 32.3699C128.056 32.0497 127.972 31.7366 127.829 31.4498C127.685 31.1629 127.485 30.9084 127.24 30.7017C126.66 30.3479 125.965 30.2326 125.301 30.3801C124.565 30.54 123.806 30.5684 123.06 30.464C122.663 30.3617 122.308 30.1386 122.044 29.8256C121.791 29.5095 121.61 29.1422 121.513 28.7492C121.374 27.9935 121.33 27.2233 121.382 26.4566C121.393 25.7393 121.252 25.0278 120.968 24.369C120.427 23.1145 119.426 22.1142 118.172 21.5731C116.974 21.0606 115.684 21.1677 114.523 21.2609C113.426 21.4164 112.311 21.3975 111.219 21.205C110.323 21.0049 109.476 20.6244 108.731 20.0867C108.17 19.6863 107.672 19.2041 107.254 18.6561C106.888 18.1979 106.606 17.679 106.42 17.123C106.688 17.6353 107 18.1233 107.352 18.5816C108.343 19.8123 109.726 20.666 111.271 21C112.342 21.1663 113.433 21.1663 114.505 21C115.665 20.8975 117.002 20.7717 118.284 21.3029C119.611 21.8621 120.674 22.9072 121.257 24.2246C121.558 24.9198 121.709 25.671 121.699 26.4286C121.647 27.1703 121.689 27.9157 121.825 28.6467C121.887 28.9948 122.044 29.3192 122.278 29.5839C122.512 29.8487 122.815 30.0436 123.153 30.1471C123.864 30.2419 124.586 30.2135 125.287 30.0633C126.024 29.9042 126.794 30.0415 127.431 30.4454C127.705 30.6765 127.929 30.9609 128.089 31.2814C128.249 31.6018 128.342 31.9516 128.363 32.3093C128.428 32.9716 128.359 33.6401 128.162 34.2757C127.999 34.8908 127.799 35.464 127.664 36.0325C127.517 36.5691 127.471 37.1286 127.529 37.682C127.592 38.1829 127.772 38.6618 128.055 39.08C128.296 39.4436 128.632 39.7347 129.026 39.9219C129.42 40.1091 129.858 40.1854 130.292 40.1424C130.649 40.1067 130.988 39.9711 131.271 39.751C131.506 39.5631 131.692 39.3198 131.811 39.0427C131.982 38.6537 132.015 38.218 131.904 37.8078C131.849 37.682 131.786 37.5591 131.718 37.4397Z" fill="#263238"/>
<path d="M78.4007 48.0214C78.3139 48.4755 78.3846 48.9456 78.6011 49.3541C78.7214 49.5894 78.8925 49.7951 79.102 49.9563C79.3116 50.1175 79.5543 50.2301 79.8126 50.286C80.1554 50.3375 80.5058 50.2924 80.8243 50.1558C81.1429 50.0191 81.417 49.7964 81.616 49.5125C81.8383 49.1789 81.9402 48.7795 81.9049 48.3802C81.8578 47.9396 81.7298 47.5115 81.5274 47.1174C81.136 46.2926 80.451 45.4305 80.3765 44.2889C80.3364 43.7111 80.4172 43.1313 80.6138 42.5865C80.8103 42.0417 81.1183 41.5439 81.5181 41.1249C81.9371 40.6818 82.4369 40.3228 82.9906 40.0671C83.5584 39.8164 84.157 39.6425 84.7706 39.5499C85.3622 39.4595 85.944 39.3144 86.5087 39.1165C87.0364 38.927 87.4803 38.5574 87.7622 38.0727C88.0021 37.5829 88.1006 37.0358 88.0465 36.4931C88 35.9605 87.8808 35.4369 87.6923 34.9367C87.3428 33.9488 86.8955 32.9982 86.8163 32.015C86.7416 31.11 86.9379 30.2033 87.3801 29.4102C87.7615 28.777 88.2596 28.222 88.848 27.7746C89.2749 27.4344 89.6767 27.0637 90.0502 26.6656C90.3578 26.319 90.5909 25.913 90.7352 25.4727C90.7352 25.4727 90.7352 25.5053 90.7352 25.5659C90.7232 25.6565 90.7013 25.7456 90.6699 25.8315C90.5562 26.1642 90.3807 26.4725 90.1527 26.7401C89.7893 27.156 89.3935 27.5424 88.9691 27.8957C88.4078 28.3425 87.9339 28.8891 87.5712 29.508C87.1651 30.2676 86.9902 31.1293 87.0679 31.987C87.1518 32.919 87.5898 33.851 87.9579 34.8388C88.1594 35.3621 88.2864 35.9111 88.3354 36.4698C88.3976 37.067 88.2894 37.6696 88.0232 38.2079C87.7101 38.7538 87.2154 39.1727 86.6252 39.3914C86.0428 39.6014 85.4422 39.7574 84.8312 39.8574C84.242 39.9462 83.667 40.1123 83.1211 40.3514C82.596 40.5879 82.1214 40.9233 81.7231 41.3392C81.3487 41.7284 81.0592 42.1911 80.8731 42.6981C80.6869 43.2051 80.6083 43.7452 80.6421 44.2842C80.698 45.328 81.3364 46.1481 81.7418 47.0242C81.9531 47.4482 82.0828 47.9082 82.1239 48.3802C82.162 48.8301 82.0398 49.279 81.7791 49.6476C81.5547 49.9585 81.2473 50.1998 80.8921 50.344C80.5369 50.4882 80.1483 50.5295 79.7707 50.4631C79.3199 50.348 78.9243 50.0772 78.654 49.6986C78.3837 49.3199 78.256 48.8579 78.2935 48.3941C78.3056 48.2643 78.3419 48.1378 78.4007 48.0214Z" fill="#263238"/>
<path d="M80.1014 76.4351C80.1014 76.4351 80.8843 70.1677 83.9038 67.0363C86.9233 63.9049 99.5607 59.9814 99.5607 59.9814C99.5607 59.9814 100.083 64.4501 103.111 65.5266C106.322 66.6729 109.947 66.2442 112.296 63.5135C113.716 61.7635 114.714 59.7098 115.213 57.5117C115.213 57.5117 130.306 58.9097 132.766 63.0382C135.227 67.1668 138.409 83.2104 138.409 83.2104L124.299 86.2067L126.219 113.821H88.7453L89.4769 87.9028L79.272 89.3614L80.1014 76.4351Z" fill="#3D5A98"/>
<path d="M121.518 87.0946C121.473 86.8912 121.456 86.6828 121.466 86.4749C121.466 86.0741 121.466 85.4916 121.466 84.7787C121.466 83.3435 121.49 81.3677 121.536 79.187C121.583 77.0062 121.639 75.0258 121.699 73.5952C121.727 72.8776 121.755 72.2998 121.783 71.899C121.78 71.6897 121.806 71.481 121.862 71.2793C121.903 71.4832 121.919 71.6913 121.909 71.899C121.909 72.2998 121.909 72.8823 121.909 73.5952C121.909 75.0304 121.886 77.0062 121.839 79.187C121.792 81.3677 121.737 83.3481 121.676 84.7787C121.648 85.4916 121.615 86.0695 121.592 86.4702C121.598 86.6808 121.572 86.8912 121.518 87.0946Z" fill="#263238"/>
<path d="M86.0011 75.7248C86.0897 75.7015 86.9704 78.5206 87.9676 81.9828C88.9648 85.4451 89.7103 88.3015 89.6218 88.3248C89.5333 88.3481 88.6572 85.5289 87.6554 82.0714C86.6535 78.6138 85.9173 75.7527 86.0011 75.7248Z" fill="#263238"/>
<path d="M131.21 62.0208C131.21 62.0767 130.539 62.2026 129.509 62.594C126.808 63.6277 124.56 65.5838 123.163 68.1158C122.631 69.0804 122.412 69.7374 122.356 69.7188C122.368 69.5588 122.404 69.4016 122.464 69.2528C122.594 68.8284 122.76 68.4155 122.958 68.018C123.613 66.6995 124.523 65.5235 125.635 64.5575C126.746 63.5915 128.038 62.8546 129.435 62.3889C129.855 62.2461 130.287 62.1385 130.725 62.0674C130.883 62.0222 131.047 62.0064 131.21 62.0208Z" fill="#263238"/>
<path d="M83.6808 68.2988C83.7647 68.2988 84.0629 69.1516 84.3425 70.2466C84.6221 71.3417 84.7758 72.2503 84.6873 72.2736C84.5988 72.2969 84.3052 71.4209 84.0256 70.3258C83.746 69.2308 83.5922 68.3221 83.6808 68.2988Z" fill="#263238"/>
<path d="M135.922 83.7188C135.922 83.7188 131.695 105.182 131.211 107.018C130.726 108.854 129.948 113.798 124.827 114.823C117.916 116.221 90.7822 115.238 90.7822 115.238L95.908 108.76L119.65 102.102L122.911 86.4867L135.922 83.7188Z" fill="#FFBE9D"/>
<path d="M95.4556 105.137C95.5498 105.289 95.6175 105.456 95.656 105.631C95.7951 106.099 95.8857 106.579 95.9262 107.066C96.0692 108.681 95.732 110.302 94.957 111.726C94.5447 112.519 94.0223 113.25 93.4053 113.897C92.8927 114.422 92.2751 114.834 91.5926 115.104C91.1346 115.277 90.6547 115.385 90.1667 115.426C89.9893 115.454 89.8083 115.454 89.6309 115.426C90.2662 115.308 90.8899 115.135 91.4948 114.908C92.1309 114.623 92.7042 114.214 93.1816 113.706C93.7628 113.071 94.2607 112.365 94.6634 111.604C95.4098 110.226 95.7644 108.669 95.6886 107.103C95.642 105.873 95.395 105.155 95.4556 105.137Z" fill="#EB996E"/>
<path d="M72.7349 79.7362C72.7349 79.7362 76.5605 92.6112 78.1449 98.175C79.8317 104.084 83.5176 117.504 91.374 115.123C97.3525 113.305 95.5958 105.561 95.5958 105.561L89.4775 87.8815L84.7198 88.6783L80.102 76.7539L72.7349 79.7362Z" fill="#FFBE9D"/>
<path d="M93.5038 106.118C93.7175 105.159 93.7175 104.165 93.5038 103.206C93.2511 102.174 92.8189 101.194 92.227 100.312C91.4809 99.2347 90.652 98.2174 89.748 97.269C88.8399 96.3034 88.008 95.2689 87.2597 94.1749C86.6616 93.2722 86.1395 92.3214 85.6986 91.3324C85.4004 90.6676 85.1452 89.9843 84.9344 89.2868C84.8377 89.0353 84.775 88.772 84.748 88.5039C84.8683 88.7425 84.9696 88.9903 85.0509 89.2448C85.2373 89.7108 85.5169 90.4098 85.9083 91.2345C86.3706 92.1986 86.9065 93.1255 87.5113 94.0071C88.2632 95.0798 89.0917 96.0968 89.9903 97.05C90.9059 98.0106 91.7383 99.0473 92.4786 100.149C93.0814 101.072 93.5065 102.099 93.7321 103.178C93.8777 103.903 93.8777 104.651 93.7321 105.377C93.6948 105.572 93.6402 105.764 93.569 105.95C93.5556 106.009 93.5336 106.065 93.5038 106.118Z" fill="#EB996E"/>
<path d="M80.102 76.7537C80.102 76.7537 80.1299 71.628 79.6779 70.1648L76.0433 62.0474C76.0433 62.0474 75.1114 61.4743 74.6454 63.0912C74.1794 64.7082 75.6146 66.3764 75.6146 66.3764L75.7264 68.5012L74.2726 67.299L71.4441 61.9962C71.4441 61.9962 69.4917 58.1332 68.9884 58.7343C68.4851 59.3354 68.6482 60.5982 69.487 62.2525L71.3975 66.0362C71.3975 66.0362 71.6864 66.7072 70.6846 65.7333C69.6827 64.7594 67.5066 60.0437 67.0546 59.4519C66.6026 58.8601 65.9875 57.122 65.0136 57.5274C64.0397 57.9328 65.2885 59.9925 65.2885 59.9925L68.4059 66.9822C68.4059 66.9822 66.5979 64.3354 66.2717 63.888C65.9456 63.4407 65.1907 61.9263 64.5989 61.1528C64.0071 60.3792 63.3594 60.081 62.9307 60.2674C62.7214 60.3427 62.5489 60.4952 62.4484 60.6935C62.3479 60.8919 62.3271 61.1212 62.3901 61.3345L65.7219 67.1126C65.7219 67.1126 67.3854 69.7081 67.3854 69.9085C67.3854 70.1089 65.9316 69.0511 65.9316 69.0511L64.5336 67.2711C64.5336 67.2711 63.0239 64.6057 62.2317 64.7501C61.4395 64.8946 61.5793 65.4864 61.5793 65.4864L64.3752 70.3419L68.4479 75.5795L72.8001 79.9037L75.3164 79.0929L80.102 76.7537Z" fill="#FFBE9D"/>
<path d="M72.0915 75.8863C72.2182 75.3612 72.3024 74.8267 72.3431 74.288C72.5062 73.3281 72.8371 71.8882 74.016 70.9609C74.4923 70.5633 75.0874 70.3354 75.7075 70.3132H75.9172V70.0895C75.852 69.0923 75.8892 68.1418 75.852 67.5127C75.8821 67.1663 75.8343 66.8177 75.7122 66.4922C75.6474 66.8269 75.6146 67.1671 75.6143 67.508C75.5428 68.3868 75.5164 69.2686 75.5351 70.1501L75.7261 69.9264C75.0121 69.9246 74.3205 70.1756 73.7737 70.6347C73.1766 71.1166 72.721 71.751 72.455 72.4707C72.246 73.044 72.1143 73.6426 72.0636 74.2507C71.9828 74.7937 71.9922 75.3464 72.0915 75.8863Z" fill="#EB996E"/>
<path d="M138.955 121.645H78.7456C77.4949 121.645 76.481 122.658 76.481 123.909V140.326C76.481 141.576 77.4949 142.59 78.7456 142.59H138.955C140.205 142.59 141.219 141.576 141.219 140.326V123.909C141.219 122.658 140.205 121.645 138.955 121.645Z" fill="white"/>
<path d="M138.979 142.597C138.979 142.597 139.128 142.597 139.407 142.541C139.821 142.456 140.202 142.255 140.507 141.963C140.757 141.725 140.949 141.434 141.07 141.111C141.191 140.789 141.238 140.442 141.206 140.099C141.206 139.279 141.206 138.338 141.206 137.303C141.206 135.183 141.206 132.592 141.206 129.582C141.206 128.075 141.206 126.469 141.206 124.764C141.223 124.336 141.209 123.908 141.164 123.482C141.077 123.06 140.868 122.673 140.563 122.369C140.249 122.055 139.845 121.845 139.407 121.768C138.943 121.728 138.476 121.717 138.009 121.735L78.8022 121.768C78.2857 121.767 77.7863 121.953 77.3959 122.291C77.0055 122.629 76.7504 123.097 76.6774 123.608C76.6354 123.939 76.6774 124.312 76.6541 124.666V139.27C76.6541 139.605 76.6541 139.945 76.6541 140.281C76.6482 140.602 76.7135 140.92 76.8451 141.213C76.9754 141.503 77.1684 141.76 77.4101 141.966C77.6518 142.173 77.9363 142.323 78.2431 142.406C78.5486 142.475 78.8622 142.502 79.175 142.485H87.8143H114.431L132.376 142.527H137.255L132.376 142.55L114.431 142.588L87.8143 142.615H79.1331C78.792 142.634 78.45 142.604 78.1173 142.527C77.6083 142.388 77.1601 142.083 76.843 141.661C76.5259 141.24 76.3578 140.725 76.3652 140.197V137.15C76.3652 134.425 76.3652 131.653 76.3652 128.832V124.582C76.3561 124.218 76.3654 123.854 76.3931 123.492C76.4442 123.115 76.5866 122.757 76.8079 122.448C77.03 122.138 77.3223 121.886 77.6609 121.711C77.9994 121.536 78.3746 121.444 78.7556 121.441L137.963 121.479C138.429 121.463 138.896 121.477 139.361 121.521C139.823 121.607 140.249 121.831 140.582 122.164C140.914 122.496 141.139 122.922 141.225 123.385C141.273 123.819 141.287 124.257 141.267 124.694C141.267 126.399 141.267 128.005 141.267 129.512C141.267 132.522 141.267 135.104 141.267 137.233C141.267 138.29 141.267 139.222 141.267 140.029C141.286 140.41 141.221 140.79 141.076 141.143C140.946 141.432 140.759 141.693 140.526 141.907C140.212 142.2 139.821 142.396 139.398 142.471C139.292 142.49 139.184 142.501 139.077 142.504L138.979 142.597Z" fill="#263238"/>
<path d="M82.9395 130.454C82.9377 130.217 82.9848 129.982 83.0778 129.764C83.1708 129.546 83.3077 129.35 83.4799 129.187C83.6522 129.025 83.8562 128.899 84.0791 128.819C84.302 128.739 84.539 128.705 84.7755 128.72C85.047 128.708 85.3177 128.758 85.5667 128.867C85.8156 128.976 86.036 129.141 86.2107 129.35L85.6096 129.895C85.5182 129.772 85.3993 129.673 85.2625 129.605C85.1257 129.537 84.9748 129.502 84.8221 129.503C84.5693 129.503 84.3269 129.604 84.1482 129.782C83.9695 129.961 83.8691 130.203 83.8691 130.456C83.8691 130.709 83.9695 130.951 84.1482 131.13C84.3269 131.309 84.5693 131.409 84.8221 131.409C84.9746 131.409 85.1251 131.374 85.2618 131.306C85.3984 131.238 85.5174 131.139 85.6096 131.018L86.2107 131.558C86.036 131.766 85.8156 131.932 85.5667 132.041C85.3177 132.15 85.047 132.2 84.7755 132.187C84.539 132.203 84.302 132.169 84.0791 132.089C83.8562 132.009 83.6522 131.883 83.4799 131.72C83.3077 131.558 83.1708 131.361 83.0778 131.143C82.9848 130.926 82.9377 130.691 82.9395 130.454Z" fill="#263238"/>
<path d="M86.5601 130.633V128.77H87.4921V130.591C87.4921 131.165 87.7297 131.393 88.1258 131.393C88.5219 131.393 88.7549 131.165 88.7549 130.591V128.807H89.6868V130.671C89.6649 131.072 89.4902 131.449 89.1985 131.725C88.9069 132.002 88.5205 132.156 88.1188 132.156C87.7171 132.156 87.3307 132.002 87.0391 131.725C86.7474 131.449 86.5727 131.072 86.5508 130.671L86.5601 130.633Z" fill="#263238"/>
<path d="M91.7929 131.238H91.2757V132.124H90.3438V128.811H91.8675C92.7995 128.811 93.3493 129.277 93.3493 130.045C93.3583 130.266 93.301 130.484 93.1847 130.672C93.0684 130.86 92.8985 131.008 92.6969 131.099L93.4145 132.147H92.3801L91.7929 131.238ZM91.7929 129.533H91.2664V130.507H91.7929C92.1797 130.507 92.3754 130.33 92.3754 130.041C92.3754 129.752 92.189 129.533 91.8023 129.533H91.7929Z" fill="#263238"/>
<path d="M95.3164 131.238H94.7991V132.124H93.8672V128.811H95.3909C96.3229 128.811 96.8727 129.277 96.8727 130.045C96.8818 130.266 96.8244 130.484 96.7081 130.672C96.5918 130.86 96.4219 131.008 96.2204 131.099L96.938 132.147H95.9222L95.3164 131.238ZM95.3164 129.533H94.7898V130.507H95.3164C95.7078 130.507 95.9035 130.33 95.9035 130.041C95.9035 129.752 95.7171 129.533 95.3257 129.533H95.3164Z" fill="#263238"/>
<path d="M100.06 131.397V132.124H97.3804V128.811H99.9992V129.542H98.317V130.101H99.7988V130.81H98.317V131.42L100.06 131.397Z" fill="#263238"/>
<path d="M103.755 128.811V132.147H102.976L101.509 130.372V132.147H100.577V128.811H101.355L102.827 130.591V128.811H103.755Z" fill="#263238"/>
<path d="M105.13 129.537H104.109V128.811H107.096V129.561H106.076V132.147H105.144L105.13 129.537Z" fill="#263238"/>
<path d="M108.829 128.811H109.761V131.401H111.35V132.147H108.829V128.811Z" fill="#263238"/>
<path d="M111.513 130.451C111.487 130.078 111.574 129.706 111.762 129.383C111.95 129.06 112.231 128.801 112.569 128.639C112.906 128.478 113.285 128.422 113.654 128.478C114.024 128.535 114.368 128.701 114.642 128.956C114.916 129.211 115.107 129.542 115.19 129.907C115.273 130.271 115.245 130.653 115.108 131.001C114.972 131.349 114.734 131.648 114.425 131.859C114.116 132.071 113.751 132.184 113.377 132.185C113.139 132.201 112.9 132.169 112.675 132.089C112.45 132.01 112.244 131.885 112.069 131.722C111.895 131.56 111.755 131.363 111.659 131.145C111.564 130.926 111.514 130.69 111.513 130.451ZM114.267 130.451C114.257 130.275 114.196 130.106 114.091 129.964C113.985 129.822 113.841 129.714 113.675 129.654C113.509 129.593 113.329 129.582 113.158 129.623C112.986 129.663 112.83 129.753 112.708 129.881C112.587 130.01 112.506 130.17 112.475 130.344C112.444 130.518 112.464 130.697 112.534 130.859C112.604 131.022 112.719 131.16 112.867 131.257C113.014 131.354 113.187 131.406 113.363 131.407C113.488 131.41 113.612 131.388 113.728 131.34C113.843 131.293 113.947 131.222 114.034 131.132C114.12 131.042 114.187 130.935 114.23 130.818C114.272 130.701 114.29 130.576 114.281 130.451H114.267Z" fill="#263238"/>
<path d="M115.544 130.454C115.542 130.217 115.588 129.983 115.681 129.765C115.773 129.547 115.909 129.35 116.081 129.188C116.253 129.025 116.457 128.899 116.68 128.819C116.902 128.739 117.139 128.705 117.375 128.72C117.647 128.708 117.918 128.758 118.167 128.867C118.415 128.976 118.636 129.141 118.811 129.35L118.209 129.895C118.118 129.772 117.999 129.673 117.862 129.605C117.726 129.537 117.575 129.502 117.422 129.503C117.169 129.503 116.927 129.604 116.748 129.782C116.569 129.961 116.469 130.203 116.469 130.456C116.469 130.709 116.569 130.951 116.748 131.13C116.927 131.309 117.169 131.409 117.422 131.409C117.575 131.409 117.725 131.374 117.862 131.306C117.998 131.238 118.117 131.139 118.209 131.018L118.811 131.558C118.636 131.766 118.415 131.932 118.167 132.041C117.918 132.15 117.647 132.2 117.375 132.187C117.139 132.203 116.902 132.169 116.68 132.089C116.457 132.008 116.253 131.883 116.081 131.72C115.909 131.558 115.773 131.361 115.681 131.143C115.588 130.925 115.542 130.691 115.544 130.454Z" fill="#263238"/>
<path d="M121.406 131.474H120.008L119.747 132.122H118.783L120.255 128.785H121.187L122.664 132.122H121.681L121.406 131.474ZM121.127 130.78L120.703 129.712L120.274 130.78H121.127Z" fill="#263238"/>
<path d="M123.457 129.537H122.432V128.811H125.419V129.561H124.403V132.147H123.471L123.457 129.537Z" fill="#263238"/>
<path d="M125.772 128.811H126.704V132.147H125.772V128.811Z" fill="#263238"/>
<path d="M127.217 130.451C127.191 130.078 127.277 129.706 127.466 129.383C127.654 129.06 127.935 128.801 128.273 128.639C128.61 128.478 128.988 128.422 129.358 128.478C129.728 128.535 130.072 128.701 130.346 128.956C130.62 129.211 130.81 129.542 130.894 129.907C130.977 130.271 130.948 130.653 130.812 131.001C130.675 131.349 130.437 131.648 130.129 131.859C129.82 132.071 129.455 132.184 129.081 132.185C128.843 132.201 128.604 132.169 128.379 132.089C128.154 132.01 127.948 131.885 127.773 131.722C127.598 131.56 127.459 131.363 127.363 131.145C127.267 130.926 127.218 130.69 127.217 130.451ZM129.971 130.451C129.961 130.275 129.899 130.106 129.794 129.964C129.689 129.822 129.545 129.714 129.379 129.654C129.213 129.593 129.033 129.582 128.861 129.623C128.689 129.663 128.533 129.753 128.412 129.881C128.29 130.01 128.209 130.17 128.178 130.344C128.147 130.518 128.168 130.697 128.238 130.859C128.307 131.022 128.423 131.16 128.57 131.257C128.718 131.354 128.89 131.406 129.067 131.407C129.19 131.408 129.313 131.384 129.427 131.336C129.541 131.288 129.643 131.217 129.728 131.127C129.813 131.037 129.878 130.931 129.92 130.815C129.962 130.698 129.979 130.575 129.971 130.451Z" fill="#263238"/>
<path d="M134.589 128.811V132.147H133.811L132.338 130.372V132.147H131.406V128.811H132.184L133.657 130.591V128.811H134.589Z" fill="#263238"/>
<path d="M90.2227 136.016C90.2426 135.674 90.3628 135.346 90.5683 135.072C90.7738 134.798 91.0554 134.591 91.3781 134.476C91.7007 134.361 92.05 134.344 92.3824 134.426C92.7147 134.509 93.0154 134.687 93.2469 134.94L92.7809 135.373C92.6838 135.256 92.5621 135.162 92.4243 135.097C92.2865 135.033 92.1362 135 91.9841 135C91.7146 135 91.4563 135.107 91.2658 135.298C91.0752 135.488 90.9682 135.747 90.9682 136.016C90.9682 136.286 91.0752 136.544 91.2658 136.735C91.4563 136.925 91.7146 137.032 91.9841 137.032C92.1368 137.034 92.2879 137.001 92.426 136.935C92.5641 136.87 92.6854 136.774 92.7809 136.655L93.2469 137.088C93.0166 137.342 92.7163 137.523 92.3837 137.607C92.051 137.691 91.701 137.675 91.3776 137.56C91.0542 137.445 90.772 137.238 90.5665 136.963C90.361 136.688 90.2413 136.359 90.2227 136.016Z" fill="#E0E0E0"/>
<path d="M93.7363 134.434H94.4726V137.602H93.7363V134.434Z" fill="#E0E0E0"/>
<path d="M95.8806 135.03H94.8647V134.434H97.628V135.03H96.6122V137.602H95.8806V135.03Z" fill="#E0E0E0"/>
<path d="M99.4821 136.479V137.602H98.7505V136.47L97.5063 134.434H98.2845L99.128 135.832L99.976 134.434H100.698L99.4821 136.479Z" fill="#E0E0E0"/>
<path d="M101.509 137.196C101.504 137.359 101.461 137.518 101.383 137.662L101.127 138.314H100.661L100.857 137.592C100.781 137.561 100.717 137.508 100.674 137.44C100.63 137.371 100.61 137.291 100.614 137.21C100.614 137.093 100.661 136.982 100.743 136.9C100.825 136.818 100.936 136.771 101.052 136.771C101.169 136.771 101.28 136.818 101.362 136.9C101.444 136.982 101.49 137.093 101.49 137.21L101.509 137.196Z" fill="#E0E0E0"/>
<path d="M103.098 136.016C103.119 135.675 103.24 135.347 103.446 135.073C103.652 134.799 103.934 134.593 104.257 134.478C104.579 134.363 104.929 134.346 105.261 134.428C105.593 134.51 105.894 134.688 106.127 134.94L105.661 135.373C105.564 135.256 105.442 135.162 105.304 135.097C105.166 135.033 105.016 135 104.864 135.001C104.594 135.001 104.336 135.108 104.145 135.298C103.955 135.489 103.848 135.747 103.848 136.016C103.848 136.286 103.955 136.544 104.145 136.735C104.336 136.925 104.594 137.032 104.864 137.032C105.017 137.035 105.168 137.002 105.306 136.936C105.444 136.871 105.566 136.775 105.661 136.655L106.127 137.088C105.896 137.342 105.595 137.522 105.262 137.605C104.93 137.689 104.58 137.673 104.256 137.558C103.933 137.444 103.65 137.236 103.444 136.962C103.238 136.688 103.118 136.359 103.098 136.016Z" fill="#E0E0E0"/>
<path d="M106.36 136.018C106.341 135.67 106.426 135.325 106.605 135.026C106.784 134.728 107.048 134.49 107.364 134.343C107.679 134.197 108.032 134.148 108.375 134.204C108.719 134.26 109.037 134.418 109.29 134.657C109.543 134.896 109.718 135.206 109.793 135.546C109.868 135.886 109.839 136.24 109.71 136.564C109.581 136.887 109.358 137.164 109.07 137.359C108.782 137.554 108.442 137.658 108.094 137.658C107.871 137.671 107.647 137.638 107.437 137.561C107.227 137.484 107.035 137.365 106.873 137.212C106.711 137.058 106.582 136.873 106.493 136.668C106.405 136.462 106.36 136.241 106.36 136.018ZM109.086 136.018C109.082 135.822 109.019 135.633 108.908 135.473C108.796 135.313 108.639 135.189 108.458 135.117C108.276 135.046 108.077 135.029 107.886 135.07C107.695 135.111 107.52 135.208 107.384 135.347C107.247 135.487 107.155 135.664 107.119 135.856C107.082 136.048 107.103 136.246 107.179 136.426C107.255 136.606 107.382 136.76 107.545 136.868C107.707 136.976 107.898 137.033 108.094 137.033C108.228 137.038 108.361 137.015 108.486 136.965C108.61 136.916 108.723 136.841 108.817 136.745C108.912 136.65 108.985 136.536 109.033 136.411C109.081 136.285 109.102 136.152 109.095 136.018H109.086Z" fill="#E0E0E0"/>
<path d="M110.363 136.209V134.434H111.094V136.181C111.094 136.782 111.355 137.034 111.803 137.034C112.25 137.034 112.506 136.782 112.506 136.181V134.434H113.233V136.209C113.233 136.59 113.082 136.955 112.813 137.224C112.544 137.493 112.179 137.644 111.798 137.644C111.417 137.644 111.052 137.493 110.783 137.224C110.514 136.955 110.363 136.59 110.363 136.209Z" fill="#E0E0E0"/>
<path d="M116.863 134.434V137.602H116.262L114.682 135.678V137.602H113.956V134.434H114.561L116.146 136.358V134.434H116.863Z" fill="#E0E0E0"/>
<path d="M118.271 135.03H117.255V134.434H120.018V135.03H119.002V137.602H118.271V135.03Z" fill="#E0E0E0"/>
<path d="M122.431 137.599L121.821 136.727H121.145V137.608H120.409V134.439H121.807C122.65 134.439 123.181 134.877 123.181 135.59C123.19 135.805 123.132 136.016 123.015 136.196C122.898 136.375 122.728 136.514 122.529 136.592L123.242 137.608L122.431 137.599ZM121.737 135.027H121.14V136.131H121.737C122.203 136.131 122.412 135.926 122.412 135.581C122.412 135.236 122.203 135.027 121.737 135.027Z" fill="#E0E0E0"/>
<path d="M125.213 136.479V137.602H124.482V136.47L123.251 134.434H124.03L124.878 135.832L125.726 134.434H126.448L125.213 136.479Z" fill="#E0E0E0"/>
</svg>
