<svg width="300" height="184" viewBox="0 0 300 184" fill="none" xmlns="http://www.w3.org/2000/svg">
<path d="M148.59 27.0974C91.386 25.0429 75.99 71.1959 110.598 98.0532C144.69 124.135 228.942 128.674 248.628 93.2921C267.6 60.2516 223.2 0.492066 181.632 9.72763C169.128 13.4169 162.72 25.6256 148.59 27.0974Z" fill="#3D6498"/>
<path opacity="0.9" d="M148.59 27.0974C91.386 25.0429 75.99 71.1959 110.598 98.0532C144.69 124.135 228.942 128.674 248.628 93.2921C267.6 60.2516 223.2 0.492066 181.632 9.72763C169.128 13.4169 162.72 25.6256 148.59 27.0974Z" fill="white"/>
<path d="M150 184C214.249 184 266.334 181.497 266.334 178.409C266.334 175.321 214.249 172.818 150 172.818C85.7505 172.818 33.666 175.321 33.666 178.409C33.666 181.497 85.7505 184 150 184Z" fill="#F5F5F5"/>
<path d="M171.954 171.595L167.4 170.296L169.836 161.277L174.39 162.576L171.954 171.595Z" fill="#CFACA8"/>
<path d="M209.796 174.359H204.978L203.736 165.178H208.554L209.796 174.359Z" fill="#CFACA8"/>
<path d="M204.6 173.9H210.114C210.209 173.901 210.302 173.928 210.376 173.977C210.45 174.027 210.501 174.095 210.522 174.172L211.476 177.698C211.498 177.784 211.495 177.873 211.47 177.958C211.444 178.043 211.395 178.122 211.327 178.189C211.259 178.257 211.174 178.311 211.077 178.347C210.98 178.384 210.874 178.401 210.768 178.4C208.878 178.375 207.504 178.281 205.122 178.281C203.658 178.281 199.602 178.41 197.58 178.41C195.558 178.41 195.294 176.765 196.122 176.612C199.83 175.945 202.626 175.026 203.814 174.142C204.032 173.986 204.311 173.901 204.6 173.9Z" fill="#263238"/>
<path d="M167.466 169.895L172.434 171.313C172.525 171.338 172.602 171.388 172.653 171.454C172.704 171.521 172.727 171.6 172.716 171.678L172.212 175.264C172.204 175.352 172.171 175.437 172.116 175.512C172.061 175.588 171.985 175.652 171.895 175.7C171.805 175.748 171.703 175.778 171.597 175.788C171.49 175.798 171.383 175.787 171.282 175.758C169.482 175.219 166.944 174.394 164.682 173.752C162.048 173.002 160.794 172.839 157.704 171.96C155.838 171.426 156.366 169.767 157.212 169.801C161.064 169.974 162.51 170.572 166.242 169.885C166.643 169.796 167.067 169.8 167.466 169.895Z" fill="#263238"/>
<path d="M195.99 55.6848C194.622 56.8899 193.29 57.9863 191.886 59.0877C190.482 60.189 189.066 61.2459 187.596 62.293C184.617 64.4421 181.428 66.3862 178.062 68.1059C177.16 68.5558 176.231 68.9679 175.278 69.3406C174.792 69.5382 174.27 69.7209 173.748 69.8987L172.926 70.1456C172.638 70.2247 172.326 70.2987 172.014 70.3679C169.551 70.8952 166.954 70.8248 164.538 70.1654C162.374 69.5631 160.385 68.5996 158.694 67.3355C157.903 66.7554 157.167 66.1263 156.492 65.4538C156.156 65.1229 155.838 64.7772 155.538 64.4265C155.238 64.0759 154.974 63.7351 154.656 63.3005L157.968 61.2311L158.916 61.8534C159.252 62.0707 159.594 62.2732 159.936 62.4757C160.612 62.8693 161.313 63.232 162.036 63.5622C163.338 64.1713 164.76 64.5876 166.236 64.792C167.452 64.9439 168.694 64.8263 169.836 64.4512L170.262 64.303L170.742 64.1203C171.072 63.982 171.402 63.8487 171.75 63.6808C172.434 63.3696 173.124 62.9893 173.826 62.6041C175.224 61.8238 176.616 60.9397 177.984 60.0063C179.352 59.0729 180.708 58.1048 182.052 57.1023C183.396 56.0997 184.716 55.0774 186.03 54.0451C187.344 53.0129 188.67 51.9412 189.9 50.9238L195.99 55.6848Z" fill="#263238"/>
<path d="M157.998 61.5425L154.998 57.7051L151.998 62.4957C151.998 62.4957 155.478 65.5133 157.2 64.1354L157.998 61.5425Z" fill="#CFACA8"/>
<path d="M151.368 57.0488L149.754 60.422L151.95 62.4963L154.974 57.7057L151.368 57.0488Z" fill="#CFACA8"/>
<path opacity="0.2" d="M169.836 161.281L168.582 165.929L173.136 167.228L174.39 162.575L169.836 161.281Z" fill="black"/>
<path opacity="0.2" d="M208.554 165.182H203.736L204.378 169.913H209.196L208.554 165.182Z" fill="black"/>
<path d="M215.922 55.5322C210.996 69.2522 211.518 83.8167 210.87 86.7751C207.126 86.3652 191.07 84.4292 183.36 83.5747C182.16 67.6817 186.816 57.0336 188.928 52.3072C189.341 51.3789 190.078 50.5717 191.046 49.9866C192.014 49.4015 193.17 49.0645 194.37 49.0179H194.436C195.144 48.9932 195.906 48.9784 196.698 48.9834C197.136 48.9834 197.58 48.9834 198.03 48.9834C201.673 49.2137 205.297 49.6161 208.884 50.1884C209.562 50.2922 210.252 50.4107 210.918 50.5342C211.584 50.6576 212.118 50.7762 212.718 50.8996H212.796C213.378 51.0249 213.924 51.2459 214.399 51.5495C214.875 51.853 215.27 52.2328 215.562 52.6658C215.855 53.0988 216.037 53.576 216.099 54.0687C216.161 54.5613 216.101 55.0592 215.922 55.5322Z" fill="#263238"/>
<path d="M202.86 60.0391L202.8 60.7502L208.452 61.5207L208.632 60.9379L202.86 60.0391Z" fill="white"/>
<path opacity="0.3" d="M198.03 49.0078C196.734 50.124 195.21 59.4287 197.1 63.7501C200.292 59.3892 206.7 51.5562 208.878 50.2129C205.293 49.6406 201.671 49.2382 198.03 49.0078Z" fill="white"/>
<path d="M209.454 40.0332C208.302 42.8286 206.754 48.0192 208.884 50.2071C208.08 50.8591 204.744 51.4073 201.684 51.022C199.17 50.706 197.97 49.8071 198.036 49.007C202.056 48.6712 202.344 46.2808 202.032 43.9744L209.454 40.0332Z" fill="#CFACA8"/>
<path opacity="0.2" d="M206.4 41.6387L202.032 43.955C202.112 44.4939 202.136 45.0375 202.104 45.5798C203.622 45.5798 205.884 44.4489 206.256 43.1845C206.415 42.6804 206.464 42.1569 206.4 41.6387Z" fill="black"/>
<path d="M199.008 38.0627C198.336 36.8082 198.084 34.3635 199.35 31.2126C200.382 28.6444 203.652 29.4741 205.914 29.9236C208.176 30.373 207.342 32.8868 205.698 34.7191C203.934 36.67 199.008 38.0627 199.008 38.0627Z" fill="#263238"/>
<path d="M212.112 36.0773C210.732 39.8456 210.162 42.1076 207.252 43.6139C202.884 45.8809 197.652 43.0213 197.652 38.9912C197.652 35.3612 199.89 29.81 204.852 29.1729C205.95 29.0262 207.075 29.1131 208.12 29.4253C209.165 29.7376 210.096 30.2649 210.824 30.957C211.552 31.649 212.052 32.4829 212.277 33.3791C212.503 34.2754 212.446 35.2043 212.112 36.0773Z" fill="#CFACA8"/>
<path d="M209.011 40.0025C208.207 38.8024 207.883 35.6465 208.651 33.1573C209.251 31.2707 212.983 30.841 215.053 31.7152C217.519 32.7573 217.057 34.802 215.203 36.4713C213.199 38.2789 209.011 40.0025 209.011 40.0025Z" fill="#263238"/>
<path d="M214.56 32.8719C216.408 32.783 217.632 30.7631 216.132 29.7951C214.368 28.6591 211.932 29.7951 209.712 27.2812C207.63 24.9205 202.464 24.5105 200.52 26.6293C199.404 27.8492 200.4 28.3381 197.406 29.8197C195.66 30.684 196.206 32.1509 196.656 32.8719C196.608 32.3287 196.884 30.931 198.51 30.6297C199.872 30.3778 200.676 31.3458 201.612 30.4766C201.612 30.4766 204.78 32.8719 210.78 33.2522C214.122 33.4646 214.56 32.8719 214.56 32.8719Z" fill="#263238"/>
<path d="M213 40.695C212.142 41.3885 210.986 41.7754 209.784 41.7717C208.194 41.7717 207.846 40.4876 208.662 39.4455C209.4 38.5072 211.116 37.3811 212.538 37.9046C213.96 38.4281 214.044 39.8357 213 40.695Z" fill="#CFACA8"/>
<path d="M167.238 164.576L174.948 166.768C174.948 166.768 182.496 142.282 184.86 130.083C185.58 126.369 187.188 121.233 189.132 115.761C191.586 108.846 194.532 101.398 196.986 95.5658C199.536 89.4219 201.45 85.0807 201.45 85.0807L184.65 83.2188C184.65 83.2188 173.436 114.625 171.45 126.616C169.44 139.072 167.238 164.576 167.238 164.576Z" fill="#263238"/>
<path opacity="0.2" d="M189.132 115.751C191.586 108.836 194.532 101.389 196.986 95.5558L195.48 92.3555C190.974 96.2275 188.862 108.831 189.132 115.751Z" fill="black"/>
<path d="M193.722 84.2109C193.722 84.2109 192.894 118.18 194.028 129.757C195.264 142.434 202.152 169 202.152 169H210.978C210.978 169 209.748 144.632 207.942 132.32C205.884 118.294 210.198 86.0383 210.198 86.0383L193.722 84.2109Z" fill="#263238"/>
<path d="M201.096 169.154H211.488V166.6L200.394 166.438L201.096 169.154Z" fill="#263238"/>
<path d="M166.206 164.447L175.392 167.065L176.418 164.625L166.626 161.281L166.206 164.447Z" fill="#263238"/>
<path d="M204.762 35.7806C204.672 36.0917 204.402 36.3041 204.162 36.2745C203.922 36.2448 203.784 35.9386 203.874 35.6275C203.964 35.3164 204.234 35.104 204.474 35.1336C204.714 35.1632 204.852 35.4695 204.762 35.7806Z" fill="#263238"/>
<path d="M200.49 34.9516C200.4 35.2627 200.13 35.48 199.89 35.4454C199.65 35.4109 199.518 35.1047 199.608 34.7935C199.698 34.4824 199.968 34.27 200.208 34.2996C200.448 34.3293 200.58 34.6404 200.49 34.9516Z" fill="#263238"/>
<path d="M201.804 35.3711C201.081 36.2349 200.217 37.0127 199.236 37.6825C199.451 37.8841 199.717 38.0447 200.016 38.153C200.314 38.2613 200.638 38.3148 200.964 38.3097L201.804 35.3711Z" fill="#A02724"/>
<path d="M202.32 39.4546C202.749 39.4913 203.183 39.4564 203.595 39.352C204.007 39.2476 204.39 39.0759 204.72 38.8471C204.742 38.8301 204.755 38.8064 204.756 38.7814C204.757 38.7564 204.746 38.7321 204.726 38.7137C204.705 38.6954 204.676 38.6846 204.646 38.6837C204.616 38.6827 204.586 38.6918 204.564 38.7088C204.19 38.9614 203.749 39.1378 203.277 39.2237C202.804 39.3095 202.314 39.3023 201.846 39.2027C201.831 39.1997 201.816 39.1992 201.801 39.2011C201.786 39.203 201.772 39.2072 201.759 39.2137C201.747 39.2201 201.735 39.2285 201.726 39.2385C201.718 39.2485 201.711 39.2598 201.708 39.2718C201.702 39.296 201.708 39.321 201.723 39.342C201.739 39.363 201.763 39.3785 201.792 39.3854C201.99 39.4151 202.158 39.4397 202.32 39.4546Z" fill="#263238"/>
<path d="M206.4 34.896C206.437 34.9055 206.477 34.9055 206.514 34.896C206.542 34.8864 206.566 34.8723 206.587 34.8545C206.608 34.8367 206.624 34.8157 206.635 34.7926C206.646 34.7695 206.651 34.7449 206.649 34.7202C206.648 34.6956 206.641 34.6714 206.628 34.6491C206.49 34.374 206.273 34.1304 205.996 33.9387C205.719 33.7471 205.391 33.613 205.038 33.5477C205.008 33.5435 204.978 33.5441 204.949 33.5495C204.919 33.5549 204.892 33.565 204.867 33.5792C204.843 33.5934 204.822 33.6115 204.806 33.6323C204.79 33.6532 204.779 33.6765 204.774 33.7008C204.765 33.7505 204.78 33.801 204.816 33.8416C204.852 33.8822 204.906 33.9096 204.966 33.9181C205.244 33.9732 205.503 34.0821 205.72 34.2358C205.937 34.3896 206.106 34.5837 206.214 34.8022C206.232 34.8297 206.259 34.8528 206.292 34.8692C206.324 34.8856 206.362 34.8949 206.4 34.896Z" fill="#263238"/>
<path d="M198.99 33.3859C199.028 33.3896 199.067 33.3851 199.103 33.373C199.139 33.3609 199.17 33.3416 199.194 33.3168C199.368 33.1292 199.593 32.9784 199.852 32.877C200.111 32.7757 200.396 32.7266 200.682 32.734C200.712 32.7367 200.742 32.7345 200.77 32.7275C200.799 32.7204 200.825 32.7087 200.848 32.6931C200.871 32.6774 200.89 32.6581 200.904 32.6363C200.918 32.6144 200.926 32.5906 200.928 32.5661C200.933 32.5173 200.916 32.4686 200.879 32.4301C200.842 32.3916 200.789 32.366 200.73 32.3587C200.367 32.3478 200.006 32.4084 199.677 32.5356C199.349 32.6627 199.062 32.8527 198.84 33.0896C198.821 33.1086 198.806 33.1307 198.797 33.1545C198.788 33.1783 198.784 33.2033 198.787 33.2281C198.79 33.253 198.799 33.2771 198.813 33.2991C198.827 33.3211 198.847 33.3406 198.87 33.3563C198.906 33.375 198.948 33.3852 198.99 33.3859Z" fill="#263238"/>
<path d="M202.998 174.595C203.423 174.585 203.845 174.537 204.258 174.452C204.281 174.448 204.301 174.438 204.317 174.424C204.333 174.41 204.344 174.392 204.348 174.373C204.35 174.355 204.346 174.337 204.336 174.32C204.327 174.304 204.312 174.29 204.294 174.279C204.12 174.19 202.566 173.405 202.032 173.627C201.973 173.653 201.923 173.691 201.888 173.738C201.854 173.785 201.835 173.839 201.834 173.894C201.823 173.986 201.839 174.079 201.881 174.165C201.923 174.251 201.989 174.327 202.074 174.388C202.345 174.54 202.67 174.613 202.998 174.595ZM203.928 174.319C203.112 174.452 202.482 174.427 202.218 174.245C202.16 174.204 202.115 174.152 202.088 174.093C202.061 174.034 202.052 173.971 202.062 173.909C202.06 173.886 202.066 173.864 202.079 173.844C202.091 173.824 202.11 173.807 202.134 173.795C202.41 173.677 203.298 174.018 203.928 174.339V174.319Z" fill="#3D6498"/>
<path d="M204.234 174.452C204.254 174.457 204.274 174.457 204.294 174.452C204.311 174.443 204.325 174.431 204.334 174.416C204.344 174.401 204.348 174.385 204.348 174.368C204.348 174.319 204.228 173.173 203.664 172.798C203.598 172.75 203.521 172.715 203.437 172.694C203.353 172.674 203.265 172.669 203.178 172.679C203.093 172.679 203.011 172.703 202.945 172.747C202.88 172.791 202.835 172.853 202.818 172.921C202.716 173.366 203.682 174.235 204.18 174.457L204.234 174.452ZM203.262 172.857C203.358 172.857 203.45 172.887 203.52 172.941C203.859 173.297 204.058 173.729 204.09 174.181C203.598 173.869 202.98 173.193 203.04 172.956C203.04 172.931 203.04 172.872 203.208 172.857H203.262Z" fill="#3D6498"/>
<path d="M166.8 170.259C166.821 170.259 166.841 170.254 166.859 170.246C166.877 170.237 166.892 170.224 166.902 170.209C166.915 170.193 166.922 170.174 166.922 170.155C166.922 170.136 166.915 170.117 166.902 170.101C166.734 169.957 165.222 168.668 164.562 168.767C164.501 168.776 164.444 168.798 164.396 168.83C164.348 168.862 164.31 168.903 164.286 168.95C164.238 169.026 164.212 169.111 164.212 169.197C164.212 169.283 164.238 169.368 164.286 169.444C164.634 169.938 166.002 170.175 166.782 170.264L166.8 170.259ZM164.628 168.95C165.012 168.95 165.876 169.543 166.476 170.031C165.414 169.883 164.676 169.631 164.49 169.35C164.457 169.301 164.44 169.245 164.44 169.189C164.44 169.133 164.457 169.078 164.49 169.029C164.497 169.008 164.511 168.99 164.53 168.976C164.549 168.962 164.573 168.953 164.598 168.95H164.628Z" fill="#3D6498"/>
<path d="M166.8 170.26H166.83C166.85 170.254 166.867 170.245 166.882 170.233C166.897 170.221 166.908 170.207 166.914 170.191C166.914 170.146 167.226 169.104 166.812 168.546C166.754 168.466 166.677 168.396 166.585 168.34C166.493 168.285 166.389 168.246 166.278 168.225C165.972 168.166 165.834 168.264 165.774 168.358C165.51 168.758 166.26 169.875 166.722 170.235C166.732 170.243 166.744 170.25 166.758 170.254C166.771 170.259 166.786 170.26 166.8 170.26ZM166.11 168.413H166.224C166.306 168.428 166.382 168.456 166.449 168.497C166.517 168.538 166.573 168.59 166.614 168.65C166.821 169.07 166.863 169.533 166.734 169.973C166.29 169.539 165.816 168.689 165.972 168.452C165.988 168.436 166.01 168.423 166.034 168.416C166.059 168.409 166.085 168.408 166.11 168.413Z" fill="#3D6498"/>
<path d="M214.5 51.6836C215.142 52.3948 215.7 53.0269 216.24 53.7134C216.78 54.3999 217.32 55.0667 217.848 55.7532C218.892 57.1262 219.874 58.5403 220.794 59.9956C221.732 61.4676 222.575 62.9794 223.32 64.5245C224.124 66.1489 224.738 67.8323 225.156 69.5522C225.264 70.0066 225.348 70.4757 225.414 70.9499C225.414 70.9844 225.414 71.1326 225.45 71.2264C225.486 71.3203 225.45 71.4437 225.45 71.5376C225.45 71.7401 225.45 71.9327 225.45 72.1105C225.42 72.4423 225.364 72.7723 225.282 73.0982C224.999 74.1043 224.553 75.0744 223.956 75.9825C222.973 77.4954 221.822 78.9305 220.518 80.2694C219.276 81.5633 217.986 82.7783 216.642 83.9389C215.298 85.0995 213.918 86.2058 212.412 87.2775L209.316 84.9909C211.338 82.4523 213.426 79.8743 215.19 77.3061C216.053 76.0952 216.807 74.8341 217.446 73.5329C217.686 73.0446 217.852 72.5336 217.938 72.0117C217.949 71.9544 217.949 71.8961 217.938 71.8389C217.86 71.5475 217.782 71.2511 217.674 70.9449C217.207 69.6389 216.619 68.3643 215.916 67.1322C215.178 65.8481 214.368 64.5492 213.48 63.27C212.592 61.9909 211.68 60.7216 210.702 59.4573C210.222 58.8317 209.732 58.2061 209.232 57.5805L207.75 55.768L214.5 51.6836Z" fill="#263238"/>
<path d="M210.6 84.5566L205.8 85.7617L210.108 89.5251C210.108 89.5251 213.774 87.7273 212.832 86.0235L210.6 84.5566Z" fill="#CFACA8"/>
<path d="M203.85 88.6203L207.33 91.4946L210.132 89.5241L205.824 85.7656L203.85 88.6203Z" fill="#CFACA8"/>
<path opacity="0.3" d="M193.044 84.8963C193.044 84.8963 193.962 79.7501 195.552 77.2461C195.882 79.4389 196.998 85.2025 196.998 85.2025L193.044 84.8963Z" fill="white"/>
<path d="M53.2996 33.7385L52.6997 33.748L52.9787 45.5989L53.5786 45.5894L53.2996 33.7385Z" fill="#3D6498"/>
<path d="M53.6673 49.3869L53.0674 49.3965L53.1873 54.4924L53.7872 54.4828L53.6673 49.3869Z" fill="#3D6498"/>
<path d="M171.672 21.6758H54.5103L57.5943 153.433H174.756L171.672 21.6758Z" fill="#3D6498"/>
<path opacity="0.8" d="M165.228 26.0117H61.71L64.59 148.776H168.102L165.228 26.0117Z" fill="white"/>
<path d="M165.21 25.3945H61.6982L65.9042 148.153H169.422L165.21 25.3945Z" fill="white"/>
<path opacity="0.2" d="M91.728 50.5293L97.278 36.918C100.707 37.9378 103.686 39.7793 105.832 42.2051C107.978 44.631 109.193 47.5302 109.32 50.5293C109.451 53.8992 108.104 57.1954 105.525 59.8146C102.945 62.4338 99.3066 64.2009 95.274 64.7926L91.728 50.5293Z" fill="#3D6498"/>
<path d="M91.7277 50.5284L95.2737 64.7916C94.2671 64.9354 93.2473 65.0081 92.2257 65.0089C87.5279 64.9699 83.0286 63.4442 79.6606 60.7481C76.2926 58.0521 74.3142 54.3926 74.1357 50.5284C74.069 48.6466 74.462 46.773 75.2912 45.0185C76.1204 43.2641 77.3691 41.6645 78.9632 40.3146C80.5573 38.9647 82.4644 37.8919 84.5714 37.1598C86.6785 36.4277 88.9426 36.0513 91.2297 36.0527C93.2919 36.0545 95.3381 36.3502 97.2777 36.9269L91.7277 50.5284Z" fill="#FFB441"/>
<path opacity="0.2" d="M135.6 50.5284L135.162 36.0527C139.849 36.0812 144.341 37.6015 147.696 40.2952C154.716 45.9155 155.034 55.161 148.398 60.7764C141.762 66.3918 130.536 66.3967 123.516 60.7764C120.898 58.685 119.104 55.9936 118.368 53.0521L135.6 50.5284Z" fill="#3D6498"/>
<path d="M135.6 50.5271L118.362 53.041C117.798 50.8989 117.852 48.6778 118.519 46.5558C119.186 44.4339 120.447 42.47 122.203 40.8217C123.958 39.1734 126.158 37.8865 128.626 37.0641C131.094 36.2417 133.762 35.9068 136.416 36.0861L135.6 50.5271Z" fill="#CF1313"/>
<path d="M157.236 136.833H76.314L75.252 105.995L75.894 105.99L76.932 136.305H157.218L157.236 136.833Z" fill="#3D6498"/>
<path d="M157.2 135.975C157.391 135.976 157.575 136.038 157.712 136.149C157.848 136.26 157.927 136.41 157.932 136.567C157.935 136.645 157.919 136.722 157.885 136.794C157.851 136.866 157.8 136.932 157.735 136.987C157.669 137.042 157.59 137.086 157.504 137.116C157.417 137.146 157.324 137.161 157.23 137.16C157.037 137.16 156.852 137.098 156.714 136.987C156.576 136.877 156.496 136.726 156.492 136.567C156.49 136.49 156.507 136.413 156.542 136.341C156.577 136.269 156.629 136.204 156.695 136.149C156.761 136.094 156.839 136.05 156.926 136.02C157.013 135.99 157.106 135.975 157.2 135.975Z" fill="#3D6498"/>
<path d="M76.2959 106.015C76.2881 105.857 76.2063 105.708 76.0676 105.598C75.9289 105.489 75.7441 105.428 75.5519 105.428C75.4581 105.428 75.3655 105.444 75.2794 105.475C75.1934 105.506 75.1156 105.55 75.0507 105.606C74.9858 105.661 74.9352 105.727 74.9017 105.799C74.8683 105.871 74.8527 105.948 74.8559 106.025C74.8606 106.183 74.9406 106.334 75.0787 106.444C75.2167 106.554 75.4018 106.614 75.5939 106.613C75.6881 106.613 75.7814 106.598 75.8682 106.567C75.955 106.537 76.0334 106.493 76.099 106.437C76.1645 106.381 76.2157 106.315 76.2495 106.243C76.2833 106.17 76.2991 106.093 76.2959 106.015Z" fill="#3D6498"/>
<path d="M79.1578 134.799L78.6958 134.428L88.2538 126.334H93.9658L96.5818 124.121H104.808L121.998 109.562H126.054L131.94 114.273H135.6L146.352 105.166H156.15L156.162 105.69H146.634L135.882 114.797H131.688L125.802 110.085H122.274L105.084 124.645H96.8578L94.2478 126.862H88.5298L79.1578 134.799Z" fill="#3D6498"/>
<path d="M79.4756 135.012C79.3745 135.096 79.2451 135.154 79.104 135.177C78.9629 135.201 78.8165 135.19 78.6833 135.145C78.5501 135.1 78.4361 135.023 78.3559 134.925C78.2757 134.826 78.2329 134.71 78.2329 134.592C78.2329 134.473 78.2757 134.357 78.3559 134.259C78.4361 134.16 78.5501 134.084 78.6833 134.039C78.8165 133.994 78.9629 133.983 79.104 134.006C79.2451 134.03 79.3745 134.088 79.4756 134.172C79.6097 134.284 79.6849 134.435 79.6849 134.592C79.6849 134.749 79.6097 134.9 79.4756 135.012Z" fill="#3D6498"/>
<path d="M156.138 106.019C156.232 106.019 156.325 106.004 156.411 105.974C156.497 105.944 156.575 105.9 156.641 105.845C156.706 105.79 156.758 105.724 156.792 105.652C156.826 105.581 156.842 105.504 156.84 105.427C156.835 105.269 156.756 105.119 156.62 105.008C156.483 104.898 156.3 104.835 156.108 104.834C156.014 104.834 155.921 104.849 155.834 104.879C155.748 104.909 155.669 104.953 155.603 105.008C155.537 105.063 155.485 105.129 155.45 105.201C155.416 105.272 155.398 105.349 155.4 105.427C155.406 105.585 155.486 105.735 155.624 105.845C155.762 105.956 155.946 106.018 156.138 106.019Z" fill="#3D6498"/>
<g opacity="0.2">
<path d="M79.0557 131.881L78.5938 131.51L89.9997 121.845H99.3657L105.714 126.932H112.812L119.01 121.677H126.978L129.576 119.479H137.262L142.548 115H145.14L157.206 124.665L156.768 125.036L144.888 115.528H142.824L137.538 120.008H129.858L127.26 122.206H119.286L113.088 127.456H105.468L99.1137 122.374H90.2817L79.0557 131.881Z" fill="#3D6498"/>
<path d="M79.3741 132.087C79.2733 132.172 79.1439 132.231 79.0026 132.255C78.8613 132.279 78.7144 132.268 78.5807 132.223C78.447 132.179 78.3326 132.102 78.252 132.003C78.1714 131.905 78.1284 131.789 78.1284 131.67C78.1284 131.551 78.1714 131.435 78.252 131.336C78.3326 131.238 78.447 131.161 78.5807 131.116C78.7144 131.072 78.8613 131.061 79.0026 131.085C79.1439 131.109 79.2733 131.167 79.3741 131.253C79.441 131.307 79.4941 131.372 79.5304 131.444C79.5667 131.515 79.5853 131.592 79.5853 131.67C79.5853 131.747 79.5667 131.824 79.5304 131.896C79.4941 131.968 79.441 132.033 79.3741 132.087Z" fill="#3D6498"/>
<path d="M156.462 125.254C156.562 125.335 156.689 125.389 156.828 125.411C156.966 125.433 157.108 125.42 157.238 125.376C157.368 125.331 157.478 125.255 157.556 125.159C157.634 125.063 157.675 124.95 157.675 124.834C157.675 124.718 157.634 124.605 157.556 124.509C157.478 124.412 157.368 124.337 157.238 124.292C157.108 124.247 156.966 124.235 156.828 124.257C156.689 124.278 156.562 124.333 156.462 124.414C156.328 124.526 156.252 124.677 156.252 124.834C156.252 124.991 156.328 125.142 156.462 125.254Z" fill="#3D6498"/>
</g>
<path d="M83.2977 80.9805H74.7177L74.4717 73.918H83.0517L83.2977 80.9805Z" fill="#3D6498"/>
<path d="M127.476 78.7282H88.3498L88.2598 76.1699H127.386L127.476 78.7282Z" fill="#E0E0E0"/>
<path d="M154.134 78.7282H132.366L132.276 76.1699H154.044L154.134 78.7282Z" fill="#E0E0E0"/>
<path d="M111.24 89.8708H88.728L88.644 87.3125H111.15L111.24 89.8708Z" fill="#E0E0E0"/>
<path d="M144.474 89.8708H116.13L116.04 87.3125H144.39L144.474 89.8708Z" fill="#E0E0E0"/>
<path opacity="0.2" d="M83.676 92.123H75.096L74.856 85.0605H83.436L83.676 92.123Z" fill="#3D6498"/>
<path d="M155.55 63.5371L205.254 86.5914L204.63 87.4952L155.256 63.9668L155.55 63.5371Z" fill="#E0E0E0"/>
</svg>
