<svg width="300" height="184" viewBox="0 0 300 184" fill="none" xmlns="http://www.w3.org/2000/svg">
<path d="M269.939 169.895H250.067V170.018H269.939V169.895Z" fill="#EBEBEB"/>
<path d="M198.732 171.238H193.518V171.362H198.732V171.238Z" fill="#EBEBEB"/>
<path d="M249.468 165.303H237.954V165.426H249.468V165.303Z" fill="#EBEBEB"/>
<path d="M57.3896 166.135H31.4756V166.258H57.3896V166.135Z" fill="#EBEBEB"/>
<path d="M66.5338 166.135H62.7358V166.258H66.5338V166.135Z" fill="#EBEBEB"/>
<path d="M135.09 168.223H78.8818V168.346H135.09V168.223Z" fill="#EBEBEB"/>
<path d="M143.04 139.876H27.1799C26.2713 139.876 25.3999 139.578 24.7574 139.049C24.1149 138.519 23.7539 137.801 23.7539 137.052V2.79949C23.7618 2.05476 24.1263 1.34274 24.7679 0.818434C25.4095 0.294126 26.2764 -2.85518e-05 27.1799 2.07862e-09H143.04C143.49 2.07863e-09 143.935 0.0730501 144.351 0.214981C144.767 0.356911 145.144 0.564943 145.462 0.827197C145.781 1.08945 146.033 1.40079 146.205 1.74344C146.377 2.08609 146.466 2.45334 146.466 2.82422V137.052C146.466 137.422 146.377 137.79 146.205 138.132C146.033 138.475 145.781 138.786 145.462 139.049C145.144 139.311 144.767 139.519 144.351 139.661C143.935 139.803 143.49 139.876 143.04 139.876ZM27.1799 0.0989225C26.3115 0.10023 25.4792 0.385173 24.8652 0.891345C24.2511 1.39752 23.9055 2.08366 23.9039 2.79949V137.052C23.9055 137.767 24.2511 138.454 24.8652 138.96C25.4792 139.466 26.3115 139.751 27.1799 139.752H143.04C143.908 139.751 144.741 139.466 145.355 138.96C145.969 138.454 146.314 137.767 146.316 137.052V2.79949C146.314 2.08366 145.969 1.39752 145.355 0.891345C144.741 0.385173 143.908 0.10023 143.04 0.0989225H27.1799Z" fill="#EBEBEB"/>
<path d="M272.82 139.876H156.96C156.052 139.876 155.18 139.578 154.538 139.049C153.895 138.519 153.534 137.801 153.534 137.052V2.79949C153.542 2.05476 153.907 1.34274 154.548 0.818434C155.19 0.294126 156.057 -2.85518e-05 156.96 2.07862e-09H272.82C273.729 2.07863e-09 274.6 0.297552 275.243 0.827197C275.885 1.35684 276.246 2.07519 276.246 2.82422V137.052C276.246 137.801 275.885 138.519 275.243 139.049C274.6 139.578 273.729 139.876 272.82 139.876ZM156.96 0.0989225C156.092 0.10023 155.259 0.385173 154.645 0.891345C154.031 1.39752 153.686 2.08366 153.684 2.79949V137.052C153.686 137.767 154.031 138.454 154.645 138.96C155.259 139.466 156.092 139.751 156.96 139.752H272.82C273.689 139.751 274.521 139.466 275.135 138.96C275.749 138.454 276.095 137.767 276.096 137.052V2.79949C276.095 2.08366 275.749 1.39752 275.135 0.891345C274.521 0.385173 273.689 0.10023 272.82 0.0989225H156.96Z" fill="#EBEBEB"/>
<path d="M300 161.936H0V162.059H300V161.936Z" fill="#EBEBEB"/>
<path d="M242.07 81.1657C250.272 75.8981 260.844 75.0622 269.07 69.7897L258.06 60.7383C249.858 66.0059 239.292 66.8418 231.06 72.1143L242.07 81.1657Z" fill="#F5F5F5"/>
<path d="M235.932 70.8432C242.19 67.9398 249.456 66.9951 255.66 64.0176C256.996 64.5642 258.533 64.6721 259.962 64.3193L264.57 68.113C264.234 68.5502 264.025 69.046 263.962 69.5612C263.898 70.0763 263.981 70.5965 264.204 71.0806C258 74.0483 250.728 74.9979 244.476 77.9062C243.142 77.3547 241.602 77.2467 240.174 77.6045L235.566 73.8059C235.901 73.3691 236.108 72.8742 236.172 72.3601C236.235 71.846 236.153 71.3267 235.932 70.8432Z" fill="#E6E6E6"/>
<path d="M246.336 72.0445C248.088 73.4888 251.166 74.1614 253.242 73.5679C255.318 72.9744 255.552 71.2976 253.8 69.8534C252.048 68.4091 249 67.7612 246.894 68.3349C244.788 68.9087 244.584 70.6002 246.336 72.0445Z" fill="#FAFAFA"/>
<path d="M234.084 24.191C239.682 28.0688 240.978 34.3998 236.94 38.3369L235.536 39.7119C231.516 43.6688 223.728 43.6688 218.136 39.8108C212.544 35.9529 211.248 29.6021 215.28 25.66L216.684 24.28C220.704 20.3479 228.486 20.3133 234.084 24.191Z" fill="#E0E0E0"/>
<path d="M236.931 38.3265C240.948 34.3908 239.671 28.055 234.077 24.1751C228.484 20.2952 220.693 20.3405 216.676 24.2762C212.658 28.2118 213.936 34.5476 219.529 38.4275C225.122 42.3074 232.913 42.2622 236.931 38.3265Z" fill="#F5F5F5"/>
<path d="M235.177 37.1095C238.496 33.8573 237.439 28.6202 232.814 25.4122C228.189 22.2042 221.749 22.24 218.429 25.4922C215.109 28.7444 216.167 33.9815 220.792 37.1895C225.416 40.3976 231.857 40.3618 235.177 37.1095Z" fill="#E0E0E0"/>
<path d="M231.636 34.241L232.836 35.3341L232.002 35.9573L230.802 34.8642C229.852 35.5157 228.66 35.8788 227.424 35.893L226.8 34.5823C227.836 34.588 228.846 34.3173 229.68 33.8107L227.532 31.8323C226.116 32.4011 224.532 32.9402 223.032 31.5751C221.94 30.5859 221.742 29.1416 223.17 27.821L221.97 26.7081L222.804 26.0898L224.004 27.1829C224.785 26.6664 225.727 26.3439 226.722 26.2531L227.37 27.5737C226.572 27.6542 225.808 27.8917 225.144 28.2661L227.316 30.2446C228.732 29.6708 230.316 29.107 231.822 30.4671C232.884 31.4663 233.064 32.9006 231.636 34.241ZM226.2 30.665L224.298 28.9091C224.037 29.1262 223.887 29.4177 223.879 29.7233C223.872 30.0289 224.006 30.3253 224.256 30.5512C224.778 31.0261 225.45 30.9222 226.2 30.665ZM230.562 31.5306C230.046 31.0359 229.362 31.1398 228.564 31.4316L230.46 33.1529C231.06 32.5198 231.03 31.9559 230.568 31.5306H230.562Z" fill="#F5F5F5"/>
<path d="M262.356 105.455C266.154 111.722 263.982 118.973 257.472 121.639L255.198 122.569C248.706 125.24 240.366 122.317 236.598 116.045C232.83 109.773 234.978 102.522 241.488 99.8563L243.762 98.9214C250.23 96.2505 258.552 99.1836 262.356 105.455Z" fill="#E0E0E0"/>
<path d="M257.467 121.641C263.959 118.974 266.148 111.726 262.355 105.453C258.562 99.179 250.225 96.2555 243.733 98.9226C237.24 101.59 235.052 108.838 238.845 115.111C242.637 121.385 250.975 124.308 257.467 121.641Z" fill="#F5F5F5"/>
<path d="M256.276 119.676C261.641 117.472 263.449 111.482 260.314 106.296C257.179 101.11 250.289 98.6936 244.923 100.898C239.558 103.102 237.75 109.092 240.885 114.278C244.02 119.464 250.911 121.88 256.276 119.676Z" fill="#E0E0E0"/>
<path d="M254.106 115.244L254.772 116.871L253.536 117.217L252.876 115.6C251.491 115.937 250.007 115.868 248.676 115.407L248.742 113.77C249.843 114.171 251.072 114.269 252.246 114.047L251.046 111.134C249.246 111.203 247.206 111.168 246.384 109.155C245.784 107.671 246.384 106.069 248.634 105.198L247.968 103.556L249.204 103.215L249.858 104.832C250.979 104.575 252.167 104.59 253.278 104.877L253.236 106.529C252.339 106.315 251.394 106.278 250.476 106.42L251.676 109.363C253.512 109.294 255.54 109.299 256.368 111.341C256.992 112.771 256.38 114.358 254.106 115.244ZM250.338 109.353L249.288 106.761C248.889 106.893 248.566 107.146 248.386 107.468C248.207 107.79 248.184 108.157 248.322 108.492C248.592 109.205 249.366 109.348 250.338 109.353ZM254.508 111.945C254.22 111.237 253.44 111.069 252.426 111.074L253.488 113.636C254.496 113.191 254.766 112.573 254.508 111.94V111.945Z" fill="#F5F5F5"/>
<path d="M91.2418 31.457L93.8218 32.5204C101.214 35.5474 103.68 43.7728 99.3718 50.8902C95.0638 58.0077 85.6078 61.3216 78.2398 58.3094L75.6598 57.2558C68.2678 54.2288 65.8018 46.0035 70.1158 38.886C74.4298 31.7686 83.8738 28.43 91.2418 31.457Z" fill="#E0E0E0"/>
<path d="M96.7999 49.8355C101.104 42.716 98.6185 34.49 91.2485 31.4622C83.8785 28.4344 74.4147 31.7514 70.1106 38.8708C65.8065 45.9903 68.292 54.2162 75.662 57.244C83.0321 60.2719 92.4958 56.9549 96.7999 49.8355Z" fill="#F5F5F5"/>
<path d="M94.4849 48.8841C98.0426 42.9993 95.9883 36.2 89.8965 33.6973C83.8047 31.1946 75.9823 33.9364 72.4246 39.8212C68.867 45.706 70.9213 52.5054 77.013 55.008C83.1048 57.5107 90.9272 54.7689 94.4849 48.8841Z" fill="#E0E0E0"/>
<path d="M80.8441 50.2473L79.8001 51.9933L78.4681 51.4492L79.5181 49.7181C78.0865 49.0745 76.9677 48.0439 76.3501 46.7999L78.0001 45.504C78.4965 46.5553 79.3907 47.4468 80.5501 48.0463L82.4281 44.9253C80.8921 43.7679 79.3141 42.4127 80.6281 40.2463C81.5881 38.6536 83.6281 37.7732 86.2861 38.5596L87.3541 36.7988L88.6801 37.338L87.6001 39.074C88.7494 39.6087 89.687 40.4057 90.3001 41.369L88.6561 42.6699C88.1444 41.9025 87.4209 41.2451 86.5441 40.7508L84.6421 43.9064C86.1841 45.0638 87.8041 46.4141 86.4961 48.5805C85.5721 50.1632 83.5321 51.0387 80.8441 50.2473ZM83.5561 43.026L85.2361 40.2512C84.7874 40.0922 84.2817 40.0815 83.8237 40.2215C83.3657 40.3615 82.9906 40.6413 82.7761 41.003C82.2961 41.7499 82.8001 42.378 83.5561 43.0309V43.026ZM84.3781 47.8633C84.8341 47.1016 84.3781 46.4536 83.5561 45.7908L81.9121 48.5458C83.1541 48.8574 83.9701 48.5458 84.3841 47.8633H84.3781Z" fill="#F5F5F5"/>
<path d="M65.916 103.231L68.034 102.647C74.106 100.965 80.934 104.363 83.304 110.215C85.674 116.066 82.704 122.164 76.644 123.836L74.526 124.42C68.454 126.102 61.632 122.704 59.262 116.852C56.892 111.001 59.856 104.903 65.916 103.231Z" fill="#E0E0E0"/>
<path d="M74.5259 124.426C80.5811 122.755 83.5633 116.657 81.1868 110.805C78.8103 104.954 71.9751 101.565 65.9199 103.236C59.8648 104.907 56.8826 111.005 59.2591 116.857C61.6355 122.709 68.4707 126.097 74.5259 124.426Z" fill="#F5F5F5"/>
<path d="M73.7797 122.588C78.7853 121.207 81.251 116.166 79.2869 111.33C77.3228 106.494 71.6727 103.693 66.6671 105.075C61.6614 106.456 59.1957 111.497 61.1598 116.333C63.1239 121.169 68.774 123.97 73.7797 122.588Z" fill="#E0E0E0"/>
<path d="M72.7138 118.241L73.3138 119.675L72.2278 119.977L71.6278 118.552C70.4125 118.844 69.1126 118.785 67.9438 118.384L67.9978 116.945C68.9678 117.296 70.0497 117.38 71.0818 117.182L70.0378 114.62C68.4238 114.68 66.6598 114.65 65.9338 112.874C65.4058 111.564 65.9338 110.154 67.9198 109.412L67.3198 107.963L68.4058 107.666L69.0058 109.09C69.9894 108.866 71.0302 108.878 72.0058 109.125L71.9698 110.584C71.1781 110.396 70.3441 110.362 69.5338 110.485L70.5898 113.077C72.2038 113.018 73.9918 113.023 74.7178 114.803C75.2518 116.055 74.7118 117.459 72.7138 118.241ZM69.3958 113.052L68.4718 110.792C68.1307 110.907 67.8542 111.123 67.6965 111.398C67.5389 111.672 67.5115 111.985 67.6198 112.276C67.8538 112.919 68.5378 113.047 69.3958 113.052ZM73.0618 115.332C72.8098 114.709 72.1258 114.561 71.2618 114.571L72.1918 116.826C73.0798 116.435 73.3198 115.886 73.0918 115.342L73.0618 115.332Z" fill="#F5F5F5"/>
<path d="M48.5342 86.1077C63.6602 87.6558 75.6722 95.8218 90.7982 97.37V78.5748C75.6722 77.0267 63.6602 68.8606 48.5342 67.3125V86.1077Z" fill="#F5F5F5"/>
<path d="M55.1461 70.1562C65.2861 72.4908 74.0041 77.7287 84.1861 79.9396C84.8801 81.6498 86.3393 83.0773 88.2661 83.9312V91.8054C87.3758 91.9719 86.5443 92.306 85.8365 92.7813C85.1288 93.2566 84.5639 93.8604 84.1861 94.5455C73.9861 92.3296 65.2861 87.0967 55.1461 84.7621C54.4533 83.0498 52.9911 81.6215 51.0601 80.7706V72.8964C51.9514 72.7305 52.7841 72.3968 53.493 71.9214C54.2018 71.4461 54.7676 70.8419 55.1461 70.1562Z" fill="#E6E6E6"/>
<path d="M64.4155 80.2946C64.4155 83.2919 66.7675 86.6157 69.6655 87.7731C72.5635 88.9305 74.9095 87.3972 74.9095 84.4048C74.9095 81.4124 72.5635 78.0837 69.6655 76.9263C66.7675 75.7689 64.4155 77.2973 64.4155 80.2946Z" fill="#FAFAFA"/>
<path d="M105.708 16.6091C112.098 23.3704 113.112 32.0854 119.508 38.8665L130.495 29.8102C124.105 23.0489 123.091 14.3338 116.695 7.55273L105.708 16.6091Z" fill="#F5F5F5"/>
<path d="M118.23 11.5498C121.752 16.7036 122.898 22.6983 126.51 27.8126C125.844 28.913 125.713 30.1816 126.144 31.3589L121.542 35.1526C121.011 34.8761 120.409 34.7053 119.785 34.6538C119.16 34.6023 118.529 34.6715 117.942 34.8558C114.342 29.7415 113.184 23.7469 109.662 18.5881C110.328 17.4877 110.459 16.2191 110.028 15.0417L114.636 11.248C115.166 11.5242 115.766 11.6952 116.39 11.7475C117.014 11.7999 117.644 11.7322 118.23 11.5498Z" fill="#E6E6E6"/>
<path d="M116.772 20.1247C115.02 21.569 114.204 24.0816 114.924 25.8127C115.644 27.5439 117.672 27.7219 119.424 26.2777C121.176 24.8334 121.992 22.3208 121.272 20.5847C120.552 18.8486 118.524 18.6755 116.772 20.1247Z" fill="#FAFAFA"/>
<path d="M150 184.001C214.25 184.001 266.334 181.494 266.334 178.402C266.334 175.309 214.25 172.803 150 172.803C85.7505 172.803 33.666 175.309 33.666 178.402C33.666 181.494 85.7505 184.001 150 184.001Z" fill="#F5F5F5"/>
<path d="M231.6 104.468C230.4 103.627 229.2 102.767 228 101.891L224.448 99.2699C223.805 98.8184 223.38 98.192 223.248 97.5041C223.161 96.9427 223.241 96.3721 223.482 95.8422C223.839 95.082 224.357 94.3802 225.012 93.7698C226.141 92.7051 227.441 91.7731 228.876 91L230.226 92.3058C229.251 93.2381 228.362 94.2301 227.568 95.2734C227.234 95.7008 226.987 96.1702 226.836 96.6633C226.794 96.8463 226.836 96.965 226.836 96.9502C226.836 96.9353 226.8 96.8216 226.836 96.8364L227.802 97.4151L228.768 98.0185C229.41 98.4241 230.046 98.8396 230.664 99.255C231.918 100.086 233.136 100.942 234.33 101.827L231.6 104.468Z" fill="#803E3C"/>
<path d="M233.893 105.388C231.757 105.645 226.825 101.52 226.825 101.52L230.203 98.3301C231.853 99.1944 233.384 100.204 234.769 101.342C236.737 103.034 236.233 105.106 233.893 105.388Z" fill="#3D6498"/>
<path opacity="0.7" d="M233.893 105.388C231.757 105.645 226.825 101.52 226.825 101.52L230.203 98.3301C231.853 99.1944 233.384 100.204 234.769 101.342C236.737 103.034 236.233 105.106 233.893 105.388Z" fill="white"/>
<path d="M228.415 91.7407L228.979 89.4902L231.439 91.0334C231.439 91.0334 230.791 93.0119 229.567 92.6904L228.415 91.7407Z" fill="#7F3E3B"/>
<path d="M230.862 87.834L232.428 89.7481L231.438 91.0341L228.978 89.4909L230.862 87.834Z" fill="#7F3E3B"/>
<path opacity="0.2" d="M232.963 103.158C231.967 103.86 229.735 103.227 228.415 102.752C229.969 103.89 232.297 105.388 233.689 105.388C233.851 104.152 233.917 102.495 232.963 103.158Z" fill="black"/>
<path d="M219.696 173.194L216.942 172.368L218.46 166.902L221.214 167.723L219.696 173.194Z" fill="#7F3E3B"/>
<path d="M241.404 176.206H238.488L237.654 170.627H240.576L241.404 176.206Z" fill="#7F3E3B"/>
<path d="M238.104 175.93H241.662C241.721 175.929 241.778 175.944 241.824 175.974C241.87 176.004 241.902 176.046 241.914 176.093L242.514 178.235C242.528 178.287 242.527 178.34 242.512 178.392C242.497 178.443 242.467 178.492 242.426 178.532C242.385 178.573 242.334 178.606 242.275 178.628C242.217 178.65 242.153 178.661 242.088 178.66C240.942 178.66 240.108 178.591 238.662 178.591C237.774 178.591 235.098 178.665 233.862 178.665C232.626 178.665 232.464 177.676 232.968 177.577C235.212 177.171 236.904 176.612 237.618 176.093C237.682 176.04 237.758 175.999 237.841 175.971C237.925 175.943 238.014 175.929 238.104 175.93Z" fill="#3D6498"/>
<path d="M216.846 171.907L219.972 172.461C220.029 172.472 220.079 172.497 220.116 172.534C220.153 172.57 220.174 172.616 220.176 172.664L220.218 174.855C220.22 174.908 220.207 174.96 220.18 175.008C220.153 175.057 220.114 175.099 220.064 175.132C220.014 175.166 219.955 175.189 219.893 175.201C219.83 175.213 219.765 175.213 219.702 175.201C218.58 174.988 216.96 174.642 215.544 174.395C213.888 174.098 212.862 173.826 210.918 173.48C209.718 173.272 209.658 172.238 210.174 172.233C212.514 172.233 213.93 172.604 216.108 171.966C216.343 171.89 216.599 171.869 216.846 171.907Z" fill="#3D6498"/>
<path opacity="0.2" d="M218.46 166.902L217.68 169.722L220.434 170.543L221.214 167.728L218.46 166.902Z" fill="black"/>
<path opacity="0.2" d="M240.576 170.631H237.654L238.086 173.505H241.008L240.576 170.631Z" fill="black"/>
<path d="M249.948 102.945C248.712 105.602 247.709 108.329 246.948 111.106C246.402 112.931 245.976 114.682 245.64 116.274C244.848 120.009 244.53 122.882 244.254 123.837L228.924 121.28C228.81 107.431 233.856 100.877 233.856 100.877C235.104 100.823 236.354 100.831 237.6 100.902L238.404 100.961C240.6 101.219 242.776 101.582 244.92 102.049C245.328 102.133 245.742 102.227 246.12 102.326C247.37 102.631 248.651 102.838 249.948 102.945Z" fill="#3D6498"/>
<path opacity="0.7" d="M249.948 102.945C248.712 105.602 247.709 108.329 246.948 111.106C246.402 112.931 245.976 114.682 245.64 116.274C244.848 120.009 244.53 122.882 244.254 123.837L228.924 121.28C228.81 107.431 233.856 100.877 233.856 100.877C235.104 100.823 236.354 100.831 237.6 100.902L238.404 100.961C240.6 101.219 242.776 101.582 244.92 102.049C245.328 102.133 245.742 102.227 246.12 102.326C247.37 102.631 248.651 102.838 249.948 102.945Z" fill="white"/>
<path d="M238.626 103.588C238.026 104.542 234.426 116.334 233.484 118.886C233.598 119.455 233.748 120.029 233.928 120.607C234.42 120.113 234.942 119.618 235.482 119.148C236.142 116.675 238.674 104.904 239.34 103.677L238.626 103.588Z" fill="#3D6498"/>
<path d="M238.608 104.324L238.356 103.047L239.484 102.85L240.168 103.369L238.608 104.324Z" fill="#3D6498"/>
<path d="M245.707 95.8867C244.891 97.5486 243.739 100.65 244.939 102.05C244.161 102.495 243.277 102.798 242.345 102.937C241.413 103.076 240.456 103.049 239.539 102.856C237.739 102.524 237.895 101.471 238.429 100.961C240.877 100.887 241.147 99.4479 241.057 98.0383L245.707 95.8867Z" fill="#7F3E3B"/>
<path d="M239.484 102.844C239.484 102.844 239.988 103.68 240.612 104.526C241.932 104.214 245.052 103.309 245.274 102.004C245.181 101.71 244.97 101.452 244.674 101.271C243.059 102.024 241.306 102.555 239.484 102.844Z" fill="white"/>
<path d="M239.484 102.846C238.79 103.155 238.15 103.541 237.582 103.993C236.856 103.355 237.954 101.05 238.344 100.843C238.732 100.699 239.164 100.659 239.58 100.729C239.58 100.729 238.2 102.331 239.484 102.846Z" fill="white"/>
<path opacity="0.2" d="M243.805 96.7656L241.051 98.0368C241.087 98.3658 241.087 98.6969 241.051 99.026C241.969 99.0705 243.385 98.4671 243.661 97.7103C243.78 97.4056 243.829 97.0852 243.805 96.7656Z" fill="black"/>
<path d="M240.391 89.8757C239.593 90.5928 238.789 92.3833 240.535 92.3487C242.281 92.3141 241.759 88.6441 240.391 89.8757Z" fill="#263238"/>
<path d="M247.092 93.8327C246.024 96.0535 245.538 97.3988 243.69 98.1753C240.912 99.3476 237.936 97.3691 238.176 94.9257C238.392 92.7247 240.096 89.485 243.144 89.307C243.818 89.2729 244.492 89.3801 245.102 89.6188C245.712 89.8574 246.239 90.2197 246.633 90.6717C247.028 91.1237 247.276 91.6506 247.357 92.2034C247.437 92.7562 247.346 93.3167 247.092 93.8327Z" fill="#7F3E3B"/>
<path d="M241.123 90.7518C239.323 90.0049 238.723 87.9276 241.723 87.3934L241.927 87.3587C242.085 87.3429 242.245 87.3533 242.399 87.3891C242.552 87.425 242.695 87.4857 242.82 87.5677C242.944 87.6496 243.048 87.7512 243.124 87.8665C243.2 87.9818 243.248 88.1085 243.265 88.2392C243.275 88.2881 243.291 88.3362 243.313 88.3826C243.822 87.9875 244.481 87.7484 245.179 87.705C245.343 87.7011 245.506 87.7265 245.657 87.7794C245.808 87.8324 245.943 87.9115 246.054 88.0116C246.164 88.1116 246.247 88.2301 246.297 88.359C246.347 88.4879 246.363 88.6242 246.343 88.7585C246.32 88.8531 246.324 88.9506 246.353 89.044C246.382 89.1374 246.436 89.2243 246.51 89.2985C246.585 89.3728 246.678 89.4325 246.784 89.4734C246.89 89.5143 247.006 89.5353 247.123 89.535C248.689 89.5697 250.519 90.5243 249.607 91.8102C250.933 93.1803 248.863 95.0796 245.935 95.2725C245.137 93.947 246.427 91.9834 246.427 91.9834C244.579 91.8581 242.778 91.4399 241.123 90.7518Z" fill="#263238"/>
<path d="M249.186 91.86C249.352 91.8506 249.512 91.8086 249.654 91.7376C249.795 91.6666 249.914 91.5686 250.001 91.4519C250.087 91.3352 250.138 91.2031 250.15 91.0667C250.162 90.9303 250.134 90.7936 250.068 90.668C251.07 91.3555 250.338 91.9985 249.186 91.86Z" fill="#263238"/>
<path d="M248.91 92.0273C249.066 91.9797 249.233 91.9637 249.398 91.9807C249.563 91.9976 249.721 92.0469 249.858 92.1244C249.995 92.202 250.107 92.3055 250.186 92.4263C250.264 92.5471 250.306 92.6817 250.308 92.8186C250.878 91.8492 249.894 91.503 248.91 92.0273Z" fill="#263238"/>
<path d="M247.404 96.0101C247.193 96.2519 246.924 96.4561 246.615 96.6108C246.306 96.7654 245.962 96.8673 245.604 96.9103C244.65 97.024 244.29 96.292 244.65 95.5996C245.01 94.9071 245.85 94.1652 246.768 94.368C246.967 94.4145 247.15 94.5009 247.299 94.6196C247.447 94.7383 247.558 94.8856 247.621 95.0482C247.684 95.2109 247.697 95.3838 247.66 95.5517C247.622 95.7195 247.534 95.877 247.404 96.0101Z" fill="#7F3E3B"/>
<path d="M216.87 168.886L221.532 170.28C221.532 170.28 225.174 157.064 227.106 149.739C227.969 146.84 229.03 143.983 230.286 141.182C232.05 137.067 234.162 132.64 235.866 129.178C237.666 125.533 239.004 122.961 239.004 122.961L228.924 121.279C228.924 121.279 221.238 139.521 219.51 146.727C217.716 154.225 216.87 168.886 216.87 168.886Z" fill="#263238"/>
<path opacity="0.6" d="M230.286 141.182C232.05 137.067 234.162 132.64 235.866 129.178L235.086 127.199C232.2 129.39 230.4 136.968 230.286 141.182Z" fill="black"/>
<path d="M234.366 122.17C234.366 122.17 232.566 142.944 232.458 150.031C232.338 157.772 236.724 172.927 236.724 172.927H242.076C242.076 172.927 239.94 159.251 240.654 151.584C241.446 143.013 244.254 123.822 244.254 123.822L234.366 122.17Z" fill="#263238"/>
<path d="M236.088 173.045H242.388L242.37 171.492L235.794 171.176L236.088 173.045Z" fill="#263238"/>
<path d="M216.247 168.84L221.833 170.433L222.439 168.949L216.337 167.119L216.247 168.84Z" fill="#263238"/>
<path d="M242.677 93.3097C242.605 93.4976 242.425 93.6114 242.281 93.5718C242.137 93.5322 242.077 93.3492 242.149 93.1662C242.221 92.9832 242.395 92.8645 242.545 92.9041C242.695 92.9437 242.749 93.1267 242.677 93.3097Z" fill="#263238"/>
<path d="M240.15 92.6115C240.078 92.7945 239.898 92.9083 239.754 92.8687C239.61 92.8291 239.55 92.6461 239.622 92.4631C239.694 92.2801 239.868 92.1614 240.018 92.201C240.168 92.2405 240.222 92.4235 240.15 92.6115Z" fill="#263238"/>
<path d="M240.918 92.9238C240.425 93.3933 239.856 93.8044 239.226 94.1455C239.347 94.2734 239.5 94.3791 239.673 94.4557C239.847 94.5324 240.038 94.5783 240.234 94.5907L240.918 92.9238Z" fill="#630F0F"/>
<path d="M243.72 92.8546C243.696 92.8522 243.674 92.8439 243.656 92.8306C243.637 92.8174 243.624 92.7999 243.618 92.7805C243.566 92.6424 243.476 92.5164 243.354 92.4124C243.232 92.3085 243.082 92.2296 242.916 92.182C242.899 92.1786 242.882 92.1722 242.868 92.1633C242.853 92.1543 242.841 92.143 242.832 92.13C242.823 92.117 242.817 92.1026 242.815 92.0877C242.813 92.0728 242.815 92.0578 242.82 92.0435C242.829 92.0149 242.851 91.9902 242.881 91.9745C242.911 91.9588 242.948 91.9534 242.982 91.9594C243.192 92.017 243.383 92.1147 243.538 92.2445C243.693 92.3743 243.809 92.5325 243.876 92.7063C243.888 92.7345 243.886 92.7653 243.87 92.7921C243.854 92.8189 243.826 92.8396 243.792 92.8497C243.77 92.8585 243.744 92.8603 243.72 92.8546Z" fill="#263238"/>
<path d="M239.346 91.5877C239.319 91.5839 239.294 91.5736 239.274 91.558C239.25 91.5355 239.237 91.5064 239.237 91.4764C239.237 91.4464 239.25 91.4174 239.274 91.3948C239.426 91.262 239.614 91.1612 239.823 91.101C240.032 91.0407 240.255 91.0227 240.474 91.0486C240.509 91.0556 240.54 91.0733 240.56 91.098C240.58 91.1227 240.588 91.1528 240.582 91.1821C240.579 91.197 240.573 91.2113 240.563 91.224C240.553 91.2368 240.54 91.2477 240.525 91.256C240.51 91.2644 240.492 91.2701 240.474 91.2727C240.456 91.2753 240.438 91.2747 240.42 91.2711C240.248 91.2525 240.072 91.2688 239.909 91.3188C239.746 91.3688 239.6 91.4509 239.484 91.558C239.469 91.5752 239.447 91.5874 239.421 91.5928C239.396 91.5982 239.37 91.5964 239.346 91.5877Z" fill="#263238"/>
<path d="M237.138 176.348C236.939 176.359 236.741 176.316 236.574 176.225C236.522 176.188 236.482 176.141 236.456 176.089C236.431 176.036 236.422 175.979 236.43 175.923C236.43 175.89 236.441 175.858 236.461 175.829C236.481 175.801 236.51 175.777 236.544 175.76C236.868 175.626 237.816 176.101 237.924 176.156C237.931 176.164 237.935 176.175 237.935 176.185C237.935 176.196 237.931 176.206 237.924 176.215C237.921 176.225 237.916 176.235 237.907 176.243C237.899 176.25 237.888 176.256 237.876 176.259C237.634 176.311 237.387 176.34 237.138 176.348ZM236.7 175.854C236.67 175.848 236.64 175.848 236.61 175.854C236.61 175.854 236.568 175.854 236.568 175.918C236.562 175.957 236.567 175.996 236.584 176.032C236.601 176.068 236.628 176.101 236.664 176.126C236.99 176.252 237.362 176.268 237.702 176.17C237.396 176.011 237.056 175.902 236.7 175.849V175.854Z" fill="#3D6498"/>
<path d="M237.888 176.266H237.852C237.552 176.132 236.958 175.603 237.018 175.336C237.028 175.294 237.055 175.257 237.094 175.23C237.134 175.203 237.183 175.188 237.234 175.187C237.287 175.18 237.342 175.183 237.394 175.195C237.445 175.207 237.493 175.228 237.534 175.257C237.788 175.533 237.934 175.865 237.954 176.211C237.96 176.22 237.963 176.229 237.963 176.239C237.963 176.248 237.96 176.257 237.954 176.266H237.888ZM237.288 175.276H237.252C237.162 175.276 237.156 175.321 237.156 175.336C237.12 175.494 237.498 175.895 237.798 176.083C237.775 175.807 237.652 175.543 237.444 175.326C237.4 175.298 237.344 175.284 237.288 175.286V175.276Z" fill="#3D6498"/>
<path d="M216.481 172.179C216.001 172.179 215.155 172.119 214.897 171.833C214.859 171.791 214.834 171.743 214.823 171.693C214.813 171.642 214.817 171.59 214.837 171.541C214.847 171.511 214.866 171.483 214.892 171.461C214.918 171.438 214.951 171.422 214.987 171.412C215.377 171.313 216.403 171.996 216.523 172.075C216.531 172.084 216.535 172.095 216.535 172.107C216.535 172.119 216.531 172.13 216.523 172.139C216.521 172.148 216.516 172.157 216.508 172.164C216.501 172.171 216.491 172.176 216.481 172.179ZM215.047 171.521C215.032 171.525 215.019 171.533 215.008 171.542C214.998 171.552 214.99 171.563 214.987 171.575C214.974 171.608 214.971 171.642 214.978 171.676C214.986 171.71 215.003 171.741 215.029 171.768C215.394 171.985 215.84 172.087 216.289 172.055C215.934 171.795 215.508 171.612 215.047 171.521Z" fill="#3D6498"/>
<path d="M216.48 172.179C216.473 172.183 216.465 172.185 216.456 172.185C216.448 172.185 216.44 172.183 216.432 172.179C216.12 171.991 215.562 171.363 215.676 171.106C215.706 171.047 215.778 170.977 215.97 170.992C216.109 171.007 216.236 171.066 216.324 171.155C216.521 171.458 216.596 171.804 216.54 172.145C216.539 172.155 216.535 172.165 216.527 172.174C216.52 172.183 216.51 172.19 216.498 172.194L216.48 172.179ZM215.88 171.096C215.82 171.096 215.808 171.126 215.802 171.136C215.73 171.289 216.096 171.774 216.402 172.011C216.434 171.735 216.365 171.458 216.204 171.215C216.14 171.149 216.048 171.106 215.946 171.096H215.88Z" fill="#3D6498"/>
<path opacity="0.2" d="M248.16 104.324L246.096 105.041V106.115C246.096 106.115 246.456 108.281 247.578 109.082C248.034 107.643 248.556 106.115 249.162 104.68C248.839 104.542 248.504 104.423 248.16 104.324Z" fill="black"/>
<path d="M248.592 103.592C249.432 103.483 250.338 103.384 251.202 103.255C252.066 103.127 252.942 103.013 253.788 102.865C254.598 102.735 255.399 102.569 256.188 102.37C256.491 102.285 256.787 102.186 257.076 102.073C257.104 102.055 257.134 102.04 257.166 102.029C257.125 102.067 257.086 102.109 257.052 102.152C256.968 102.291 257.016 102.271 257.052 102.207C257.112 101.958 257.134 101.704 257.118 101.45C257.109 101.119 257.076 100.789 257.022 100.461C256.932 99.7634 256.77 99.0512 256.608 98.329C256.446 97.6069 256.254 96.8848 256.044 96.1577C255.834 95.4306 255.636 94.6739 255.444 93.9814L257.394 93.373C257.832 94.0704 258.204 94.7728 258.594 95.485C258.984 96.1973 259.29 96.9243 259.608 97.6613C259.934 98.4134 260.211 99.1795 260.436 99.9563C260.556 100.371 260.648 100.79 260.712 101.213C260.8 101.704 260.81 102.203 260.742 102.696C260.679 103.094 260.518 103.476 260.268 103.819C260.176 103.943 260.07 104.059 259.95 104.165C259.836 104.269 259.782 104.299 259.698 104.368C259.554 104.478 259.402 104.581 259.242 104.675C258.747 104.954 258.218 105.191 257.664 105.382C256.729 105.701 255.766 105.962 254.784 106.164C252.926 106.562 251.035 106.846 249.126 107.014L248.592 103.592Z" fill="#803E3C"/>
<path d="M246.876 106.752C248.58 107.826 254.802 106.718 254.802 106.718L253.8 102.291C251.928 102.421 250.074 102.691 248.262 103.097C245.346 103.785 244.8 105.457 246.876 106.752Z" fill="#3D6498"/>
<path opacity="0.7" d="M246.876 106.752C248.58 107.826 254.802 106.718 254.802 106.718L253.8 102.291C251.928 102.421 250.074 102.691 248.262 103.097C245.346 103.785 244.8 105.457 246.876 106.752Z" fill="white"/>
<path d="M257.682 93.9214L257.892 91.5918L254.538 92.6404C254.538 92.6404 254.898 94.6534 256.218 94.6188L257.682 93.9214Z" fill="#7F3E3B"/>
<path d="M256.602 89.9941L253.878 90.9735L254.538 92.6403L257.892 91.5917L256.602 89.9941Z" fill="#7F3E3B"/>
<path d="M239.64 95.3906C240.5 95.3381 241.365 95.3563 242.22 95.445C242.08 95.7147 241.832 95.9368 241.518 96.0745C241.204 96.2121 240.842 96.257 240.492 96.2018C240.369 96.2005 240.248 96.1778 240.136 96.1351C240.025 96.0924 239.926 96.0307 239.845 95.9541C239.765 95.8774 239.705 95.7876 239.669 95.6904C239.634 95.5933 239.624 95.4911 239.64 95.3906Z" fill="white"/>
<path d="M131.16 29.2897H138.102L149.106 131.422H142.164C140.586 131.397 139.073 130.898 137.911 130.018C136.748 129.138 136.016 127.938 135.852 126.644L125.874 34.0726C125.792 33.4641 125.869 32.8482 126.098 32.2659C126.328 31.6836 126.705 31.1483 127.205 30.6958C127.705 30.2432 128.317 29.8837 128.999 29.6412C129.681 29.3988 130.418 29.279 131.16 29.2897Z" fill="#3D6498"/>
<path d="M220.014 131.422H144.222C142.453 131.401 140.755 130.844 139.453 129.857C138.15 128.87 137.334 127.522 137.16 126.07L127.458 34.6465C127.367 33.9645 127.453 33.2743 127.711 32.6219C127.968 31.9695 128.392 31.3699 128.953 30.863C129.514 30.3561 130.199 29.9536 130.964 29.6823C131.728 29.4111 132.554 29.2773 133.386 29.2899H209.172C210.941 29.3172 212.636 29.8771 213.938 30.8639C215.24 31.8507 216.059 33.1962 216.24 34.6465L225.942 126.07C226.033 126.752 225.946 127.442 225.688 128.093C225.43 128.745 225.006 129.344 224.445 129.851C223.885 130.357 223.199 130.759 222.435 131.03C221.671 131.301 220.846 131.434 220.014 131.422Z" fill="#3D6498"/>
<path opacity="0.5" d="M220.014 131.422H144.222C142.453 131.401 140.755 130.844 139.453 129.857C138.15 128.87 137.334 127.522 137.16 126.07L127.458 34.6465C127.367 33.9645 127.453 33.2743 127.711 32.6219C127.968 31.9695 128.392 31.3699 128.953 30.863C129.514 30.3561 130.199 29.9536 130.964 29.6823C131.728 29.4111 132.554 29.2773 133.386 29.2899H209.172C210.941 29.3172 212.636 29.8771 213.938 30.8639C215.24 31.8507 216.059 33.1962 216.24 34.6465L225.942 126.07C226.033 126.752 225.946 127.442 225.688 128.093C225.43 128.745 225.006 129.344 224.445 129.851C223.885 130.357 223.199 130.759 222.435 131.03C221.671 131.301 220.846 131.434 220.014 131.422Z" fill="white"/>
<path opacity="0.2" d="M144.978 119.754H219.216L209.826 32.6582H135.588L144.978 119.754Z" fill="black"/>
<path d="M148.224 118.562H222.462L209.826 32.6582H135.588L148.224 118.562Z" fill="#3D6498"/>
<path opacity="0.8" d="M148.224 118.562H222.462L209.826 32.6582H135.588L148.224 118.562Z" fill="white"/>
<path d="M205.272 56.4354H158.832C158.571 56.4306 158.321 56.3476 158.129 56.202C157.937 56.0563 157.816 55.858 157.788 55.644C157.774 55.543 157.787 55.4407 157.825 55.344C157.863 55.2473 157.925 55.1584 158.008 55.0831C158.091 55.0078 158.192 54.9478 158.305 54.9073C158.418 54.8667 158.541 54.8464 158.664 54.8477H205.104C205.367 54.8515 205.619 54.9346 205.813 55.0814C206.006 55.2281 206.128 55.4284 206.154 55.644C206.167 55.7451 206.153 55.8473 206.115 55.9437C206.076 56.0402 206.013 56.1288 205.929 56.2036C205.846 56.2784 205.744 56.3378 205.631 56.3777C205.518 56.4177 205.395 56.4374 205.272 56.4354Z" fill="#263238"/>
<path d="M203.826 60.9415H151.116C150.854 60.9376 150.602 60.8543 150.41 60.7074C150.217 60.5606 150.097 60.3604 150.072 60.1452C150.057 60.0442 150.069 59.9418 150.107 59.845C150.144 59.7482 150.207 59.6592 150.29 59.5841C150.373 59.5089 150.475 59.4495 150.589 59.4098C150.702 59.37 150.825 59.3509 150.948 59.3538H203.658C203.92 59.3565 204.171 59.4387 204.364 59.5848C204.556 59.7308 204.677 59.9304 204.702 60.1452C204.717 60.2464 204.705 60.3489 204.667 60.446C204.63 60.5431 204.567 60.6324 204.484 60.7079C204.401 60.7833 204.299 60.8433 204.186 60.8836C204.072 60.9239 203.95 60.9436 203.826 60.9415Z" fill="#263238"/>
<path d="M206.232 65.4414H151.596C151.334 65.4388 151.082 65.3567 150.888 65.2108C150.695 65.0648 150.573 64.8652 150.546 64.65C150.533 64.5485 150.545 64.4458 150.584 64.3488C150.622 64.2517 150.685 64.1625 150.769 64.0871C150.852 64.0117 150.954 63.9519 151.068 63.9117C151.182 63.8714 151.305 63.8516 151.428 63.8537H206.064C206.327 63.8575 206.578 63.9408 206.771 64.0877C206.963 64.2346 207.083 64.4347 207.108 64.65C207.123 64.7509 207.111 64.8533 207.074 64.9501C207.036 65.047 206.973 65.136 206.89 65.2111C206.807 65.2862 206.705 65.3457 206.592 65.3854C206.478 65.4251 206.356 65.4442 206.232 65.4414Z" fill="#263238"/>
<path d="M199.962 69.9471H152.076C151.813 69.9434 151.561 69.8602 151.368 69.7135C151.174 69.5667 151.053 69.3665 151.026 69.1508C151.013 69.0502 151.027 68.9484 151.065 68.8523C151.103 68.7562 151.166 68.6679 151.249 68.5931C151.332 68.5184 151.433 68.4589 151.545 68.4186C151.658 68.3784 151.779 68.3582 151.902 68.3594H199.8C200.061 68.3632 200.312 68.4458 200.505 68.5916C200.697 68.7375 200.818 68.9364 200.844 69.1508C200.858 69.2523 200.845 69.3549 200.807 69.452C200.768 69.5491 200.705 69.6383 200.622 69.7137C200.538 69.789 200.436 69.8489 200.323 69.8891C200.209 69.9294 200.086 69.9492 199.962 69.9471Z" fill="#263238"/>
<path d="M207.186 74.454H160.746C160.483 74.4503 160.231 74.3671 160.037 74.2204C159.844 74.0736 159.722 73.8734 159.696 73.6577C159.683 73.5564 159.697 73.454 159.735 73.3573C159.774 73.2606 159.837 73.1718 159.921 73.0966C160.004 73.0213 160.105 72.9615 160.219 72.921C160.332 72.8805 160.455 72.8601 160.578 72.8614H207C207.263 72.8651 207.515 72.9483 207.709 73.095C207.902 73.2418 208.024 73.442 208.05 73.6577C208.064 73.7579 208.051 73.8593 208.014 73.9553C207.977 74.0514 207.915 74.1398 207.834 74.215C207.752 74.2901 207.652 74.3502 207.541 74.3914C207.429 74.4326 207.308 74.4539 207.186 74.454Z" fill="#263238"/>
<path d="M205.254 78.955H153.054C152.792 78.9514 152.541 78.869 152.348 78.7232C152.154 78.5775 152.032 78.3784 152.004 78.1637C151.991 78.0622 152.003 77.9595 152.042 77.8624C152.08 77.7654 152.143 77.6762 152.227 77.6008C152.31 77.5254 152.412 77.4656 152.526 77.4253C152.64 77.3851 152.763 77.3653 152.886 77.3673H205.086C205.349 77.3711 205.601 77.4542 205.795 77.601C205.988 77.7478 206.11 77.948 206.136 78.1637C206.149 78.2647 206.136 78.3669 206.097 78.4633C206.058 78.5598 205.995 78.6484 205.912 78.7232C205.828 78.798 205.727 78.8574 205.613 78.8973C205.5 78.9373 205.378 78.957 205.254 78.955Z" fill="#263238"/>
<path d="M208.14 83.4599H153.54C153.277 83.4561 153.025 83.373 152.832 83.2262C152.638 83.0795 152.517 82.8793 152.49 82.6636C152.477 82.5625 152.489 82.4603 152.527 82.3636C152.565 82.2669 152.628 82.1779 152.71 82.1026C152.793 82.0273 152.895 81.9674 153.008 81.9268C153.121 81.8862 153.243 81.8659 153.366 81.8672H208.002C208.265 81.871 208.517 81.9541 208.711 82.1009C208.904 82.2477 209.026 82.4479 209.052 82.6636C209.066 82.7672 209.053 82.8721 209.013 82.9709C208.973 83.0698 208.907 83.1603 208.82 83.2361C208.733 83.3119 208.628 83.3712 208.51 83.4099C208.393 83.4485 208.266 83.4656 208.14 83.4599Z" fill="#263238"/>
<path d="M204.762 87.9609H153.984C153.722 87.9582 153.471 87.876 153.278 87.7299C153.086 87.5839 152.965 87.3843 152.94 87.1695C152.926 87.0683 152.937 86.9658 152.975 86.8687C153.013 86.7716 153.075 86.6823 153.158 86.6068C153.241 86.5313 153.343 86.4714 153.456 86.4311C153.57 86.3908 153.693 86.3711 153.816 86.3732H204.6C204.863 86.377 205.115 86.4601 205.309 86.6069C205.502 86.7536 205.624 86.9538 205.65 87.1695C205.664 87.2712 205.651 87.3741 205.612 87.4713C205.574 87.5685 205.51 87.6576 205.426 87.7327C205.342 87.8078 205.239 87.8671 205.124 87.9064C205.01 87.9458 204.886 87.9644 204.762 87.9609Z" fill="#263238"/>
<g opacity="0.3">
<path d="M205.272 56.4354H158.832C158.571 56.4306 158.321 56.3476 158.129 56.202C157.937 56.0563 157.816 55.858 157.788 55.644C157.774 55.543 157.787 55.4407 157.825 55.344C157.863 55.2473 157.925 55.1584 158.008 55.0831C158.091 55.0078 158.192 54.9478 158.305 54.9073C158.418 54.8667 158.541 54.8464 158.664 54.8477H205.104C205.367 54.8515 205.619 54.9346 205.813 55.0814C206.006 55.2281 206.128 55.4284 206.154 55.644C206.167 55.7451 206.153 55.8473 206.115 55.9437C206.076 56.0402 206.013 56.1288 205.929 56.2036C205.846 56.2784 205.744 56.3378 205.631 56.3777C205.518 56.4177 205.395 56.4374 205.272 56.4354Z" fill="white"/>
<path d="M203.826 60.9415H151.116C150.854 60.9376 150.602 60.8543 150.41 60.7074C150.217 60.5606 150.097 60.3604 150.072 60.1452C150.057 60.0442 150.069 59.9418 150.107 59.845C150.144 59.7482 150.207 59.6592 150.29 59.5841C150.373 59.5089 150.475 59.4495 150.589 59.4098C150.702 59.37 150.825 59.3509 150.948 59.3538H203.658C203.92 59.3565 204.171 59.4387 204.364 59.5848C204.556 59.7308 204.677 59.9304 204.702 60.1452C204.717 60.2464 204.705 60.3489 204.667 60.446C204.63 60.5431 204.567 60.6324 204.484 60.7079C204.401 60.7833 204.299 60.8433 204.186 60.8836C204.072 60.9239 203.95 60.9436 203.826 60.9415Z" fill="white"/>
<path d="M206.232 65.4414H151.596C151.334 65.4388 151.082 65.3567 150.888 65.2108C150.695 65.0648 150.573 64.8652 150.546 64.65C150.533 64.5485 150.545 64.4458 150.584 64.3488C150.622 64.2517 150.685 64.1625 150.769 64.0871C150.852 64.0117 150.954 63.9519 151.068 63.9117C151.182 63.8714 151.305 63.8516 151.428 63.8537H206.064C206.327 63.8575 206.578 63.9408 206.771 64.0877C206.963 64.2346 207.083 64.4347 207.108 64.65C207.123 64.7509 207.111 64.8533 207.074 64.9501C207.036 65.047 206.973 65.136 206.89 65.2111C206.807 65.2862 206.705 65.3457 206.592 65.3854C206.478 65.4251 206.356 65.4442 206.232 65.4414Z" fill="white"/>
<path d="M199.962 69.9471H152.076C151.813 69.9434 151.561 69.8602 151.367 69.7135C151.174 69.5667 151.052 69.3665 151.026 69.1508C151.013 69.0502 151.026 68.9484 151.065 68.8523C151.103 68.7562 151.166 68.6679 151.248 68.5931C151.331 68.5184 151.432 68.4589 151.545 68.4186C151.657 68.3784 151.779 68.3582 151.902 68.3594H199.8C200.061 68.3632 200.312 68.4458 200.504 68.5916C200.696 68.7375 200.817 68.9364 200.844 69.1508C200.857 69.2523 200.845 69.3549 200.806 69.452C200.768 69.5491 200.705 69.6383 200.621 69.7137C200.538 69.789 200.436 69.8489 200.322 69.8891C200.208 69.9294 200.085 69.9492 199.962 69.9471Z" fill="white"/>
<path d="M207.186 74.454H160.746C160.483 74.4503 160.231 74.3671 160.037 74.2204C159.844 74.0736 159.722 73.8734 159.696 73.6577C159.683 73.5564 159.697 73.454 159.735 73.3573C159.774 73.2606 159.837 73.1718 159.921 73.0966C160.004 73.0213 160.105 72.9615 160.219 72.921C160.332 72.8805 160.455 72.8601 160.578 72.8614H207C207.263 72.8651 207.515 72.9483 207.709 73.095C207.902 73.2418 208.024 73.442 208.05 73.6577C208.064 73.7579 208.051 73.8593 208.014 73.9553C207.977 74.0514 207.915 74.1398 207.834 74.215C207.752 74.2901 207.652 74.3502 207.541 74.3914C207.429 74.4326 207.308 74.4539 207.186 74.454Z" fill="white"/>
<path d="M205.254 78.955H153.054C152.792 78.9514 152.541 78.869 152.347 78.7232C152.154 78.5775 152.032 78.3784 152.004 78.1637C151.99 78.0622 152.003 77.9595 152.041 77.8624C152.08 77.7654 152.143 77.6762 152.226 77.6008C152.31 77.5254 152.412 77.4656 152.525 77.4253C152.639 77.3851 152.762 77.3653 152.886 77.3673H205.086C205.349 77.3711 205.601 77.4542 205.794 77.601C205.988 77.7478 206.109 77.948 206.136 78.1637C206.149 78.2647 206.135 78.3669 206.096 78.4633C206.058 78.5598 205.995 78.6484 205.911 78.7232C205.828 78.798 205.726 78.8574 205.613 78.8973C205.499 78.9373 205.377 78.957 205.254 78.955Z" fill="white"/>
<path d="M208.14 83.4618H153.54C153.277 83.4581 153.025 83.375 152.832 83.2282C152.638 83.0814 152.517 82.8812 152.49 82.6655C152.477 82.5645 152.489 82.4622 152.527 82.3655C152.565 82.2688 152.628 82.1799 152.71 82.1046C152.793 82.0293 152.895 81.9693 153.008 81.9287C153.121 81.8882 153.243 81.8679 153.366 81.8692H208.002C208.265 81.873 208.517 81.9561 208.711 82.1029C208.904 82.2496 209.026 82.4498 209.052 82.6655C209.066 82.7691 209.053 82.874 209.013 82.9729C208.973 83.0718 208.907 83.1623 208.82 83.2381C208.733 83.3139 208.628 83.3732 208.51 83.4118C208.393 83.4505 208.266 83.4675 208.14 83.4618Z" fill="white"/>
<path d="M204.762 87.9629H153.984C153.722 87.9602 153.471 87.8779 153.278 87.7319C153.086 87.5858 152.965 87.3863 152.94 87.1715C152.926 87.0703 152.937 86.9677 152.975 86.8706C153.013 86.7736 153.075 86.6843 153.158 86.6088C153.241 86.5333 153.343 86.4734 153.456 86.4331C153.57 86.3928 153.693 86.373 153.816 86.3752H204.6C204.863 86.3789 205.115 86.462 205.309 86.6088C205.502 86.7556 205.624 86.9558 205.65 87.1715C205.664 87.2731 205.651 87.376 205.612 87.4732C205.574 87.5704 205.51 87.6596 205.426 87.7347C205.342 87.8098 205.239 87.869 205.124 87.9084C205.01 87.9478 204.886 87.9663 204.762 87.9629Z" fill="white"/>
</g>
<path d="M162.204 42.7734H163.626L164.058 46.8836H167.142L167.244 47.8383H162.738L162.204 42.7734Z" fill="#263238"/>
<path d="M169.158 47.5808C168.635 47.365 168.187 47.0433 167.856 46.6459C167.517 46.2501 167.31 45.7879 167.256 45.3056C167.193 44.8431 167.295 44.3756 167.55 43.9602C167.795 43.5654 168.177 43.2399 168.648 43.0254C169.166 42.7923 169.749 42.6747 170.34 42.6841C170.951 42.6791 171.554 42.7962 172.098 43.0254C172.617 43.2453 173.064 43.5662 173.4 43.9602C173.741 44.3568 173.948 44.8212 174 45.3056C174.063 45.7664 173.96 46.2324 173.706 46.6459C173.458 47.0409 173.074 47.3663 172.602 47.5808C172.086 47.815 171.504 47.9327 170.916 47.922C170.305 47.9271 169.702 47.81 169.158 47.5808ZM171.774 46.7201C172.037 46.5791 172.246 46.3781 172.374 46.1414C172.516 45.8795 172.57 45.5907 172.53 45.3056C172.505 45.0065 172.39 44.7173 172.194 44.4647C172.005 44.2235 171.746 44.0254 171.439 43.8888C171.133 43.7522 170.79 43.6815 170.442 43.6832C170.103 43.6779 169.768 43.7497 169.476 43.891C169.21 44.0282 169.001 44.2281 168.876 44.4647C168.728 44.7272 168.672 45.0183 168.714 45.3056C168.738 45.6031 168.854 45.8907 169.05 46.1414C169.238 46.3826 169.495 46.5814 169.8 46.7201C170.111 46.8548 170.457 46.9245 170.808 46.9229C171.146 46.9285 171.48 46.8585 171.774 46.7201Z" fill="#263238"/>
<path d="M179.184 46.7501H176.334L175.902 47.8383H174.444L176.646 42.7734H178.05L181.338 47.8383H179.844L179.184 46.7501ZM178.644 45.8598L177.444 43.9209L176.676 45.8598H178.644Z" fill="#263238"/>
<path d="M187.074 42.7734L187.608 47.8383H186.444L183.054 44.7618L183.378 47.8383H181.974L181.44 42.7734H182.64L186.018 45.845L185.694 42.7734H187.074Z" fill="#263238"/>
<g opacity="0.3">
<path d="M162.204 42.7734H163.626L164.058 46.8836H167.142L167.244 47.8383H162.738L162.204 42.7734Z" fill="white"/>
<path d="M169.158 47.5808C168.635 47.365 168.187 47.0433 167.856 46.6459C167.517 46.2501 167.31 45.7879 167.256 45.3056C167.193 44.8431 167.295 44.3756 167.55 43.9602C167.795 43.5654 168.177 43.2399 168.648 43.0254C169.166 42.7923 169.749 42.6747 170.34 42.6841C170.951 42.6791 171.554 42.7962 172.098 43.0254C172.617 43.2453 173.064 43.5662 173.4 43.9602C173.741 44.3568 173.948 44.8212 174 45.3056C174.063 45.7664 173.96 46.2324 173.706 46.6459C173.458 47.0409 173.074 47.3663 172.602 47.5808C172.086 47.815 171.504 47.9327 170.916 47.922C170.305 47.9271 169.702 47.81 169.158 47.5808ZM171.774 46.7201C172.037 46.5791 172.246 46.3781 172.374 46.1414C172.516 45.8795 172.57 45.5907 172.53 45.3056C172.505 45.0065 172.39 44.7173 172.194 44.4647C172.005 44.2235 171.746 44.0254 171.439 43.8888C171.133 43.7522 170.79 43.6815 170.442 43.6832C170.103 43.6779 169.768 43.7497 169.476 43.891C169.21 44.0282 169.001 44.2281 168.876 44.4647C168.728 44.7272 168.672 45.0183 168.714 45.3056C168.738 45.6031 168.854 45.8907 169.05 46.1414C169.238 46.3826 169.495 46.5814 169.8 46.7201C170.111 46.8548 170.457 46.9245 170.808 46.9229C171.146 46.9285 171.48 46.8585 171.774 46.7201Z" fill="white"/>
<path d="M179.184 46.7501H176.334L175.902 47.8383H174.444L176.646 42.7734H178.05L181.338 47.8383H179.844L179.184 46.7501ZM178.644 45.8598L177.444 43.9209L176.676 45.8598H178.644Z" fill="white"/>
<path d="M187.073 42.7734L187.607 47.8383H186.443L183.053 44.7618L183.377 47.8383H181.973L181.439 42.7734H182.639L186.017 45.845L185.693 42.7734H187.073Z" fill="white"/>
</g>
<path d="M207.426 112.336H191.13C190.868 112.332 190.617 112.25 190.424 112.104C190.23 111.958 190.108 111.759 190.08 111.544C190.068 111.443 190.081 111.341 190.12 111.244C190.158 111.147 190.221 111.058 190.305 110.983C190.388 110.908 190.49 110.848 190.603 110.808C190.716 110.767 190.839 110.747 190.962 110.748H207.258C207.521 110.752 207.773 110.835 207.967 110.982C208.16 111.129 208.282 111.329 208.308 111.544C208.321 111.645 208.308 111.748 208.269 111.844C208.23 111.941 208.167 112.029 208.084 112.104C208 112.179 207.899 112.238 207.785 112.278C207.672 112.318 207.55 112.338 207.426 112.336Z" fill="#263238"/>
<path d="M189.942 109.591C189.91 109.559 189.885 109.522 189.87 109.482C189.855 109.442 189.85 109.401 189.855 109.359C189.86 109.318 189.875 109.277 189.899 109.241C189.924 109.204 189.957 109.172 189.996 109.146C191.148 108.449 192.396 107.627 193.596 106.806C193.964 105.164 194.926 103.652 196.356 102.469C197.292 101.801 197.988 101.88 198.408 102.068C198.547 102.125 198.667 102.21 198.757 102.314C198.847 102.419 198.904 102.54 198.924 102.667C199.074 103.656 196.686 105.555 194.334 107.187C194.287 107.454 194.315 107.727 194.418 107.984C194.463 108.083 194.546 108.168 194.654 108.226C194.762 108.284 194.89 108.312 195.018 108.305C196.338 108.374 197.058 107.81 197.748 107.247C198.534 106.618 199.338 105.975 200.814 106.569C202.11 107.098 202.14 107.627 202.068 108.082C202.057 108.135 202.057 108.188 202.068 108.241C202.433 108.386 202.833 108.464 203.238 108.468C204.013 108.54 204.797 108.419 205.487 108.119C206.177 107.819 206.742 107.355 207.108 106.787C207.159 106.721 207.238 106.674 207.33 106.656C207.422 106.637 207.519 106.649 207.6 106.688C207.65 106.707 207.695 106.734 207.732 106.768C207.769 106.801 207.798 106.841 207.815 106.884C207.833 106.927 207.841 106.972 207.837 107.018C207.833 107.063 207.817 107.107 207.792 107.148C207.359 107.82 206.689 108.368 205.871 108.721C205.053 109.074 204.125 109.215 203.208 109.126C202.2 109.022 201.714 108.879 201.456 108.632C201.374 108.539 201.318 108.432 201.291 108.319C201.264 108.206 201.267 108.09 201.3 107.979C201.342 107.721 201.372 107.524 200.526 107.177C199.68 106.831 199.134 107.118 198.336 107.761C197.538 108.404 196.698 109.072 195.048 108.983C194.761 108.976 194.483 108.899 194.248 108.762C194.014 108.625 193.835 108.433 193.734 108.211C193.661 108.062 193.614 107.906 193.596 107.746C192.336 108.592 191.196 109.314 190.512 109.725C190.464 109.747 190.411 109.762 190.357 109.767C190.302 109.773 190.246 109.769 190.193 109.757C190.14 109.744 190.09 109.723 190.047 109.695C190.004 109.666 189.968 109.631 189.942 109.591ZM197.862 102.577C197.505 102.62 197.175 102.757 196.92 102.968C195.871 103.835 195.092 104.9 194.652 106.069C196.68 104.586 198.252 103.245 198.162 102.686C198.162 102.662 198.162 102.647 198.102 102.622C198.028 102.59 197.945 102.575 197.862 102.577Z" fill="#263238"/>
<g opacity="0.3">
<path d="M207.426 112.336H191.13C190.868 112.332 190.616 112.25 190.423 112.104C190.23 111.958 190.108 111.759 190.08 111.544C190.067 111.443 190.081 111.341 190.119 111.244C190.158 111.147 190.221 111.058 190.304 110.983C190.388 110.908 190.489 110.848 190.603 110.808C190.716 110.767 190.838 110.747 190.962 110.748H207.258C207.521 110.752 207.773 110.835 207.966 110.982C208.16 111.129 208.281 111.329 208.308 111.544C208.321 111.645 208.307 111.748 208.268 111.844C208.23 111.941 208.167 112.029 208.083 112.104C208 112.179 207.898 112.238 207.785 112.278C207.671 112.318 207.549 112.338 207.426 112.336Z" fill="white"/>
<path d="M189.942 109.591C189.91 109.559 189.885 109.522 189.87 109.482C189.855 109.442 189.85 109.401 189.855 109.359C189.86 109.318 189.875 109.277 189.899 109.241C189.924 109.204 189.957 109.172 189.996 109.146C191.148 108.449 192.396 107.627 193.596 106.806C193.964 105.164 194.926 103.652 196.356 102.469C197.292 101.801 197.988 101.88 198.408 102.068C198.547 102.125 198.667 102.21 198.757 102.314C198.847 102.419 198.904 102.54 198.924 102.667C199.074 103.656 196.686 105.555 194.334 107.187C194.287 107.454 194.315 107.727 194.418 107.984C194.463 108.083 194.546 108.168 194.654 108.226C194.762 108.284 194.89 108.312 195.018 108.305C196.338 108.374 197.058 107.81 197.748 107.247C198.534 106.618 199.338 105.975 200.814 106.569C202.11 107.098 202.14 107.627 202.068 108.082C202.057 108.135 202.057 108.188 202.068 108.241C202.433 108.386 202.833 108.464 203.238 108.468C204.013 108.54 204.797 108.419 205.487 108.119C206.177 107.819 206.742 107.355 207.108 106.787C207.159 106.721 207.238 106.674 207.33 106.656C207.422 106.637 207.519 106.649 207.6 106.688C207.65 106.707 207.695 106.734 207.732 106.768C207.769 106.801 207.798 106.841 207.815 106.884C207.833 106.927 207.841 106.972 207.837 107.018C207.833 107.063 207.817 107.107 207.792 107.148C207.359 107.82 206.689 108.368 205.871 108.721C205.053 109.074 204.125 109.215 203.208 109.126C202.2 109.022 201.714 108.879 201.456 108.632C201.374 108.539 201.318 108.432 201.291 108.319C201.264 108.206 201.267 108.09 201.3 107.979C201.342 107.721 201.372 107.524 200.526 107.177C199.68 106.831 199.134 107.118 198.336 107.761C197.538 108.404 196.698 109.072 195.048 108.983C194.761 108.976 194.483 108.899 194.248 108.762C194.014 108.625 193.835 108.433 193.734 108.211C193.661 108.062 193.614 107.906 193.596 107.746C192.336 108.592 191.196 109.314 190.512 109.725C190.464 109.747 190.411 109.762 190.357 109.767C190.302 109.773 190.246 109.769 190.193 109.757C190.14 109.744 190.09 109.723 190.047 109.695C190.004 109.666 189.968 109.631 189.942 109.591ZM197.862 102.577C197.505 102.62 197.175 102.757 196.92 102.968C195.871 103.835 195.092 104.9 194.652 106.069C196.68 104.586 198.252 103.245 198.162 102.686C198.162 102.662 198.162 102.647 198.102 102.622C198.028 102.59 197.945 102.575 197.862 102.577Z" fill="white"/>
</g>
<path d="M158.328 26.8969H164.142L165.084 35.6416H159.27C158.303 35.6276 157.376 35.3218 156.664 34.7823C155.952 34.2427 155.504 33.5067 155.406 32.7135L155.094 29.825C155.044 29.4526 155.09 29.0756 155.23 28.7191C155.371 28.3627 155.601 28.035 155.908 27.7579C156.214 27.4809 156.588 27.2607 157.005 27.1123C157.422 26.9638 157.873 26.8904 158.328 26.8969Z" fill="#263238"/>
<path d="M184.2 35.6415H160.71C159.628 35.6255 158.589 35.283 157.792 34.6787C156.995 34.0745 156.494 33.2503 156.384 32.3622L156.15 30.176C156.097 29.7589 156.151 29.3371 156.31 28.9385C156.469 28.5399 156.728 28.1736 157.071 27.8638C157.414 27.5539 157.833 27.3075 158.3 27.1408C158.767 26.9741 159.271 26.891 159.78 26.8968H183.276C184.359 26.9127 185.397 27.2552 186.194 27.8595C186.992 28.4638 187.492 29.2879 187.602 30.176L187.836 32.3622C187.89 32.7798 187.835 33.202 187.676 33.6009C187.517 33.9999 187.257 34.3664 186.913 34.6764C186.57 34.9863 186.15 35.2326 185.683 35.399C185.215 35.5654 184.71 35.648 184.2 35.6415Z" fill="#263238"/>
<path opacity="0.5" d="M184.2 35.6415H160.71C159.628 35.6255 158.589 35.283 157.792 34.6787C156.995 34.0745 156.494 33.2503 156.384 32.3622L156.15 30.176C156.097 29.7589 156.151 29.3371 156.31 28.9385C156.469 28.5399 156.728 28.1736 157.071 27.8638C157.414 27.5539 157.833 27.3075 158.3 27.1408C158.767 26.9741 159.271 26.891 159.78 26.8968H183.276C184.359 26.9127 185.397 27.2552 186.194 27.8595C186.992 28.4638 187.492 29.2879 187.602 30.176L187.836 32.3622C187.89 32.7798 187.835 33.202 187.676 33.6009C187.517 33.9999 187.257 34.3664 186.913 34.6764C186.57 34.9863 186.15 35.2326 185.683 35.399C185.215 35.5654 184.71 35.648 184.2 35.6415Z" fill="white"/>
<path d="M184.02 32.1947C184.036 32.3041 184.023 32.415 183.982 32.5198C183.941 32.6247 183.873 32.7211 183.784 32.8026C183.694 32.8841 183.584 32.9489 183.461 32.9925C183.338 33.0361 183.206 33.0575 183.072 33.0554C182.787 33.0518 182.514 32.9622 182.304 32.8036C182.094 32.645 181.962 32.4283 181.932 32.1947C181.918 32.0851 181.932 31.9742 181.973 31.8693C182.015 31.7645 182.083 31.6681 182.173 31.5867C182.264 31.5053 182.374 31.4406 182.497 31.3971C182.62 31.3535 182.753 31.3321 182.886 31.3341C183.171 31.3378 183.443 31.4276 183.652 31.5863C183.861 31.745 183.992 31.9616 184.02 32.1947Z" fill="#263238"/>
<path d="M162.246 32.1947C162.261 32.3041 162.248 32.415 162.207 32.5198C162.167 32.6247 162.099 32.7211 162.009 32.8026C161.919 32.8841 161.809 32.9489 161.687 32.9925C161.564 33.0361 161.431 33.0575 161.298 33.0554C161.013 33.0518 160.74 32.9622 160.53 32.8036C160.319 32.645 160.187 32.4283 160.158 32.1947C160.143 32.0851 160.157 31.9742 160.199 31.8693C160.241 31.7645 160.309 31.6681 160.399 31.5867C160.489 31.5053 160.599 31.4406 160.722 31.3971C160.845 31.3535 160.978 31.3321 161.112 31.3341C161.396 31.3378 161.669 31.4276 161.878 31.5863C162.087 31.745 162.218 31.9616 162.246 32.1947Z" fill="#263238"/>
<path d="M188.652 104.828C187.633 104.811 186.652 104.507 185.871 103.967C185.089 103.428 184.555 102.685 184.356 101.861L184.212 101.223C184.096 100.81 184.088 100.382 184.189 99.9665C184.291 99.5513 184.499 99.1588 184.799 98.8153C185.1 98.4719 185.486 98.1855 185.933 97.9754C186.379 97.7652 186.874 97.6363 187.386 97.5971L207.432 95.8412C208.506 95.759 209.578 96.0153 210.432 96.5584C211.312 97.0998 211.917 97.8912 212.13 98.7792L212.28 99.4173C212.387 99.8336 212.389 100.264 212.286 100.681C212.182 101.097 211.976 101.492 211.68 101.841C211.379 102.179 210.995 102.462 210.552 102.669C210.109 102.876 209.619 103.003 209.112 103.043L189.072 104.799C188.934 104.823 188.79 104.828 188.652 104.828ZM207.918 96.4199C207.802 96.415 207.686 96.415 207.57 96.4199L187.524 98.1758C187.108 98.2078 186.704 98.3126 186.341 98.4832C185.978 98.6537 185.663 98.8862 185.418 99.165C185.174 99.449 185.005 99.7711 184.919 100.112C184.833 100.452 184.834 100.803 184.92 101.143L185.064 101.777C185.242 102.498 185.734 103.141 186.446 103.586C187.158 104.03 188.043 104.245 188.934 104.19L208.974 102.434C209.39 102.404 209.794 102.299 210.157 102.129C210.521 101.958 210.835 101.725 211.08 101.445C211.323 101.161 211.494 100.839 211.581 100.499C211.667 100.159 211.668 99.8074 211.584 99.4667L211.44 98.8336C211.262 98.1041 210.764 97.4543 210.042 97.0085C209.425 96.6388 208.68 96.4428 207.918 96.4496V96.4199Z" fill="#3D6498"/>
<path d="M188.676 101.782L187.152 101.916L186.978 102.539L186.552 102.573L187.296 100.076L187.704 100.041L189.564 102.311L189.132 102.351L188.676 101.782ZM188.472 101.52L187.578 100.407L187.23 101.629L188.472 101.52Z" fill="#3D6498"/>
<path d="M191.478 99.9373C191.601 100.002 191.706 100.087 191.785 100.188C191.865 100.288 191.918 100.402 191.94 100.521C191.974 100.631 191.975 100.747 191.944 100.858C191.913 100.969 191.849 101.072 191.76 101.159C191.54 101.339 191.247 101.445 190.938 101.456L190.23 101.515L190.398 102.237L189.99 102.277L189.432 99.8878L190.548 99.7938C190.868 99.7515 191.197 99.8022 191.478 99.9373ZM191.418 100.971C191.473 100.913 191.512 100.846 191.532 100.774C191.551 100.702 191.551 100.627 191.532 100.556C191.517 100.478 191.483 100.404 191.431 100.339C191.379 100.273 191.311 100.217 191.232 100.175C191.048 100.094 190.837 100.065 190.632 100.091L189.936 100.15L190.182 101.218L190.878 101.159C191.072 101.146 191.256 101.08 191.4 100.971H191.418Z" fill="#3D6498"/>
<path d="M194.4 99.6795C194.523 99.7444 194.627 99.8299 194.707 99.9305C194.786 100.031 194.839 100.144 194.862 100.263C194.896 100.374 194.898 100.489 194.866 100.6C194.835 100.711 194.772 100.814 194.682 100.901C194.465 101.084 194.17 101.19 193.86 101.198L193.152 101.262L193.32 101.984L192.912 102.019L192.354 99.635L193.47 99.536C193.791 99.4937 194.119 99.5444 194.4 99.6795ZM194.34 100.713C194.395 100.655 194.434 100.588 194.454 100.516C194.474 100.444 194.474 100.37 194.454 100.298C194.439 100.221 194.405 100.148 194.353 100.083C194.302 100.018 194.234 99.9632 194.154 99.9218C193.971 99.8395 193.76 99.8083 193.554 99.8328L192.858 99.8922L193.104 100.965L193.8 100.901C193.999 100.891 194.188 100.825 194.334 100.713H194.34Z" fill="#3D6498"/>
<path d="M197.736 101.599L196.95 100.901L196.77 100.926L196.062 100.99L196.23 101.713L195.822 101.752L195.264 99.3632L196.38 99.2642C196.702 99.2258 197.029 99.2781 197.31 99.4126C197.433 99.4765 197.537 99.5611 197.617 99.6609C197.696 99.7607 197.749 99.8733 197.772 99.9913C197.82 100.157 197.801 100.33 197.718 100.486C197.634 100.63 197.492 100.745 197.316 100.812L198.186 101.554L197.736 101.599ZM197.25 100.461C197.306 100.403 197.344 100.336 197.364 100.264C197.384 100.192 197.384 100.118 197.364 100.046C197.35 99.9684 197.315 99.8944 197.264 99.8288C197.212 99.7631 197.144 99.7073 197.064 99.6649C196.88 99.5843 196.67 99.5548 196.464 99.5808L195.768 99.6401L196.014 100.713L196.716 100.654C196.916 100.643 197.105 100.575 197.25 100.461Z" fill="#3D6498"/>
<path d="M199.278 101.327C199.025 101.245 198.801 101.11 198.63 100.936C198.456 100.762 198.338 100.554 198.288 100.333C198.232 100.119 198.251 99.8957 198.342 99.6898C198.422 99.4902 198.578 99.3169 198.786 99.1952C199.004 99.0659 199.261 98.9873 199.53 98.9676C199.804 98.9419 200.083 98.9738 200.339 99.0602C200.594 99.1467 200.82 99.2849 200.994 99.4622C201.169 99.6375 201.287 99.847 201.336 100.071C201.391 100.285 201.372 100.508 201.282 100.714C201.201 100.913 201.046 101.086 200.838 101.208C200.621 101.336 200.366 101.413 200.1 101.431C199.819 101.457 199.536 101.421 199.278 101.327ZM200.568 100.946C200.716 100.856 200.827 100.73 200.886 100.585C200.954 100.426 200.967 100.255 200.922 100.09C200.886 99.9234 200.8 99.7667 200.67 99.6354C200.542 99.5082 200.38 99.4081 200.196 99.3435C200.007 99.275 199.8 99.2511 199.596 99.2743C199.398 99.2862 199.208 99.3446 199.05 99.4425C198.901 99.5341 198.788 99.6596 198.726 99.8035C198.657 99.9622 198.644 100.134 198.69 100.298C198.729 100.464 198.815 100.62 198.942 100.753C199.071 100.881 199.236 100.981 199.422 101.045C199.611 101.11 199.818 101.134 200.022 101.114C200.219 101.101 200.408 101.043 200.568 100.946Z" fill="#3D6498"/>
<path d="M204.084 98.6055L203.4 101.103L202.992 101.138L201.192 98.8627L201.636 98.8231L203.124 100.693L203.724 98.6401L204.084 98.6055Z" fill="#3D6498"/>
<path d="M207 100.481L207.066 100.778L204.984 100.961L204.426 98.5765L206.454 98.3984L206.52 98.6952L204.906 98.8386L205.08 99.5707L206.514 99.4421L206.586 99.7339L205.146 99.8575L205.326 100.629L207 100.481Z" fill="#3D6498"/>
<path d="M207.191 98.3331L208.391 98.2292C208.677 98.2017 208.967 98.2287 209.237 98.3083C209.487 98.3837 209.708 98.5116 209.879 98.6793C210.056 98.8541 210.174 99.0638 210.221 99.2877C210.276 99.5 210.259 99.7205 210.173 99.9257C210.091 100.126 209.934 100.299 209.723 100.42C209.492 100.546 209.226 100.621 208.949 100.638L207.749 100.747L207.191 98.3331ZM208.865 100.312C209.08 100.299 209.286 100.241 209.465 100.143C209.62 100.059 209.738 99.9359 209.801 99.7922C209.869 99.6332 209.881 99.462 209.837 99.2976C209.803 99.1295 209.713 98.9724 209.579 98.8425C209.453 98.7144 209.287 98.617 209.099 98.5606C208.896 98.5003 208.678 98.48 208.463 98.5012L207.689 98.5705L208.109 100.361L208.865 100.312Z" fill="#3D6498"/>
<path d="M130.092 99.7184L129.546 98.8528C129.345 98.5368 129.281 98.1736 129.365 97.8236C129.449 97.4736 129.676 97.1578 130.008 96.9288L130.986 96.2512C131.317 96.0219 131.544 95.706 131.628 95.3559L132.456 91.9184C132.541 91.5686 132.478 91.2052 132.276 90.8896L131.4 89.5245C131.199 89.2085 131.135 88.8453 131.219 88.4953C131.303 88.1453 131.53 87.8295 131.862 87.6004L133.506 86.4628C133.842 86.2351 134.073 85.919 134.16 85.5676L135.504 80.0082L130.8 79.2267L126.114 78.4551L124.8 84.0145C124.717 84.3643 124.78 84.727 124.98 85.0433L125.97 86.6161C126.168 86.9326 126.231 87.2953 126.147 87.6448C126.063 87.9944 125.838 88.31 125.508 88.5402L124.062 89.5294C123.732 89.7577 123.505 90.0716 123.42 90.4197L122.592 93.882C122.507 94.2313 122.568 94.594 122.766 94.9108L123.366 95.8456C123.567 96.1616 123.63 96.5248 123.546 96.8748C123.462 97.2248 123.236 97.5406 122.904 97.7696L121.998 98.3978C121.666 98.6268 121.439 98.9426 121.355 99.2926C121.271 99.6426 121.335 100.006 121.536 100.322L121.902 100.905C122.103 101.221 122.166 101.585 122.082 101.935C121.998 102.285 121.772 102.6 121.44 102.829C121.108 103.058 120.881 103.374 120.795 103.724C120.71 104.073 120.773 104.437 120.972 104.754L122.124 106.579L124.164 106.91L126.204 107.246L128.112 105.921C128.444 105.692 128.671 105.376 128.756 105.027C128.841 104.677 128.779 104.314 128.58 103.997C128.379 103.681 128.315 103.318 128.399 102.968C128.483 102.618 128.71 102.302 129.042 102.073L129.642 101.652C129.973 101.42 130.197 101.102 130.279 100.751C130.361 100.399 130.295 100.035 130.092 99.7184Z" fill="#263238"/>
<path opacity="0.6" d="M130.092 99.7184L129.546 98.8528C129.345 98.5368 129.281 98.1736 129.365 97.8236C129.449 97.4736 129.676 97.1578 130.008 96.9288L130.986 96.2512C131.317 96.0219 131.544 95.706 131.628 95.3559L132.456 91.9184C132.541 91.5686 132.478 91.2052 132.276 90.8896L131.4 89.5245C131.199 89.2085 131.135 88.8453 131.219 88.4953C131.303 88.1453 131.53 87.8295 131.862 87.6004L133.506 86.4628C133.842 86.2351 134.073 85.919 134.16 85.5676L135.504 80.0082L130.8 79.2267L126.114 78.4551L124.8 84.0145C124.717 84.3643 124.78 84.727 124.98 85.0433L125.97 86.6161C126.168 86.9326 126.231 87.2953 126.147 87.6448C126.063 87.9944 125.838 88.31 125.508 88.5402L124.062 89.5294C123.732 89.7577 123.505 90.0716 123.42 90.4197L122.592 93.882C122.507 94.2313 122.568 94.594 122.766 94.9108L123.366 95.8456C123.567 96.1616 123.63 96.5248 123.546 96.8748C123.462 97.2248 123.236 97.5406 122.904 97.7696L121.998 98.3978C121.666 98.6268 121.439 98.9426 121.355 99.2926C121.271 99.6426 121.335 100.006 121.536 100.322L121.902 100.905C122.103 101.221 122.166 101.585 122.082 101.935C121.998 102.285 121.772 102.6 121.44 102.829C121.108 103.058 120.881 103.374 120.795 103.724C120.71 104.073 120.773 104.437 120.972 104.754L122.124 106.579L124.164 106.91L126.204 107.246L128.112 105.921C128.444 105.692 128.671 105.376 128.756 105.027C128.841 104.677 128.779 104.314 128.58 103.997C128.379 103.681 128.315 103.318 128.399 102.968C128.483 102.618 128.71 102.302 129.042 102.073L129.642 101.652C129.973 101.42 130.197 101.102 130.279 100.751C130.361 100.399 130.295 100.035 130.092 99.7184Z" fill="white"/>
<path opacity="0.2" d="M133.518 86.4488C133.846 86.2233 134.072 85.9131 134.16 85.5684L135.504 80.0089L133.158 79.6281L130.812 79.2423L126.126 78.4707L125.124 82.6007L129.816 83.3723L124.134 106.911L126.174 107.247L128.082 105.922C128.414 105.693 128.641 105.377 128.726 105.027C128.811 104.678 128.749 104.314 128.55 103.998C128.349 103.682 128.285 103.318 128.369 102.968C128.453 102.618 128.68 102.303 129.012 102.074L129.612 101.653C129.943 101.424 130.169 101.108 130.254 100.759C130.339 100.409 130.278 100.046 130.08 99.7291L129.534 98.8635C129.333 98.5475 129.269 98.1843 129.353 97.8343C129.437 97.4843 129.664 97.1685 129.996 96.9395L130.974 96.2618C131.305 96.0326 131.532 95.7167 131.616 95.3666L132.444 91.9291C132.529 91.5798 132.467 91.2171 132.27 90.9003L131.4 89.5252C131.199 89.2092 131.135 88.8461 131.219 88.4961C131.303 88.146 131.53 87.8303 131.862 87.6012L133.518 86.4488Z" fill="black"/>
<path d="M145.2 72.4115C143.958 71.1948 138.468 68.9493 135.522 68.4893C132.576 68.0293 126.468 68.326 124.758 69.0581C120.96 70.6804 118.596 76.4228 122.358 79.0245C123.876 80.073 129.696 81.2601 132.318 81.7794C134.94 82.2988 140.856 82.8379 142.8 82.373C147.6 81.2354 147.936 75.1071 145.2 72.4115ZM138.804 72.9061L130.404 71.5311C129.804 71.4322 129.714 70.809 130.308 70.6853C132.108 70.3144 133.95 70.1314 135.048 70.3094C136.146 70.4875 137.76 71.2393 139.248 72.1543C139.752 72.456 139.392 73.0051 138.78 72.9061H138.804Z" fill="#263238"/>
<path opacity="0.6" d="M145.2 72.4115C143.958 71.1948 138.468 68.9493 135.522 68.4893C132.576 68.0293 126.468 68.326 124.758 69.0581C120.96 70.6804 118.596 76.4228 122.358 79.0245C123.876 80.073 129.696 81.2601 132.318 81.7794C134.94 82.2988 140.856 82.8379 142.8 82.373C147.6 81.2354 147.936 75.1071 145.2 72.4115ZM138.804 72.9061L130.404 71.5311C129.804 71.4322 129.714 70.809 130.308 70.6853C132.108 70.3144 133.95 70.1314 135.048 70.3094C136.146 70.4875 137.76 71.2393 139.248 72.1543C139.752 72.456 139.392 73.0051 138.78 72.9061H138.804Z" fill="black"/>
<path d="M143.136 72.0757C141.894 70.8639 136.404 68.6382 133.452 68.1584C130.5 67.6786 124.398 67.9952 122.688 68.7222C118.89 70.3446 116.532 76.087 120.288 78.6886C121.812 79.7422 127.632 80.9243 130.254 81.4436C132.876 81.963 138.786 82.5021 140.736 82.0421C145.542 80.8995 145.89 74.7713 143.136 72.0757ZM136.734 72.5703L128.4 71.225C127.8 71.1211 127.71 70.4979 128.298 70.3792C130.098 70.0033 131.946 69.8203 133.044 70.0033C134.142 70.1863 135.75 70.9282 137.244 71.8432C137.712 72.1202 137.352 72.6692 136.734 72.5703Z" fill="#263238"/>
<path d="M131.316 72.3078C130.284 74.3238 128.347 75.933 125.91 76.7988C123.472 77.6646 120.723 77.7201 118.237 76.9535C115.751 76.1869 113.721 74.6577 112.571 72.6857C111.421 70.7137 111.241 68.4516 112.068 66.3725C114.054 61.5451 120.774 58.8692 126.042 60.6646L126.846 60.9416C127.03 61.0051 127.176 61.126 127.253 61.2779C127.329 61.4299 127.329 61.6006 127.254 61.7528C127.177 61.9046 127.03 62.0251 126.846 62.0881C126.662 62.1511 126.454 62.1515 126.27 62.0891L125.466 61.8121C121.038 60.2986 115.38 62.5392 113.568 66.5901C112.786 68.3668 112.879 70.325 113.826 72.046C114.774 73.767 116.5 75.1143 118.636 75.7997C120.773 76.4852 123.15 76.4545 125.259 75.7141C127.368 74.9738 129.043 73.5826 129.924 71.8379C132 67.7623 128.34 64.7946 124.596 63.5235L123.492 63.1426C123.308 63.0792 123.162 62.9583 123.085 62.8064C123.009 62.6544 123.008 62.4837 123.084 62.3315C123.122 62.2564 123.178 62.1882 123.248 62.1308C123.318 62.0734 123.401 62.0281 123.492 61.9973C123.584 61.9665 123.682 61.9509 123.78 61.9514C123.879 61.9519 123.977 61.9684 124.068 62.0001L125.178 62.376C130.86 64.3 133.326 68.3064 131.316 72.3078Z" fill="#263238"/>
<g opacity="0.5">
<path d="M131.316 72.3078C130.284 74.3238 128.347 75.933 125.91 76.7988C123.472 77.6646 120.723 77.7201 118.237 76.9535C115.751 76.1869 113.721 74.6577 112.571 72.6857C111.421 70.7137 111.241 68.4516 112.068 66.3725C114.054 61.5451 120.774 58.8692 126.042 60.6646L126.846 60.9416C127.03 61.0051 127.176 61.126 127.253 61.2779C127.329 61.4299 127.329 61.6006 127.254 61.7528C127.177 61.9046 127.03 62.0251 126.846 62.0881C126.662 62.1511 126.454 62.1515 126.27 62.0891L125.466 61.8121C121.038 60.2986 115.38 62.5392 113.568 66.5901C112.786 68.3668 112.879 70.325 113.826 72.046C114.774 73.767 116.5 75.1143 118.636 75.7997C120.773 76.4852 123.15 76.4545 125.259 75.7141C127.368 74.9738 129.043 73.5826 129.924 71.8379C132 67.7623 128.34 64.7946 124.596 63.5235L123.492 63.1426C123.308 63.0792 123.162 62.9583 123.085 62.8064C123.009 62.6544 123.008 62.4837 123.084 62.3315C123.122 62.2564 123.178 62.1882 123.248 62.1308C123.318 62.0734 123.401 62.0281 123.492 61.9973C123.584 61.9665 123.682 61.9509 123.78 61.9514C123.879 61.9519 123.977 61.9684 124.068 62.0001L125.178 62.376C130.86 64.3 133.326 68.3064 131.316 72.3078Z" fill="white"/>
</g>
<path d="M124.2 80.9097C123.804 78.4367 119.652 73.9852 116.874 73.0355C114.096 72.0859 107.328 72.8229 104.94 74.3314C99.6359 77.6849 92.6999 89.4368 94.7099 94.6896C95.5259 96.8164 100.83 99.1411 103.236 100.18C105.642 101.218 111.534 102.232 113.97 101.268C120 98.874 125.094 86.3702 124.2 80.9097ZM119.19 77.6552L111.312 74.9645C111.178 74.9286 111.064 74.855 110.989 74.7566C110.915 74.6582 110.884 74.5414 110.903 74.4264C110.923 74.3115 110.991 74.2058 111.095 74.1278C111.199 74.0499 111.333 74.0047 111.474 74C113.388 73.8269 115.266 73.8764 116.274 74.2276C117.282 74.5787 118.674 75.6421 119.874 76.8787C119.96 76.9632 120.009 77.069 120.014 77.1792C120.018 77.2894 119.978 77.3978 119.9 77.487C119.821 77.5763 119.708 77.6413 119.58 77.6718C119.451 77.7023 119.314 77.6964 119.19 77.6552Z" fill="#263238"/>
<path opacity="0.6" d="M124.2 80.9097C123.804 78.4367 119.652 73.9852 116.874 73.0355C114.096 72.0859 107.328 72.8229 104.94 74.3314C99.6359 77.6849 92.6999 89.4368 94.7099 94.6896C95.5259 96.8164 100.83 99.1411 103.236 100.18C105.642 101.218 111.534 102.232 113.97 101.268C120 98.874 125.094 86.3702 124.2 80.9097ZM119.19 77.6552L111.312 74.9645C111.178 74.9286 111.064 74.855 110.989 74.7566C110.915 74.6582 110.884 74.5414 110.903 74.4264C110.923 74.3115 110.991 74.2058 111.095 74.1278C111.199 74.0499 111.333 74.0047 111.474 74C113.388 73.8269 115.266 73.8764 116.274 74.2276C117.282 74.5787 118.674 75.6421 119.874 76.8787C119.96 76.9632 120.009 77.069 120.014 77.1792C120.018 77.2894 119.978 77.3978 119.9 77.487C119.821 77.5763 119.708 77.6413 119.58 77.6718C119.451 77.7023 119.314 77.6964 119.19 77.6552Z" fill="black"/>
<path d="M122.298 80.2514C121.908 77.7783 117.75 73.3268 114.972 72.3821C112.194 71.4374 105.426 72.1645 103.038 73.6731C97.74 77.0265 90.798 88.7785 92.838 94.0312C93.654 96.1581 98.964 98.4827 101.364 99.5264C103.764 100.57 109.662 101.574 112.098 100.61C118.092 98.2156 123.168 85.7119 122.298 80.2514ZM117.27 76.9968L109.386 74.3062C109.252 74.2702 109.138 74.1966 109.063 74.0982C108.989 73.9999 108.958 73.883 108.978 73.7681C108.997 73.6531 109.065 73.5474 109.169 73.4695C109.273 73.3915 109.407 73.3463 109.548 73.3417C111.462 73.1686 113.34 73.218 114.348 73.5692C115.356 73.9204 116.748 74.9838 117.948 76.2203C118.032 76.3046 118.081 76.4096 118.085 76.5188C118.089 76.628 118.05 76.7354 117.972 76.8241C117.895 76.9128 117.784 76.9779 117.657 77.0091C117.53 77.0404 117.394 77.0361 117.27 76.9968Z" fill="#263238"/>
<path d="M116.796 86.8987L101.274 81.6113C100.126 83.1701 99.1467 84.8085 98.3457 86.508L114.702 92.0921C115.584 90.4152 116.285 88.6773 116.796 86.8987Z" fill="#3D6498"/>
<path d="M97.7344 87.9023C96.9124 89.9995 96.5344 91.9136 97.0084 93.1007C97.0624 93.1996 97.7464 94.2878 103.074 96.563C104.97 97.3741 109.074 97.8292 109.986 97.478C111.324 96.9438 112.716 95.3907 113.928 93.4321L97.7344 87.9023Z" fill="#3D6498"/>
<path d="M117.162 85.4099C117.42 84.3154 117.489 83.1964 117.366 82.0861C117.15 80.7506 114.156 77.5307 112.65 77.0163C111.144 76.5019 106.26 77.0163 104.964 77.8473C103.932 78.5626 103.029 79.3953 102.282 80.3203L117.162 85.4099Z" fill="#3D6498"/>
<path d="M109.507 87.0844L106.314 85.9941L105.35 87.9134L108.543 89.0036L109.507 87.0844Z" fill="white"/>
<path d="M108.846 87.3893L108.414 87.2409L108.888 86.2962C108.941 86.2149 108.972 86.1255 108.98 86.0338C108.988 85.942 108.972 85.8498 108.934 85.7633C108.896 85.6767 108.837 85.5977 108.759 85.5313C108.682 85.465 108.589 85.4127 108.485 85.3779C108.382 85.3431 108.271 85.3266 108.159 85.3294C108.048 85.3323 107.938 85.3543 107.838 85.3943C107.737 85.4342 107.648 85.4911 107.576 85.5612C107.503 85.6314 107.45 85.7133 107.418 85.8016L106.944 86.7463L106.512 86.5979L106.986 85.6532C107.041 85.5175 107.13 85.3926 107.246 85.2864C107.362 85.1801 107.504 85.0946 107.662 85.0353C107.82 84.976 107.991 84.9441 108.164 84.9416C108.338 84.9391 108.51 84.966 108.671 85.0207C108.831 85.0755 108.976 85.1568 109.097 85.2597C109.217 85.3626 109.311 85.4848 109.372 85.6188C109.433 85.7528 109.46 85.8957 109.451 86.0386C109.442 86.1815 109.397 86.3214 109.32 86.4495L108.846 87.3893Z" fill="white"/>
<path d="M106.306 93.4281L103.113 92.3379L102.149 94.2571L105.342 95.3474L106.306 93.4281Z" fill="white"/>
<path d="M103.758 93.087L103.326 92.9386L103.8 91.9989C103.855 91.8632 103.944 91.7384 104.06 91.6321C104.176 91.5258 104.318 91.4403 104.476 91.381C104.634 91.3217 104.805 91.2898 104.978 91.2873C105.152 91.2848 105.324 91.3117 105.485 91.3664C105.645 91.4212 105.79 91.5025 105.911 91.6054C106.031 91.7083 106.125 91.8305 106.186 91.9645C106.247 92.0985 106.274 92.2414 106.265 92.3843C106.256 92.5272 106.211 92.6671 106.134 92.7952L105.696 92.6468C105.742 92.5667 105.767 92.4799 105.77 92.3916C105.774 92.3033 105.755 92.2153 105.716 92.133C105.677 92.0507 105.618 91.9757 105.543 91.9127C105.468 91.8497 105.378 91.8 105.279 91.7665C105.18 91.7329 105.073 91.7164 104.966 91.7178C104.859 91.7192 104.753 91.7385 104.655 91.7745C104.557 91.8106 104.469 91.8627 104.397 91.9276C104.324 91.9925 104.268 92.0689 104.232 92.1522L103.758 93.087Z" fill="white"/>
<path d="M114.084 80.5971L112.758 80.142L111.648 78.6582L109.986 81.9671L112.044 81.5616L113.37 82.0166L114.084 80.5971Z" fill="white"/>
<path d="M108.276 81.3293C107.975 80.7256 107.976 80.0484 108.279 79.4453C108.581 78.8421 109.16 78.3619 109.89 78.1094L110.13 78.604C109.843 78.702 109.583 78.8457 109.363 79.0268C109.144 79.2079 108.97 79.4228 108.851 79.6594C108.732 79.8959 108.671 80.1494 108.672 80.4054C108.672 80.6614 108.733 80.9148 108.852 81.1512L108.276 81.3293Z" fill="white"/>
<path d="M109.638 80.8646C109.485 80.5589 109.485 80.2156 109.637 79.9097C109.79 79.6038 110.084 79.3603 110.454 79.2324L110.694 79.727C110.477 79.8038 110.305 79.9476 110.214 80.1277C110.169 80.2162 110.146 80.3112 110.146 80.4071C110.146 80.503 110.169 80.598 110.214 80.6866L109.638 80.8646Z" fill="white"/>
<path d="M49.2537 168.405L86.8677 169.419H170.07L205.968 167.915V161.451L201.366 155.97L188.85 152.325L172.968 155.97L166.668 160.872L95.4237 161.451L81.4677 153.067L70.5597 149.822L54.5697 153.23L50.6697 159.126L48.3657 165.061L49.2537 168.405Z" fill="#263238"/>
<path opacity="0.6" d="M49.2537 168.405L86.8677 169.419H170.07L205.968 167.915V161.451L201.366 155.97L188.85 152.325L172.968 155.97L166.668 160.872L95.4237 161.451L81.4677 153.067L70.5597 149.822L54.5697 153.23L50.6697 159.126L48.3657 165.061L49.2537 168.405Z" fill="black"/>
<path d="M51.4438 163.503C52.7998 160.797 58.1158 156.296 61.3858 155.169C64.5658 154.07 72.1138 153.863 75.1858 155.169C78.4258 156.548 82.5238 162.093 83.6338 164.967C84.0418 166.025 83.9218 168.568 83.7898 170.244L172.59 171.016C172.404 168.983 172.278 166.179 172.86 165.006C174.204 162.306 179.532 157.805 182.802 156.677C185.982 155.574 193.53 155.371 196.602 156.677C199.842 158.052 203.946 163.602 205.056 166.475C205.323 167.57 205.412 168.69 205.32 169.804C206.001 169.391 206.607 168.9 207.12 168.345L207.954 167.415C209.069 166.178 209.67 164.678 209.67 163.137V160.748C209.669 159.431 209.231 158.14 208.404 157.013L206.268 154.12V134.454C206.269 133.487 206.032 132.53 205.572 131.64L197.04 115.105C196.39 113.846 195.318 112.766 193.949 111.992C192.58 111.218 190.971 110.783 189.312 110.738C180.15 110.48 162.174 110.035 154.872 110.243C144.252 110.54 115.776 112.934 107.286 113.661C105.718 113.796 104.245 114.344 103.086 115.224L77.8858 134.316L52.7998 143.313C51.7528 143.692 50.8279 144.268 50.0987 144.995C49.3695 145.721 48.8562 146.578 48.5998 147.497L46.2358 155.905L45.4498 156.751C44.2867 158.008 43.7637 159.589 43.9918 161.158L44.4778 164.433C44.7083 165.985 45.6587 167.403 47.1298 168.389L47.4418 168.597C48.5215 169.324 49.8312 169.781 51.2158 169.913C50.9998 167.875 50.8198 164.749 51.4438 163.503Z" fill="#3D6498"/>
<path d="M67.128 179.651C74.6667 179.651 80.778 174.613 80.778 168.399C80.778 162.184 74.6667 157.146 67.128 157.146C59.5893 157.146 53.478 162.184 53.478 168.399C53.478 174.613 59.5893 179.651 67.128 179.651Z" fill="#263238"/>
<path opacity="0.5" d="M67.1282 176.24C72.3804 176.24 76.6382 172.73 76.6382 168.4C76.6382 164.07 72.3804 160.561 67.1282 160.561C61.8759 160.561 57.6182 164.07 57.6182 168.4C57.6182 172.73 61.8759 176.24 67.1282 176.24Z" fill="white"/>
<g opacity="0.5">
<path d="M63.6 165.822L62.94 164.19C62.8706 164.016 62.747 163.859 62.5816 163.736C62.4162 163.613 62.2147 163.528 61.997 163.489C61.7793 163.45 61.553 163.458 61.3406 163.514C61.1282 163.569 60.937 163.669 60.786 163.804C60.0441 164.496 59.4771 165.304 59.118 166.178C59.0508 166.354 59.0404 166.541 59.0879 166.722C59.1354 166.902 59.2392 167.068 59.3889 167.205C59.5386 167.342 59.7291 167.445 59.9415 167.502C60.154 167.56 60.3809 167.571 60.6 167.534L62.64 167.192C62.8181 167.163 62.9865 167.103 63.1341 167.015C63.2817 166.928 63.405 166.816 63.4958 166.686C63.5867 166.557 63.6429 166.413 63.6609 166.264C63.6789 166.115 63.6581 165.964 63.6 165.822Z" fill="black"/>
<path d="M68.0879 164.61L69.4679 163.319C69.617 163.183 69.7201 163.017 69.7672 162.838C69.8143 162.659 69.8036 162.473 69.7362 162.298C69.6689 162.123 69.5471 161.966 69.3832 161.843C69.2193 161.719 69.0189 161.633 68.8019 161.593C67.698 161.401 66.5579 161.401 65.4539 161.593C65.238 161.634 65.0389 161.721 64.8764 161.845C64.7139 161.97 64.5937 162.127 64.5276 162.301C64.4615 162.476 64.4518 162.661 64.4996 162.84C64.5474 163.018 64.6509 163.183 64.7999 163.319L66.1859 164.61C66.3053 164.72 66.4517 164.809 66.6156 164.87C66.7796 164.931 66.9572 164.962 67.1369 164.962C67.3166 164.962 67.4943 164.931 67.6582 164.87C67.8221 164.809 67.9686 164.72 68.0879 164.61Z" fill="black"/>
<path d="M71.5859 167.177L73.6319 167.518C73.8508 167.555 74.0779 167.545 74.2904 167.487C74.5028 167.43 74.6933 167.327 74.8427 167.19C74.9921 167.053 75.0952 166.886 75.1417 166.706C75.1883 166.525 75.1766 166.338 75.1079 166.163C74.7513 165.288 74.1862 164.481 73.4459 163.789C73.2949 163.654 73.1037 163.553 72.8913 163.498C72.6789 163.443 72.4526 163.434 72.2349 163.473C72.0172 163.512 71.8157 163.597 71.6502 163.72C71.4848 163.843 71.3613 164 71.2919 164.174L70.6259 165.807C70.5688 165.949 70.5488 166.099 70.5672 166.247C70.5856 166.396 70.642 166.54 70.7327 166.669C70.8234 166.799 70.9463 166.911 71.0934 166.998C71.2404 167.086 71.4083 167.147 71.5859 167.177Z" fill="black"/>
<path d="M70.6259 170.979L71.2919 172.612C71.3613 172.786 71.4848 172.943 71.6502 173.066C71.8157 173.189 72.0172 173.274 72.2349 173.313C72.4526 173.352 72.6789 173.343 72.8913 173.288C73.1037 173.233 73.2949 173.132 73.4459 172.997C74.1862 172.305 74.7513 171.498 75.1079 170.623C75.1766 170.448 75.1883 170.261 75.1417 170.08C75.0952 169.9 74.9921 169.733 74.8427 169.596C74.6933 169.459 74.5028 169.356 74.2904 169.299C74.0779 169.241 73.8508 169.231 73.6319 169.268L71.5859 169.609C71.4083 169.639 71.2404 169.7 71.0934 169.788C70.9463 169.875 70.8234 169.987 70.7327 170.117C70.642 170.246 70.5856 170.39 70.5672 170.539C70.5488 170.687 70.5688 170.838 70.6259 170.979Z" fill="black"/>
<path d="M66.1683 172.192L64.8003 173.482C64.6513 173.619 64.5482 173.785 64.5015 173.964C64.4548 174.144 64.466 174.33 64.534 174.505C64.602 174.68 64.7245 174.837 64.8891 174.96C65.0538 175.084 65.2549 175.169 65.4723 175.209C66.5762 175.4 67.7163 175.4 68.8203 175.209C69.0372 175.169 69.2376 175.082 69.4016 174.959C69.5655 174.835 69.6872 174.678 69.7546 174.503C69.822 174.329 69.8327 174.142 69.7856 173.963C69.7385 173.784 69.6353 173.618 69.4863 173.482L68.1063 172.192C67.9869 172.076 67.8384 171.983 67.6711 171.919C67.5037 171.855 67.3216 171.822 67.1373 171.822C66.953 171.822 66.7708 171.855 66.6035 171.919C66.4362 171.983 66.2877 172.076 66.1683 172.192Z" fill="black"/>
<path d="M62.6638 169.61L60.6238 169.269C60.4028 169.23 60.1734 169.241 59.9589 169.299C59.7443 169.357 59.5522 169.461 59.4018 169.6C59.2515 169.739 59.1483 169.908 59.1027 170.091C59.057 170.273 59.0705 170.462 59.1418 170.639C59.5009 171.514 60.068 172.321 60.8098 173.013C60.9608 173.148 61.152 173.248 61.3644 173.303C61.5769 173.359 61.8031 173.367 62.0208 173.328C62.2385 173.289 62.44 173.204 62.6055 173.081C62.7709 172.958 62.8944 172.802 62.9638 172.627L63.6238 170.995C63.685 170.852 63.7081 170.7 63.6917 170.549C63.6752 170.399 63.6195 170.253 63.5284 170.121C63.4373 169.99 63.313 169.876 63.1638 169.788C63.0146 169.7 62.8441 169.639 62.6638 169.61Z" fill="black"/>
</g>
<g opacity="0.5">
<path d="M65.8915 167.914C66.2461 167.914 66.5335 167.677 66.5335 167.385C66.5335 167.092 66.2461 166.855 65.8915 166.855C65.5369 166.855 65.2495 167.092 65.2495 167.385C65.2495 167.677 65.5369 167.914 65.8915 167.914Z" fill="white"/>
<path d="M68.9993 167.385C68.9993 167.489 68.9617 167.592 68.8911 167.679C68.8206 167.766 68.7203 167.834 68.603 167.874C68.4857 167.914 68.3566 167.924 68.2321 167.904C68.1075 167.883 67.9932 167.833 67.9034 167.759C67.8136 167.685 67.7524 167.591 67.7277 167.488C67.7029 167.385 67.7156 167.279 67.7642 167.182C67.8128 167.085 67.8951 167.003 68.0007 166.945C68.1062 166.887 68.2304 166.855 68.3573 166.855C68.5276 166.855 68.6909 166.911 68.8113 167.01C68.9317 167.11 68.9993 167.244 68.9993 167.385Z" fill="white"/>
<path d="M66.5335 169.418C66.5335 169.523 66.4959 169.625 66.4253 169.712C66.3548 169.799 66.2545 169.867 66.1372 169.907C66.0199 169.947 65.8908 169.957 65.7663 169.937C65.6417 169.917 65.5273 169.866 65.4375 169.792C65.3478 169.718 65.2866 169.624 65.2618 169.521C65.2371 169.418 65.2498 169.312 65.2984 169.215C65.347 169.119 65.4293 169.036 65.5348 168.978C65.6404 168.92 65.7645 168.889 65.8915 168.889C66.0618 168.889 66.2251 168.944 66.3455 169.044C66.4659 169.143 66.5335 169.278 66.5335 169.418Z" fill="white"/>
<path d="M68.9993 169.418C68.9993 169.523 68.9617 169.625 68.8911 169.712C68.8206 169.799 68.7203 169.867 68.603 169.907C68.4857 169.947 68.3566 169.957 68.2321 169.937C68.1075 169.917 67.9932 169.866 67.9034 169.792C67.8136 169.718 67.7524 169.624 67.7277 169.521C67.7029 169.418 67.7156 169.312 67.7642 169.215C67.8128 169.119 67.8951 169.036 68.0007 168.978C68.1062 168.92 68.2304 168.889 68.3573 168.889C68.5276 168.889 68.6909 168.944 68.8113 169.044C68.9317 169.143 68.9993 169.278 68.9993 169.418Z" fill="white"/>
</g>
<path d="M189.444 179.651C196.983 179.651 203.094 174.613 203.094 168.399C203.094 162.184 196.983 157.146 189.444 157.146C181.905 157.146 175.794 162.184 175.794 168.399C175.794 174.613 181.905 179.651 189.444 179.651Z" fill="#263238"/>
<path opacity="0.5" d="M189.444 176.24C194.696 176.24 198.954 172.73 198.954 168.4C198.954 164.07 194.696 160.561 189.444 160.561C184.191 160.561 179.934 164.07 179.934 168.4C179.934 172.73 184.191 176.24 189.444 176.24Z" fill="white"/>
<g opacity="0.5">
<path d="M185.94 165.822L185.28 164.19C185.21 164.016 185.087 163.859 184.921 163.736C184.756 163.613 184.555 163.528 184.337 163.489C184.119 163.45 183.893 163.458 183.68 163.514C183.468 163.569 183.277 163.669 183.126 163.804C182.384 164.496 181.817 165.304 181.458 166.178C181.391 166.354 181.38 166.541 181.428 166.722C181.475 166.902 181.579 167.068 181.729 167.205C181.878 167.342 182.069 167.445 182.281 167.502C182.494 167.56 182.721 167.571 182.94 167.534L184.98 167.192C185.158 167.163 185.326 167.103 185.474 167.015C185.622 166.928 185.745 166.816 185.836 166.686C185.926 166.557 185.983 166.413 186.001 166.264C186.019 166.115 185.998 165.964 185.94 165.822Z" fill="black"/>
<path d="M190.404 164.61L191.784 163.319C191.933 163.183 192.036 163.017 192.083 162.838C192.131 162.659 192.12 162.473 192.052 162.298C191.985 162.123 191.863 161.966 191.699 161.843C191.535 161.719 191.335 161.633 191.118 161.593C190.014 161.401 188.874 161.401 187.77 161.593C187.553 161.632 187.352 161.718 187.187 161.841C187.022 161.965 186.9 162.122 186.832 162.296C186.764 162.471 186.753 162.657 186.799 162.837C186.846 163.016 186.949 163.183 187.098 163.319L188.484 164.61C188.604 164.723 188.751 164.814 188.917 164.876C189.082 164.938 189.262 164.97 189.444 164.97C189.626 164.97 189.806 164.938 189.972 164.876C190.137 164.814 190.285 164.723 190.404 164.61Z" fill="black"/>
<path d="M193.902 167.177L195.948 167.519C196.162 167.55 196.382 167.536 196.587 167.478C196.793 167.42 196.977 167.319 197.122 167.186C197.268 167.053 197.369 166.891 197.418 166.717C197.467 166.542 197.46 166.36 197.4 166.188C197.043 165.313 196.478 164.506 195.738 163.814C195.587 163.679 195.396 163.579 195.183 163.524C194.971 163.468 194.744 163.46 194.527 163.499C194.309 163.538 194.108 163.623 193.942 163.746C193.777 163.869 193.653 164.025 193.584 164.2L192.918 165.832C192.866 165.974 192.85 166.123 192.873 166.27C192.895 166.417 192.954 166.558 193.047 166.685C193.14 166.812 193.264 166.921 193.411 167.006C193.558 167.091 193.725 167.149 193.902 167.177Z" fill="black"/>
<path d="M192.942 170.98L193.608 172.612C193.677 172.787 193.801 172.943 193.966 173.066C194.132 173.189 194.333 173.275 194.551 173.314C194.769 173.353 194.995 173.344 195.207 173.289C195.42 173.233 195.611 173.133 195.762 172.998C196.492 172.309 197.048 171.507 197.4 170.639C197.469 170.464 197.48 170.276 197.434 170.096C197.387 169.916 197.284 169.749 197.135 169.611C196.985 169.474 196.795 169.372 196.582 169.314C196.37 169.257 196.143 169.246 195.924 169.284L193.878 169.625C193.704 169.658 193.541 169.72 193.398 169.807C193.256 169.895 193.137 170.006 193.049 170.133C192.961 170.26 192.906 170.402 192.887 170.547C192.869 170.693 192.887 170.841 192.942 170.98Z" fill="black"/>
<path d="M188.484 172.193L187.098 173.484C186.949 173.62 186.846 173.786 186.799 173.966C186.752 174.145 186.763 174.331 186.831 174.506C186.899 174.681 187.022 174.838 187.186 174.961C187.351 175.085 187.552 175.17 187.77 175.21C188.874 175.401 190.014 175.401 191.118 175.21C191.335 175.17 191.535 175.084 191.699 174.96C191.863 174.836 191.985 174.679 192.052 174.504C192.119 174.33 192.13 174.144 192.083 173.964C192.036 173.785 191.933 173.62 191.784 173.484L190.404 172.193C190.284 172.079 190.137 171.989 189.971 171.926C189.806 171.864 189.626 171.832 189.444 171.832C189.262 171.832 189.082 171.864 188.916 171.926C188.751 171.989 188.603 172.079 188.484 172.193Z" fill="black"/>
<path d="M184.98 169.611L182.94 169.27C182.721 169.233 182.494 169.243 182.281 169.301C182.069 169.359 181.878 169.461 181.729 169.598C181.579 169.735 181.475 169.901 181.428 170.082C181.38 170.262 181.391 170.449 181.458 170.625C181.817 171.5 182.384 172.307 183.126 172.999C183.277 173.134 183.468 173.234 183.68 173.289C183.893 173.345 184.119 173.353 184.337 173.314C184.555 173.275 184.756 173.19 184.921 173.067C185.087 172.944 185.21 172.788 185.28 172.613L185.94 170.981C185.998 170.839 186.019 170.689 186.001 170.54C185.983 170.391 185.926 170.247 185.836 170.117C185.745 169.987 185.622 169.875 185.474 169.788C185.326 169.701 185.158 169.64 184.98 169.611Z" fill="black"/>
</g>
<g opacity="0.5">
<path d="M188.85 167.385C188.85 167.489 188.812 167.592 188.742 167.679C188.671 167.766 188.571 167.834 188.454 167.874C188.336 167.914 188.207 167.924 188.083 167.904C187.958 167.883 187.844 167.833 187.754 167.759C187.664 167.685 187.603 167.591 187.578 167.488C187.553 167.385 187.566 167.279 187.615 167.182C187.663 167.085 187.746 167.003 187.851 166.945C187.957 166.887 188.081 166.855 188.208 166.855C188.378 166.855 188.541 166.911 188.662 167.01C188.782 167.11 188.85 167.244 188.85 167.385Z" fill="white"/>
<path d="M190.674 167.914C191.028 167.914 191.316 167.677 191.316 167.385C191.316 167.092 191.028 166.855 190.674 166.855C190.319 166.855 190.032 167.092 190.032 167.385C190.032 167.677 190.319 167.914 190.674 167.914Z" fill="white"/>
<path d="M188.85 169.418C188.85 169.523 188.812 169.625 188.742 169.712C188.671 169.799 188.571 169.867 188.454 169.907C188.336 169.947 188.207 169.957 188.083 169.937C187.958 169.917 187.844 169.866 187.754 169.792C187.664 169.718 187.603 169.624 187.578 169.521C187.553 169.418 187.566 169.312 187.615 169.215C187.663 169.119 187.746 169.036 187.851 168.978C187.957 168.92 188.081 168.889 188.208 168.889C188.378 168.889 188.541 168.944 188.662 169.044C188.782 169.143 188.85 169.278 188.85 169.418Z" fill="white"/>
<path d="M191.316 169.418C191.316 169.523 191.278 169.625 191.208 169.712C191.137 169.799 191.037 169.867 190.919 169.907C190.802 169.947 190.673 169.957 190.548 169.937C190.424 169.917 190.31 169.866 190.22 169.792C190.13 169.718 190.069 169.624 190.044 169.521C190.019 169.418 190.032 169.312 190.081 169.215C190.129 169.119 190.211 169.036 190.317 168.978C190.423 168.92 190.547 168.889 190.674 168.889C190.844 168.889 191.007 168.944 191.128 169.044C191.248 169.143 191.316 169.278 191.316 169.418Z" fill="white"/>
</g>
<path d="M102.306 118.423C102.771 118.072 103.049 117.583 103.08 117.064C103.112 116.545 102.894 116.036 102.474 115.648L77.826 134.31L77.106 134.567C77.154 134.617 77.19 134.666 77.244 134.716C77.6745 135.102 78.2735 135.331 78.9092 135.354C79.5448 135.376 80.1652 135.189 80.634 134.834L102.306 118.423Z" fill="#263238"/>
<path opacity="0.5" d="M49.53 157.147C49.4916 157.147 49.4537 157.14 49.4185 157.128C49.3834 157.115 49.3518 157.096 49.3258 157.073C49.2998 157.05 49.28 157.022 49.2677 156.993C49.2553 156.963 49.2506 156.931 49.254 156.899L50.4 147.284C50.4042 147.25 50.4176 147.218 50.439 147.189C50.4605 147.16 50.4896 147.135 50.5241 147.117C50.5586 147.098 50.5977 147.086 50.6385 147.082C50.6793 147.078 50.7208 147.081 50.76 147.091L51.804 147.378C52.4346 147.542 52.9685 147.894 53.3013 148.365C53.6341 148.836 53.7421 149.392 53.604 149.925L52.164 155.416C52.0362 155.911 51.7036 156.354 51.2232 156.67C50.7428 156.986 50.1443 157.154 49.53 157.147Z" fill="white"/>
<g opacity="0.2">
<path d="M56.0275 150.797C56.0251 150.699 56.0461 150.602 56.0891 150.512C56.1321 150.421 56.1964 150.338 56.2783 150.268C56.3603 150.197 56.4582 150.141 56.5665 150.102C56.6748 150.063 56.7913 150.042 56.9095 150.04L199.512 147.76C199.749 147.758 199.978 147.834 200.15 147.969C200.321 148.105 200.422 148.291 200.43 148.487C200.433 148.684 200.341 148.874 200.175 149.016C200.008 149.158 199.781 149.24 199.542 149.244L56.9455 151.524C56.8271 151.526 56.7093 151.51 56.5988 151.474C56.4883 151.439 56.3875 151.386 56.3021 151.319C56.2167 151.251 56.1484 151.17 56.1013 151.08C56.0541 150.991 56.0291 150.894 56.0275 150.797Z" fill="white"/>
</g>
<path d="M146.046 136.903L172.584 136.522C173.262 136.513 173.929 136.384 174.541 136.145C175.154 135.906 175.698 135.562 176.136 135.136C176.574 134.71 176.898 134.212 177.084 133.675C177.27 133.138 177.315 132.574 177.216 132.021L174.6 117.302C174.524 116.885 174.271 116.503 173.887 116.224C173.503 115.946 173.012 115.788 172.5 115.778C167.898 115.689 163.284 115.625 159.618 115.625C157.818 115.625 156.3 115.625 155.082 115.674C152.682 115.744 148.896 115.966 144.462 116.273C143.946 116.308 143.462 116.494 143.098 116.798C142.735 117.102 142.516 117.504 142.482 117.93L141.24 132.704C141.194 133.245 141.285 133.788 141.507 134.299C141.728 134.809 142.076 135.277 142.527 135.671C142.979 136.066 143.525 136.379 144.13 136.591C144.736 136.803 145.388 136.909 146.046 136.903Z" fill="#EBEBEB"/>
<path d="M199.296 133.46L190.896 117.237C190.739 116.93 190.479 116.667 190.146 116.479C189.813 116.29 189.421 116.184 189.018 116.174C187.548 116.134 185.676 116.08 183.564 116.03C183.247 116.022 182.931 116.071 182.639 116.174C182.347 116.277 182.086 116.431 181.875 116.627C181.664 116.822 181.507 117.053 181.417 117.304C181.326 117.555 181.303 117.819 181.35 118.078L184.02 132.916C184.197 133.857 184.78 134.714 185.662 135.329C186.544 135.944 187.665 136.276 188.82 136.265L197.004 136.151C197.546 136.154 198.074 136.011 198.507 135.743C198.941 135.475 199.256 135.097 199.404 134.667C199.522 134.265 199.484 133.843 199.296 133.46Z" fill="#F5F5F5"/>
<path d="M133.38 117.088C123.66 117.839 113.796 118.68 109.596 119.066C108.236 119.182 106.959 119.657 105.954 120.421L91.2358 131.565C90.6061 132.048 90.1687 132.677 89.9815 133.369C89.7942 134.061 89.8658 134.783 90.1868 135.441C90.5078 136.099 91.0631 136.661 91.7795 137.053C92.4959 137.446 93.3398 137.65 94.1998 137.639L129.87 137.144C131.062 137.128 132.203 136.743 133.068 136.066C133.932 135.389 134.457 134.469 134.538 133.489L135.738 119.002C135.762 118.743 135.717 118.483 135.606 118.239C135.496 117.996 135.322 117.776 135.098 117.593C134.873 117.411 134.603 117.271 134.307 117.184C134.01 117.097 133.694 117.064 133.38 117.088Z" fill="#EBEBEB"/>
<path d="M174.108 140.731L167.91 140.83C167.675 140.833 167.45 140.913 167.286 141.052C167.121 141.191 167.028 141.377 167.028 141.571C167.028 141.67 167.052 141.768 167.099 141.859C167.145 141.95 167.213 142.032 167.298 142.101C167.384 142.17 167.485 142.225 167.596 142.261C167.708 142.298 167.827 142.315 167.946 142.313L174.144 142.214C174.38 142.211 174.604 142.131 174.769 141.992C174.934 141.853 175.026 141.667 175.026 141.473C175.026 141.374 175.002 141.276 174.956 141.185C174.91 141.094 174.842 141.012 174.756 140.943C174.671 140.874 174.57 140.819 174.458 140.783C174.347 140.746 174.228 140.729 174.108 140.731Z" fill="#263238"/>
<path d="M130.626 142.18C130.626 142.081 130.602 141.983 130.556 141.892C130.509 141.801 130.441 141.719 130.356 141.65C130.27 141.581 130.169 141.526 130.058 141.49C129.947 141.453 129.828 141.436 129.708 141.438L123.51 141.537C123.274 141.54 123.05 141.62 122.885 141.759C122.72 141.898 122.628 142.084 122.628 142.278C122.628 142.377 122.652 142.475 122.698 142.566C122.744 142.657 122.812 142.739 122.898 142.808C122.983 142.878 123.085 142.932 123.196 142.968C123.307 143.005 123.426 143.022 123.546 143.02L129.744 142.921C129.98 142.919 130.205 142.839 130.37 142.7C130.536 142.561 130.628 142.374 130.626 142.18Z" fill="#263238"/>
<g opacity="0.2">
<path d="M51.4439 163.504C52.1048 162.343 52.9657 161.267 53.9999 160.309L46.4939 160.428C45.9871 160.434 45.49 160.313 45.0688 160.08C44.6476 159.848 44.3222 159.515 44.1359 159.127C43.951 159.793 43.9063 160.481 44.0039 161.16L44.4899 164.434C44.7203 165.986 45.6707 167.404 47.1419 168.391L47.4539 168.599C48.5336 169.325 49.8432 169.782 51.2279 169.914C50.9999 167.877 50.8199 164.751 51.4439 163.504Z" fill="black"/>
<path d="M172.584 171.016C172.398 168.983 172.272 166.179 172.854 165.007C173.82 163.058 176.868 160.174 179.712 158.295L80.4961 159.883C81.785 161.467 82.8367 163.174 83.6281 164.967C84.0361 166.026 83.9161 168.568 83.7841 170.245L172.584 171.016Z" fill="black"/>
<path d="M205.038 166.476C205.306 167.571 205.394 168.691 205.302 169.805C205.983 169.392 206.59 168.901 207.102 168.346L207.936 167.416C209.051 166.179 209.652 164.679 209.652 163.138V160.749C209.652 159.432 209.214 158.14 208.386 157.014L207.6 155.971C207.56 156.479 207.292 156.957 206.849 157.312C206.405 157.666 205.818 157.872 205.2 157.89L198.666 157.994C201.45 160.446 203.616 163.329 205.038 166.476Z" fill="black"/>
</g>
<g opacity="0.2">
<path d="M89.2256 164.092C89.2256 163.83 89.352 163.578 89.5771 163.393C89.8021 163.207 90.1073 163.103 90.4256 163.103L166.8 161.861C167.118 161.861 167.423 161.966 167.648 162.151C167.873 162.337 168 162.588 168 162.851C168 163.113 167.873 163.365 167.648 163.55C167.423 163.736 167.118 163.84 166.8 163.84L90.3896 165.061C90.0817 165.054 89.7892 164.949 89.5725 164.769C89.3558 164.588 89.2316 164.346 89.2256 164.092Z" fill="white"/>
</g>
<path opacity="0.6" d="M95.4298 128.371L91.2298 131.546C90.5907 132.028 90.1453 132.659 89.9529 133.355C89.7606 134.051 89.8305 134.779 90.1534 135.442C90.4762 136.104 91.0366 136.669 91.7597 137.062C92.4827 137.455 93.334 137.657 94.1997 137.64H95.4418L95.4298 128.371Z" fill="black"/>
<path d="M101.166 129.197H99.0478C98.5385 129.197 98.0502 129.364 97.6901 129.661C97.33 129.958 97.1278 130.36 97.1278 130.78V133.214L93.5998 133.777C93.3864 133.811 93.1939 133.905 93.0559 134.043C92.9178 134.181 92.8427 134.355 92.8438 134.534V135.222C92.8429 135.347 92.8794 135.471 92.95 135.582C93.0206 135.693 93.1232 135.788 93.2487 135.859C93.3743 135.93 93.519 135.974 93.6701 135.988C93.8213 136.002 93.9743 135.985 94.1158 135.939L97.4818 134.866C97.6955 135.129 98.0001 135.333 98.3563 135.452C98.7126 135.572 99.1039 135.6 99.4798 135.533L101.478 135.167C101.78 135.11 102.05 134.971 102.244 134.772C102.438 134.572 102.544 134.325 102.546 134.069V130.32C102.546 130.171 102.51 130.024 102.44 129.887C102.371 129.75 102.269 129.625 102.14 129.521C102.012 129.416 101.86 129.334 101.693 129.279C101.525 129.223 101.346 129.195 101.166 129.197Z" fill="#3D6498"/>
</svg>
