<svg width="22" height="17" viewBox="0 0 22 17" fill="none" xmlns="http://www.w3.org/2000/svg">
<path d="M7.48438 0.6875C6.76006 0.69038 6.06623 0.97939 5.55406 1.49156C5.04189 2.00373 4.75288 2.69756 4.75 3.42188C4.75 4.92344 5.98281 6.15625 7.48438 6.15625C8.98594 6.15625 10.2188 4.92344 10.2188 3.42188C10.2188 1.92031 8.98594 0.6875 7.48438 0.6875ZM14.5156 0.6875C13.7913 0.69038 13.0975 0.97939 12.5853 1.49156C12.0731 2.00373 11.7841 2.69756 11.7812 3.42188C11.7812 4.92344 13.0141 6.15625 14.5156 6.15625C16.0172 6.15625 17.25 4.92344 17.25 3.42188C17.25 1.92031 16.0172 0.6875 14.5156 0.6875ZM7.48438 2.25C8.14062 2.25 8.65625 2.76562 8.65625 3.42188C8.65625 4.07812 8.14062 4.59375 7.48438 4.59375C6.82812 4.59375 6.3125 4.07812 6.3125 3.42188C6.3125 2.76562 6.82812 2.25 7.48438 2.25ZM14.5156 2.25C15.1719 2.25 15.6875 2.76562 15.6875 3.42188C15.6875 4.07812 15.1719 4.59375 14.5156 4.59375C13.8594 4.59375 13.3438 4.07812 13.3438 3.42188C13.3438 2.76562 13.8594 2.25 14.5156 2.25ZM3.96875 5.375C2.25 5.375 0.84375 6.78125 0.84375 8.5C0.84375 9.36953 1.21641 10.1539 1.79609 10.7219C1.26451 11.0809 0.828694 11.5644 0.526559 12.1303C0.224424 12.6962 0.065119 13.3273 0.0625 13.9688H1.625C1.625 12.6656 2.66563 11.625 3.96875 11.625C5.27187 11.625 6.3125 12.6656 6.3125 13.9688H7.875C7.87238 13.3273 7.71308 12.6962 7.41094 12.1303C7.10881 11.5644 6.67299 11.0809 6.14141 10.7219C6.72109 10.1539 7.09375 9.37031 7.09375 8.5C7.09375 6.78125 5.6875 5.375 3.96875 5.375ZM7.875 13.9688C7.38672 14.6219 7.09375 15.443 7.09375 16.3125H8.65625C8.65625 15.0094 9.69687 13.9688 11 13.9688C12.3031 13.9688 13.3438 15.0094 13.3438 16.3125H14.9062C14.9051 15.4675 14.6311 14.6454 14.125 13.9688C13.8594 13.6148 13.5391 13.3125 13.1727 13.0656C13.7523 12.4977 14.125 11.7141 14.125 10.8438C14.125 9.125 12.7188 7.71875 11 7.71875C9.28125 7.71875 7.875 9.125 7.875 10.8438C7.875 11.7133 8.24766 12.4977 8.82734 13.0656C8.46123 13.3108 8.13924 13.6162 7.875 13.9688ZM14.125 13.9688H15.6875C15.6875 12.6656 16.7281 11.625 18.0312 11.625C19.3344 11.625 20.375 12.6656 20.375 13.9688H21.9375C21.9349 13.3273 21.7756 12.6962 21.4734 12.1303C21.1713 11.5644 20.7355 11.0809 20.2039 10.7219C20.7836 10.1539 21.1562 9.37031 21.1562 8.5C21.1562 6.78125 19.75 5.375 18.0312 5.375C16.3125 5.375 14.9062 6.78125 14.9062 8.5C14.9062 9.36953 15.2789 10.1539 15.8586 10.7219C15.327 11.0809 14.8912 11.5644 14.5891 12.1303C14.2869 12.6962 14.1276 13.3273 14.125 13.9688ZM3.96875 6.9375C4.84141 6.9375 5.53125 7.62734 5.53125 8.5C5.53125 9.37266 4.84141 10.0625 3.96875 10.0625C3.09609 10.0625 2.40625 9.37266 2.40625 8.5C2.40625 7.62734 3.09609 6.9375 3.96875 6.9375ZM18.0312 6.9375C18.9039 6.9375 19.5938 7.62734 19.5938 8.5C19.5938 9.37266 18.9039 10.0625 18.0312 10.0625C17.1586 10.0625 16.4688 9.37266 16.4688 8.5C16.4688 7.62734 17.1586 6.9375 18.0312 6.9375ZM11 9.28125C11.8727 9.28125 12.5625 9.97109 12.5625 10.8438C12.5625 11.7164 11.8727 12.4062 11 12.4062C10.1273 12.4062 9.4375 11.7164 9.4375 10.8438C9.4375 9.97109 10.1273 9.28125 11 9.28125Z" fill="white"/>
</svg>
