<svg width="20" height="20" viewBox="0 0 20 20" fill="none" xmlns="http://www.w3.org/2000/svg">
<path d="M8.75 15H11.25V9H8.75V15ZM10 7C10.3542 7 10.6513 6.904 10.8913 6.712C11.1313 6.52 11.2508 6.28267 11.25 6C11.2492 5.71733 11.1292 5.48 10.89 5.288C10.6508 5.096 10.3542 5 10 5C9.64583 5 9.34917 5.096 9.11 5.288C8.87083 5.48 8.75083 5.71733 8.75 6C8.74917 6.28267 8.86917 6.52033 9.11 6.713C9.35083 6.90567 9.6475 7.00133 10 7ZM10 20C7.10417 19.4167 4.71333 18.0873 2.8275 16.012C0.941667 13.9367 -0.000832781 11.6327 5.5212e-07 9.1V3L10 0L20 3V9.1C20 11.6333 19.0575 13.9377 17.1725 16.013C15.2875 18.0883 12.8967 19.4173 10 20ZM10 17.9C12.1667 17.35 13.9583 16.25 15.375 14.6C16.7917 12.95 17.5 11.1167 17.5 9.1V4.375L10 2.125L2.5 4.375V9.1C2.5 11.1167 3.20833 12.95 4.625 14.6C6.04167 16.25 7.83333 17.35 10 17.9Z" fill="white"/>
</svg>
