<svg width="20" height="21" viewBox="0 0 20 21" fill="none" xmlns="http://www.w3.org/2000/svg">
<path d="M8.75 15.5H11.25V9.5H8.75V15.5ZM10 7.5C10.3542 7.5 10.6513 7.404 10.8913 7.212C11.1313 7.02 11.2508 6.78267 11.25 6.5C11.2492 6.21733 11.1292 5.98 10.89 5.788C10.6508 5.596 10.3542 5.5 10 5.5C9.64583 5.5 9.34917 5.596 9.11 5.788C8.87083 5.98 8.75083 6.21733 8.75 6.5C8.74917 6.78267 8.86917 7.02033 9.11 7.213C9.35083 7.40567 9.6475 7.50133 10 7.5ZM10 20.5C7.10417 19.9167 4.71333 18.5873 2.8275 16.512C0.941667 14.4367 -0.000832781 12.1327 5.5212e-07 9.6V3.5L10 0.5L20 3.5V9.6C20 12.1333 19.0575 14.4377 17.1725 16.513C15.2875 18.5883 12.8967 19.9173 10 20.5ZM10 18.4C12.1667 17.85 13.9583 16.75 15.375 15.1C16.7917 13.45 17.5 11.6167 17.5 9.6V4.875L10 2.625L2.5 4.875V9.6C2.5 11.6167 3.20833 13.45 4.625 15.1C6.04167 16.75 7.83333 17.85 10 18.4Z" fill="#D9D9D9"/>
</svg>
