<svg width="20" height="21" viewBox="0 0 20 21" fill="none" xmlns="http://www.w3.org/2000/svg">
<path d="M7.86662 20.5L7.45253 17.2867C7.08724 17.1793 6.69259 17.0111 6.26859 16.7822C5.84382 16.5526 5.48273 16.3067 5.18531 16.0444L2.13338 17.3056L0 13.6944L2.63784 11.7622C2.60352 11.5622 2.57569 11.3556 2.55434 11.1422C2.53146 10.9289 2.52002 10.7219 2.52002 10.5211C2.52002 10.3344 2.53146 10.1381 2.55434 9.93222C2.57569 9.7263 2.60352 9.49444 2.63784 9.23667L0 7.30667L2.13338 3.73778L5.16243 4.97778C5.50408 4.70148 5.87394 4.45222 6.27202 4.23C6.66857 4.00778 7.05483 3.83593 7.43079 3.71444L7.86548 0.5H12.1345L12.5475 3.73556C12.986 3.88519 13.3734 4.05667 13.7097 4.25C14.046 4.44333 14.3926 4.68556 14.7495 4.97667L17.8666 3.73778L20 7.30556L17.2752 9.30111C17.3378 9.53074 17.3728 9.74148 17.3805 9.93333C17.3881 10.1252 17.3919 10.3141 17.3919 10.5C17.3919 10.6726 17.3843 10.8544 17.369 11.0456C17.3545 11.2374 17.321 11.4693 17.2684 11.7411L19.9497 13.6944L17.8163 17.3056L14.7495 16.0233C14.3934 16.3144 14.0349 16.5637 13.6742 16.7711C13.3135 16.9785 12.9379 17.1433 12.5475 17.2656L12.1345 20.5H7.86662ZM8.8561 19.3889H11.0936L11.5157 16.38C12.0922 16.2319 12.6108 16.0285 13.0714 15.77C13.5335 15.5115 14.0033 15.1574 14.4807 14.7078L17.3347 15.8889L18.4717 14L15.9677 12.1733C16.0631 11.857 16.1264 11.5659 16.1576 11.3C16.1881 11.0348 16.2034 10.7681 16.2034 10.5C16.2034 10.2185 16.1881 9.95185 16.1576 9.7C16.1271 9.44815 16.0638 9.17148 15.9677 8.87L18.5152 7L17.3782 5.11111L14.4589 6.3C14.1127 5.93037 13.6578 5.58407 13.0943 5.26111C12.5299 4.93889 11.9961 4.72519 11.4928 4.62L11.1439 1.61111H8.86296L8.50606 4.59889C7.92954 4.71815 7.39953 4.91074 6.91604 5.17667C6.43331 5.44185 5.95287 5.80667 5.47472 6.27111L2.62183 5.11111L1.48479 7L3.96591 8.8C3.87059 9.04889 3.80386 9.31926 3.76573 9.61111C3.7276 9.90296 3.70853 10.2067 3.70853 10.5222C3.70853 10.8037 3.7276 11.0833 3.76573 11.3611C3.80386 11.6389 3.86334 11.9093 3.94418 12.1722L1.48479 14L2.62183 15.8889L5.45298 14.7222C5.90216 15.1622 6.36811 15.5152 6.85083 15.7811C7.33432 16.047 7.87882 16.2541 8.48433 16.4022L8.8561 19.3889ZM9.96911 13.2778C10.7668 13.2778 11.4428 13.0085 11.9973 12.47C12.5517 11.9315 12.8289 11.2748 12.8289 10.5C12.8289 9.72519 12.5517 9.06852 11.9973 8.53C11.4428 7.99148 10.7668 7.72222 9.96911 7.72222C9.16686 7.72222 8.48967 7.99148 7.93754 8.53C7.38542 9.06852 7.10936 9.72519 7.10936 10.5C7.10936 11.2748 7.38542 11.9315 7.93754 12.47C8.48967 13.0085 9.16686 13.2778 9.96911 13.2778Z" fill="#D9D9D9"/>
</svg>
