<svg width="20" height="20" viewBox="0 0 20 20" fill="none" xmlns="http://www.w3.org/2000/svg">
<path d="M7.86662 20L7.45253 16.7867C7.08724 16.6793 6.69259 16.5111 6.26859 16.2822C5.84382 16.0526 5.48273 15.8067 5.18531 15.5444L2.13338 16.8056L0 13.1944L2.63784 11.2622C2.60352 11.0622 2.57569 10.8556 2.55434 10.6422C2.53146 10.4289 2.52002 10.2219 2.52002 10.0211C2.52002 9.83444 2.53146 9.63815 2.55434 9.43222C2.57569 9.2263 2.60352 8.99444 2.63784 8.73667L0 6.80667L2.13338 3.23778L5.16243 4.47778C5.50408 4.20148 5.87394 3.95222 6.27202 3.73C6.66857 3.50778 7.05483 3.33593 7.43079 3.21444L7.86548 0H12.1345L12.5475 3.23556C12.986 3.38519 13.3734 3.55667 13.7097 3.75C14.046 3.94333 14.3926 4.18556 14.7495 4.47667L17.8666 3.23778L20 6.80556L17.2752 8.80111C17.3378 9.03074 17.3728 9.24148 17.3805 9.43333C17.3881 9.62519 17.3919 9.81407 17.3919 10C17.3919 10.1726 17.3843 10.3544 17.369 10.5456C17.3545 10.7374 17.321 10.9693 17.2684 11.2411L19.9497 13.1944L17.8163 16.8056L14.7495 15.5233C14.3934 15.8144 14.0349 16.0637 13.6742 16.2711C13.3135 16.4785 12.9379 16.6433 12.5475 16.7656L12.1345 20H7.86662ZM8.8561 18.8889H11.0936L11.5157 15.88C12.0922 15.7319 12.6108 15.5285 13.0714 15.27C13.5335 15.0115 14.0033 14.6574 14.4807 14.2078L17.3347 15.3889L18.4717 13.5L15.9677 11.6733C16.0631 11.357 16.1264 11.0659 16.1576 10.8C16.1881 10.5348 16.2034 10.2681 16.2034 10C16.2034 9.71852 16.1881 9.45185 16.1576 9.2C16.1271 8.94815 16.0638 8.67148 15.9677 8.37L18.5152 6.5L17.3782 4.61111L14.4589 5.8C14.1127 5.43037 13.6578 5.08407 13.0943 4.76111C12.5299 4.43889 11.9961 4.22519 11.4928 4.12L11.1439 1.11111H8.86296L8.50606 4.09889C7.92954 4.21815 7.39953 4.41074 6.91604 4.67667C6.43331 4.94185 5.95287 5.30667 5.47472 5.77111L2.62183 4.61111L1.48479 6.5L3.96591 8.3C3.87059 8.54889 3.80386 8.81926 3.76573 9.11111C3.7276 9.40296 3.70853 9.70667 3.70853 10.0222C3.70853 10.3037 3.7276 10.5833 3.76573 10.8611C3.80386 11.1389 3.86334 11.4093 3.94418 11.6722L1.48479 13.5L2.62183 15.3889L5.45298 14.2222C5.90216 14.6622 6.36811 15.0152 6.85083 15.2811C7.33432 15.547 7.87882 15.7541 8.48433 15.9022L8.8561 18.8889ZM9.96911 12.7778C10.7668 12.7778 11.4428 12.5085 11.9973 11.97C12.5517 11.4315 12.8289 10.7748 12.8289 10C12.8289 9.22519 12.5517 8.56852 11.9973 8.03C11.4428 7.49148 10.7668 7.22222 9.96911 7.22222C9.16686 7.22222 8.48967 7.49148 7.93754 8.03C7.38542 8.56852 7.10936 9.22519 7.10936 10C7.10936 10.7748 7.38542 11.4315 7.93754 11.97C8.48967 12.5085 9.16686 12.7778 9.96911 12.7778Z" fill="white"/>
</svg>
