<svg width="20" height="21" viewBox="0 0 20 21" fill="none" xmlns="http://www.w3.org/2000/svg">
<path d="M11.7056 15.5218L7.28557 13.232C6.70851 13.818 5.95922 14.2256 5.1351 14.4018C4.31097 14.578 3.4501 14.5146 2.66438 14.22C1.87865 13.9253 1.2044 13.413 0.729245 12.7495C0.254089 12.0861 0 11.3022 0 10.4998C0 9.69735 0.254089 8.91348 0.729245 8.25004C1.2044 7.58659 1.87865 7.07424 2.66438 6.77958C3.4501 6.48492 4.31097 6.42156 5.1351 6.59775C5.95922 6.77393 6.70851 7.18152 7.28557 7.76753L11.7067 5.47774C11.4561 4.53379 11.5765 3.53542 12.0453 2.66977C12.5142 1.80412 13.2994 1.13063 14.2536 0.775548C15.2079 0.420464 16.2657 0.408166 17.2288 0.740959C18.1919 1.07375 18.9942 1.72879 19.4852 2.58328C19.9763 3.43776 20.1224 4.43304 19.8961 5.38253C19.6699 6.33202 19.0869 7.17054 18.2563 7.7409C17.4258 8.31126 16.4048 8.57431 15.3847 8.48073C14.3646 8.38715 13.4154 7.94337 12.7151 7.23258L8.29401 9.52236C8.46404 10.1636 8.46404 10.8349 8.29401 11.4762L12.7151 13.766C13.4158 13.0555 14.3651 12.6122 15.3853 12.5191C16.4054 12.426 17.4263 12.6895 18.2565 13.2602C19.0867 13.8309 19.6693 14.6697 19.8951 15.6192C20.1209 16.5688 19.9743 17.564 19.4829 18.4183C18.9915 19.2725 18.1889 19.9272 17.2257 20.2596C16.2624 20.592 15.2046 20.5793 14.2506 20.2239C13.2965 19.8684 12.5117 19.1946 12.0431 18.3288C11.5746 17.463 11.4546 16.4646 11.7056 15.5208M4.2108 12.4991C4.76915 12.4991 5.30464 12.2884 5.69946 11.9134C6.09428 11.5383 6.31609 11.0297 6.31609 10.4993C6.31609 9.96889 6.09428 9.46023 5.69946 9.08519C5.30464 8.71015 4.76915 8.49946 4.2108 8.49946C3.65244 8.49946 3.11695 8.71015 2.72213 9.08519C2.32731 9.46023 2.10551 9.96889 2.10551 10.4993C2.10551 11.0297 2.32731 11.5383 2.72213 11.9134C3.11695 12.2884 3.65244 12.4991 4.2108 12.4991ZM15.7899 6.49964C16.3482 6.49964 16.8837 6.28895 17.2786 5.91391C17.6734 5.53888 17.8952 5.03021 17.8952 4.49983C17.8952 3.96945 17.6734 3.46079 17.2786 3.08575C16.8837 2.71071 16.3482 2.50002 15.7899 2.50002C15.2315 2.50002 14.696 2.71071 14.3012 3.08575C13.9064 3.46079 13.6846 3.96945 13.6846 4.49983C13.6846 5.03021 13.9064 5.53888 14.3012 5.91391C14.696 6.28895 15.2315 6.49964 15.7899 6.49964ZM15.7899 18.4985C16.3482 18.4985 16.8837 18.2878 17.2786 17.9128C17.6734 17.5378 17.8952 17.0291 17.8952 16.4987C17.8952 15.9683 17.6734 15.4597 17.2786 15.0846C16.8837 14.7096 16.3482 14.4989 15.7899 14.4989C15.2315 14.4989 14.696 14.7096 14.3012 15.0846C13.9064 15.4597 13.6846 15.9683 13.6846 16.4987C13.6846 17.0291 13.9064 17.5378 14.3012 17.9128C14.696 18.2878 15.2315 18.4985 15.7899 18.4985Z" fill="#D9D9D9"/>
</svg>
