<svg width="20" height="20" viewBox="0 0 20 20" fill="none" xmlns="http://www.w3.org/2000/svg">
<path d="M11.7056 15.0218L7.28557 12.732C6.70851 13.318 5.95922 13.7256 5.1351 13.9018C4.31097 14.078 3.4501 14.0146 2.66438 13.72C1.87865 13.4253 1.2044 12.913 0.729245 12.2495C0.254089 11.5861 0 10.8022 0 9.99977C0 9.19735 0.254089 8.41348 0.729245 7.75004C1.2044 7.08659 1.87865 6.57424 2.66438 6.27958C3.4501 5.98492 4.31097 5.92156 5.1351 6.09775C5.95922 6.27393 6.70851 6.68152 7.28557 7.26753L11.7067 4.97774C11.4561 4.03379 11.5765 3.03542 12.0453 2.16977C12.5142 1.30412 13.2994 0.630633 14.2536 0.275548C15.2079 -0.0795358 16.2657 -0.0918342 17.2288 0.240959C18.1919 0.573752 18.9942 1.22879 19.4852 2.08328C19.9763 2.93776 20.1224 3.93304 19.8961 4.88253C19.6699 5.83202 19.0869 6.67054 18.2563 7.2409C17.4258 7.81126 16.4048 8.07431 15.3847 7.98073C14.3646 7.88715 13.4154 7.44337 12.7151 6.73258L8.29401 9.02236C8.46404 9.66362 8.46404 10.3349 8.29401 10.9762L12.7151 13.266C13.4158 12.5555 14.3651 12.1122 15.3853 12.0191C16.4054 11.926 17.4263 12.1895 18.2565 12.7602C19.0867 13.3309 19.6693 14.1697 19.8951 15.1192C20.1209 16.0688 19.9743 17.064 19.4829 17.9183C18.9915 18.7725 18.1889 19.4272 17.2257 19.7596C16.2624 20.092 15.2046 20.0793 14.2506 19.7239C13.2965 19.3684 12.5117 18.6946 12.0431 17.8288C11.5746 16.963 11.4546 15.9646 11.7056 15.0208M4.2108 11.9991C4.76915 11.9991 5.30464 11.7884 5.69946 11.4134C6.09428 11.0383 6.31609 10.5297 6.31609 9.99927C6.31609 9.46889 6.09428 8.96023 5.69946 8.58519C5.30464 8.21015 4.76915 7.99946 4.2108 7.99946C3.65244 7.99946 3.11695 8.21015 2.72213 8.58519C2.32731 8.96023 2.10551 9.46889 2.10551 9.99927C2.10551 10.5297 2.32731 11.0383 2.72213 11.4134C3.11695 11.7884 3.65244 11.9991 4.2108 11.9991ZM15.7899 5.99964C16.3482 5.99964 16.8837 5.78895 17.2786 5.41391C17.6734 5.03888 17.8952 4.53021 17.8952 3.99983C17.8952 3.46945 17.6734 2.96079 17.2786 2.58575C16.8837 2.21071 16.3482 2.00002 15.7899 2.00002C15.2315 2.00002 14.696 2.21071 14.3012 2.58575C13.9064 2.96079 13.6846 3.46945 13.6846 3.99983C13.6846 4.53021 13.9064 5.03888 14.3012 5.41391C14.696 5.78895 15.2315 5.99964 15.7899 5.99964ZM15.7899 17.9985C16.3482 17.9985 16.8837 17.7878 17.2786 17.4128C17.6734 17.0378 17.8952 16.5291 17.8952 15.9987C17.8952 15.4683 17.6734 14.9597 17.2786 14.5846C16.8837 14.2096 16.3482 13.9989 15.7899 13.9989C15.2315 13.9989 14.696 14.2096 14.3012 14.5846C13.9064 14.9597 13.6846 15.4683 13.6846 15.9987C13.6846 16.5291 13.9064 17.0378 14.3012 17.4128C14.696 17.7878 15.2315 17.9985 15.7899 17.9985Z" fill="black"/>
</svg>
