<svg width="52" height="52" viewBox="0 0 52 52" fill="none" xmlns="http://www.w3.org/2000/svg">
<path d="M5.53784 25.8463C5.53784 16.2014 5.53784 11.3768 8.53384 8.38076C11.5298 5.38477 16.3523 5.38477 25.9994 5.38477C35.6443 5.38477 40.4689 5.38477 43.4649 8.38076C46.4609 11.3768 46.4609 16.1992 46.4609 25.8463C46.4609 35.4912 46.4609 40.3158 43.4649 43.3118C40.4689 46.3078 35.6464 46.3078 25.9994 46.3078C16.3544 46.3078 11.5298 46.3078 8.53384 43.3118C5.53784 40.3158 5.53784 35.4933 5.53784 25.8463Z" stroke="white" stroke-width="1.5" stroke-linecap="round" stroke-linejoin="round"/>
<path d="M22.8462 23.7097C21.0801 23.4599 17.0524 23.8712 15.0795 27.522C13.1065 31.1728 15.0945 34.9721 16.3373 36.4152C17.5628 37.7657 21.4591 40.3223 25.5924 37.826C26.6176 37.2078 27.8948 36.7448 29.3422 31.9094L29.1742 12.8823C28.8942 14.978 31.2096 19.8931 37.7982 20.4746" stroke="white" stroke-width="1.5" stroke-linecap="round" stroke-linejoin="round"/>
</svg>
